<?xml version="1.0" encoding="UTF-8" standalone="no"?>
<!DOCTYPE svg PUBLIC "-//W3C//DTD SVG 1.1//EN" "http://www.w3.org/Graphics/SVG/1.1/DTD/svg11.dtd">
<svg width="100%" height="100%" viewBox="0 0 954 954" version="1.1" xmlns="http://www.w3.org/2000/svg" xmlns:xlink="http://www.w3.org/1999/xlink" xml:space="preserve" xmlns:serif="http://www.serif.com/" style="fill-rule:evenodd;clip-rule:evenodd;stroke-linejoin:round;stroke-miterlimit:2;">
    <g transform="matrix(1,0,0,1,0,-0.608334)">
        <g transform="matrix(4.16667,0,0,4.16667,0,0)">
            <g transform="matrix(0.24,0,0,0.24,0,0)">
                <path d="M794.63,954.167L158.925,954.167C71.517,954.167 0,882.651 0,795.238L0,159.538C0,72.125 71.517,0.608 158.925,0.608L794.63,0.608C882.042,0.608 953.559,72.125 953.559,159.538L953.559,795.238C953.559,882.65 882.043,954.167 794.63,954.167ZM514.642,764.08C550.476,764.08 581.326,760.026 607.346,751.926C633.367,743.821 654.559,732.917 671.23,719.205C687.901,705.492 700.055,689.134 707.846,670.126C715.634,651.271 719.53,630.859 719.53,609.046C719.53,571.03 710.651,539.555 693.042,514.313C675.438,489.23 649.417,473.025 615.138,465.7L615.138,464.142C640.692,453.238 660.321,437.655 674.034,417.713C687.746,397.771 694.601,373.775 694.601,345.729C694.601,299.454 679.488,265.021 649.417,242.117C619.346,219.213 579.3,207.838 529.442,207.838L259.109,207.838L259.109,764.08L514.642,764.08ZM528.663,510.73C558.268,510.73 581.017,517.896 597.534,532.855C614.046,547.813 622.15,568.846 622.15,596.425C622.15,624.471 613.892,646.284 597.534,661.555C581.325,676.98 558.267,684.613 528.663,684.613L356.492,684.613L356.492,510.73L528.663,510.73ZM515.421,287.146C541.909,287.146 562.163,292.909 576.184,304.284C590.209,315.659 597.221,335.446 597.221,363.492C597.221,388.421 589.43,407.429 573.85,420.83C558.267,434.23 538.792,440.771 515.421,440.771L356.492,440.771L356.492,287.146L515.421,287.146Z" style="fill:white;fill-rule:nonzero;"/>
            </g>
        </g>
    </g>
</svg>
