<?xml version="1.0" encoding="UTF-8" standalone="no"?>
<!DOCTYPE svg PUBLIC "-//W3C//DTD SVG 1.1//EN" "http://www.w3.org/Graphics/SVG/1.1/DTD/svg11.dtd">
<svg width="100%" height="100%" viewBox="0 0 381 416" version="1.1" xmlns="http://www.w3.org/2000/svg" xmlns:xlink="http://www.w3.org/1999/xlink" xml:space="preserve" xmlns:serif="http://www.serif.com/" style="fill-rule:evenodd;clip-rule:evenodd;stroke-linejoin:round;stroke-miterlimit:2;">
    <g transform="matrix(1.24551,0,0,1.24551,266.398,-131.65)">
        <path d="M-69.7,312.5C-98.8,312.5 -122.4,336.1 -122.4,365.2C-122.4,394.3 -98.8,417.9 -69.7,417.9C-40.6,417.9 -17,394.3 -17,365.2C-17,336.1 -40.6,312.5 -69.7,312.5Z" style="fill:white;fill-rule:nonzero;"/>
        <path d="M-4.1,302.4C11.5,318.7 21.1,340.8 21.1,365.2C21.1,396.1 5.7,423.3 -17.8,439.7C25.7,426.3 61.7,393.6 77.8,354C100.1,299.2 79.3,258 44.5,220.6C45.6,225.4 46.2,230.5 46.2,235.6C46.1,267.4 24.9,294.1 -4.1,302.4Z" style="fill:white;fill-rule:nonzero;"/>
        <path d="M-63.7,235.7C-63.7,258 -45.6,276 -23.4,276C-1.2,276 17,257.9 17,235.7C17,213.4 -1.1,195.4 -23.3,195.4C-45.5,195.4 -63.7,213.4 -63.7,235.7Z" style="fill:white;fill-rule:nonzero;"/>
        <path d="M-139.2,423.7C-152.5,407.9 -160.5,387.5 -160.5,365.2C-160.5,318.7 -125.6,280.4 -80.5,275.1C-88.2,263.9 -92.8,250.3 -92.8,235.7C-92.8,197.3 -61.7,166.3 -23.3,166.3C-20.1,166.3 -17,166.5 -14,166.9C-36.7,147.3 -59.4,127.4 -77.3,105.7C-68.2,200.9 -164,166.3 -199.5,254.1C-223.2,312.9 -201.8,385.6 -139.2,423.7Z" style="fill:white;fill-rule:nonzero;"/>
    </g>
</svg>
