<?xml version="1.0" encoding="UTF-8" standalone="no"?>
<!DOCTYPE svg PUBLIC "-//W3C//DTD SVG 1.1//EN" "http://www.w3.org/Graphics/SVG/1.1/DTD/svg11.dtd">
<svg width="100%" height="100%" viewBox="0 0 512 512" version="1.1" xmlns="http://www.w3.org/2000/svg" xmlns:xlink="http://www.w3.org/1999/xlink" xml:space="preserve" xmlns:serif="http://www.serif.com/" style="fill-rule:evenodd;clip-rule:evenodd;stroke-linejoin:round;stroke-miterlimit:2;">
    <g id="comp_x5F_144-gitlab" transform="matrix(1.11305,0,0,1.11305,-28.9403,-28.9403)">
        <path d="M120.548,48.424C117.763,40.428 106.444,40.428 103.569,48.424L52.813,205.457L171.396,205.457C171.306,205.457 120.548,48.424 120.548,48.424ZM26.849,284.512C24.513,291.7 27.12,299.695 33.228,304.277L255.931,469.573L52.722,205.457L26.849,284.512ZM171.306,205.457L256.021,469.572L340.736,205.457L171.306,205.457ZM485.189,284.512L459.317,205.457L256.021,469.572L478.724,304.276C484.92,299.694 487.436,291.699 485.189,284.512ZM408.471,48.424C405.686,40.428 394.367,40.428 391.492,48.424L340.644,205.457L459.228,205.457L408.471,48.424Z" style="fill:white;fill-rule:nonzero;"/>
    </g>
</svg>
