<?xml version="1.0" encoding="utf-8"?>
<!DOCTYPE svg PUBLIC "-//W3C//DTD SVG 1.1//EN" "http://www.w3.org/Graphics/SVG/1.1/DTD/svg11.dtd">
<svg width="100%" height="100%" viewBox="5 5 35 35" version="1.1" xmlns="http://www.w3.org/2000/svg" xmlns:xlink="http://www.w3.org/1999/xlink" xml:space="preserve" xmlns:serif="http://www.serif.com/"><path fill="#fff" d="M5 40V5h35v35H5zm8.56-12.63c0 .56-.03.69-.32 1.03L10.8 31.4v.4h6.97v-.4L15.3 28.4c-.29-.34-.34-.5-.34-1.03v-8.95l6.13 13.36h.71l5.26-13.36v10.64c0 .3 0 .35-.19.53l-1.85 1.8v.4h9.2v-.4l-1.83-1.8c-.18-.18-.2-.24-.2-.53V15.94c0-.3.02-.35.2-.53l1.82-1.8v-.4h-6.47l-4.62 11.55-5.2-11.54h-6.8v.4l2.15 2.63c.24.3.29.37.29.77v10.35z"></path></svg>
