<svg width="720" height="200" viewBox="0 0 720 200" fill="none" xmlns="http://www.w3.org/2000/svg">
<mask id="mask0_103_172" style="mask-type:alpha" maskUnits="userSpaceOnUse" x="0" y="0" width="700" height="200">
<path d="M0 0H700V150C700 177.614 677.614 200 650 200H0V0Z" fill="url(#paint0_linear_103_172)"/>
</mask>
<g mask="url(#mask0_103_172)">
<path d="M0 0H1000V200H0V0Z" fill="url(#paint1_linear_103_172)"/>
<g filter="url(#filter0_f_103_172)">
<ellipse cx="91" cy="219.5" rx="136" ry="117.5" fill="url(#paint2_linear_103_172)"/>
</g>
</g>
<g filter="url(#filter1_f_103_172)">
<path d="M571.492 146.919C571.161 151.222 571.359 161.118 574.798 166.281C579.096 172.735 579.757 175.452 579.757 178" stroke="#4A668F" stroke-width="1.62162" stroke-linecap="round"/>
<path d="M570.676 143.541C570.988 143 571.768 143 572.081 143.541L574.187 147.189C574.499 147.73 574.109 148.405 573.485 148.405H569.272C568.648 148.405 568.258 147.73 568.57 147.189L570.676 143.541Z" fill="#3F546B"/>
<path d="M623.676 82.8649C622.324 112.303 597.563 139.917 571.628 145.027C545.523 140.257 524.365 111.469 523 81.9994C523 50.1448 548.749 28 575.041 28C601.332 28 625.141 50.9515 623.676 82.8649Z" fill="url(#paint3_radial_103_172)"/>
<circle cx="548.811" cy="91.1081" r="8.51351" fill="#23456C" fill-opacity="0.5"/>
<circle cx="595.297" cy="91.1081" r="8.51351" fill="#23456C" fill-opacity="0.4"/>
<ellipse cx="587.73" cy="83.9459" rx="4.45946" ry="4.32432" fill="#222222"/>
<ellipse cx="556.378" cy="83.9459" rx="4.45946" ry="4.32432" fill="#222222"/>
<mask id="mask1_103_172" style="mask-type:alpha" maskUnits="userSpaceOnUse" x="564" y="89" width="16" height="12">
<path d="M564.591 90.5154C564.591 90.0676 564.954 89.7046 565.402 89.7046H579.121C579.569 89.7046 579.932 90.0676 579.932 90.5154V99.462C579.932 99.9098 579.569 100.273 579.121 100.273H565.402C564.954 100.273 564.591 99.9098 564.591 99.462V90.5154Z" fill="#C4C4C4"/>
</mask>
<g mask="url(#mask1_103_172)">
<path d="M579.932 90.2159C579.932 94.4521 576.498 97.8863 572.261 97.8863C568.025 97.8863 564.591 94.4521 564.591 90.2159C564.591 85.9796 568.025 82.5454 572.261 82.5454C576.498 82.5454 579.932 85.9796 579.932 90.2159Z" fill="#222222"/>
</g>
</g>
<path d="M90.2727 119H78.4432V84.0909H90.5114C93.9773 84.0909 96.9545 84.7898 99.4432 86.1875C101.943 87.5739 103.864 89.5682 105.205 92.1705C106.545 94.7727 107.216 97.8864 107.216 101.511C107.216 105.148 106.54 108.273 105.188 110.886C103.847 113.5 101.909 115.506 99.375 116.903C96.8523 118.301 93.8182 119 90.2727 119ZM84.767 113.528H89.9659C92.3977 113.528 94.4261 113.085 96.0511 112.199C97.6761 111.301 98.8977 109.966 99.7159 108.193C100.534 106.409 100.943 104.182 100.943 101.511C100.943 98.8409 100.534 96.625 99.7159 94.8636C98.8977 93.0909 97.6875 91.767 96.0852 90.892C94.4943 90.0057 92.517 89.5625 90.1534 89.5625H84.767V113.528ZM113.912 119V92.8182H120.082V119H113.912ZM117.014 89.1023C116.037 89.1023 115.196 88.7784 114.491 88.1307C113.787 87.4716 113.434 86.6818 113.434 85.7614C113.434 84.8295 113.787 84.0398 114.491 83.392C115.196 82.733 116.037 82.4034 117.014 82.4034C118.003 82.4034 118.844 82.733 119.537 83.392C120.241 84.0398 120.594 84.8295 120.594 85.7614C120.594 86.6818 120.241 87.4716 119.537 88.1307C118.844 88.7784 118.003 89.1023 117.014 89.1023ZM134.921 119.528C133.262 119.528 131.768 119.233 130.438 118.642C129.12 118.04 128.075 117.153 127.302 115.983C126.541 114.812 126.16 113.369 126.16 111.653C126.16 110.176 126.433 108.955 126.978 107.989C127.524 107.023 128.268 106.25 129.211 105.67C130.154 105.091 131.217 104.653 132.399 104.358C133.592 104.051 134.825 103.83 136.098 103.693C137.632 103.534 138.876 103.392 139.831 103.267C140.785 103.131 141.478 102.926 141.91 102.653C142.353 102.369 142.575 101.932 142.575 101.341V101.239C142.575 99.9545 142.194 98.9602 141.433 98.2557C140.671 97.5511 139.575 97.1989 138.143 97.1989C136.632 97.1989 135.433 97.5284 134.546 98.1875C133.671 98.8466 133.081 99.625 132.774 100.523L127.012 99.7045C127.467 98.1136 128.217 96.7841 129.262 95.7159C130.308 94.6364 131.586 93.8295 133.098 93.2955C134.609 92.75 136.279 92.4773 138.109 92.4773C139.37 92.4773 140.626 92.625 141.876 92.9205C143.126 93.2159 144.268 93.7045 145.302 94.3864C146.336 95.0568 147.166 95.9716 147.791 97.1307C148.427 98.2898 148.745 99.7386 148.745 101.477V119H142.813V115.403H142.609C142.234 116.131 141.706 116.812 141.024 117.449C140.353 118.074 139.507 118.58 138.484 118.966C137.473 119.341 136.285 119.528 134.921 119.528ZM136.524 114.994C137.762 114.994 138.836 114.75 139.745 114.261C140.654 113.761 141.353 113.102 141.842 112.284C142.342 111.466 142.592 110.574 142.592 109.608V106.523C142.399 106.682 142.069 106.83 141.603 106.966C141.149 107.102 140.637 107.222 140.069 107.324C139.501 107.426 138.938 107.517 138.382 107.597C137.825 107.676 137.342 107.744 136.933 107.801C136.012 107.926 135.188 108.131 134.461 108.415C133.734 108.699 133.16 109.097 132.74 109.608C132.319 110.108 132.109 110.756 132.109 111.551C132.109 112.688 132.524 113.545 133.353 114.125C134.183 114.705 135.24 114.994 136.524 114.994ZM162.08 84.0909V119H155.91V84.0909H162.08ZM180.806 119.511C178.249 119.511 176.033 118.949 174.158 117.824C172.283 116.699 170.829 115.125 169.795 113.102C168.772 111.08 168.26 108.716 168.26 106.011C168.26 103.307 168.772 100.937 169.795 98.9034C170.829 96.8693 172.283 95.2898 174.158 94.1648C176.033 93.0398 178.249 92.4773 180.806 92.4773C183.363 92.4773 185.579 93.0398 187.454 94.1648C189.329 95.2898 190.777 96.8693 191.8 98.9034C192.834 100.937 193.351 103.307 193.351 106.011C193.351 108.716 192.834 111.08 191.8 113.102C190.777 115.125 189.329 116.699 187.454 117.824C185.579 118.949 183.363 119.511 180.806 119.511ZM180.84 114.568C182.226 114.568 183.385 114.187 184.317 113.426C185.249 112.653 185.942 111.619 186.397 110.324C186.863 109.028 187.096 107.585 187.096 105.994C187.096 104.392 186.863 102.943 186.397 101.648C185.942 100.341 185.249 99.3011 184.317 98.5284C183.385 97.7557 182.226 97.3693 180.84 97.3693C179.42 97.3693 178.238 97.7557 177.295 98.5284C176.363 99.3011 175.664 100.341 175.198 101.648C174.743 102.943 174.516 104.392 174.516 105.994C174.516 107.585 174.743 109.028 175.198 110.324C175.664 111.619 176.363 112.653 177.295 113.426C178.238 114.187 179.42 114.568 180.84 114.568ZM210.935 129.364C208.719 129.364 206.816 129.063 205.225 128.46C203.634 127.869 202.355 127.074 201.389 126.074C200.424 125.074 199.753 123.966 199.378 122.75L204.935 121.403C205.185 121.915 205.549 122.42 206.026 122.92C206.503 123.432 207.145 123.852 207.952 124.182C208.77 124.523 209.799 124.693 211.037 124.693C212.787 124.693 214.236 124.267 215.384 123.415C216.532 122.574 217.105 121.188 217.105 119.256V114.295H216.799C216.48 114.932 216.014 115.585 215.401 116.256C214.799 116.926 213.997 117.489 212.997 117.943C212.009 118.398 210.764 118.625 209.264 118.625C207.253 118.625 205.429 118.153 203.793 117.21C202.168 116.256 200.872 114.835 199.907 112.949C198.952 111.051 198.475 108.676 198.475 105.824C198.475 102.949 198.952 100.523 199.907 98.5455C200.872 96.5568 202.174 95.0511 203.81 94.0284C205.446 92.9943 207.27 92.4773 209.282 92.4773C210.816 92.4773 212.077 92.7386 213.066 93.2614C214.066 93.7727 214.861 94.392 215.452 95.1193C216.043 95.8352 216.492 96.5114 216.799 97.1477H217.139V92.8182H223.225V119.426C223.225 121.665 222.691 123.517 221.622 124.983C220.554 126.449 219.094 127.545 217.242 128.273C215.389 129 213.287 129.364 210.935 129.364ZM210.986 113.784C212.293 113.784 213.407 113.466 214.327 112.83C215.247 112.193 215.946 111.278 216.424 110.085C216.901 108.892 217.139 107.46 217.139 105.79C217.139 104.142 216.901 102.699 216.424 101.46C215.958 100.222 215.264 99.2614 214.344 98.5795C213.435 97.8864 212.316 97.5398 210.986 97.5398C209.611 97.5398 208.463 97.8977 207.543 98.6136C206.622 99.3295 205.929 100.312 205.463 101.562C204.997 102.801 204.764 104.21 204.764 105.79C204.764 107.392 204.997 108.795 205.463 110C205.941 111.193 206.639 112.125 207.56 112.795C208.492 113.455 209.634 113.784 210.986 113.784Z" fill="url(#paint4_linear_103_172)"/>
<rect x="405.974" y="106.846" width="1.44181" height="125" transform="rotate(120 405.974 106.846)" fill="url(#paint5_linear_103_172)"/>
<rect x="390.108" y="70.8141" width="0.872331" height="75.6282" transform="rotate(120 390.108 70.8141)" fill="url(#paint6_linear_103_172)"/>
<rect x="415.971" y="151.883" width="0.872331" height="75.6282" transform="rotate(120 415.971 151.883)" fill="url(#paint7_linear_103_172)"/>
<g filter="url(#filter2_d_103_172)">
<rect x="481" y="44" width="199" height="94" rx="9" fill="url(#paint8_linear_103_172)"/>
<rect x="481.25" y="44.25" width="198.5" height="93.5" rx="8.75" stroke="white" stroke-width="0.5"/>
</g>
<path d="M498.173 70H494.822V60.5455H498.201C499.152 60.5455 499.971 60.7347 500.657 61.1133C501.343 61.4888 501.871 62.0289 502.24 62.7337C502.613 63.4384 502.799 64.2817 502.799 65.2635C502.799 66.2483 502.613 67.0947 502.24 67.8026C501.871 68.5104 501.34 69.0536 500.648 69.4322C499.958 69.8107 499.134 70 498.173 70ZM496.821 68.2873H498.09C498.681 68.2873 499.178 68.1826 499.581 67.9734C499.988 67.761 500.292 67.4332 500.495 66.9901C500.702 66.5438 500.805 65.9683 500.805 65.2635C500.805 64.5649 500.702 63.994 500.495 63.5508C500.292 63.1076 499.989 62.7814 499.586 62.5721C499.183 62.3628 498.686 62.2582 498.095 62.2582H496.821V68.2873ZM507.474 70.1385C506.745 70.1385 506.117 69.9908 505.591 69.6953C505.068 69.3968 504.664 68.9751 504.381 68.4304C504.098 67.8826 503.957 67.2347 503.957 66.4869C503.957 65.7575 504.098 65.1173 504.381 64.5664C504.664 64.0155 505.063 63.5862 505.577 63.2784C506.094 62.9706 506.7 62.8168 507.396 62.8168C507.864 62.8168 508.299 62.8922 508.702 63.043C509.109 63.1907 509.463 63.4138 509.764 63.7124C510.069 64.0109 510.306 64.3864 510.475 64.8388C510.644 65.2881 510.729 65.8144 510.729 66.4176V66.9577H504.741V65.739H508.878C508.878 65.4558 508.816 65.205 508.693 64.9865C508.57 64.768 508.399 64.5972 508.181 64.4741C507.965 64.3479 507.714 64.2848 507.428 64.2848C507.13 64.2848 506.865 64.354 506.634 64.4925C506.406 64.628 506.228 64.8111 506.099 65.0419C505.969 65.2696 505.903 65.5236 505.9 65.8036V66.9624C505.9 67.3132 505.965 67.6164 506.094 67.8718C506.226 68.1272 506.413 68.3242 506.653 68.4627C506.893 68.6012 507.177 68.6705 507.507 68.6705C507.725 68.6705 507.925 68.6397 508.107 68.5781C508.288 68.5166 508.444 68.4242 508.573 68.3011C508.702 68.178 508.801 68.0272 508.869 67.8487L510.687 67.9688C510.595 68.4058 510.406 68.7874 510.12 69.1136C509.836 69.4368 509.47 69.6892 509.021 69.8707C508.575 70.0492 508.059 70.1385 507.474 70.1385ZM513.979 60.5455V70H512.012V60.5455H513.979ZM518.786 70.1385C518.056 70.1385 517.429 69.9908 516.902 69.6953C516.379 69.3968 515.976 68.9751 515.693 68.4304C515.41 67.8826 515.268 67.2347 515.268 66.4869C515.268 65.7575 515.41 65.1173 515.693 64.5664C515.976 64.0155 516.375 63.5862 516.888 63.2784C517.406 62.9706 518.012 62.8168 518.707 62.8168C519.175 62.8168 519.611 62.8922 520.014 63.043C520.42 63.1907 520.774 63.4138 521.076 63.7124C521.38 64.0109 521.617 64.3864 521.787 64.8388C521.956 65.2881 522.04 65.8144 522.04 66.4176V66.9577H516.053V65.739H520.189C520.189 65.4558 520.128 65.205 520.005 64.9865C519.882 64.768 519.711 64.5972 519.492 64.4741C519.277 64.3479 519.026 64.2848 518.74 64.2848C518.441 64.2848 518.176 64.354 517.946 64.4925C517.718 64.628 517.539 64.8111 517.41 65.0419C517.281 65.2696 517.215 65.5236 517.212 65.8036V66.9624C517.212 67.3132 517.276 67.6164 517.406 67.8718C517.538 68.1272 517.724 68.3242 517.964 68.4627C518.204 68.6012 518.489 68.6705 518.818 68.6705C519.037 68.6705 519.237 68.6397 519.418 68.5781C519.6 68.5166 519.755 68.4242 519.885 68.3011C520.014 68.178 520.112 68.0272 520.18 67.8487L521.999 67.9688C521.907 68.4058 521.717 68.7874 521.431 69.1136C521.148 69.4368 520.782 69.6892 520.332 69.8707C519.886 70.0492 519.371 70.1385 518.786 70.1385ZM527.096 62.9091V64.3864H522.825V62.9091H527.096ZM523.795 61.2102H525.761V67.821C525.761 68.0026 525.789 68.1442 525.844 68.2457C525.9 68.3442 525.977 68.4135 526.075 68.4535C526.177 68.4935 526.294 68.5135 526.426 68.5135C526.518 68.5135 526.611 68.5058 526.703 68.4904C526.795 68.4719 526.866 68.4581 526.915 68.4489L527.225 69.9123C527.126 69.9431 526.988 69.9785 526.809 70.0185C526.631 70.0616 526.414 70.0877 526.158 70.0969C525.684 70.1154 525.269 70.0523 524.912 69.9077C524.558 69.763 524.283 69.5384 524.086 69.2337C523.889 68.929 523.792 68.5443 523.795 68.0795V61.2102ZM531.532 70.1385C530.803 70.1385 530.175 69.9908 529.648 69.6953C529.125 69.3968 528.722 68.9751 528.439 68.4304C528.156 67.8826 528.014 67.2347 528.014 66.4869C528.014 65.7575 528.156 65.1173 528.439 64.5664C528.722 64.0155 529.121 63.5862 529.635 63.2784C530.152 62.9706 530.758 62.8168 531.453 62.8168C531.921 62.8168 532.357 62.8922 532.76 63.043C533.166 63.1907 533.52 63.4138 533.822 63.7124C534.126 64.0109 534.363 64.3864 534.533 64.8388C534.702 65.2881 534.787 65.8144 534.787 66.4176V66.9577H528.799V65.739H532.935C532.935 65.4558 532.874 65.205 532.751 64.9865C532.628 64.768 532.457 64.5972 532.238 64.4741C532.023 64.3479 531.772 64.2848 531.486 64.2848C531.187 64.2848 530.923 64.354 530.692 64.4925C530.464 64.628 530.286 64.8111 530.156 65.0419C530.027 65.2696 529.961 65.5236 529.958 65.8036V66.9624C529.958 67.3132 530.022 67.6164 530.152 67.8718C530.284 68.1272 530.47 68.3242 530.71 68.4627C530.95 68.6012 531.235 68.6705 531.564 68.6705C531.783 68.6705 531.983 68.6397 532.164 68.5781C532.346 68.5166 532.501 68.4242 532.631 68.3011C532.76 68.178 532.858 68.0272 532.926 67.8487L534.745 67.9688C534.653 68.4058 534.463 68.7874 534.177 69.1136C533.894 69.4368 533.528 69.6892 533.078 69.8707C532.632 70.0492 532.117 70.1385 531.532 70.1385ZM539.116 70V60.5455H541.082V64.1001H541.142C541.228 63.9093 541.353 63.7154 541.516 63.5185C541.682 63.3184 541.898 63.1522 542.163 63.0199C542.43 62.8845 542.763 62.8168 543.16 62.8168C543.677 62.8168 544.154 62.9522 544.591 63.223C545.028 63.4908 545.377 63.8955 545.639 64.4371C545.9 64.9757 546.031 65.6513 546.031 66.4638C546.031 67.2547 545.903 67.9226 545.648 68.4673C545.396 69.009 545.051 69.4199 544.614 69.6999C544.18 69.9769 543.694 70.1154 543.155 70.1154C542.773 70.1154 542.449 70.0523 542.181 69.9261C541.916 69.8 541.699 69.6415 541.53 69.4506C541.361 69.2567 541.232 69.0613 541.142 68.8643H541.055V70H539.116ZM541.041 66.4545C541.041 66.8762 541.099 67.244 541.216 67.5579C541.333 67.8718 541.502 68.1165 541.724 68.2919C541.946 68.4643 542.215 68.5504 542.532 68.5504C542.852 68.5504 543.123 68.4627 543.344 68.2873C543.566 68.1088 543.734 67.8626 543.848 67.5487C543.965 67.2317 544.023 66.867 544.023 66.4545C544.023 66.0452 543.966 65.6851 543.852 65.3743C543.738 65.0634 543.571 64.8203 543.349 64.6449C543.127 64.4695 542.855 64.3817 542.532 64.3817C542.212 64.3817 541.941 64.4664 541.719 64.6357C541.501 64.8049 541.333 65.045 541.216 65.3558C541.099 65.6667 541.041 66.0329 541.041 66.4545ZM549.365 70.1339C548.913 70.1339 548.51 70.0554 548.156 69.8984C547.802 69.7384 547.522 69.503 547.316 69.1921C547.113 68.8782 547.011 68.4873 547.011 68.0195C547.011 67.6256 547.083 67.2947 547.228 67.027C547.373 66.7592 547.57 66.5438 547.819 66.3807C548.068 66.2176 548.351 66.0945 548.668 66.0114C548.988 65.9283 549.324 65.8698 549.675 65.8359C550.087 65.7929 550.42 65.7528 550.672 65.7159C550.924 65.6759 551.107 65.6174 551.221 65.5405C551.335 65.4635 551.392 65.3497 551.392 65.1989V65.1712C551.392 64.8788 551.3 64.6526 551.115 64.4925C550.933 64.3325 550.675 64.2525 550.339 64.2525C549.986 64.2525 549.704 64.331 549.495 64.4879C549.285 64.6418 549.147 64.8357 549.079 65.0696L547.26 64.9219C547.353 64.491 547.534 64.1186 547.805 63.8047C548.076 63.4877 548.425 63.2446 548.853 63.0753C549.284 62.9029 549.782 62.8168 550.349 62.8168C550.743 62.8168 551.12 62.8629 551.48 62.9553C551.843 63.0476 552.165 63.1907 552.445 63.3846C552.728 63.5785 552.951 63.8278 553.114 64.1325C553.277 64.4341 553.359 64.7957 553.359 65.2173V70H551.494V69.0167H551.438C551.324 69.2383 551.172 69.4337 550.981 69.603C550.79 69.7692 550.561 69.9 550.293 69.9954C550.026 70.0877 549.716 70.1339 549.365 70.1339ZM549.929 68.7766C550.218 68.7766 550.473 68.7197 550.695 68.6058C550.917 68.4889 551.09 68.3319 551.217 68.1349C551.343 67.938 551.406 67.7148 551.406 67.4656V66.7131C551.344 66.7531 551.26 66.79 551.152 66.8239C551.047 66.8546 550.929 66.8839 550.797 66.9116C550.664 66.9362 550.532 66.9593 550.4 66.9808C550.267 66.9993 550.147 67.0162 550.039 67.0316C549.809 67.0655 549.607 67.1193 549.435 67.1932C549.262 67.267 549.128 67.3671 549.033 67.4933C548.938 67.6164 548.89 67.7702 548.89 67.9549C548.89 68.2227 548.987 68.4273 549.181 68.5689C549.378 68.7074 549.627 68.7766 549.929 68.7766ZM556.851 60.5455V70H554.884V60.5455H556.851ZM560.393 60.5455V70H558.426V60.5455H560.393ZM565.172 70.1385C564.455 70.1385 563.835 69.9862 563.312 69.6815C562.792 69.3737 562.39 68.9459 562.107 68.3981C561.824 67.8472 561.682 67.2086 561.682 66.4822C561.682 65.7498 561.824 65.1096 562.107 64.5618C562.39 64.0109 562.792 63.5831 563.312 63.2784C563.835 62.9706 564.455 62.8168 565.172 62.8168C565.889 62.8168 566.508 62.9706 567.028 63.2784C567.551 63.5831 567.954 64.0109 568.238 64.5618C568.521 65.1096 568.662 65.7498 568.662 66.4822C568.662 67.2086 568.521 67.8472 568.238 68.3981C567.954 68.9459 567.551 69.3737 567.028 69.6815C566.508 69.9862 565.889 70.1385 565.172 70.1385ZM565.181 68.6151C565.508 68.6151 565.78 68.5227 565.999 68.3381C566.217 68.1503 566.382 67.8949 566.493 67.5717C566.606 67.2486 566.663 66.8808 566.663 66.4684C566.663 66.056 566.606 65.6882 566.493 65.3651C566.382 65.0419 566.217 64.7865 565.999 64.5987C565.78 64.411 565.508 64.3171 565.181 64.3171C564.852 64.3171 564.575 64.411 564.35 64.5987C564.129 64.7865 563.961 65.0419 563.847 65.3651C563.737 65.6882 563.681 66.056 563.681 66.4684C563.681 66.8808 563.737 67.2486 563.847 67.5717C563.961 67.8949 564.129 68.1503 564.35 68.3381C564.575 68.5227 564.852 68.6151 565.181 68.6151ZM573.145 70.1385C572.428 70.1385 571.808 69.9862 571.284 69.6815C570.764 69.3737 570.363 68.9459 570.08 68.3981C569.796 67.8472 569.655 67.2086 569.655 66.4822C569.655 65.7498 569.796 65.1096 570.08 64.5618C570.363 64.0109 570.764 63.5831 571.284 63.2784C571.808 62.9706 572.428 62.8168 573.145 62.8168C573.862 62.8168 574.481 62.9706 575.001 63.2784C575.524 63.5831 575.927 64.0109 576.21 64.5618C576.493 65.1096 576.635 65.7498 576.635 66.4822C576.635 67.2086 576.493 67.8472 576.21 68.3981C575.927 68.9459 575.524 69.3737 575.001 69.6815C574.481 69.9862 573.862 70.1385 573.145 70.1385ZM573.154 68.6151C573.48 68.6151 573.753 68.5227 573.971 68.3381C574.19 68.1503 574.354 67.8949 574.465 67.5717C574.579 67.2486 574.636 66.8808 574.636 66.4684C574.636 66.056 574.579 65.6882 574.465 65.3651C574.354 65.0419 574.19 64.7865 573.971 64.5987C573.753 64.411 573.48 64.3171 573.154 64.3171C572.825 64.3171 572.548 64.411 572.323 64.5987C572.102 64.7865 571.934 65.0419 571.82 65.3651C571.709 65.6882 571.654 66.056 571.654 66.4684C571.654 66.8808 571.709 67.2486 571.82 67.5717C571.934 67.8949 572.102 68.1503 572.323 68.3381C572.548 68.5227 572.825 68.6151 573.154 68.6151ZM579.88 65.9006V70H577.914V62.9091H579.788V64.1602H579.871C580.028 63.7478 580.291 63.4215 580.661 63.1815C581.03 62.9383 581.478 62.8168 582.004 62.8168C582.496 62.8168 582.926 62.9245 583.292 63.1399C583.658 63.3554 583.943 63.6631 584.146 64.0632C584.349 64.4602 584.451 64.9342 584.451 65.4851V70H582.484V65.8359C582.487 65.402 582.376 65.0634 582.152 64.8203C581.927 64.5741 581.618 64.451 581.224 64.451C580.959 64.451 580.725 64.5079 580.522 64.6218C580.322 64.7357 580.165 64.9019 580.051 65.1204C579.94 65.3358 579.883 65.5959 579.88 65.9006Z" fill="#D81E1E"/>
<rect x="623" y="109" width="44" height="19" rx="4" fill="#FF7474"/>
<g filter="url(#filter3_d_103_172)">
<path d="M632.331 122H629.753V114.727H632.353C633.084 114.727 633.714 114.873 634.242 115.164C634.77 115.453 635.176 115.868 635.46 116.411C635.746 116.953 635.89 117.601 635.89 118.357C635.89 119.114 635.746 119.765 635.46 120.31C635.176 120.854 634.767 121.272 634.235 121.563C633.704 121.854 633.07 122 632.331 122ZM631.291 120.683H632.267C632.722 120.683 633.104 120.602 633.414 120.441C633.727 120.278 633.961 120.026 634.118 119.685C634.276 119.341 634.355 118.899 634.355 118.357C634.355 117.819 634.276 117.38 634.118 117.039C633.961 116.698 633.728 116.447 633.418 116.286C633.108 116.125 632.725 116.045 632.271 116.045H631.291V120.683ZM639.486 122.107C638.925 122.107 638.442 121.993 638.037 121.766C637.635 121.536 637.325 121.212 637.107 120.793C636.889 120.371 636.78 119.873 636.78 119.298C636.78 118.737 636.889 118.244 637.107 117.82C637.325 117.397 637.631 117.066 638.026 116.83C638.424 116.593 638.891 116.474 639.426 116.474C639.785 116.474 640.12 116.532 640.431 116.648C640.743 116.762 641.015 116.934 641.247 117.163C641.482 117.393 641.664 117.682 641.794 118.03C641.924 118.375 641.99 118.78 641.99 119.244V119.66H637.384V118.722H640.566C640.566 118.504 640.518 118.312 640.423 118.143C640.329 117.975 640.197 117.844 640.029 117.749C639.864 117.652 639.671 117.604 639.45 117.604C639.221 117.604 639.017 117.657 638.84 117.763C638.664 117.868 638.527 118.009 638.428 118.186C638.328 118.361 638.277 118.557 638.275 118.772V119.663C638.275 119.933 638.325 120.166 638.424 120.363C638.526 120.559 638.669 120.711 638.854 120.817C639.039 120.924 639.258 120.977 639.511 120.977C639.679 120.977 639.833 120.954 639.972 120.906C640.112 120.859 640.232 120.788 640.331 120.693C640.431 120.598 640.506 120.482 640.558 120.345L641.958 120.438C641.887 120.774 641.741 121.067 641.521 121.318C641.303 121.567 641.021 121.761 640.676 121.901C640.332 122.038 639.936 122.107 639.486 122.107ZM644.49 114.727V122H642.977V114.727H644.49ZM648.187 122.107C647.626 122.107 647.143 121.993 646.738 121.766C646.336 121.536 646.026 121.212 645.808 120.793C645.59 120.371 645.481 119.873 645.481 119.298C645.481 118.737 645.59 118.244 645.808 117.82C646.026 117.397 646.332 117.066 646.728 116.83C647.125 116.593 647.592 116.474 648.127 116.474C648.487 116.474 648.822 116.532 649.132 116.648C649.444 116.762 649.717 116.934 649.949 117.163C650.183 117.393 650.365 117.682 650.495 118.03C650.626 118.375 650.691 118.78 650.691 119.244V119.66H646.085V118.722H649.267C649.267 118.504 649.219 118.312 649.125 118.143C649.03 117.975 648.899 117.844 648.73 117.749C648.565 117.652 648.372 117.604 648.152 117.604C647.922 117.604 647.718 117.657 647.541 117.763C647.366 117.868 647.228 118.009 647.129 118.186C647.029 118.361 646.979 118.557 646.976 118.772V119.663C646.976 119.933 647.026 120.166 647.125 120.363C647.227 120.559 647.37 120.711 647.555 120.817C647.74 120.924 647.959 120.977 648.212 120.977C648.38 120.977 648.534 120.954 648.674 120.906C648.813 120.859 648.933 120.788 649.032 120.693C649.132 120.598 649.208 120.482 649.26 120.345L650.659 120.438C650.588 120.774 650.442 121.067 650.222 121.318C650.004 121.567 649.722 121.761 649.377 121.901C649.033 122.038 648.637 122.107 648.187 122.107ZM654.579 116.545V117.682H651.294V116.545H654.579ZM652.04 115.239H653.553V120.324C653.553 120.464 653.574 120.572 653.617 120.651C653.659 120.726 653.719 120.78 653.794 120.81C653.873 120.841 653.962 120.857 654.064 120.857C654.135 120.857 654.206 120.851 654.277 120.839C654.348 120.825 654.403 120.814 654.441 120.807L654.679 121.933C654.603 121.956 654.496 121.983 654.359 122.014C654.222 122.047 654.055 122.067 653.858 122.075C653.494 122.089 653.174 122.04 652.9 121.929C652.627 121.818 652.415 121.645 652.264 121.411C652.112 121.176 652.038 120.88 652.04 120.523V115.239ZM657.992 122.107C657.431 122.107 656.948 121.993 656.543 121.766C656.141 121.536 655.83 121.212 655.613 120.793C655.395 120.371 655.286 119.873 655.286 119.298C655.286 118.737 655.395 118.244 655.613 117.82C655.83 117.397 656.137 117.066 656.532 116.83C656.93 116.593 657.396 116.474 657.931 116.474C658.291 116.474 658.626 116.532 658.936 116.648C659.249 116.762 659.521 116.934 659.753 117.163C659.988 117.393 660.17 117.682 660.3 118.03C660.43 118.375 660.495 118.78 660.495 119.244V119.66H655.89V118.722H659.071C659.071 118.504 659.024 118.312 658.929 118.143C658.835 117.975 658.703 117.844 658.535 117.749C658.369 117.652 658.176 117.604 657.956 117.604C657.727 117.604 657.523 117.657 657.346 117.763C657.17 117.868 657.033 118.009 656.934 118.186C656.834 118.361 656.783 118.557 656.781 118.772V119.663C656.781 119.933 656.831 120.166 656.93 120.363C657.032 120.559 657.175 120.711 657.36 120.817C657.544 120.924 657.763 120.977 658.017 120.977C658.185 120.977 658.339 120.954 658.478 120.906C658.618 120.859 658.738 120.788 658.837 120.693C658.936 120.598 659.012 120.482 659.064 120.345L660.463 120.438C660.392 120.774 660.247 121.067 660.027 121.318C659.809 121.567 659.527 121.761 659.181 121.901C658.838 122.038 658.442 122.107 657.992 122.107Z" fill="white"/>
</g>
<rect x="574" y="109" width="44" height="19" rx="4" fill="#B4AAAA"/>
<g filter="url(#filter4_d_103_172)">
<path d="M585.993 117.273H584.438C584.41 117.072 584.352 116.893 584.264 116.737C584.176 116.579 584.064 116.444 583.927 116.332C583.789 116.221 583.631 116.136 583.451 116.077C583.273 116.018 583.08 115.988 582.872 115.988C582.495 115.988 582.168 116.081 581.888 116.268C581.609 116.453 581.392 116.723 581.238 117.078C581.084 117.431 581.008 117.859 581.008 118.364C581.008 118.882 581.084 119.318 581.238 119.67C581.395 120.023 581.612 120.29 581.892 120.469C582.171 120.649 582.494 120.739 582.861 120.739C583.067 120.739 583.258 120.712 583.433 120.658C583.611 120.603 583.768 120.524 583.905 120.42C584.043 120.313 584.156 120.184 584.246 120.033C584.339 119.881 584.402 119.708 584.438 119.514L585.993 119.521C585.953 119.855 585.852 120.177 585.691 120.487C585.533 120.795 585.319 121.071 585.049 121.315C584.781 121.556 584.462 121.748 584.09 121.89C583.721 122.03 583.303 122.099 582.836 122.099C582.188 122.099 581.608 121.953 581.096 121.659C580.587 121.366 580.185 120.941 579.889 120.384C579.595 119.828 579.449 119.154 579.449 118.364C579.449 117.571 579.598 116.896 579.896 116.339C580.194 115.783 580.599 115.359 581.111 115.068C581.622 114.775 582.197 114.628 582.836 114.628C583.258 114.628 583.648 114.687 584.008 114.805C584.37 114.924 584.691 115.097 584.971 115.324C585.25 115.549 585.477 115.825 585.652 116.151C585.83 116.478 585.944 116.852 585.993 117.273ZM588.623 122.103C588.275 122.103 587.965 122.043 587.693 121.922C587.42 121.799 587.205 121.618 587.046 121.379C586.89 121.137 586.812 120.836 586.812 120.477C586.812 120.174 586.868 119.919 586.979 119.713C587.09 119.507 587.242 119.341 587.433 119.216C587.625 119.09 587.843 118.996 588.087 118.932C588.333 118.868 588.591 118.823 588.861 118.797C589.178 118.764 589.434 118.733 589.628 118.705C589.822 118.674 589.963 118.629 590.051 118.57C590.138 118.51 590.182 118.423 590.182 118.307V118.286C590.182 118.061 590.111 117.887 589.969 117.763C589.829 117.64 589.63 117.579 589.372 117.579C589.1 117.579 588.883 117.639 588.722 117.76C588.561 117.878 588.455 118.027 588.403 118.207L587.004 118.094C587.075 117.762 587.214 117.476 587.423 117.234C587.631 116.991 587.9 116.804 588.229 116.673C588.56 116.541 588.944 116.474 589.379 116.474C589.682 116.474 589.972 116.51 590.249 116.581C590.529 116.652 590.776 116.762 590.992 116.911C591.209 117.06 591.381 117.252 591.506 117.487C591.632 117.719 591.695 117.997 591.695 118.321V122H590.26V121.244H590.217C590.13 121.414 590.013 121.564 589.866 121.695C589.719 121.822 589.543 121.923 589.337 121.996C589.131 122.067 588.893 122.103 588.623 122.103ZM589.056 121.059C589.279 121.059 589.475 121.015 589.646 120.928C589.816 120.838 589.95 120.717 590.047 120.565C590.144 120.414 590.193 120.242 590.193 120.05V119.472C590.145 119.502 590.08 119.531 589.997 119.557C589.917 119.58 589.826 119.603 589.724 119.624C589.622 119.643 589.52 119.661 589.418 119.678C589.317 119.692 589.224 119.705 589.141 119.717C588.964 119.743 588.809 119.784 588.676 119.841C588.544 119.898 588.441 119.975 588.367 120.072C588.294 120.166 588.257 120.285 588.257 120.427C588.257 120.633 588.332 120.79 588.481 120.899C588.632 121.006 588.824 121.059 589.056 121.059ZM594.381 118.847V122H592.868V116.545H594.31V117.508H594.374C594.495 117.191 594.697 116.94 594.981 116.755C595.265 116.568 595.61 116.474 596.015 116.474C596.393 116.474 596.724 116.557 597.005 116.723C597.287 116.889 597.506 117.125 597.662 117.433C597.819 117.739 597.897 118.103 597.897 118.527V122H596.384V118.797C596.386 118.463 596.301 118.203 596.128 118.016C595.955 117.826 595.718 117.732 595.415 117.732C595.211 117.732 595.031 117.775 594.875 117.863C594.721 117.951 594.6 118.078 594.513 118.246C594.427 118.412 594.383 118.612 594.381 118.847ZM601.554 122.107C600.995 122.107 600.514 121.988 600.112 121.751C599.712 121.512 599.404 121.181 599.188 120.757C598.975 120.333 598.869 119.846 598.869 119.294C598.869 118.735 598.977 118.245 599.192 117.824C599.41 117.4 599.719 117.07 600.119 116.833C600.519 116.594 600.995 116.474 601.546 116.474C602.022 116.474 602.439 116.561 602.796 116.734C603.154 116.906 603.437 117.149 603.645 117.462C603.853 117.774 603.968 118.141 603.99 118.562H602.562C602.522 118.29 602.415 118.071 602.242 117.906C602.072 117.737 601.848 117.653 601.571 117.653C601.337 117.653 601.132 117.717 600.957 117.845C600.784 117.971 600.649 118.154 600.552 118.396C600.455 118.637 600.407 118.929 600.407 119.273C600.407 119.621 600.454 119.917 600.549 120.161C600.646 120.404 600.782 120.59 600.957 120.718C601.132 120.846 601.337 120.91 601.571 120.91C601.744 120.91 601.899 120.874 602.036 120.803C602.176 120.732 602.291 120.629 602.381 120.494C602.473 120.357 602.534 120.192 602.562 120.001H603.99C603.966 120.417 603.852 120.784 603.649 121.102C603.447 121.416 603.169 121.663 602.814 121.84C602.459 122.018 602.039 122.107 601.554 122.107ZM607.444 122.107C606.883 122.107 606.4 121.993 605.995 121.766C605.593 121.536 605.283 121.212 605.065 120.793C604.847 120.371 604.738 119.873 604.738 119.298C604.738 118.737 604.847 118.244 605.065 117.82C605.283 117.397 605.589 117.066 605.984 116.83C606.382 116.593 606.849 116.474 607.384 116.474C607.743 116.474 608.078 116.532 608.389 116.648C608.701 116.762 608.973 116.934 609.205 117.163C609.44 117.393 609.622 117.682 609.752 118.03C609.882 118.375 609.948 118.78 609.948 119.244V119.66H605.342V118.722H608.524C608.524 118.504 608.476 118.312 608.381 118.143C608.287 117.975 608.155 117.844 607.987 117.749C607.822 117.652 607.629 117.604 607.408 117.604C607.179 117.604 606.975 117.657 606.798 117.763C606.622 117.868 606.485 118.009 606.386 118.186C606.286 118.361 606.235 118.557 606.233 118.772V119.663C606.233 119.933 606.283 120.166 606.382 120.363C606.484 120.559 606.627 120.711 606.812 120.817C606.997 120.924 607.216 120.977 607.469 120.977C607.637 120.977 607.791 120.954 607.93 120.906C608.07 120.859 608.19 120.788 608.289 120.693C608.389 120.598 608.464 120.482 608.516 120.345L609.916 120.438C609.845 120.774 609.699 121.067 609.479 121.318C609.261 121.567 608.979 121.761 608.634 121.901C608.29 122.038 607.894 122.107 607.444 122.107ZM612.448 114.727V122H610.935V114.727H612.448Z" fill="white"/>
</g>
<path d="M494.528 84.4062V83.2727H501.283V84.4062H498.56V92H497.247V84.4062H494.528ZM503.947 88.1136V92H502.673V83.2727H503.93V86.5199H504.011C504.164 86.1676 504.399 85.8878 504.714 85.6804C505.029 85.473 505.441 85.3693 505.95 85.3693C506.399 85.3693 506.791 85.4616 507.126 85.6463C507.464 85.831 507.725 86.1065 507.91 86.473C508.098 86.8366 508.191 87.2912 508.191 87.8366V92H506.917V87.9901C506.917 87.5099 506.794 87.1378 506.547 86.8736C506.299 86.6065 505.956 86.473 505.515 86.473C505.214 86.473 504.944 86.5369 504.706 86.6648C504.47 86.7926 504.284 86.9801 504.147 87.2273C504.014 87.4716 503.947 87.767 503.947 88.1136ZM509.892 92V85.4545H511.166V92H509.892ZM510.535 84.4446C510.314 84.4446 510.123 84.3707 509.964 84.223C509.808 84.0724 509.73 83.8935 509.73 83.6861C509.73 83.4759 509.808 83.2969 509.964 83.1491C510.123 82.9986 510.314 82.9233 510.535 82.9233C510.757 82.9233 510.946 82.9986 511.102 83.1491C511.261 83.2969 511.341 83.4759 511.341 83.6861C511.341 83.8935 511.261 84.0724 511.102 84.223C510.946 84.3707 510.757 84.4446 510.535 84.4446ZM517.785 87.0526L516.63 87.2571C516.582 87.1094 516.505 86.9687 516.4 86.8352C516.298 86.7017 516.158 86.5923 515.982 86.5071C515.806 86.4219 515.586 86.3793 515.322 86.3793C514.961 86.3793 514.66 86.4602 514.418 86.6222C514.177 86.7812 514.056 86.9872 514.056 87.2401C514.056 87.4588 514.137 87.6349 514.299 87.7685C514.461 87.902 514.722 88.0114 515.083 88.0966L516.123 88.3352C516.725 88.4744 517.174 88.6889 517.469 88.9787C517.765 89.2685 517.913 89.6449 517.913 90.108C517.913 90.5 517.799 90.8494 517.572 91.1562C517.347 91.4602 517.033 91.6989 516.63 91.8722C516.229 92.0455 515.765 92.1321 515.237 92.1321C514.504 92.1321 513.906 91.9759 513.442 91.6634C512.979 91.348 512.695 90.9006 512.59 90.321L513.822 90.1335C513.898 90.4545 514.056 90.6974 514.295 90.8622C514.533 91.0241 514.844 91.1051 515.228 91.1051C515.646 91.1051 515.979 91.0185 516.229 90.8452C516.479 90.669 516.604 90.4545 516.604 90.2017C516.604 89.9972 516.528 89.8253 516.374 89.6861C516.224 89.5469 515.992 89.4418 515.68 89.3707L514.572 89.1278C513.961 88.9886 513.509 88.767 513.217 88.4631C512.927 88.1591 512.782 87.7741 512.782 87.3082C512.782 86.9219 512.89 86.5838 513.106 86.294C513.322 86.0043 513.62 85.7784 514.001 85.6165C514.381 85.4517 514.817 85.3693 515.309 85.3693C516.016 85.3693 516.573 85.5227 516.979 85.8295C517.386 86.1335 517.654 86.5412 517.785 87.0526ZM524.394 92.1449C523.979 92.1449 523.604 92.0682 523.269 91.9148C522.934 91.7585 522.668 91.5327 522.472 91.2372C522.279 90.9418 522.183 90.5795 522.183 90.1506C522.183 89.7812 522.254 89.4773 522.396 89.2386C522.538 89 522.729 88.8111 522.971 88.6719C523.212 88.5327 523.482 88.4276 523.781 88.3565C524.079 88.2855 524.383 88.2315 524.692 88.1946C525.085 88.1491 525.403 88.1122 525.647 88.0838C525.891 88.0526 526.069 88.0028 526.18 87.9347C526.29 87.8665 526.346 87.7557 526.346 87.6023V87.5724C526.346 87.2003 526.241 86.9119 526.031 86.7074C525.823 86.5028 525.513 86.4006 525.102 86.4006C524.673 86.4006 524.335 86.4957 524.087 86.6861C523.843 86.8736 523.674 87.0824 523.58 87.3125L522.383 87.0398C522.525 86.642 522.732 86.321 523.005 86.0767C523.281 85.8295 523.597 85.6506 523.955 85.5398C524.313 85.4261 524.69 85.3693 525.085 85.3693C525.346 85.3693 525.623 85.4006 525.915 85.4631C526.211 85.5227 526.487 85.6335 526.742 85.7955C527.001 85.9574 527.212 86.1889 527.377 86.4901C527.542 86.7884 527.624 87.1761 527.624 87.6534V92H526.38V91.1051H526.329C526.246 91.2699 526.123 91.4318 525.958 91.5909C525.793 91.75 525.582 91.8821 525.323 91.9872C525.065 92.0923 524.755 92.1449 524.394 92.1449ZM524.671 91.1222C525.023 91.1222 525.325 91.0526 525.575 90.9134C525.827 90.7741 526.019 90.5923 526.15 90.3679C526.283 90.1406 526.35 89.8977 526.35 89.6392V88.7955C526.305 88.8409 526.217 88.8835 526.086 88.9233C525.958 88.9602 525.812 88.9929 525.647 89.0213C525.482 89.0469 525.322 89.071 525.165 89.0938C525.009 89.1136 524.879 89.1307 524.773 89.1449C524.526 89.1761 524.3 89.2287 524.096 89.3026C523.894 89.3764 523.732 89.483 523.61 89.6222C523.491 89.7585 523.431 89.9403 523.431 90.1676C523.431 90.483 523.548 90.7216 523.781 90.8835C524.013 91.0426 524.31 91.1222 524.671 91.1222ZM532.078 92.1321C531.445 92.1321 530.9 91.9886 530.442 91.7017C529.988 91.4119 529.638 91.0128 529.394 90.5043C529.15 89.9957 529.027 89.4134 529.027 88.7571C529.027 88.0923 529.152 87.5057 529.402 86.9972C529.652 86.4858 530.005 86.0866 530.459 85.7997C530.914 85.5128 531.449 85.3693 532.066 85.3693C532.563 85.3693 533.006 85.4616 533.395 85.6463C533.784 85.8281 534.098 86.0838 534.337 86.4134C534.578 86.7429 534.722 87.1278 534.767 87.5682H533.527C533.459 87.2614 533.303 86.9972 533.059 86.7756C532.817 86.554 532.493 86.4432 532.087 86.4432C531.732 86.4432 531.421 86.5369 531.154 86.7244C530.89 86.9091 530.684 87.1733 530.536 87.517C530.388 87.858 530.314 88.2614 530.314 88.7273C530.314 89.2045 530.387 89.6165 530.532 89.9631C530.676 90.3097 530.881 90.5781 531.145 90.7685C531.412 90.9588 531.726 91.054 532.087 91.054C532.328 91.054 532.547 91.0099 532.743 90.9219C532.942 90.831 533.108 90.7017 533.242 90.5341C533.378 90.3665 533.473 90.1648 533.527 89.929H534.767C534.722 90.3523 534.584 90.7301 534.354 91.0625C534.124 91.3949 533.816 91.6562 533.429 91.8466C533.046 92.0369 532.596 92.1321 532.078 92.1321ZM539.185 85.4545V86.4773H535.61V85.4545H539.185ZM536.569 83.8864H537.843V90.0781C537.843 90.3253 537.88 90.5114 537.954 90.6364C538.028 90.7585 538.123 90.8423 538.239 90.8878C538.359 90.9304 538.488 90.9517 538.627 90.9517C538.729 90.9517 538.819 90.9446 538.896 90.9304C538.972 90.9162 539.032 90.9048 539.075 90.8963L539.305 91.9489C539.231 91.9773 539.126 92.0057 538.989 92.0341C538.853 92.0653 538.683 92.0824 538.478 92.0852C538.143 92.0909 537.83 92.0312 537.54 91.9062C537.251 91.7812 537.016 91.5881 536.837 91.3267C536.658 91.0653 536.569 90.7372 536.569 90.3423V83.8864ZM540.595 92V85.4545H541.869V92H540.595ZM541.238 84.4446C541.017 84.4446 540.826 84.3707 540.667 84.223C540.511 84.0724 540.433 83.8935 540.433 83.6861C540.433 83.4759 540.511 83.2969 540.667 83.1491C540.826 82.9986 541.017 82.9233 541.238 82.9233C541.46 82.9233 541.649 82.9986 541.805 83.1491C541.964 83.2969 542.044 83.4759 542.044 83.6861C542.044 83.8935 541.964 84.0724 541.805 84.223C541.649 84.3707 541.46 84.4446 541.238 84.4446ZM546.34 92.1321C545.727 92.1321 545.191 91.9915 544.734 91.7102C544.276 91.429 543.921 91.0355 543.668 90.5298C543.415 90.0241 543.289 89.4332 543.289 88.7571C543.289 88.0781 543.415 87.4844 543.668 86.9759C543.921 86.4673 544.276 86.0724 544.734 85.7912C545.191 85.5099 545.727 85.3693 546.34 85.3693C546.954 85.3693 547.489 85.5099 547.947 85.7912C548.404 86.0724 548.759 86.4673 549.012 86.9759C549.265 87.4844 549.391 88.0781 549.391 88.7571C549.391 89.4332 549.265 90.0241 549.012 90.5298C548.759 91.0355 548.404 91.429 547.947 91.7102C547.489 91.9915 546.954 92.1321 546.34 92.1321ZM546.344 91.0625C546.742 91.0625 547.072 90.9574 547.333 90.7472C547.594 90.5369 547.788 90.2571 547.913 89.9077C548.04 89.5582 548.104 89.1733 548.104 88.7528C548.104 88.3352 548.04 87.9517 547.913 87.6023C547.788 87.25 547.594 86.9673 547.333 86.7543C547.072 86.5412 546.742 86.4347 546.344 86.4347C545.944 86.4347 545.612 86.5412 545.347 86.7543C545.086 86.9673 544.891 87.25 544.763 87.6023C544.638 87.9517 544.576 88.3352 544.576 88.7528C544.576 89.1733 544.638 89.5582 544.763 89.9077C544.891 90.2571 545.086 90.5369 545.347 90.7472C545.612 90.9574 545.944 91.0625 546.344 91.0625ZM552.088 88.1136V92H550.814V85.4545H552.037V86.5199H552.118C552.268 86.1733 552.504 85.8949 552.825 85.6847C553.149 85.4744 553.556 85.3693 554.048 85.3693C554.494 85.3693 554.885 85.4631 555.22 85.6506C555.555 85.8352 555.815 86.1108 556 86.4773C556.184 86.8437 556.277 87.2969 556.277 87.8366V92H555.002V87.9901C555.002 87.5156 554.879 87.1449 554.632 86.8778C554.385 86.608 554.045 86.473 553.613 86.473C553.318 86.473 553.055 86.5369 552.825 86.6648C552.598 86.7926 552.417 86.9801 552.284 87.2273C552.153 87.4716 552.088 87.767 552.088 88.1136ZM563.918 92.1321C563.285 92.1321 562.739 91.9886 562.282 91.7017C561.827 91.4119 561.478 91.0128 561.234 90.5043C560.989 89.9957 560.867 89.4134 560.867 88.7571C560.867 88.0923 560.992 87.5057 561.242 86.9972C561.492 86.4858 561.844 86.0866 562.299 85.7997C562.754 85.5128 563.289 85.3693 563.906 85.3693C564.403 85.3693 564.846 85.4616 565.235 85.6463C565.624 85.8281 565.938 86.0838 566.177 86.4134C566.418 86.7429 566.562 87.1278 566.607 87.5682H565.367C565.299 87.2614 565.143 86.9972 564.898 86.7756C564.657 86.554 564.333 86.4432 563.927 86.4432C563.572 86.4432 563.261 86.5369 562.994 86.7244C562.729 86.9091 562.523 87.1733 562.376 87.517C562.228 87.858 562.154 88.2614 562.154 88.7273C562.154 89.2045 562.227 89.6165 562.371 89.9631C562.516 90.3097 562.721 90.5781 562.985 90.7685C563.252 90.9588 563.566 91.054 563.927 91.054C564.168 91.054 564.387 91.0099 564.583 90.9219C564.782 90.831 564.948 90.7017 565.082 90.5341C565.218 90.3665 565.313 90.1648 565.367 89.929H566.607C566.562 90.3523 566.424 90.7301 566.194 91.0625C565.964 91.3949 565.656 91.6562 565.269 91.8466C564.886 92.0369 564.435 92.1321 563.918 92.1321ZM569.875 92.1449C569.46 92.1449 569.085 92.0682 568.75 91.9148C568.414 91.7585 568.149 91.5327 567.953 91.2372C567.76 90.9418 567.663 90.5795 567.663 90.1506C567.663 89.7812 567.734 89.4773 567.876 89.2386C568.018 89 568.21 88.8111 568.451 88.6719C568.693 88.5327 568.963 88.4276 569.261 88.3565C569.559 88.2855 569.863 88.2315 570.173 88.1946C570.565 88.1491 570.883 88.1122 571.127 88.0838C571.372 88.0526 571.549 88.0028 571.66 87.9347C571.771 87.8665 571.826 87.7557 571.826 87.6023V87.5724C571.826 87.2003 571.721 86.9119 571.511 86.7074C571.304 86.5028 570.994 86.4006 570.582 86.4006C570.153 86.4006 569.815 86.4957 569.568 86.6861C569.324 86.8736 569.154 87.0824 569.061 87.3125L567.863 87.0398C568.005 86.642 568.213 86.321 568.485 86.0767C568.761 85.8295 569.078 85.6506 569.436 85.5398C569.794 85.4261 570.17 85.3693 570.565 85.3693C570.826 85.3693 571.103 85.4006 571.396 85.4631C571.691 85.5227 571.967 85.6335 572.223 85.7955C572.481 85.9574 572.693 86.1889 572.858 86.4901C573.022 86.7884 573.105 87.1761 573.105 87.6534V92H571.86V91.1051H571.809C571.727 91.2699 571.603 91.4318 571.439 91.5909C571.274 91.75 571.062 91.8821 570.804 91.9872C570.545 92.0923 570.235 92.1449 569.875 92.1449ZM570.152 91.1222C570.504 91.1222 570.805 91.0526 571.055 90.9134C571.308 90.7741 571.5 90.5923 571.63 90.3679C571.764 90.1406 571.831 89.8977 571.831 89.6392V88.7955C571.785 88.8409 571.697 88.8835 571.566 88.9233C571.439 88.9602 571.292 88.9929 571.127 89.0213C570.963 89.0469 570.802 89.071 570.646 89.0938C570.49 89.1136 570.359 89.1307 570.254 89.1449C570.007 89.1761 569.781 89.2287 569.576 89.3026C569.375 89.3764 569.213 89.483 569.091 89.6222C568.971 89.7585 568.912 89.9403 568.912 90.1676C568.912 90.483 569.028 90.7216 569.261 90.8835C569.494 91.0426 569.791 91.1222 570.152 91.1222ZM576.076 88.1136V92H574.802V85.4545H576.025V86.5199H576.106C576.256 86.1733 576.492 85.8949 576.813 85.6847C577.137 85.4744 577.545 85.3693 578.036 85.3693C578.482 85.3693 578.873 85.4631 579.208 85.6506C579.543 85.8352 579.803 86.1108 579.988 86.4773C580.173 86.8437 580.265 87.2969 580.265 87.8366V92H578.991V87.9901C578.991 87.5156 578.867 87.1449 578.62 86.8778C578.373 86.608 578.033 86.473 577.602 86.473C577.306 86.473 577.043 86.5369 576.813 86.6648C576.586 86.7926 576.406 86.9801 576.272 87.2273C576.141 87.4716 576.076 87.767 576.076 88.1136ZM583.248 88.1136V92H581.974V85.4545H583.197V86.5199H583.278C583.428 86.1733 583.664 85.8949 583.985 85.6847C584.309 85.4744 584.717 85.3693 585.208 85.3693C585.654 85.3693 586.045 85.4631 586.38 85.6506C586.715 85.8352 586.975 86.1108 587.16 86.4773C587.344 86.8437 587.437 87.2969 587.437 87.8366V92H586.163V87.9901C586.163 87.5156 586.039 87.1449 585.792 86.8778C585.545 86.608 585.205 86.473 584.773 86.473C584.478 86.473 584.215 86.5369 583.985 86.6648C583.758 86.7926 583.577 86.9801 583.444 87.2273C583.313 87.4716 583.248 87.767 583.248 88.1136ZM591.903 92.1321C591.289 92.1321 590.754 91.9915 590.296 91.7102C589.839 91.429 589.484 91.0355 589.231 90.5298C588.978 90.0241 588.852 89.4332 588.852 88.7571C588.852 88.0781 588.978 87.4844 589.231 86.9759C589.484 86.4673 589.839 86.0724 590.296 85.7912C590.754 85.5099 591.289 85.3693 591.903 85.3693C592.516 85.3693 593.052 85.5099 593.509 85.7912C593.967 86.0724 594.322 86.4673 594.575 86.9759C594.827 87.4844 594.954 88.0781 594.954 88.7571C594.954 89.4332 594.827 90.0241 594.575 90.5298C594.322 91.0355 593.967 91.429 593.509 91.7102C593.052 91.9915 592.516 92.1321 591.903 92.1321ZM591.907 91.0625C592.305 91.0625 592.634 90.9574 592.896 90.7472C593.157 90.5369 593.35 90.2571 593.475 89.9077C593.603 89.5582 593.667 89.1733 593.667 88.7528C593.667 88.3352 593.603 87.9517 593.475 87.6023C593.35 87.25 593.157 86.9673 592.896 86.7543C592.634 86.5412 592.305 86.4347 591.907 86.4347C591.506 86.4347 591.174 86.5412 590.91 86.7543C590.648 86.9673 590.454 87.25 590.326 87.6023C590.201 87.9517 590.138 88.3352 590.138 88.7528C590.138 89.1733 590.201 89.5582 590.326 89.9077C590.454 90.2571 590.648 90.5369 590.91 90.7472C591.174 90.9574 591.506 91.0625 591.907 91.0625ZM599.431 85.4545V86.4773H595.856V85.4545H599.431ZM596.815 83.8864H598.089V90.0781C598.089 90.3253 598.126 90.5114 598.2 90.6364C598.274 90.7585 598.369 90.8423 598.485 90.8878C598.605 90.9304 598.734 90.9517 598.873 90.9517C598.975 90.9517 599.065 90.9446 599.142 90.9304C599.218 90.9162 599.278 90.9048 599.321 90.8963L599.551 91.9489C599.477 91.9773 599.372 92.0057 599.235 92.0341C599.099 92.0653 598.929 92.0824 598.724 92.0852C598.389 92.0909 598.076 92.0312 597.787 91.9062C597.497 91.7812 597.262 91.5881 597.083 91.3267C596.904 91.0653 596.815 90.7372 596.815 90.3423V83.8864ZM604.119 92V83.2727H605.393V86.5156H605.47C605.544 86.3793 605.65 86.2216 605.789 86.0426C605.929 85.8636 606.122 85.7074 606.369 85.5739C606.616 85.4375 606.943 85.3693 607.349 85.3693C607.877 85.3693 608.349 85.5028 608.764 85.7699C609.179 86.0369 609.504 86.4219 609.74 86.9247C609.978 87.4276 610.098 88.0327 610.098 88.7401C610.098 89.4474 609.98 90.054 609.744 90.5597C609.508 91.0625 609.184 91.4503 608.772 91.723C608.36 91.9929 607.89 92.1278 607.362 92.1278C606.964 92.1278 606.639 92.0611 606.386 91.9276C606.136 91.794 605.94 91.6378 605.798 91.4588C605.656 91.2798 605.547 91.1207 605.47 90.9815H605.363V92H604.119ZM605.368 88.7273C605.368 89.1875 605.434 89.5909 605.568 89.9375C605.701 90.2841 605.895 90.5554 606.147 90.7514C606.4 90.9446 606.71 91.0412 607.076 91.0412C607.457 91.0412 607.775 90.9403 608.031 90.7386C608.287 90.5341 608.48 90.2571 608.61 89.9077C608.744 89.5582 608.811 89.1648 608.811 88.7273C608.811 88.2955 608.745 87.9077 608.615 87.5639C608.487 87.2202 608.294 86.9489 608.035 86.75C607.779 86.5511 607.46 86.4517 607.076 86.4517C606.707 86.4517 606.395 86.5469 606.139 86.7372C605.886 86.9276 605.694 87.1932 605.564 87.5341C605.433 87.875 605.368 88.2727 605.368 88.7273ZM614.349 92.1321C613.705 92.1321 613.149 91.9943 612.683 91.7188C612.22 91.4403 611.862 91.0497 611.609 90.5469C611.359 90.0412 611.234 89.4489 611.234 88.7699C611.234 88.0994 611.359 87.5085 611.609 86.9972C611.862 86.4858 612.214 86.0866 612.666 85.7997C613.121 85.5128 613.652 85.3693 614.26 85.3693C614.629 85.3693 614.987 85.4304 615.334 85.5526C615.68 85.6747 615.991 85.8665 616.267 86.1278C616.543 86.3892 616.76 86.7287 616.919 87.1463C617.078 87.5611 617.158 88.0653 617.158 88.6591V89.1108H611.955V88.1562H615.909C615.909 87.821 615.841 87.5241 615.705 87.2656C615.568 87.0043 615.376 86.7983 615.129 86.6477C614.885 86.4972 614.598 86.4219 614.268 86.4219C613.911 86.4219 613.598 86.5099 613.331 86.6861C613.067 86.8594 612.862 87.0866 612.717 87.3679C612.575 87.6463 612.504 87.9489 612.504 88.2756V89.0213C612.504 89.4588 612.581 89.831 612.734 90.1378C612.891 90.4446 613.108 90.679 613.386 90.8409C613.665 91 613.99 91.0795 614.362 91.0795C614.604 91.0795 614.824 91.0455 615.023 90.9773C615.222 90.9062 615.393 90.8011 615.538 90.6619C615.683 90.5227 615.794 90.3509 615.871 90.1463L617.077 90.3636C616.98 90.7187 616.807 91.0298 616.557 91.2969C616.31 91.5611 615.999 91.767 615.624 91.9148C615.251 92.0597 614.827 92.1321 614.349 92.1321ZM625.893 89.2855V85.4545H627.172V92H625.919V90.8665H625.851C625.7 91.2159 625.459 91.5071 625.126 91.7401C624.797 91.9702 624.386 92.0852 623.895 92.0852C623.474 92.0852 623.102 91.9929 622.778 91.8082C622.457 91.6207 622.205 91.3438 622.02 90.9773C621.838 90.6108 621.747 90.1577 621.747 89.6179V85.4545H623.021V89.4645C623.021 89.9105 623.145 90.2656 623.392 90.5298C623.639 90.794 623.96 90.9261 624.355 90.9261C624.594 90.9261 624.831 90.8665 625.067 90.7472C625.305 90.6278 625.503 90.4474 625.659 90.206C625.818 89.9645 625.896 89.6577 625.893 89.2855ZM630.158 88.1136V92H628.884V85.4545H630.107V86.5199H630.188C630.338 86.1733 630.574 85.8949 630.895 85.6847C631.219 85.4744 631.627 85.3693 632.118 85.3693C632.564 85.3693 632.955 85.4631 633.29 85.6506C633.625 85.8352 633.885 86.1108 634.07 86.4773C634.255 86.8437 634.347 87.2969 634.347 87.8366V92H633.073V87.9901C633.073 87.5156 632.949 87.1449 632.702 86.8778C632.455 86.608 632.115 86.473 631.684 86.473C631.388 86.473 631.125 86.5369 630.895 86.6648C630.668 86.7926 630.488 86.9801 630.354 87.2273C630.223 87.4716 630.158 87.767 630.158 88.1136ZM638.506 92.1278C637.978 92.1278 637.506 91.9929 637.091 91.723C636.679 91.4503 636.355 91.0625 636.12 90.5597C635.887 90.054 635.77 89.4474 635.77 88.7401C635.77 88.0327 635.888 87.4276 636.124 86.9247C636.363 86.4219 636.689 86.0369 637.104 85.7699C637.519 85.5028 637.989 85.3693 638.515 85.3693C638.921 85.3693 639.248 85.4375 639.495 85.5739C639.745 85.7074 639.938 85.8636 640.074 86.0426C640.213 86.2216 640.321 86.3793 640.398 86.5156H640.475V83.2727H641.749V92H640.505V90.9815H640.398C640.321 91.1207 640.211 91.2798 640.066 91.4588C639.924 91.6378 639.728 91.794 639.478 91.9276C639.228 92.0611 638.904 92.1278 638.506 92.1278ZM638.787 91.0412C639.154 91.0412 639.463 90.9446 639.716 90.7514C639.972 90.5554 640.165 90.2841 640.296 89.9375C640.429 89.5909 640.496 89.1875 640.496 88.7273C640.496 88.2727 640.431 87.875 640.3 87.5341C640.169 87.1932 639.978 86.9276 639.725 86.7372C639.472 86.5469 639.159 86.4517 638.787 86.4517C638.404 86.4517 638.084 86.5511 637.828 86.75C637.573 86.9489 637.38 87.2202 637.249 87.5639C637.121 87.9077 637.057 88.2955 637.057 88.7273C637.057 89.1648 637.123 89.5582 637.253 89.9077C637.384 90.2571 637.577 90.5341 637.833 90.7386C638.091 90.9403 638.409 91.0412 638.787 91.0412ZM646.325 92.1321C645.711 92.1321 645.175 91.9915 644.718 91.7102C644.261 91.429 643.906 91.0355 643.653 90.5298C643.4 90.0241 643.273 89.4332 643.273 88.7571C643.273 88.0781 643.4 87.4844 643.653 86.9759C643.906 86.4673 644.261 86.0724 644.718 85.7912C645.175 85.5099 645.711 85.3693 646.325 85.3693C646.938 85.3693 647.474 85.5099 647.931 85.7912C648.388 86.0724 648.744 86.4673 648.996 86.9759C649.249 87.4844 649.376 88.0781 649.376 88.7571C649.376 89.4332 649.249 90.0241 648.996 90.5298C648.744 91.0355 648.388 91.429 647.931 91.7102C647.474 91.9915 646.938 92.1321 646.325 92.1321ZM646.329 91.0625C646.727 91.0625 647.056 90.9574 647.317 90.7472C647.579 90.5369 647.772 90.2571 647.897 89.9077C648.025 89.5582 648.089 89.1733 648.089 88.7528C648.089 88.3352 648.025 87.9517 647.897 87.6023C647.772 87.25 647.579 86.9673 647.317 86.7543C647.056 86.5412 646.727 86.4347 646.329 86.4347C645.928 86.4347 645.596 86.5412 645.332 86.7543C645.07 86.9673 644.876 87.25 644.748 87.6023C644.623 87.9517 644.56 88.3352 644.56 88.7528C644.56 89.1733 644.623 89.5582 644.748 89.9077C644.876 90.2571 645.07 90.5369 645.332 90.7472C645.596 90.9574 645.928 91.0625 646.329 91.0625ZM652.072 88.1136V92H650.798V85.4545H652.021V86.5199H652.102C652.252 86.1733 652.488 85.8949 652.809 85.6847C653.133 85.4744 653.541 85.3693 654.032 85.3693C654.478 85.3693 654.869 85.4631 655.204 85.6506C655.539 85.8352 655.799 86.1108 655.984 86.4773C656.169 86.8437 656.261 87.2969 656.261 87.8366V92H654.987V87.9901C654.987 87.5156 654.863 87.1449 654.616 86.8778C654.369 86.608 654.029 86.473 653.598 86.473C653.302 86.473 653.039 86.5369 652.809 86.6648C652.582 86.7926 652.402 86.9801 652.268 87.2273C652.137 87.4716 652.072 87.767 652.072 88.1136ZM660.791 92.1321C660.146 92.1321 659.591 91.9943 659.125 91.7188C658.662 91.4403 658.304 91.0497 658.051 90.5469C657.801 90.0412 657.676 89.4489 657.676 88.7699C657.676 88.0994 657.801 87.5085 658.051 86.9972C658.304 86.4858 658.656 86.0866 659.108 85.7997C659.562 85.5128 660.093 85.3693 660.701 85.3693C661.071 85.3693 661.429 85.4304 661.775 85.5526C662.122 85.6747 662.433 85.8665 662.708 86.1278C662.984 86.3892 663.201 86.7287 663.36 87.1463C663.52 87.5611 663.599 88.0653 663.599 88.6591V89.1108H658.396V88.1562H662.35C662.35 87.821 662.282 87.5241 662.146 87.2656C662.01 87.0043 661.818 86.7983 661.571 86.6477C661.326 86.4972 661.039 86.4219 660.71 86.4219C660.352 86.4219 660.039 86.5099 659.772 86.6861C659.508 86.8594 659.304 87.0866 659.159 87.3679C659.017 87.6463 658.946 87.9489 658.946 88.2756V89.0213C658.946 89.4588 659.022 89.831 659.176 90.1378C659.332 90.4446 659.549 90.679 659.828 90.8409C660.106 91 660.431 91.0795 660.804 91.0795C661.045 91.0795 661.265 91.0455 661.464 90.9773C661.663 90.9062 661.835 90.8011 661.98 90.6619C662.125 90.5227 662.235 90.3509 662.312 90.1463L663.518 90.3636C663.422 90.7187 663.248 91.0298 662.998 91.2969C662.751 91.5611 662.44 91.767 662.065 91.9148C661.693 92.0597 661.268 92.1321 660.791 92.1321ZM665.852 92.081C665.619 92.081 665.419 91.9986 665.251 91.8338C665.084 91.6662 665 91.4645 665 91.2287C665 90.9957 665.084 90.7969 665.251 90.6321C665.419 90.4645 665.619 90.3807 665.852 90.3807C666.085 90.3807 666.286 90.4645 666.453 90.6321C666.621 90.7969 666.705 90.9957 666.705 91.2287C666.705 91.3849 666.665 91.5284 666.585 91.6591C666.509 91.7869 666.406 91.8892 666.278 91.9659C666.151 92.0426 666.009 92.081 665.852 92.081Z" fill="#D54F4F"/>
<defs>
<filter id="filter0_f_103_172" x="-145" y="2" width="472" height="435" filterUnits="userSpaceOnUse" color-interpolation-filters="sRGB">
<feFlood flood-opacity="0" result="BackgroundImageFix"/>
<feBlend mode="normal" in="SourceGraphic" in2="BackgroundImageFix" result="shape"/>
<feGaussianBlur stdDeviation="50" result="effect1_foregroundBlur_103_172"/>
</filter>
<filter id="filter1_f_103_172" x="519" y="24" width="108.74" height="158.811" filterUnits="userSpaceOnUse" color-interpolation-filters="sRGB">
<feFlood flood-opacity="0" result="BackgroundImageFix"/>
<feBlend mode="normal" in="SourceGraphic" in2="BackgroundImageFix" result="shape"/>
<feGaussianBlur stdDeviation="2" result="effect1_foregroundBlur_103_172"/>
</filter>
<filter id="filter2_d_103_172" x="481" y="44" width="239" height="134" filterUnits="userSpaceOnUse" color-interpolation-filters="sRGB">
<feFlood flood-opacity="0" result="BackgroundImageFix"/>
<feColorMatrix in="SourceAlpha" type="matrix" values="0 0 0 0 0 0 0 0 0 0 0 0 0 0 0 0 0 0 127 0" result="hardAlpha"/>
<feOffset dx="20" dy="20"/>
<feGaussianBlur stdDeviation="10"/>
<feComposite in2="hardAlpha" operator="out"/>
<feColorMatrix type="matrix" values="0 0 0 0 0.420833 0 0 0 0 0.238472 0 0 0 0 0.238472 0 0 0 0.08 0"/>
<feBlend mode="normal" in2="BackgroundImageFix" result="effect1_dropShadow_103_172"/>
<feBlend mode="normal" in="SourceGraphic" in2="effect1_dropShadow_103_172" result="shape"/>
</filter>
<filter id="filter3_d_103_172" x="626.753" y="113.727" width="36.7422" height="13.3793" filterUnits="userSpaceOnUse" color-interpolation-filters="sRGB">
<feFlood flood-opacity="0" result="BackgroundImageFix"/>
<feColorMatrix in="SourceAlpha" type="matrix" values="0 0 0 0 0 0 0 0 0 0 0 0 0 0 0 0 0 0 127 0" result="hardAlpha"/>
<feOffset dy="2"/>
<feGaussianBlur stdDeviation="1.5"/>
<feComposite in2="hardAlpha" operator="out"/>
<feColorMatrix type="matrix" values="0 0 0 0 0.320833 0 0 0 0 0 0 0 0 0 0 0 0 0 0.25 0"/>
<feBlend mode="normal" in2="BackgroundImageFix" result="effect1_dropShadow_103_172"/>
<feBlend mode="normal" in="SourceGraphic" in2="effect1_dropShadow_103_172" result="shape"/>
</filter>
<filter id="filter4_d_103_172" x="576.449" y="113.628" width="38.9989" height="13.4788" filterUnits="userSpaceOnUse" color-interpolation-filters="sRGB">
<feFlood flood-opacity="0" result="BackgroundImageFix"/>
<feColorMatrix in="SourceAlpha" type="matrix" values="0 0 0 0 0 0 0 0 0 0 0 0 0 0 0 0 0 0 127 0" result="hardAlpha"/>
<feOffset dy="2"/>
<feGaussianBlur stdDeviation="1.5"/>
<feComposite in2="hardAlpha" operator="out"/>
<feColorMatrix type="matrix" values="0 0 0 0 0.320833 0 0 0 0 0 0 0 0 0 0 0 0 0 0.25 0"/>
<feBlend mode="normal" in2="BackgroundImageFix" result="effect1_dropShadow_103_172"/>
<feBlend mode="normal" in="SourceGraphic" in2="effect1_dropShadow_103_172" result="shape"/>
</filter>
<linearGradient id="paint0_linear_103_172" x1="350" y1="0" x2="350" y2="200" gradientUnits="userSpaceOnUse">
<stop stop-color="#381F2B"/>
<stop offset="1" stop-color="#1A1A43"/>
</linearGradient>
<linearGradient id="paint1_linear_103_172" x1="53.5" y1="147.573" x2="938.668" y2="124.901" gradientUnits="userSpaceOnUse">
<stop stop-color="#242849"/>
<stop offset="1" stop-color="#2F3846"/>
</linearGradient>
<linearGradient id="paint2_linear_103_172" x1="91" y1="102" x2="91" y2="337" gradientUnits="userSpaceOnUse">
<stop stop-color="#B9ADFF" stop-opacity="0.63"/>
<stop offset="0.380208" stop-color="#0771D3" stop-opacity="0.66"/>
<stop offset="1" stop-color="#4D233E" stop-opacity="0.98"/>
</linearGradient>
<radialGradient id="paint3_radial_103_172" cx="0" cy="0" r="1" gradientUnits="userSpaceOnUse" gradientTransform="translate(550.5 95) rotate(-32.8687) scale(77.3886 67.5101)">
<stop stop-color="#7A79AE"/>
<stop offset="0.770833" stop-color="#4B6598"/>
<stop offset="1" stop-color="#FFD9D9"/>
</radialGradient>
<linearGradient id="paint4_linear_103_172" x1="135.431" y1="160.943" x2="65.0942" y2="75.0897" gradientUnits="userSpaceOnUse">
<stop stop-color="#F2E6FF"/>
<stop offset="1" stop-color="#56C2FF"/>
</linearGradient>
<linearGradient id="paint5_linear_103_172" x1="406.695" y1="106.846" x2="406.695" y2="231.846" gradientUnits="userSpaceOnUse">
<stop stop-color="#FF94AD"/>
<stop offset="1" stop-color="#FF7BB3" stop-opacity="0"/>
</linearGradient>
<linearGradient id="paint6_linear_103_172" x1="390.544" y1="70.8141" x2="390.544" y2="146.442" gradientUnits="userSpaceOnUse">
<stop stop-color="#7E7BFF"/>
<stop offset="1" stop-color="#FF7BD2" stop-opacity="0"/>
</linearGradient>
<linearGradient id="paint7_linear_103_172" x1="416.407" y1="151.883" x2="416.407" y2="227.511" gradientUnits="userSpaceOnUse">
<stop stop-color="#FFABB0"/>
<stop offset="1" stop-color="#E7A0CF" stop-opacity="0"/>
</linearGradient>
<linearGradient id="paint8_linear_103_172" x1="481" y1="56.6414" x2="560.189" y2="200.434" gradientUnits="userSpaceOnUse">
<stop stop-color="white"/>
<stop offset="1" stop-color="#FFE7E7"/>
</linearGradient>
</defs>
</svg>
