<?xml version="1.0" standalone="no"?>
<!DOCTYPE svg PUBLIC "-//W3C//DTD SVG 20010904//EN"
 "http://www.w3.org/TR/2001/REC-SVG-20010904/DTD/svg10.dtd">
<svg version="1.0" xmlns="http://www.w3.org/2000/svg"
 width="171.000000pt" height="171.000000pt" viewBox="0 0 171.000000 171.000000"
 preserveAspectRatio="xMidYMid meet">
<metadata>
Created by potrace 1.16, written by Peter Selinger 2001-2019
</metadata>
<g transform="translate(0.000000,171.000000) scale(0.100000,-0.100000)"
fill="#000000" stroke="none">
<path d="M820 1694 c-188 -49 -405 -164 -572 -302 -83 -68 -140 -131 -207
-226 l-41 -59 0 -148 c0 -139 1 -148 20 -154 27 -9 60 3 60 21 0 34 53 161 99
237 85 140 222 275 397 389 88 57 254 141 263 133 3 -4 -1 -12 -9 -18 -32 -25
-142 -167 -224 -290 -210 -315 -336 -673 -336 -956 0 -77 2 -84 28 -108 53
-50 102 -54 102 -8 0 37 54 173 118 295 150 290 386 582 643 795 91 76 130 93
72 32 -163 -173 -365 -565 -380 -738 -5 -63 -5 -66 23 -88 48 -38 108 -9 120
58 8 48 73 168 131 244 94 121 250 264 401 366 65 44 91 48 55 8 -78 -86 -176
-277 -237 -459 -62 -186 -78 -271 -80 -418 -1 -109 2 -130 18 -155 29 -45 46
-54 101 -55 l50 0 -3 125 c-2 84 2 153 13 210 31 167 132 433 229 603 l36 64
0 129 c0 98 -3 129 -13 129 -18 0 -222 -115 -297 -168 -62 -43 -149 -112 -179
-140 -70 -66 95 182 226 341 29 36 29 69 1 101 -37 41 -65 41 -140 2 -164 -85
-305 -194 -458 -352 -121 -126 -184 -207 -317 -410 -25 -37 20 73 84 206 83
174 160 306 295 505 59 89 108 168 108 176 0 22 -28 57 -58 73 -45 23 -84 26
-142 10z"/>
</g>
</svg>
