<svg width="729" height="200" viewBox="0 0 729 200" fill="none" xmlns="http://www.w3.org/2000/svg">
<mask id="mask0_109_207" style="mask-type:alpha" maskUnits="userSpaceOnUse" x="0" y="0" width="700" height="200">
<path d="M0 0H700V150C700 177.614 677.614 200 650 200H0V0Z" fill="url(#paint0_linear_109_207)"/>
</mask>
<g mask="url(#mask0_109_207)">
<path d="M0 0H1000V200H0V0Z" fill="url(#paint1_linear_109_207)"/>
<g filter="url(#filter0_f_109_207)">
<ellipse cx="91" cy="219.5" rx="136" ry="117.5" fill="url(#paint2_linear_109_207)"/>
</g>
</g>
<path d="M78.4432 119V84.0909H91.5341C94.2159 84.0909 96.4659 84.5909 98.2841 85.5909C100.114 86.5909 101.494 87.9659 102.426 89.7159C103.369 91.4545 103.841 93.4318 103.841 95.6477C103.841 97.8864 103.369 99.875 102.426 101.614C101.483 103.352 100.091 104.722 98.25 105.722C96.4091 106.71 94.142 107.205 91.4489 107.205H82.7727V102.006H90.5966C92.1648 102.006 93.4489 101.733 94.4489 101.188C95.4489 100.642 96.1875 99.892 96.6648 98.9375C97.1534 97.983 97.3977 96.8864 97.3977 95.6477C97.3977 94.4091 97.1534 93.3182 96.6648 92.375C96.1875 91.4318 95.4432 90.6989 94.4318 90.1761C93.4318 89.642 92.142 89.375 90.5625 89.375H84.767V119H78.4432ZM121.067 119.511C118.51 119.511 116.294 118.949 114.419 117.824C112.544 116.699 111.089 115.125 110.055 113.102C109.032 111.08 108.521 108.716 108.521 106.011C108.521 103.307 109.032 100.937 110.055 98.9034C111.089 96.8693 112.544 95.2898 114.419 94.1648C116.294 93.0398 118.51 92.4773 121.067 92.4773C123.623 92.4773 125.839 93.0398 127.714 94.1648C129.589 95.2898 131.038 96.8693 132.061 98.9034C133.095 100.937 133.612 103.307 133.612 106.011C133.612 108.716 133.095 111.08 132.061 113.102C131.038 115.125 129.589 116.699 127.714 117.824C125.839 118.949 123.623 119.511 121.067 119.511ZM121.101 114.568C122.487 114.568 123.646 114.187 124.578 113.426C125.51 112.653 126.203 111.619 126.657 110.324C127.123 109.028 127.356 107.585 127.356 105.994C127.356 104.392 127.123 102.943 126.657 101.648C126.203 100.341 125.51 99.3011 124.578 98.5284C123.646 97.7557 122.487 97.3693 121.101 97.3693C119.68 97.3693 118.498 97.7557 117.555 98.5284C116.623 99.3011 115.924 100.341 115.459 101.648C115.004 102.943 114.777 104.392 114.777 105.994C114.777 107.585 115.004 109.028 115.459 110.324C115.924 111.619 116.623 112.653 117.555 113.426C118.498 114.187 119.68 114.568 121.101 114.568ZM139.809 128.818V92.8182H145.877V97.1477H146.235C146.554 96.5114 147.002 95.8352 147.582 95.1193C148.161 94.392 148.946 93.7727 149.934 93.2614C150.923 92.7386 152.184 92.4773 153.718 92.4773C155.741 92.4773 157.565 92.9943 159.19 94.0284C160.826 95.0511 162.122 96.5682 163.076 98.5795C164.042 100.58 164.525 103.034 164.525 105.943C164.525 108.818 164.054 111.261 163.11 113.273C162.167 115.284 160.883 116.818 159.258 117.875C157.633 118.932 155.792 119.46 153.735 119.46C152.235 119.46 150.991 119.21 150.002 118.71C149.014 118.21 148.218 117.608 147.616 116.903C147.025 116.187 146.565 115.511 146.235 114.875H145.98V128.818H139.809ZM145.86 105.909C145.86 107.602 146.099 109.085 146.576 110.358C147.065 111.631 147.764 112.625 148.673 113.341C149.593 114.045 150.707 114.398 152.014 114.398C153.377 114.398 154.519 114.034 155.44 113.307C156.36 112.568 157.054 111.562 157.519 110.29C157.997 109.006 158.235 107.545 158.235 105.909C158.235 104.284 158.002 102.841 157.536 101.58C157.071 100.318 156.377 99.3295 155.457 98.6136C154.536 97.8977 153.389 97.5398 152.014 97.5398C150.696 97.5398 149.576 97.8864 148.656 98.5795C147.735 99.2727 147.036 100.244 146.559 101.494C146.093 102.744 145.86 104.216 145.86 105.909ZM182.19 119.511C179.633 119.511 177.417 118.949 175.542 117.824C173.667 116.699 172.212 115.125 171.178 113.102C170.156 111.08 169.644 108.716 169.644 106.011C169.644 103.307 170.156 100.937 171.178 98.9034C172.212 96.8693 173.667 95.2898 175.542 94.1648C177.417 93.0398 179.633 92.4773 182.19 92.4773C184.746 92.4773 186.962 93.0398 188.837 94.1648C190.712 95.2898 192.161 96.8693 193.184 98.9034C194.218 100.937 194.735 103.307 194.735 106.011C194.735 108.716 194.218 111.08 193.184 113.102C192.161 115.125 190.712 116.699 188.837 117.824C186.962 118.949 184.746 119.511 182.19 119.511ZM182.224 114.568C183.61 114.568 184.769 114.187 185.701 113.426C186.633 112.653 187.326 111.619 187.781 110.324C188.246 109.028 188.479 107.585 188.479 105.994C188.479 104.392 188.246 102.943 187.781 101.648C187.326 100.341 186.633 99.3011 185.701 98.5284C184.769 97.7557 183.61 97.3693 182.224 97.3693C180.803 97.3693 179.621 97.7557 178.678 98.5284C177.746 99.3011 177.048 100.341 176.582 101.648C176.127 102.943 175.9 104.392 175.9 105.994C175.9 107.585 176.127 109.028 176.582 110.324C177.048 111.619 177.746 112.653 178.678 113.426C179.621 114.187 180.803 114.568 182.224 114.568ZM223.428 92.8182L214.104 119H207.286L197.962 92.8182H204.542L210.559 112.267H210.831L216.866 92.8182H223.428ZM239.358 119.511C236.733 119.511 234.466 118.966 232.557 117.875C230.659 116.773 229.199 115.216 228.176 113.205C227.154 111.182 226.642 108.801 226.642 106.062C226.642 103.369 227.154 101.006 228.176 98.9716C229.211 96.9261 230.654 95.3352 232.506 94.1989C234.358 93.0511 236.534 92.4773 239.034 92.4773C240.648 92.4773 242.171 92.7386 243.603 93.2614C245.046 93.7727 246.318 94.5682 247.421 95.6477C248.534 96.7273 249.409 98.1023 250.046 99.7727C250.682 101.432 251 103.409 251 105.705V107.597H229.54V103.438H245.086C245.074 102.256 244.818 101.205 244.318 100.284C243.818 99.3523 243.12 98.6193 242.222 98.0852C241.336 97.5511 240.301 97.2841 239.12 97.2841C237.858 97.2841 236.75 97.5909 235.796 98.2045C234.841 98.8068 234.097 99.6023 233.563 100.591C233.04 101.568 232.773 102.642 232.762 103.812V107.443C232.762 108.966 233.04 110.273 233.597 111.364C234.154 112.443 234.932 113.273 235.932 113.852C236.932 114.42 238.103 114.705 239.443 114.705C240.341 114.705 241.154 114.58 241.881 114.33C242.608 114.068 243.239 113.688 243.773 113.188C244.307 112.688 244.711 112.068 244.983 111.33L250.745 111.977C250.381 113.5 249.688 114.83 248.665 115.966C247.654 117.091 246.358 117.966 244.779 118.591C243.199 119.205 241.392 119.511 239.358 119.511ZM257.18 119V92.8182H263.163V97.1818H263.436C263.913 95.6705 264.732 94.5057 265.891 93.6875C267.061 92.858 268.396 92.4432 269.896 92.4432C270.237 92.4432 270.618 92.4602 271.038 92.4943C271.47 92.517 271.828 92.5568 272.112 92.6136V98.2898C271.851 98.1989 271.436 98.1193 270.868 98.0511C270.311 97.9716 269.771 97.9318 269.249 97.9318C268.124 97.9318 267.112 98.1761 266.215 98.6648C265.328 99.142 264.629 99.8068 264.118 100.659C263.607 101.511 263.351 102.494 263.351 103.608V119H257.18Z" fill="url(#paint3_linear_109_207)"/>
<rect x="405.974" y="106.846" width="1.44181" height="125" transform="rotate(120 405.974 106.846)" fill="url(#paint4_linear_109_207)"/>
<rect x="390.108" y="70.8141" width="0.872331" height="75.6282" transform="rotate(120 390.108 70.8141)" fill="url(#paint5_linear_109_207)"/>
<rect x="415.971" y="151.883" width="0.872331" height="75.6282" transform="rotate(120 415.971 151.883)" fill="url(#paint6_linear_109_207)"/>
<rect x="585.25" y="30.25" width="131.5" height="111.5" rx="8.75" fill="url(#paint7_linear_109_207)" stroke="white" stroke-width="0.5"/>
<path d="M584.631 46.4142C585.412 45.6332 586.678 45.6332 587.459 46.4142L593.676 52.631C594.457 53.412 594.457 54.6784 593.676 55.4594L587.459 61.6762C586.678 62.4572 585.412 62.4572 584.631 61.6762L578.414 55.4594C577.633 54.6784 577.633 53.412 578.414 52.631L584.631 46.4142Z" fill="#FFFBFB"/>
<path d="M595.822 53V43.5455H599.552C600.266 43.5455 600.875 43.6732 601.38 43.9286C601.888 44.181 602.274 44.5395 602.539 45.0043C602.806 45.4659 602.94 46.0091 602.94 46.6339C602.94 47.2617 602.805 47.8018 602.534 48.2543C602.263 48.7036 601.871 49.0483 601.357 49.2884C600.846 49.5284 600.227 49.6484 599.501 49.6484H597.004V48.0419H599.178C599.56 48.0419 599.877 47.9896 600.129 47.8849C600.381 47.7803 600.569 47.6233 600.692 47.4141C600.818 47.2048 600.881 46.9447 600.881 46.6339C600.881 46.32 600.818 46.0553 600.692 45.8398C600.569 45.6244 600.38 45.4613 600.124 45.3505C599.872 45.2366 599.553 45.1797 599.169 45.1797H597.821V53H595.822ZM600.928 48.6974L603.277 53H601.071L598.772 48.6974H600.928ZM607.433 53.1385C606.704 53.1385 606.076 52.9908 605.55 52.6953C605.027 52.3968 604.623 51.9751 604.34 51.4304C604.057 50.8826 603.916 50.2347 603.916 49.4869C603.916 48.7575 604.057 48.1173 604.34 47.5664C604.623 47.0155 605.022 46.5862 605.536 46.2784C606.053 45.9706 606.659 45.8168 607.355 45.8168C607.823 45.8168 608.258 45.8922 608.661 46.043C609.068 46.1907 609.421 46.4138 609.723 46.7124C610.028 47.0109 610.265 47.3864 610.434 47.8388C610.603 48.2881 610.688 48.8144 610.688 49.4176V49.9577H604.7V48.739H608.837C608.837 48.4558 608.775 48.205 608.652 47.9865C608.529 47.768 608.358 47.5972 608.14 47.4741C607.924 47.3479 607.673 47.2848 607.387 47.2848C607.089 47.2848 606.824 47.354 606.593 47.4925C606.365 47.628 606.187 47.8111 606.058 48.0419C605.928 48.2696 605.862 48.5236 605.859 48.8036V49.9624C605.859 50.3132 605.924 50.6164 606.053 50.8718C606.185 51.1272 606.372 51.3242 606.612 51.4627C606.852 51.6012 607.136 51.6705 607.466 51.6705C607.684 51.6705 607.884 51.6397 608.066 51.5781C608.247 51.5166 608.403 51.4242 608.532 51.3011C608.661 51.178 608.76 51.0272 608.828 50.8487L610.646 50.9688C610.554 51.4058 610.365 51.7874 610.079 52.1136C609.795 52.4368 609.429 52.6892 608.98 52.8707C608.534 53.0492 608.018 53.1385 607.433 53.1385ZM618.392 45.9091L615.913 53H613.697L611.218 45.9091H613.295L614.768 50.9826H614.842L616.31 45.9091H618.392ZM619.398 53V45.9091H621.365V53H619.398ZM620.386 44.995C620.094 44.995 619.843 44.8981 619.634 44.7042C619.427 44.5072 619.324 44.2718 619.324 43.9979C619.324 43.727 619.427 43.4947 619.634 43.3008C619.843 43.1038 620.094 43.0053 620.386 43.0053C620.678 43.0053 620.928 43.1038 621.134 43.3008C621.343 43.4947 621.448 43.727 621.448 43.9979C621.448 44.2718 621.343 44.5072 621.134 44.7042C620.928 44.8981 620.678 44.995 620.386 44.995ZM626.172 53.1385C625.442 53.1385 624.814 52.9908 624.288 52.6953C623.765 52.3968 623.362 51.9751 623.079 51.4304C622.795 50.8826 622.654 50.2347 622.654 49.4869C622.654 48.7575 622.795 48.1173 623.079 47.5664C623.362 47.0155 623.76 46.5862 624.274 46.2784C624.791 45.9706 625.398 45.8168 626.093 45.8168C626.561 45.8168 626.996 45.8922 627.4 46.043C627.806 46.1907 628.16 46.4138 628.461 46.7124C628.766 47.0109 629.003 47.3864 629.172 47.8388C629.342 48.2881 629.426 48.8144 629.426 49.4176V49.9577H623.439V48.739H627.575C627.575 48.4558 627.513 48.205 627.39 47.9865C627.267 47.768 627.096 47.5972 626.878 47.4741C626.662 47.3479 626.412 47.2848 626.125 47.2848C625.827 47.2848 625.562 47.354 625.331 47.4925C625.104 47.628 624.925 47.8111 624.796 48.0419C624.667 48.2696 624.6 48.5236 624.597 48.8036V49.9624C624.597 50.3132 624.662 50.6164 624.791 50.8718C624.924 51.1272 625.11 51.3242 625.35 51.4627C625.59 51.6012 625.875 51.6705 626.204 51.6705C626.422 51.6705 626.622 51.6397 626.804 51.5781C626.986 51.5166 627.141 51.4242 627.27 51.3011C627.4 51.178 627.498 51.0272 627.566 50.8487L629.385 50.9688C629.292 51.4058 629.103 51.7874 628.817 52.1136C628.534 52.4368 628.167 52.6892 627.718 52.8707C627.272 53.0492 626.756 53.1385 626.172 53.1385ZM632.058 53L630.128 45.9091H632.118L633.216 50.6733H633.281L634.426 45.9091H636.379L637.542 50.6456H637.602L638.682 45.9091H640.667L638.742 53H636.66L635.441 48.5405H635.354L634.135 53H632.058ZM644.762 53V43.5455H646.729V47.1001H646.789C646.875 46.9093 647 46.7154 647.163 46.5185C647.329 46.3184 647.544 46.1522 647.809 46.0199C648.077 45.8845 648.409 45.8168 648.806 45.8168C649.323 45.8168 649.8 45.9522 650.237 46.223C650.674 46.4908 651.024 46.8955 651.285 47.4371C651.547 47.9757 651.678 48.6513 651.678 49.4638C651.678 50.2547 651.55 50.9226 651.294 51.4673C651.042 52.009 650.697 52.4199 650.26 52.6999C649.826 52.9769 649.34 53.1154 648.802 53.1154C648.42 53.1154 648.095 53.0523 647.828 52.9261C647.563 52.8 647.346 52.6415 647.177 52.4506C647.007 52.2567 646.878 52.0613 646.789 51.8643H646.701V53H644.762ZM646.687 49.4545C646.687 49.8762 646.746 50.244 646.863 50.5579C646.98 50.8718 647.149 51.1165 647.37 51.2919C647.592 51.4643 647.861 51.5504 648.178 51.5504C648.498 51.5504 648.769 51.4627 648.991 51.2873C649.212 51.1088 649.38 50.8626 649.494 50.5487C649.611 50.2317 649.669 49.867 649.669 49.4545C649.669 49.0452 649.613 48.6851 649.499 48.3743C649.385 48.0634 649.217 47.8203 648.995 47.6449C648.774 47.4695 648.502 47.3817 648.178 47.3817C647.858 47.3817 647.587 47.4664 647.366 47.6357C647.147 47.8049 646.98 48.045 646.863 48.3558C646.746 48.6667 646.687 49.0329 646.687 49.4545ZM655.012 53.1339C654.559 53.1339 654.156 53.0554 653.802 52.8984C653.448 52.7384 653.168 52.503 652.962 52.1921C652.759 51.8782 652.657 51.4873 652.657 51.0195C652.657 50.6256 652.73 50.2947 652.874 50.027C653.019 49.7592 653.216 49.5438 653.465 49.3807C653.715 49.2176 653.998 49.0945 654.315 49.0114C654.635 48.9283 654.97 48.8698 655.321 48.8359C655.734 48.7929 656.066 48.7528 656.318 48.7159C656.571 48.6759 656.754 48.6174 656.868 48.5405C656.982 48.4635 657.039 48.3497 657.039 48.1989V48.1712C657.039 47.8788 656.946 47.6526 656.762 47.4925C656.58 47.3325 656.321 47.2525 655.986 47.2525C655.632 47.2525 655.35 47.331 655.141 47.4879C654.932 47.6418 654.793 47.8357 654.726 48.0696L652.907 47.9219C652.999 47.491 653.181 47.1186 653.452 46.8047C653.722 46.4877 654.072 46.2446 654.499 46.0753C654.93 45.9029 655.429 45.8168 655.995 45.8168C656.389 45.8168 656.766 45.8629 657.126 45.9553C657.489 46.0476 657.811 46.1907 658.091 46.3846C658.374 46.5785 658.597 46.8278 658.76 47.1325C658.924 47.4341 659.005 47.7957 659.005 48.2173V53H657.14V52.0167H657.085C656.971 52.2383 656.818 52.4337 656.628 52.603C656.437 52.7692 656.208 52.9 655.94 52.9954C655.672 53.0877 655.363 53.1339 655.012 53.1339ZM655.575 51.7766C655.864 51.7766 656.12 51.7197 656.341 51.6058C656.563 51.4889 656.737 51.3319 656.863 51.1349C656.989 50.938 657.052 50.7148 657.052 50.4656V49.7131C656.991 49.7531 656.906 49.79 656.798 49.8239C656.694 49.8546 656.575 49.8839 656.443 49.9116C656.311 49.9362 656.178 49.9593 656.046 49.9808C655.914 49.9993 655.794 50.0162 655.686 50.0316C655.455 50.0655 655.253 50.1193 655.081 50.1932C654.909 50.267 654.775 50.3671 654.68 50.4933C654.584 50.6164 654.536 50.7702 654.536 50.9549C654.536 51.2227 654.633 51.4273 654.827 51.5689C655.024 51.7074 655.273 51.7766 655.575 51.7766ZM662.498 43.5455V53H660.531V43.5455H662.498ZM666.04 43.5455V53H664.073V43.5455H666.04ZM670.819 53.1385C670.102 53.1385 669.481 52.9862 668.958 52.6815C668.438 52.3737 668.037 51.9459 667.753 51.3981C667.47 50.8472 667.329 50.2086 667.329 49.4822C667.329 48.7498 667.47 48.1096 667.753 47.5618C668.037 47.0109 668.438 46.5831 668.958 46.2784C669.481 45.9706 670.102 45.8168 670.819 45.8168C671.536 45.8168 672.154 45.9706 672.675 46.2784C673.198 46.5831 673.601 47.0109 673.884 47.5618C674.167 48.1096 674.309 48.7498 674.309 49.4822C674.309 50.2086 674.167 50.8472 673.884 51.3981C673.601 51.9459 673.198 52.3737 672.675 52.6815C672.154 52.9862 671.536 53.1385 670.819 53.1385ZM670.828 51.6151C671.154 51.6151 671.427 51.5227 671.645 51.3381C671.864 51.1503 672.028 50.8949 672.139 50.5717C672.253 50.2486 672.31 49.8808 672.31 49.4684C672.31 49.056 672.253 48.6882 672.139 48.3651C672.028 48.0419 671.864 47.7865 671.645 47.5987C671.427 47.411 671.154 47.3171 670.828 47.3171C670.499 47.3171 670.222 47.411 669.997 47.5987C669.775 47.7865 669.608 48.0419 669.494 48.3651C669.383 48.6882 669.328 49.056 669.328 49.4684C669.328 49.8808 669.383 50.2486 669.494 50.5717C669.608 50.8949 669.775 51.1503 669.997 51.3381C670.222 51.5227 670.499 51.6151 670.828 51.6151ZM678.791 53.1385C678.074 53.1385 677.454 52.9862 676.931 52.6815C676.411 52.3737 676.009 51.9459 675.726 51.3981C675.443 50.8472 675.301 50.2086 675.301 49.4822C675.301 48.7498 675.443 48.1096 675.726 47.5618C676.009 47.0109 676.411 46.5831 676.931 46.2784C677.454 45.9706 678.074 45.8168 678.791 45.8168C679.508 45.8168 680.127 45.9706 680.647 46.2784C681.17 46.5831 681.574 47.0109 681.857 47.5618C682.14 48.1096 682.281 48.7498 682.281 49.4822C682.281 50.2086 682.14 50.8472 681.857 51.3981C681.574 51.9459 681.17 52.3737 680.647 52.6815C680.127 52.9862 679.508 53.1385 678.791 53.1385ZM678.801 51.6151C679.127 51.6151 679.399 51.5227 679.618 51.3381C679.836 51.1503 680.001 50.8949 680.112 50.5717C680.226 50.2486 680.282 49.8808 680.282 49.4684C680.282 49.056 680.226 48.6882 680.112 48.3651C680.001 48.0419 679.836 47.7865 679.618 47.5987C679.399 47.411 679.127 47.3171 678.801 47.3171C678.471 47.3171 678.194 47.411 677.97 47.5987C677.748 47.7865 677.58 48.0419 677.466 48.3651C677.356 48.6882 677.3 49.056 677.3 49.4684C677.3 49.8808 677.356 50.2486 677.466 50.5717C677.58 50.8949 677.748 51.1503 677.97 51.3381C678.194 51.5227 678.471 51.6151 678.801 51.6151ZM685.527 48.9006V53H683.56V45.9091H685.434V47.1602H685.518C685.675 46.7478 685.938 46.4215 686.307 46.1815C686.676 45.9383 687.124 45.8168 687.65 45.8168C688.143 45.8168 688.572 45.9245 688.938 46.1399C689.305 46.3554 689.589 46.6631 689.792 47.0632C689.996 47.4602 690.097 47.9342 690.097 48.4851V53H688.131V48.8359C688.134 48.402 688.023 48.0634 687.798 47.8203C687.573 47.5741 687.264 47.451 686.87 47.451C686.606 47.451 686.372 47.5079 686.169 47.6218C685.968 47.7357 685.811 47.9019 685.698 48.1204C685.587 48.3358 685.53 48.5959 685.527 48.9006Z" fill="#D81E1E"/>
<path d="M521.492 148.919C521.161 153.222 521.359 163.118 524.798 168.281C529.096 174.735 529.757 177.452 529.757 180" stroke="#4A668F" stroke-width="1.62162" stroke-linecap="round"/>
<path d="M520.676 145.541C520.988 145 521.768 145 522.081 145.541L524.187 149.189C524.499 149.73 524.109 150.405 523.485 150.405H519.272C518.648 150.405 518.258 149.73 518.57 149.189L520.676 145.541Z" fill="#3F546B"/>
<path d="M573.676 84.8649C572.324 114.303 547.563 141.917 521.628 147.027C495.523 142.257 474.365 113.469 473 83.9994C473 52.1448 498.749 30 525.041 30C551.332 30 575.141 52.9515 573.676 84.8649Z" fill="url(#paint8_radial_109_207)"/>
<circle cx="498.811" cy="93.1081" r="8.51351" fill="#23456C" fill-opacity="0.5"/>
<circle cx="545.297" cy="93.1081" r="8.51351" fill="#23456C" fill-opacity="0.4"/>
<ellipse cx="537.73" cy="85.946" rx="4.45946" ry="4.32432" fill="#222222"/>
<ellipse cx="506.378" cy="85.946" rx="4.45946" ry="4.32432" fill="#222222"/>
<mask id="mask1_109_207" style="mask-type:alpha" maskUnits="userSpaceOnUse" x="514" y="91" width="16" height="12">
<path d="M514.591 92.5154C514.591 92.0676 514.954 91.7046 515.402 91.7046H529.121C529.569 91.7046 529.932 92.0676 529.932 92.5154V101.462C529.932 101.91 529.569 102.273 529.121 102.273H515.402C514.954 102.273 514.591 101.91 514.591 101.462V92.5154Z" fill="#C4C4C4"/>
</mask>
<g mask="url(#mask1_109_207)">
<path d="M529.932 92.2159C529.932 96.4522 526.498 99.8864 522.261 99.8864C518.025 99.8864 514.591 96.4522 514.591 92.2159C514.591 87.9796 518.025 84.5454 522.261 84.5454C526.498 84.5454 529.932 87.9796 529.932 92.2159Z" fill="#222222"/>
</g>
<g filter="url(#filter1_i_109_207)">
<rect x="596" y="63" width="109" height="40" rx="4" fill="white"/>
</g>
<rect x="596.25" y="63.25" width="108.5" height="39.5" rx="3.75" stroke="#FFC4C4" stroke-width="0.5"/>
<rect x="661" y="112" width="44" height="19" rx="4" fill="#FF7474"/>
<g filter="url(#filter2_d_109_207)">
<path d="M674.915 125H673.267L675.778 117.727H677.759L680.267 125H678.619L676.797 119.389H676.74L674.915 125ZM674.812 122.141H678.704V123.342H674.812V122.141ZM682.869 125.089C682.455 125.089 682.08 124.982 681.744 124.769C681.41 124.554 681.145 124.238 680.948 123.821C680.754 123.402 680.657 122.888 680.657 122.28C680.657 121.655 680.758 121.135 680.959 120.721C681.16 120.304 681.428 119.993 681.762 119.787C682.098 119.579 682.466 119.474 682.866 119.474C683.171 119.474 683.426 119.527 683.629 119.631C683.835 119.732 684.001 119.86 684.127 120.014C684.254 120.166 684.352 120.315 684.418 120.462H684.464V117.727H685.973V125H684.482V124.126H684.418C684.347 124.278 684.246 124.428 684.116 124.577C683.988 124.724 683.821 124.846 683.615 124.943C683.412 125.04 683.163 125.089 682.869 125.089ZM683.349 123.885C683.593 123.885 683.799 123.819 683.967 123.686C684.137 123.551 684.267 123.363 684.357 123.121C684.45 122.88 684.496 122.597 684.496 122.273C684.496 121.948 684.451 121.667 684.361 121.428C684.271 121.188 684.141 121.004 683.97 120.874C683.8 120.743 683.593 120.678 683.349 120.678C683.1 120.678 682.891 120.746 682.72 120.881C682.55 121.016 682.421 121.203 682.333 121.442C682.246 121.681 682.202 121.958 682.202 122.273C682.202 122.59 682.246 122.871 682.333 123.114C682.423 123.356 682.552 123.545 682.72 123.683C682.891 123.817 683.1 123.885 683.349 123.885ZM689.227 125.089C688.813 125.089 688.437 124.982 688.101 124.769C687.767 124.554 687.502 124.238 687.306 123.821C687.112 123.402 687.015 122.888 687.015 122.28C687.015 121.655 687.115 121.135 687.316 120.721C687.518 120.304 687.785 119.993 688.119 119.787C688.455 119.579 688.823 119.474 689.223 119.474C689.529 119.474 689.783 119.527 689.987 119.631C690.193 119.732 690.359 119.86 690.484 120.014C690.612 120.166 690.709 120.315 690.775 120.462H690.821V117.727H692.331V125H690.839V124.126H690.775C690.704 124.278 690.604 124.428 690.473 124.577C690.346 124.724 690.179 124.846 689.973 124.943C689.769 125.04 689.52 125.089 689.227 125.089ZM689.706 123.885C689.95 123.885 690.156 123.819 690.324 123.686C690.495 123.551 690.625 123.363 690.715 123.121C690.807 122.88 690.853 122.597 690.853 122.273C690.853 121.948 690.808 121.667 690.718 121.428C690.628 121.188 690.498 121.004 690.328 120.874C690.157 120.743 689.95 120.678 689.706 120.678C689.458 120.678 689.248 120.746 689.078 120.881C688.907 121.016 688.778 121.203 688.691 121.442C688.603 121.681 688.559 121.958 688.559 122.273C688.559 122.59 688.603 122.871 688.691 123.114C688.781 123.356 688.91 123.545 689.078 123.683C689.248 123.817 689.458 123.885 689.706 123.885Z" fill="white"/>
</g>
<defs>
<filter id="filter0_f_109_207" x="-145" y="2" width="472" height="435" filterUnits="userSpaceOnUse" color-interpolation-filters="sRGB">
<feFlood flood-opacity="0" result="BackgroundImageFix"/>
<feBlend mode="normal" in="SourceGraphic" in2="BackgroundImageFix" result="shape"/>
<feGaussianBlur stdDeviation="50" result="effect1_foregroundBlur_109_207"/>
</filter>
<filter id="filter1_i_109_207" x="596" y="63" width="109" height="42" filterUnits="userSpaceOnUse" color-interpolation-filters="sRGB">
<feFlood flood-opacity="0" result="BackgroundImageFix"/>
<feBlend mode="normal" in="SourceGraphic" in2="BackgroundImageFix" result="shape"/>
<feColorMatrix in="SourceAlpha" type="matrix" values="0 0 0 0 0 0 0 0 0 0 0 0 0 0 0 0 0 0 127 0" result="hardAlpha"/>
<feOffset dy="2"/>
<feGaussianBlur stdDeviation="5"/>
<feComposite in2="hardAlpha" operator="arithmetic" k2="-1" k3="1"/>
<feColorMatrix type="matrix" values="0 0 0 0 1 0 0 0 0 0.375 0 0 0 0 0.375 0 0 0 0.25 0"/>
<feBlend mode="normal" in2="shape" result="effect1_innerShadow_109_207"/>
</filter>
<filter id="filter2_d_109_207" x="670.267" y="116.727" width="25.0634" height="13.3615" filterUnits="userSpaceOnUse" color-interpolation-filters="sRGB">
<feFlood flood-opacity="0" result="BackgroundImageFix"/>
<feColorMatrix in="SourceAlpha" type="matrix" values="0 0 0 0 0 0 0 0 0 0 0 0 0 0 0 0 0 0 127 0" result="hardAlpha"/>
<feOffset dy="2"/>
<feGaussianBlur stdDeviation="1.5"/>
<feComposite in2="hardAlpha" operator="out"/>
<feColorMatrix type="matrix" values="0 0 0 0 0.320833 0 0 0 0 0 0 0 0 0 0 0 0 0 0.25 0"/>
<feBlend mode="normal" in2="BackgroundImageFix" result="effect1_dropShadow_109_207"/>
<feBlend mode="normal" in="SourceGraphic" in2="effect1_dropShadow_109_207" result="shape"/>
</filter>
<linearGradient id="paint0_linear_109_207" x1="350" y1="0" x2="350" y2="200" gradientUnits="userSpaceOnUse">
<stop stop-color="#381F2B"/>
<stop offset="1" stop-color="#1A1A43"/>
</linearGradient>
<linearGradient id="paint1_linear_109_207" x1="53.5" y1="147.573" x2="938.668" y2="124.901" gradientUnits="userSpaceOnUse">
<stop stop-color="#242849"/>
<stop offset="1" stop-color="#2F3846"/>
</linearGradient>
<linearGradient id="paint2_linear_109_207" x1="91" y1="102" x2="91" y2="337" gradientUnits="userSpaceOnUse">
<stop stop-color="#B9ADFF" stop-opacity="0.63"/>
<stop offset="0.380208" stop-color="#0771D3" stop-opacity="0.66"/>
<stop offset="1" stop-color="#4D233E" stop-opacity="0.98"/>
</linearGradient>
<linearGradient id="paint3_linear_109_207" x1="135.431" y1="160.943" x2="65.0942" y2="75.0897" gradientUnits="userSpaceOnUse">
<stop stop-color="#F2E6FF"/>
<stop offset="1" stop-color="#56C2FF"/>
</linearGradient>
<linearGradient id="paint4_linear_109_207" x1="406.695" y1="106.846" x2="406.695" y2="231.846" gradientUnits="userSpaceOnUse">
<stop stop-color="#FF94AD"/>
<stop offset="1" stop-color="#FF7BB3" stop-opacity="0"/>
</linearGradient>
<linearGradient id="paint5_linear_109_207" x1="390.544" y1="70.8141" x2="390.544" y2="146.442" gradientUnits="userSpaceOnUse">
<stop stop-color="#7E7BFF"/>
<stop offset="1" stop-color="#FF7BD2" stop-opacity="0"/>
</linearGradient>
<linearGradient id="paint6_linear_109_207" x1="416.407" y1="151.883" x2="416.407" y2="227.511" gradientUnits="userSpaceOnUse">
<stop stop-color="#FFABB0"/>
<stop offset="1" stop-color="#E7A0CF" stop-opacity="0"/>
</linearGradient>
<linearGradient id="paint7_linear_109_207" x1="585" y1="45.0621" x2="696.638" y2="157.915" gradientUnits="userSpaceOnUse">
<stop stop-color="white"/>
<stop offset="1" stop-color="#FFE7E7"/>
</linearGradient>
<radialGradient id="paint8_radial_109_207" cx="0" cy="0" r="1" gradientUnits="userSpaceOnUse" gradientTransform="translate(500.5 97) rotate(-32.8687) scale(77.3886 67.5101)">
<stop stop-color="#7A79AE"/>
<stop offset="0.770833" stop-color="#4B6598"/>
<stop offset="1" stop-color="#FFD9D9"/>
</radialGradient>
</defs>
</svg>
