<svg width="700" height="200" viewBox="0 0 700 200" fill="none" xmlns="http://www.w3.org/2000/svg">
<mask id="mask0_8_24" style="mask-type:alpha" maskUnits="userSpaceOnUse" x="0" y="0" width="700" height="200">
<path d="M0 1.52588e-05H700V150C700 177.614 677.614 200 650 200H0V1.52588e-05Z" fill="url(#paint0_linear_8_24)"/>
</mask>
<g mask="url(#mask0_8_24)">
<rect y="1.52588e-05" width="1000" height="200" fill="url(#paint1_linear_8_24)"/>
<g filter="url(#filter0_f_8_24)">
<ellipse cx="91" cy="219.5" rx="136" ry="117.5" fill="url(#paint2_linear_8_24)"/>
</g>
<g filter="url(#filter1_f_8_24)">
<ellipse cx="281.5" cy="343" rx="183.5" ry="168" fill="url(#paint3_linear_8_24)"/>
</g>
</g>
<path d="M165.758 88V72H175.68V74.0781H168.172V78.9531H174.969V81.0234H168.172V88H165.758Z" fill="url(#paint4_linear_8_24)" fill-opacity="0.55"/>
<path d="M179.748 88V72H182.163V85.9219H189.413V88H179.748Z" fill="url(#paint5_linear_8_24)" fill-opacity="0.55"/>
<path d="M206.542 80C206.542 81.7083 206.229 83.1771 205.604 84.4062C204.979 85.6302 204.123 86.5729 203.034 87.2344C201.951 87.8906 200.719 88.2188 199.339 88.2188C197.953 88.2188 196.716 87.8906 195.628 87.2344C194.544 86.5729 193.69 85.6276 193.065 84.3984C192.44 83.1693 192.128 81.7031 192.128 80C192.128 78.2917 192.44 76.8255 193.065 75.6016C193.69 74.3724 194.544 73.4297 195.628 72.7734C196.716 72.112 197.953 71.7812 199.339 71.7812C200.719 71.7812 201.951 72.112 203.034 72.7734C204.123 73.4297 204.979 74.3724 205.604 75.6016C206.229 76.8255 206.542 78.2917 206.542 80ZM204.151 80C204.151 78.6979 203.94 77.6016 203.518 76.7109C203.102 75.8151 202.529 75.138 201.8 74.6797C201.076 74.2161 200.255 73.9844 199.339 73.9844C198.417 73.9844 197.594 74.2161 196.87 74.6797C196.146 75.138 195.573 75.8151 195.151 76.7109C194.735 77.6016 194.526 78.6979 194.526 80C194.526 81.3021 194.735 82.401 195.151 83.2969C195.573 84.1875 196.146 84.8646 196.87 85.3281C197.594 85.7865 198.417 86.0156 199.339 86.0156C200.255 86.0156 201.076 85.7865 201.8 85.3281C202.529 84.8646 203.102 84.1875 203.518 83.2969C203.94 82.401 204.151 81.3021 204.151 80Z" fill="url(#paint6_linear_8_24)" fill-opacity="0.55"/>
<path d="M211.208 88H208.646L214.404 72H217.193L222.95 88H220.388L215.864 74.9062H215.739L211.208 88ZM211.638 81.7344H219.95V83.7656H211.638V81.7344Z" fill="url(#paint7_linear_8_24)" fill-opacity="0.55"/>
<path d="M223.681 74.0781V72H236.064V74.0781H231.072V88H228.666V74.0781H223.681Z" fill="url(#paint8_linear_8_24)" fill-opacity="0.55"/>
<path d="M242.314 72V88H239.9V72H242.314Z" fill="url(#paint9_linear_8_24)" fill-opacity="0.55"/>
<path d="M259.844 72V88H257.625L249.493 76.2656H249.344V88H246.93V72H249.164L257.305 83.75H257.454V72H259.844Z" fill="url(#paint10_linear_8_24)" fill-opacity="0.55"/>
<path d="M275.294 77.0547C275.143 76.5807 274.94 76.1563 274.684 75.7813C274.434 75.401 274.135 75.0781 273.786 74.8125C273.437 74.5417 273.039 74.3359 272.591 74.1953C272.148 74.0547 271.661 73.9844 271.13 73.9844C270.229 73.9844 269.416 74.2161 268.692 74.6797C267.968 75.1432 267.395 75.8229 266.973 76.7187C266.557 77.6094 266.348 78.7005 266.348 79.9922C266.348 81.2891 266.559 82.3854 266.981 83.2812C267.403 84.1771 267.981 84.8568 268.716 85.3203C269.45 85.7839 270.286 86.0156 271.223 86.0156C272.093 86.0156 272.851 85.8385 273.497 85.4844C274.148 85.1302 274.651 84.6302 275.005 83.9844C275.364 83.3333 275.544 82.5677 275.544 81.6875L276.169 81.8047H271.591V79.8125H277.88V81.6328C277.88 82.9766 277.593 84.1432 277.02 85.1328C276.453 86.1172 275.666 86.8776 274.661 87.4141C273.661 87.9505 272.515 88.2188 271.223 88.2188C269.776 88.2188 268.505 87.8854 267.411 87.2188C266.322 86.5521 265.473 85.6068 264.864 84.3828C264.255 83.1536 263.95 81.6953 263.95 80.0078C263.95 78.7318 264.127 77.5859 264.481 76.5703C264.835 75.5547 265.333 74.6927 265.973 73.9844C266.619 73.2708 267.377 72.7266 268.247 72.3516C269.122 71.9714 270.078 71.7812 271.114 71.7812C271.979 71.7812 272.783 71.9089 273.528 72.1641C274.278 72.4193 274.945 72.7812 275.528 73.25C276.117 73.7188 276.604 74.276 276.989 74.9219C277.374 75.5625 277.635 76.2734 277.77 77.0547H275.294Z" fill="url(#paint11_linear_8_24)" fill-opacity="0.55"/>
<path d="M299.255 72H301.677V82.5234C301.677 83.6432 301.414 84.6354 300.888 85.5C300.362 86.3594 299.623 87.0365 298.67 87.5312C297.716 88.0208 296.599 88.2656 295.318 88.2656C294.042 88.2656 292.927 88.0208 291.974 87.5312C291.021 87.0365 290.282 86.3594 289.755 85.5C289.229 84.6354 288.966 83.6432 288.966 82.5234V72H291.38V82.3281C291.38 83.0521 291.539 83.6953 291.857 84.2578C292.18 84.8203 292.636 85.263 293.224 85.5859C293.813 85.9036 294.511 86.0625 295.318 86.0625C296.13 86.0625 296.831 85.9036 297.42 85.5859C298.013 85.263 298.466 84.8203 298.779 84.2578C299.097 83.6953 299.255 83.0521 299.255 82.3281V72Z" fill="url(#paint12_linear_8_24)" fill-opacity="0.55"/>
<path d="M308.701 72V88H306.287V72H308.701Z" fill="url(#paint13_linear_8_24)" fill-opacity="0.55"/>
<path d="M165.273 107.261V103.727H183.841V107.261H176.648V127H172.466V107.261H165.273Z" fill="url(#paint14_linear_8_24)"/>
<path d="M192.961 127.341C191.256 127.341 189.779 126.966 188.529 126.216C187.279 125.466 186.309 124.417 185.62 123.068C184.938 121.72 184.597 120.144 184.597 118.341C184.597 116.538 184.938 114.958 185.62 113.602C186.309 112.246 187.279 111.193 188.529 110.443C189.779 109.693 191.256 109.318 192.961 109.318C194.666 109.318 196.143 109.693 197.393 110.443C198.643 111.193 199.609 112.246 200.291 113.602C200.98 114.958 201.325 116.538 201.325 118.341C201.325 120.144 200.98 121.72 200.291 123.068C199.609 124.417 198.643 125.466 197.393 126.216C196.143 126.966 194.666 127.341 192.961 127.341ZM192.984 124.045C193.908 124.045 194.681 123.792 195.302 123.284C195.923 122.769 196.385 122.08 196.688 121.216C196.999 120.352 197.154 119.39 197.154 118.33C197.154 117.261 196.999 116.295 196.688 115.432C196.385 114.561 195.923 113.867 195.302 113.352C194.681 112.837 193.908 112.58 192.984 112.58C192.037 112.58 191.249 112.837 190.62 113.352C189.999 113.867 189.533 114.561 189.222 115.432C188.919 116.295 188.768 117.261 188.768 118.33C188.768 119.39 188.919 120.352 189.222 121.216C189.533 122.08 189.999 122.769 190.62 123.284C191.249 123.792 192.037 124.045 192.984 124.045Z" fill="url(#paint15_linear_8_24)"/>
<path d="M213.07 127.341C211.365 127.341 209.888 126.966 208.638 126.216C207.388 125.466 206.418 124.417 205.729 123.068C205.047 121.72 204.706 120.144 204.706 118.341C204.706 116.538 205.047 114.958 205.729 113.602C206.418 112.246 207.388 111.193 208.638 110.443C209.888 109.693 211.365 109.318 213.07 109.318C214.774 109.318 216.252 109.693 217.502 110.443C218.752 111.193 219.717 112.246 220.399 113.602C221.089 114.958 221.433 116.538 221.433 118.341C221.433 120.144 221.089 121.72 220.399 123.068C219.717 124.417 218.752 125.466 217.502 126.216C216.252 126.966 214.774 127.341 213.07 127.341ZM213.092 124.045C214.017 124.045 214.789 123.792 215.411 123.284C216.032 122.769 216.494 122.08 216.797 121.216C217.108 120.352 217.263 119.39 217.263 118.33C217.263 117.261 217.108 116.295 216.797 115.432C216.494 114.561 216.032 113.867 215.411 113.352C214.789 112.837 214.017 112.58 213.092 112.58C212.146 112.58 211.358 112.837 210.729 113.352C210.108 113.867 209.642 114.561 209.331 115.432C209.028 116.295 208.877 117.261 208.877 118.33C208.877 119.39 209.028 120.352 209.331 121.216C209.642 122.08 210.108 122.769 210.729 123.284C211.358 123.792 212.146 124.045 213.092 124.045Z" fill="url(#paint16_linear_8_24)"/>
<path d="M229.678 103.727V127H225.565V103.727H229.678Z" fill="url(#paint17_linear_8_24)"/>
<path d="M243.265 109.545V112.727H233.23V109.545H243.265ZM235.708 105.364H239.821V121.75C239.821 122.303 239.905 122.727 240.071 123.023C240.246 123.311 240.473 123.508 240.753 123.614C241.033 123.72 241.344 123.773 241.685 123.773C241.943 123.773 242.177 123.754 242.39 123.716C242.609 123.678 242.776 123.644 242.89 123.614L243.583 126.83C243.363 126.905 243.049 126.989 242.64 127.08C242.238 127.17 241.746 127.223 241.162 127.239C240.132 127.269 239.204 127.114 238.378 126.773C237.552 126.424 236.897 125.886 236.412 125.159C235.935 124.432 235.7 123.523 235.708 122.432V105.364Z" fill="url(#paint18_linear_8_24)"/>
<path d="M247.345 127V109.545H251.458V127H247.345ZM249.413 107.068C248.762 107.068 248.201 106.852 247.731 106.42C247.262 105.981 247.027 105.455 247.027 104.841C247.027 104.22 247.262 103.693 247.731 103.261C248.201 102.822 248.762 102.602 249.413 102.602C250.072 102.602 250.633 102.822 251.095 103.261C251.565 103.693 251.799 104.22 251.799 104.841C251.799 105.455 251.565 105.981 251.095 106.42C250.633 106.852 250.072 107.068 249.413 107.068Z" fill="url(#paint19_linear_8_24)"/>
<path d="M256.329 133.545V109.545H260.374V112.432H260.613C260.825 112.008 261.124 111.557 261.51 111.08C261.897 110.595 262.42 110.182 263.079 109.841C263.738 109.492 264.579 109.318 265.601 109.318C266.95 109.318 268.166 109.663 269.249 110.352C270.34 111.034 271.204 112.045 271.84 113.386C272.484 114.72 272.806 116.356 272.806 118.295C272.806 120.212 272.491 121.841 271.863 123.182C271.234 124.523 270.378 125.545 269.295 126.25C268.211 126.955 266.984 127.307 265.613 127.307C264.613 127.307 263.783 127.14 263.124 126.807C262.465 126.473 261.935 126.072 261.533 125.602C261.139 125.125 260.832 124.674 260.613 124.25H260.442V133.545H256.329ZM260.363 118.273C260.363 119.402 260.522 120.39 260.84 121.239C261.166 122.087 261.632 122.75 262.238 123.227C262.851 123.697 263.594 123.932 264.465 123.932C265.374 123.932 266.135 123.689 266.749 123.205C267.363 122.712 267.825 122.042 268.135 121.193C268.454 120.337 268.613 119.364 268.613 118.273C268.613 117.189 268.457 116.227 268.147 115.386C267.836 114.545 267.374 113.886 266.76 113.409C266.147 112.932 265.382 112.693 264.465 112.693C263.586 112.693 262.84 112.924 262.226 113.386C261.613 113.848 261.147 114.496 260.829 115.33C260.518 116.163 260.363 117.144 260.363 118.273Z" fill="url(#paint20_linear_8_24)"/>
<path d="M100.205 135.219C99.9293 138.716 100.095 146.76 102.966 150.956C106.556 156.202 107.108 158.411 107.108 160.481" stroke="black" stroke-linecap="round"/>
<path d="M98.7708 133.976C99.4084 132.872 101.002 132.872 101.64 133.976V133.976C102.278 135.081 101.481 136.461 100.205 136.461V136.461C98.9302 136.461 98.1332 135.081 98.7708 133.976V133.976Z" fill="#3D2F95"/>
<path d="M143 83.5892C140.961 108.714 121.327 129.697 100.343 133.838C79.2222 129.973 62.1044 106.643 61 82.7609C61 56.9461 81.833 39 103.104 39C124.376 39 143 56.532 143 83.5892Z" fill="url(#paint21_radial_8_24)"/>
<circle cx="81.9832" cy="90.0774" r="6.90236" fill="#7C31DB" fill-opacity="0.5"/>
<circle cx="119.532" cy="90.0774" r="6.90236" fill="#7C31DB" fill-opacity="0.4"/>
<circle cx="113.458" cy="84.2795" r="3.58923" fill="#222222"/>
<circle cx="88.0572" cy="84.2795" r="3.58923" fill="#222222"/>
<mask id="mask1_8_24" style="mask-type:alpha" maskUnits="userSpaceOnUse" x="94" y="88" width="14" height="10">
<path d="M94.6835 89.9731C94.6835 89.4208 95.1312 88.9731 95.6835 88.9731H106.108C106.66 88.9731 107.108 89.4208 107.108 89.9731V96.532C107.108 97.0843 106.66 97.532 106.108 97.532H95.6835C95.1312 97.532 94.6835 97.0843 94.6835 96.532V89.9731Z" fill="#C4C4C4"/>
</mask>
<g mask="url(#mask1_8_24)">
<path d="M107.108 89.3872C107.108 92.8181 104.326 95.5993 100.896 95.5993C97.4648 95.5993 94.6835 92.8181 94.6835 89.3872C94.6835 85.9563 97.4648 83.1751 100.896 83.1751C104.326 83.1751 107.108 85.9563 107.108 89.3872Z" fill="#222222"/>
</g>
<rect x="483.974" y="106.846" width="1.44181" height="125" transform="rotate(120 483.974 106.846)" fill="url(#paint22_linear_8_24)"/>
<rect x="468.108" y="70.8141" width="0.872331" height="75.6282" transform="rotate(120 468.108 70.8141)" fill="url(#paint23_linear_8_24)"/>
<rect x="493.971" y="151.883" width="0.872331" height="75.6282" transform="rotate(120 493.971 151.883)" fill="url(#paint24_linear_8_24)"/>
<rect x="525" y="48" width="113" height="44" rx="9" fill="white"/>
<rect x="582.142" y="77" width="20" height="20" transform="rotate(45 582.142 77)" fill="white"/>
<path d="M544.393 75H540.696V64.0909H544.467C545.551 64.0909 546.481 64.3093 547.259 64.7461C548.04 65.1793 548.64 65.8026 549.059 66.6158C549.478 67.429 549.688 68.402 549.688 69.5348C549.688 70.6712 549.476 71.6477 549.054 72.4645C548.635 73.2813 548.029 73.908 547.237 74.3448C546.449 74.7816 545.501 75 544.393 75ZM542.672 73.2901H544.297C545.057 73.2901 545.691 73.1516 546.199 72.8746C546.706 72.5941 547.088 72.1768 547.344 71.6229C547.6 71.0653 547.727 70.3693 547.727 69.5348C547.727 68.7003 547.6 68.0078 547.344 67.4574C547.088 66.9034 546.71 66.4897 546.209 66.2163C545.712 65.9393 545.094 65.8008 544.356 65.8008H542.672V73.2901Z" fill="#353747"/>
<path d="M555.102 75.1598C554.282 75.1598 553.573 74.9893 552.977 74.6484C552.384 74.304 551.927 73.8175 551.608 73.1889C551.288 72.5568 551.128 71.8129 551.128 70.957C551.128 70.1154 551.288 69.3768 551.608 68.7411C551.931 68.1019 552.382 67.6048 552.961 67.2496C553.54 66.891 554.22 66.7117 555.001 66.7117C555.505 66.7117 555.981 66.7933 556.429 66.9567C556.88 67.1165 557.277 67.3651 557.622 67.7024C557.97 68.0398 558.243 68.4695 558.442 68.9915C558.641 69.5099 558.74 70.1278 558.74 70.8452V71.4364H552.034V70.1367H556.892C556.888 69.7674 556.809 69.4389 556.652 69.1513C556.496 68.8601 556.278 68.631 555.997 68.4641C555.72 68.2972 555.397 68.2138 555.028 68.2138C554.633 68.2138 554.287 68.3097 553.989 68.5014C553.691 68.6896 553.458 68.9382 553.291 69.2472C553.128 69.5526 553.044 69.8881 553.041 70.2539V71.3885C553.041 71.8643 553.128 72.2727 553.302 72.6136C553.476 72.951 553.719 73.2102 554.032 73.3913C554.344 73.5689 554.71 73.6577 555.129 73.6577C555.409 73.6577 555.663 73.6186 555.891 73.5405C556.118 73.4588 556.315 73.3398 556.482 73.1836C556.649 73.0273 556.775 72.8338 556.86 72.603L558.66 72.8054C558.547 73.2813 558.33 73.6967 558.011 74.0518C557.695 74.4034 557.29 74.6768 556.796 74.8722C556.302 75.0639 555.738 75.1598 555.102 75.1598Z" fill="#353747"/>
<path d="M566.838 68.9808L565.08 69.1726C565.031 68.995 564.944 68.8281 564.819 68.6719C564.699 68.5156 564.535 68.3896 564.329 68.2937C564.123 68.1978 563.871 68.1499 563.573 68.1499C563.172 68.1499 562.834 68.2369 562.561 68.4109C562.291 68.5849 562.158 68.8104 562.161 69.0874C562.158 69.3253 562.245 69.5188 562.422 69.668C562.604 69.8171 562.902 69.9396 563.317 70.0355L564.713 70.3338C565.487 70.5007 566.062 70.7653 566.439 71.1275C566.819 71.4897 567.01 71.9638 567.014 72.5497C567.01 73.0646 566.86 73.5192 566.561 73.9134C566.267 74.304 565.856 74.6094 565.331 74.8295C564.805 75.0497 564.202 75.1598 563.52 75.1598C562.518 75.1598 561.712 74.9503 561.101 74.5313C560.491 74.1087 560.127 73.521 560.009 72.7681L561.89 72.587C561.975 72.9563 562.156 73.2351 562.433 73.4233C562.71 73.6115 563.07 73.7056 563.514 73.7056C563.972 73.7056 564.34 73.6115 564.617 73.4233C564.898 73.2351 565.038 73.0025 565.038 72.7255C565.038 72.4911 564.947 72.2976 564.766 72.1449C564.589 71.9922 564.312 71.875 563.935 71.7933L562.54 71.5004C561.755 71.337 561.174 71.0618 560.798 70.6747C560.421 70.2841 560.235 69.7905 560.238 69.1939C560.235 68.6896 560.372 68.2528 560.649 67.8835C560.929 67.5107 561.318 67.223 561.815 67.0206C562.316 66.8146 562.893 66.7117 563.546 66.7117C564.505 66.7117 565.26 66.9158 565.81 67.3242C566.364 67.7326 566.707 68.2848 566.838 68.9808Z" fill="#353747"/>
<path d="M572.173 75.1598C571.356 75.1598 570.655 74.9805 570.069 74.6218C569.487 74.2631 569.037 73.7678 568.721 73.1357C568.409 72.5 568.252 71.7685 568.252 70.9411C568.252 70.1101 568.412 69.3768 568.732 68.7411C569.051 68.1019 569.502 67.6048 570.085 67.2496C570.671 66.891 571.363 66.7117 572.162 66.7117C572.826 66.7117 573.414 66.8342 573.925 67.0792C574.44 67.3207 574.85 67.6634 575.156 68.1072C575.461 68.5476 575.635 69.0625 575.678 69.652H573.835C573.76 69.2578 573.583 68.9293 573.302 68.6666C573.025 68.4002 572.654 68.267 572.189 68.267C571.795 68.267 571.449 68.3736 571.15 68.5867C570.852 68.7962 570.619 69.098 570.452 69.4922C570.289 69.8864 570.207 70.3587 570.207 70.9091C570.207 71.4666 570.289 71.946 570.452 72.3473C570.616 72.745 570.845 73.0522 571.14 73.2688C571.438 73.4819 571.788 73.5884 572.189 73.5884C572.473 73.5884 572.727 73.5352 572.951 73.4286C573.178 73.3185 573.368 73.1605 573.521 72.9545C573.673 72.7486 573.778 72.4982 573.835 72.2035H575.678C575.632 72.7823 575.461 73.2955 575.167 73.7429C574.872 74.1868 574.471 74.5348 573.963 74.7869C573.455 75.0355 572.858 75.1598 572.173 75.1598Z" fill="#353747"/>
<path d="M577.261 75V66.8182H579.131V68.1818H579.216C579.365 67.7095 579.621 67.3455 579.983 67.0898C580.349 66.8306 580.766 66.701 581.235 66.701C581.342 66.701 581.46 66.7063 581.592 66.717C581.727 66.7241 581.839 66.7365 581.927 66.7543V68.5281C581.846 68.4996 581.716 68.4748 581.539 68.4535C581.365 68.4286 581.196 68.4162 581.033 68.4162C580.681 68.4162 580.365 68.4925 580.084 68.6452C579.807 68.7944 579.589 69.0021 579.429 69.2685C579.269 69.5348 579.19 69.842 579.19 70.19V75H577.261Z" fill="#353747"/>
<path d="M583.209 75V66.8182H585.137V75H583.209ZM584.178 65.657C583.873 65.657 583.61 65.5558 583.39 65.3533C583.169 65.1474 583.059 64.9006 583.059 64.6129C583.059 64.3217 583.169 64.0749 583.39 63.8725C583.61 63.6666 583.873 63.5636 584.178 63.5636C584.487 63.5636 584.75 63.6666 584.966 63.8725C585.187 64.0749 585.297 64.3217 585.297 64.6129C585.297 64.9006 585.187 65.1474 584.966 65.3533C584.75 65.5558 584.487 65.657 584.178 65.657Z" fill="#353747"/>
<path d="M587.12 78.0682V66.8182H589.016V68.1712H589.128C589.227 67.9723 589.368 67.761 589.549 67.5373C589.73 67.31 589.975 67.1165 590.284 66.9567C590.593 66.7933 590.987 66.7117 591.466 66.7117C592.098 66.7117 592.668 66.8732 593.176 67.1964C593.687 67.516 594.092 67.9901 594.391 68.6186C594.692 69.2436 594.843 70.0107 594.843 70.9197C594.843 71.8182 594.696 72.5817 594.401 73.2102C594.107 73.8388 593.705 74.3182 593.197 74.6484C592.69 74.9787 592.114 75.1438 591.472 75.1438C591.003 75.1438 590.614 75.0657 590.305 74.9094C589.996 74.7532 589.748 74.565 589.559 74.3448C589.375 74.1211 589.231 73.9098 589.128 73.7109H589.048V78.0682H587.12ZM589.011 70.9091C589.011 71.4382 589.085 71.9016 589.234 72.2994C589.387 72.6971 589.605 73.0078 589.89 73.2315C590.177 73.4517 590.525 73.5618 590.934 73.5618C591.36 73.5618 591.717 73.4482 592.004 73.2209C592.292 72.9901 592.509 72.6758 592.654 72.2781C592.803 71.8768 592.878 71.4205 592.878 70.9091C592.878 70.4013 592.805 69.9503 592.659 69.5561C592.514 69.1619 592.297 68.853 592.01 68.6293C591.722 68.4055 591.363 68.2937 590.934 68.2937C590.522 68.2937 590.172 68.402 589.884 68.6186C589.597 68.8352 589.378 69.1389 589.229 69.5295C589.083 69.9201 589.011 70.38 589.011 70.9091Z" fill="#353747"/>
<path d="M600.58 66.8182V68.3097H595.877V66.8182H600.58ZM597.038 64.858H598.966V72.5391C598.966 72.7983 599.005 72.9972 599.083 73.1357C599.165 73.2706 599.272 73.3629 599.403 73.4126C599.534 73.4624 599.68 73.4872 599.84 73.4872C599.961 73.4872 600.071 73.4783 600.17 73.4606C600.273 73.4428 600.351 73.4268 600.404 73.4126L600.729 74.9201C600.626 74.9556 600.479 74.9947 600.287 75.0373C600.099 75.0799 599.868 75.1048 599.595 75.1119C599.112 75.1261 598.677 75.0533 598.29 74.8935C597.903 74.7301 597.596 74.478 597.368 74.1371C597.145 73.7962 597.034 73.37 597.038 72.8587V64.858Z" fill="#353747"/>
<path d="M602.193 75V66.8182H604.121V75H602.193ZM603.162 65.657C602.857 65.657 602.594 65.5558 602.374 65.3533C602.154 65.1474 602.044 64.9006 602.044 64.6129C602.044 64.3217 602.154 64.0749 602.374 63.8725C602.594 63.6666 602.857 63.5636 603.162 63.5636C603.471 63.5636 603.734 63.6666 603.951 63.8725C604.171 64.0749 604.281 64.3217 604.281 64.6129C604.281 64.9006 604.171 65.1474 603.951 65.3533C603.734 65.5558 603.471 65.657 603.162 65.657Z" fill="#353747"/>
<path d="M609.673 75.1598C608.874 75.1598 608.181 74.984 607.596 74.6325C607.01 74.2809 606.555 73.7891 606.232 73.157C605.912 72.5249 605.752 71.7862 605.752 70.9411C605.752 70.0959 605.912 69.3555 606.232 68.7198C606.555 68.0842 607.01 67.5906 607.596 67.239C608.181 66.8874 608.874 66.7117 609.673 66.7117C610.472 66.7117 611.164 66.8874 611.75 67.239C612.336 67.5906 612.789 68.0842 613.109 68.7198C613.432 69.3555 613.593 70.0959 613.593 70.9411C613.593 71.7862 613.432 72.5249 613.109 73.157C612.789 73.7891 612.336 74.2809 611.75 74.6325C611.164 74.984 610.472 75.1598 609.673 75.1598ZM609.684 73.6151C610.117 73.6151 610.479 73.4961 610.77 73.2582C611.061 73.0167 611.278 72.6935 611.42 72.2887C611.566 71.8839 611.638 71.4329 611.638 70.9357C611.638 70.435 611.566 69.9822 611.42 69.5774C611.278 69.169 611.061 68.8441 610.77 68.6026C610.479 68.3612 610.117 68.2404 609.684 68.2404C609.24 68.2404 608.87 68.3612 608.576 68.6026C608.284 68.8441 608.066 69.169 607.92 69.5774C607.778 69.9822 607.707 70.435 607.707 70.9357C607.707 71.4329 607.778 71.8839 607.92 72.2887C608.066 72.6935 608.284 73.0167 608.576 73.2582C608.87 73.4961 609.24 73.6151 609.684 73.6151Z" fill="#353747"/>
<path d="M617.158 70.206V75H615.23V66.8182H617.073V68.2085H617.169C617.357 67.7504 617.657 67.3864 618.069 67.1165C618.485 66.8466 618.998 66.7117 619.609 66.7117C620.173 66.7117 620.665 66.8324 621.084 67.0739C621.507 67.3153 621.833 67.6651 622.064 68.1232C622.299 68.5813 622.414 69.1371 622.41 69.7905V75H620.482V70.0888C620.482 69.5419 620.34 69.114 620.056 68.805C619.775 68.4961 619.387 68.3416 618.889 68.3416C618.552 68.3416 618.252 68.4162 617.989 68.5653C617.73 68.7109 617.526 68.9222 617.377 69.1992C617.231 69.4762 617.158 69.8118 617.158 70.206Z" fill="#353747"/>
<g filter="url(#filter2_d_8_24)">
<circle cx="582.5" cy="129.5" r="14.5" stroke="white" stroke-linecap="round" stroke-dasharray="4 8" shape-rendering="crispEdges"/>
</g>
<defs>
<filter id="filter0_f_8_24" x="-145" y="2.00002" width="472" height="435" filterUnits="userSpaceOnUse" color-interpolation-filters="sRGB">
<feFlood flood-opacity="0" result="BackgroundImageFix"/>
<feBlend mode="normal" in="SourceGraphic" in2="BackgroundImageFix" result="shape"/>
<feGaussianBlur stdDeviation="50" result="effect1_foregroundBlur_8_24"/>
</filter>
<filter id="filter1_f_8_24" x="-2" y="75" width="567" height="536" filterUnits="userSpaceOnUse" color-interpolation-filters="sRGB">
<feFlood flood-opacity="0" result="BackgroundImageFix"/>
<feBlend mode="normal" in="SourceGraphic" in2="BackgroundImageFix" result="shape"/>
<feGaussianBlur stdDeviation="50" result="effect1_foregroundBlur_8_24"/>
</filter>
<filter id="filter2_d_8_24" x="565.5" y="114.5" width="34" height="34" filterUnits="userSpaceOnUse" color-interpolation-filters="sRGB">
<feFlood flood-opacity="0" result="BackgroundImageFix"/>
<feColorMatrix in="SourceAlpha" type="matrix" values="0 0 0 0 0 0 0 0 0 0 0 0 0 0 0 0 0 0 127 0" result="hardAlpha"/>
<feOffset dy="2"/>
<feGaussianBlur stdDeviation="1"/>
<feComposite in2="hardAlpha" operator="out"/>
<feColorMatrix type="matrix" values="0 0 0 0 0 0 0 0 0 0 0 0 0 0 0 0 0 0 0.25 0"/>
<feBlend mode="normal" in2="BackgroundImageFix" result="effect1_dropShadow_8_24"/>
<feBlend mode="normal" in="SourceGraphic" in2="effect1_dropShadow_8_24" result="shape"/>
</filter>
<linearGradient id="paint0_linear_8_24" x1="350" y1="1.52588e-05" x2="350" y2="200" gradientUnits="userSpaceOnUse">
<stop stop-color="#381F2B"/>
<stop offset="1" stop-color="#1A1A43"/>
</linearGradient>
<linearGradient id="paint1_linear_8_24" x1="53.5" y1="147.573" x2="938.668" y2="124.901" gradientUnits="userSpaceOnUse">
<stop stop-color="#242849"/>
<stop offset="1" stop-color="#2F3846"/>
</linearGradient>
<linearGradient id="paint2_linear_8_24" x1="91" y1="102" x2="91" y2="337" gradientUnits="userSpaceOnUse">
<stop stop-color="#B9ADFF" stop-opacity="0.63"/>
<stop offset="0.380208" stop-color="#0771D3" stop-opacity="0.66"/>
<stop offset="1" stop-color="#4D233E" stop-opacity="0.98"/>
</linearGradient>
<linearGradient id="paint3_linear_8_24" x1="346.5" y1="296" x2="281.5" y2="511" gradientUnits="userSpaceOnUse">
<stop stop-color="#FEC4FF" stop-opacity="0.5"/>
<stop offset="0.380208" stop-color="#A10CA4" stop-opacity="0.34"/>
<stop offset="1" stop-color="#10477A" stop-opacity="0.24"/>
</linearGradient>
<linearGradient id="paint4_linear_8_24" x1="224.5" y1="66" x2="233" y2="111" gradientUnits="userSpaceOnUse">
<stop stop-color="#E9EBF8"/>
<stop offset="1" stop-color="#E9EBF8" stop-opacity="0"/>
</linearGradient>
<linearGradient id="paint5_linear_8_24" x1="224.5" y1="66" x2="233" y2="111" gradientUnits="userSpaceOnUse">
<stop stop-color="#E9EBF8"/>
<stop offset="1" stop-color="#E9EBF8" stop-opacity="0"/>
</linearGradient>
<linearGradient id="paint6_linear_8_24" x1="224.5" y1="66" x2="233" y2="111" gradientUnits="userSpaceOnUse">
<stop stop-color="#E9EBF8"/>
<stop offset="1" stop-color="#E9EBF8" stop-opacity="0"/>
</linearGradient>
<linearGradient id="paint7_linear_8_24" x1="224.5" y1="66" x2="233" y2="111" gradientUnits="userSpaceOnUse">
<stop stop-color="#E9EBF8"/>
<stop offset="1" stop-color="#E9EBF8" stop-opacity="0"/>
</linearGradient>
<linearGradient id="paint8_linear_8_24" x1="224.5" y1="66" x2="233" y2="111" gradientUnits="userSpaceOnUse">
<stop stop-color="#E9EBF8"/>
<stop offset="1" stop-color="#E9EBF8" stop-opacity="0"/>
</linearGradient>
<linearGradient id="paint9_linear_8_24" x1="224.5" y1="66" x2="233" y2="111" gradientUnits="userSpaceOnUse">
<stop stop-color="#E9EBF8"/>
<stop offset="1" stop-color="#E9EBF8" stop-opacity="0"/>
</linearGradient>
<linearGradient id="paint10_linear_8_24" x1="224.5" y1="66" x2="233" y2="111" gradientUnits="userSpaceOnUse">
<stop stop-color="#E9EBF8"/>
<stop offset="1" stop-color="#E9EBF8" stop-opacity="0"/>
</linearGradient>
<linearGradient id="paint11_linear_8_24" x1="224.5" y1="66" x2="233" y2="111" gradientUnits="userSpaceOnUse">
<stop stop-color="#E9EBF8"/>
<stop offset="1" stop-color="#E9EBF8" stop-opacity="0"/>
</linearGradient>
<linearGradient id="paint12_linear_8_24" x1="224.5" y1="66" x2="233" y2="111" gradientUnits="userSpaceOnUse">
<stop stop-color="#E9EBF8"/>
<stop offset="1" stop-color="#E9EBF8" stop-opacity="0"/>
</linearGradient>
<linearGradient id="paint13_linear_8_24" x1="224.5" y1="66" x2="233" y2="111" gradientUnits="userSpaceOnUse">
<stop stop-color="#E9EBF8"/>
<stop offset="1" stop-color="#E9EBF8" stop-opacity="0"/>
</linearGradient>
<linearGradient id="paint14_linear_8_24" x1="211.5" y1="150" x2="171.5" y2="87.5" gradientUnits="userSpaceOnUse">
<stop stop-color="#F2E6FF"/>
<stop offset="1" stop-color="#56C2FF"/>
</linearGradient>
<linearGradient id="paint15_linear_8_24" x1="211.5" y1="150" x2="171.5" y2="87.5" gradientUnits="userSpaceOnUse">
<stop stop-color="#F2E6FF"/>
<stop offset="1" stop-color="#56C2FF"/>
</linearGradient>
<linearGradient id="paint16_linear_8_24" x1="211.5" y1="150" x2="171.5" y2="87.5" gradientUnits="userSpaceOnUse">
<stop stop-color="#F2E6FF"/>
<stop offset="1" stop-color="#56C2FF"/>
</linearGradient>
<linearGradient id="paint17_linear_8_24" x1="211.5" y1="150" x2="171.5" y2="87.5" gradientUnits="userSpaceOnUse">
<stop stop-color="#F2E6FF"/>
<stop offset="1" stop-color="#56C2FF"/>
</linearGradient>
<linearGradient id="paint18_linear_8_24" x1="211.5" y1="150" x2="171.5" y2="87.5" gradientUnits="userSpaceOnUse">
<stop stop-color="#F2E6FF"/>
<stop offset="1" stop-color="#56C2FF"/>
</linearGradient>
<linearGradient id="paint19_linear_8_24" x1="211.5" y1="150" x2="171.5" y2="87.5" gradientUnits="userSpaceOnUse">
<stop stop-color="#F2E6FF"/>
<stop offset="1" stop-color="#56C2FF"/>
</linearGradient>
<linearGradient id="paint20_linear_8_24" x1="211.5" y1="150" x2="171.5" y2="87.5" gradientUnits="userSpaceOnUse">
<stop stop-color="#F2E6FF"/>
<stop offset="1" stop-color="#56C2FF"/>
</linearGradient>
<radialGradient id="paint21_radial_8_24" cx="0" cy="0" r="1" gradientUnits="userSpaceOnUse" gradientTransform="translate(69.835 100.293) rotate(-30.8939) scale(77.701 67.8354)">
<stop offset="0.598958" stop-color="#6BA6FF"/>
<stop offset="0.817708" stop-color="#88E2FF"/>
<stop offset="1" stop-color="#FFE1DA"/>
</radialGradient>
<linearGradient id="paint22_linear_8_24" x1="484.695" y1="106.846" x2="484.695" y2="231.846" gradientUnits="userSpaceOnUse">
<stop stop-color="#94FFF2"/>
<stop offset="1" stop-color="#FF7BB3" stop-opacity="0"/>
</linearGradient>
<linearGradient id="paint23_linear_8_24" x1="468.544" y1="70.8141" x2="468.544" y2="146.442" gradientUnits="userSpaceOnUse">
<stop stop-color="#7E7BFF"/>
<stop offset="1" stop-color="#FF7BD2" stop-opacity="0"/>
</linearGradient>
<linearGradient id="paint24_linear_8_24" x1="494.407" y1="151.883" x2="494.407" y2="227.511" gradientUnits="userSpaceOnUse">
<stop stop-color="#FFABB0"/>
<stop offset="1" stop-color="#E7A0CF" stop-opacity="0"/>
</linearGradient>
</defs>
</svg>
