
<svg width="308" height="40" viewBox="0 0 757 106" fill="none" xmlns="http://www.w3.org/2000/svg">
<path d="M5.55369 104.854L0.550293 13.741L62.9215 9.73055L63.6069 22.2117L14.9574 25.3399L16.4858 53.1729L62.6405 50.2052L63.3122 62.4368L17.1575 65.4045L19.2754 103.971L5.55369 104.854Z" fill="url(#paint0_linear_105_151)"/>
<path d="M79.8722 100.241L75.9286 9.07607L90.0355 8.36155L93.4389 87.038L143 84.5277L143.541 97.016L79.8722 100.241Z" fill="url(#paint1_linear_105_151)"/>
<path d="M184.679 96.3197C175.185 96.659 166.84 95.0394 159.644 91.4608C152.532 87.8793 146.953 82.6586 142.909 75.7988C138.862 68.8557 136.693 60.6363 136.403 51.1407C136.111 41.5619 137.774 33.2056 141.391 26.072C145.008 18.9383 150.256 13.3307 157.135 9.24911C164.097 5.16456 172.324 2.95263 181.818 2.61332C191.396 2.27103 199.74 3.89065 206.853 7.47218C213.965 11.0537 219.544 16.2744 223.588 23.1342C227.633 29.994 229.801 38.2134 230.094 47.7923C230.383 57.2878 228.721 65.6441 225.106 72.861C221.489 79.9947 216.241 85.6023 209.362 89.6839C202.484 93.7655 194.256 95.9774 184.679 96.3197ZM184.297 83.8255C191.043 83.5844 196.831 82.0017 201.66 79.0774C206.487 76.0697 210.114 71.9793 212.541 66.8061C215.048 61.5466 216.194 55.3768 215.978 48.2968C215.762 41.2167 214.243 35.1838 211.423 30.1981C208.684 25.1261 204.816 21.3036 199.818 18.7305C194.818 16.0741 188.945 14.8664 182.2 15.1075C175.454 15.3486 169.668 16.9729 164.841 19.9806C160.011 22.9049 156.342 26.9968 153.835 32.2563C151.409 37.4296 150.303 43.5562 150.519 50.6362C150.736 57.7163 152.213 63.7923 154.953 68.8643C157.773 73.85 161.683 77.6711 166.683 80.3275C171.68 82.9006 177.552 84.0666 184.297 83.8255Z" fill="url(#paint2_linear_105_151)"/>
<path d="M231.544 93.9277L263.243 2.03177L281.864 1.66266L316.527 92.2431L301.405 92.5429L272.815 13.5943L272.565 13.5992L246.666 93.6279L231.544 93.9277ZM248.403 70.7141L248.192 58.2159L298.807 57.2126L299.018 69.7108L248.403 70.7141Z" fill="url(#paint3_linear_105_151)"/>
<path d="M344.392 92.1827L344.043 13.4335L313.044 13.5943L312.988 1.09445L389.237 0.698798L389.293 13.1987L358.293 13.3595L358.642 92.1088L344.392 92.1827Z" fill="url(#paint4_linear_105_151)"/>
<path d="M393.909 92.0595L394.314 0.810425L408.564 0.884367L408.159 92.1335L393.909 92.0595Z" fill="url(#paint5_linear_105_151)"/>
<path d="M428.781 92.1632L430.087 0.922531L445.085 1.17388L487.595 70.6458L487.845 70.65L488.829 1.90699L502.577 2.13739L501.271 93.3781L486.273 93.1267L443.763 23.6548L443.513 23.6506L442.529 92.3936L428.781 92.1632Z" fill="url(#paint6_linear_105_151)"/>
<path d="M567.61 96.7258C557.366 96.3893 548.59 94.2251 541.282 90.2331C534.058 86.2438 528.545 80.6849 524.744 73.5564C521.025 66.4306 519.303 57.9946 519.576 48.2484C519.85 38.5022 522.042 30.1948 526.153 23.3261C530.263 16.4575 535.994 11.2679 543.346 7.75733C550.697 4.2468 559.412 2.65705 569.489 2.98806C574.986 3.16861 580.216 3.9657 585.178 5.37934C590.143 6.70969 594.549 8.64701 598.395 11.1913L594.814 22.9549C591.294 20.6715 587.3 18.9145 582.832 17.6838C578.368 16.3699 573.803 15.6363 569.139 15.4831C562.059 15.2506 555.941 16.4254 550.783 19.0074C545.711 21.5089 541.728 25.2968 538.835 30.3712C536.027 35.365 534.522 41.4855 534.318 48.7326C534.115 55.9798 535.274 62.2294 537.794 67.4816C540.4 72.6532 544.246 76.6983 549.333 79.6168C554.422 82.452 560.631 83.99 567.961 84.2307C571.875 84.3593 575.717 84.1103 579.486 83.4837C583.257 82.7738 586.622 81.717 589.579 80.3133L587.318 85.1167L588.156 55.2534L557.548 54.2481L557.877 42.5027L602.228 43.9594L600.917 90.691C596.44 92.7952 591.227 94.3749 585.278 95.4301C579.413 96.4882 573.524 96.92 567.61 96.7258Z" fill="url(#paint7_linear_105_151)"/>
<path d="M683.569 102.109C671.754 101.447 662.9 98.1956 657.006 92.3564C651.117 86.434 648.425 78.1872 648.932 67.616L651.803 7.6848L665.532 8.45507L662.78 65.8892C662.405 73.7135 663.92 79.5157 667.327 83.2956C670.733 87.0756 676.346 89.185 684.167 89.6238C691.988 90.0626 697.774 88.5928 701.523 85.2143C705.272 81.8358 707.334 76.2344 707.709 68.4101L710.461 10.9759L724.19 11.7462L721.318 71.6775C720.811 82.2487 717.346 90.15 710.922 95.3815C704.585 100.534 695.467 102.777 683.569 102.109Z" fill="url(#paint8_linear_105_151)"/>
<path d="M736.863 104.166L742.131 13.0681L756.348 14.0308L751.08 105.129L736.863 104.166Z" fill="url(#paint9_linear_105_151)"/>
<defs>
<linearGradient id="paint0_linear_105_151" x1="24.5933" y1="5.29752" x2="85.1175" y2="89.5695" gradientUnits="userSpaceOnUse">
<stop stop-color="#FFC2E7"/>
<stop offset="0.635417" stop-color="#9281FD"/>
<stop offset="1" stop-color="#7DFFE8"/>
</linearGradient>
<linearGradient id="paint1_linear_105_151" x1="99.1446" y1="1.01251" x2="159.18" y2="84.7695" gradientUnits="userSpaceOnUse">
<stop stop-color="#FFC2E7"/>
<stop offset="0.635417" stop-color="#9281FD"/>
<stop offset="1" stop-color="#7DFFE8"/>
</linearGradient>
<linearGradient id="paint2_linear_105_151" x1="171.417" y1="-2.64375" x2="225.288" y2="91.8199" gradientUnits="userSpaceOnUse">
<stop stop-color="#FFC2E7"/>
<stop offset="0.635417" stop-color="#9281FD"/>
<stop offset="1" stop-color="#7DFFE8"/>
</linearGradient>
<linearGradient id="paint3_linear_105_151" x1="267.954" y1="-4.93563" x2="321.957" y2="87.9766" gradientUnits="userSpaceOnUse">
<stop stop-color="#FFC2E7"/>
<stop offset="0.635417" stop-color="#9281FD"/>
<stop offset="1" stop-color="#7DFFE8"/>
</linearGradient>
<linearGradient id="paint4_linear_105_151" x1="344.326" y1="1.57287" x2="412.78" y2="94.3942" gradientUnits="userSpaceOnUse">
<stop stop-color="#FFC2E7"/>
<stop offset="0.635417" stop-color="#9281FD"/>
<stop offset="1" stop-color="#7DFFE8"/>
</linearGradient>
<linearGradient id="paint5_linear_105_151" x1="399.18" y1="1.4767" x2="464.232" y2="44.1249" gradientUnits="userSpaceOnUse">
<stop stop-color="#FFC2E7"/>
<stop offset="0.635417" stop-color="#9281FD"/>
<stop offset="1" stop-color="#7DFFE8"/>
</linearGradient>
<linearGradient id="paint6_linear_105_151" x1="461.105" y1="-5.43095" x2="510.595" y2="91.496" gradientUnits="userSpaceOnUse">
<stop stop-color="#FFC2E7"/>
<stop offset="0.635417" stop-color="#9281FD"/>
<stop offset="1" stop-color="#7DFFE8"/>
</linearGradient>
<linearGradient id="paint7_linear_105_151" x1="556.744" y1="-3.05824" x2="605.096" y2="94.2557" gradientUnits="userSpaceOnUse">
<stop stop-color="#FFC2E7"/>
<stop offset="0.635417" stop-color="#9281FD"/>
<stop offset="1" stop-color="#7DFFE8"/>
</linearGradient>
<linearGradient id="paint8_linear_105_151" x1="684.016" y1="2.60082" x2="729.871" y2="101.57" gradientUnits="userSpaceOnUse">
<stop stop-color="#FFC2E7"/>
<stop offset="0.635417" stop-color="#9281FD"/>
<stop offset="1" stop-color="#7DFFE8"/>
</linearGradient>
<linearGradient id="paint9_linear_105_151" x1="747.392" y1="6.52405" x2="803.966" y2="54.8587" gradientUnits="userSpaceOnUse">
<stop stop-color="#FFC2E7"/>
<stop offset="0.635417" stop-color="#9281FD"/>
<stop offset="1" stop-color="#7DFFE8"/>
</linearGradient>
</defs>
</svg>
