<svg xmlns="http://www.w3.org/2000/svg" viewBox="0 0 24 24">
  <path fill="currentColor" d="M6,4.67012593 L6,19.3298741 C6,19.6888592 6.29101491,19.9798741 6.65,19.9798741 C6.78014165,19.9798741 6.90728686,19.940808 7.01497592,19.8677333 L17.6705631,12.6371563 C18.0224548,12.3983727 18.114147,11.9195356 17.8753633,11.5676439 C17.8206658,11.4870371 17.7511699,11.4175411 17.6705631,11.3628437 L7.01497592,4.13226667 C6.71792446,3.93069604 6.31371138,4.00809854 6.11214075,4.30515 C6.03906603,4.41283906 6,4.53998428 6,4.67012593 Z M5,4.67012593 C5,4.33976636 5.09916761,4.01701312 5.28466497,3.74364859 C5.79634428,2.98959487 6.82242363,2.79311159 7.57647734,3.3047909 L18.2320645,10.5353679 C18.4173555,10.6611011 18.5771059,10.8208515 18.7028391,11.0061425 C19.2517314,11.8150365 19.0409585,12.9157398 18.2320645,13.4646321 L7.57647734,20.6952091 C7.3031128,20.8807065 6.98035956,20.9798741 6.65,20.9798741 C5.73873016,20.9798741 5,20.2411439 5,19.3298741 L5,4.67012593 Z"/>
</svg>
