<svg xmlns="http://www.w3.org/2000/svg" viewBox="0 0 24 24">
  <path fill="currentColor" d="M13,12 L13.5,12 C13.7761424,12 14,12.2238576 14,12.5 C14,12.7761424 13.7761424,13 13.5,13 L13,13 L13,13.5 C13,13.7761424 12.7761424,14 12.5,14 C12.2238576,14 12,13.7761424 12,13.5 L12,13 L11.5,13 C11.2238576,13 11,12.7761424 11,12.5 C11,12.2238576 11.2238576,12 11.5,12 L12,12 L12,11.5 C12,11.2238576 12.2238576,11 12.5,11 C12.7761424,11 13,11.2238576 13,11.5 L13,12 Z M3,5.5 C3,4.11928813 4.11928813,3 5.5,3 L19.5000013,3 C20.8807132,3 22.0000013,4.11928813 22.0000013,5.5 L22.0000013,19.5069431 C22.0000013,20.887655 20.8807132,22.0069431 19.5000013,22.0069431 L5.5,22.0069431 C4.11928813,22.0069431 3,20.887655 3,19.5069431 L3,5.5 Z M4,5.5 L4,19.5069431 C4,20.3353702 4.67157288,21.0069431 5.5,21.0069431 L19.5000013,21.0069431 C20.3284285,21.0069431 21.0000013,20.3353702 21.0000013,19.5069431 L21.0000013,5.5 C21.0000013,4.67157288 20.3284285,4 19.5000013,4 L5.5,4 C4.67157288,4 4,4.67157288 4,5.5 Z M15.5,13 C15.2238576,13 15,12.7761424 15,12.5 C15,12.2238576 15.2238576,12 15.5,12 L16.5,12 C16.7761424,12 17,12.2238576 17,12.5 C17,12.7761424 16.7761424,13 16.5,13 L15.5,13 Z M18.5,13 C18.2238576,13 18,12.7761424 18,12.5 C18,12.2238576 18.2238576,12 18.5,12 L19.5,12 C19.7761424,12 20,12.2238576 20,12.5 C20,12.7761424 19.7761424,13 19.5,13 L18.5,13 Z M5.5,13 C5.22385763,13 5,12.7761424 5,12.5 C5,12.2238576 5.22385763,12 5.5,12 L6.5,12 C6.77614237,12 7,12.2238576 7,12.5 C7,12.7761424 6.77614237,13 6.5,13 L5.5,13 Z M8.5,13 C8.22385763,13 8,12.7761424 8,12.5 C8,12.2238576 8.22385763,12 8.5,12 L9.5,12 C9.77614237,12 10,12.2238576 10,12.5 C10,12.7761424 9.77614237,13 9.5,13 L8.5,13 Z M12,5.5 C12,5.22385763 12.2238576,5 12.5,5 C12.7761424,5 13,5.22385763 13,5.5 L13,6.5 C13,6.77614237 12.7761424,7 12.5,7 C12.2238576,7 12,6.77614237 12,6.5 L12,5.5 Z M12,8.5 C12,8.22385763 12.2238576,8 12.5,8 C12.7761424,8 13,8.22385763 13,8.5 L13,9.5 C13,9.77614237 12.7761424,10 12.5,10 C12.2238576,10 12,9.77614237 12,9.5 L12,8.5 Z M12,18.5 C12,18.2238576 12.2238576,18 12.5,18 C12.7761424,18 13,18.2238576 13,18.5 L13,19.5 C13,19.7761424 12.7761424,20 12.5,20 C12.2238576,20 12,19.7761424 12,19.5 L12,18.5 Z M12,15.5 C12,15.2238576 12.2238576,15 12.5,15 C12.7761424,15 13,15.2238576 13,15.5 L13,16.5 C13,16.7761424 12.7761424,17 12.5,17 C12.2238576,17 12,16.7761424 12,16.5 L12,15.5 Z"/>
</svg>
