<svg xmlns="http://www.w3.org/2000/svg" viewBox="0 0 24 24">
  <path fill="currentColor" d="M3,5.5 C3,4.11928813 4.11928813,3 5.5,3 L8.5,3 C9.88071187,3 11,4.11928813 11,5.5 L11,8.5 C11,9.88071187 9.88071187,11 8.5,11 L5.5,11 C4.11928813,11 3,9.88071187 3,8.5 L3,5.5 Z M4,5.5 L4,8.5 C4,9.32842712 4.67157288,10 5.5,10 L8.5,10 C9.32842712,10 10,9.32842712 10,8.5 L10,5.5 C10,4.67157288 9.32842712,4 8.5,4 L5.5,4 C4.67157288,4 4,4.67157288 4,5.5 Z M13,5.5 C13,4.11928813 14.1192881,3 15.5,3 L18.5,3 C19.8807119,3 21,4.11928813 21,5.5 L21,8.5 C21,9.88071187 19.8807119,11 18.5,11 L15.5,11 C14.1192881,11 13,9.88071187 13,8.5 L13,5.5 Z M14,5.5 L14,8.5 C14,9.32842712 14.6715729,10 15.5,10 L18.5,10 C19.3284271,10 20,9.32842712 20,8.5 L20,5.5 C20,4.67157288 19.3284271,4 18.5,4 L15.5,4 C14.6715729,4 14,4.67157288 14,5.5 Z M3,15.5 C3,14.1192881 4.11928813,13 5.5,13 L8.5,13 C9.88071187,13 11,14.1192881 11,15.5 L11,18.5 C11,19.8807119 9.88071187,21 8.5,21 L5.5,21 C4.11928813,21 3,19.8807119 3,18.5 L3,15.5 Z M4,15.5 L4,18.5 C4,19.3284271 4.67157288,20 5.5,20 L8.5,20 C9.32842712,20 10,19.3284271 10,18.5 L10,15.5 C10,14.6715729 9.32842712,14 8.5,14 L5.5,14 C4.67157288,14 4,14.6715729 4,15.5 Z M13,15.5 C13,14.1192881 14.1192881,13 15.5,13 L18.5,13 C19.8807119,13 21,14.1192881 21,15.5 L21,18.5 C21,19.8807119 19.8807119,21 18.5,21 L15.5,21 C14.1192881,21 13,19.8807119 13,18.5 L13,15.5 Z M14,15.5 L14,18.5 C14,19.3284271 14.6715729,20 15.5,20 L18.5,20 C19.3284271,20 20,19.3284271 20,18.5 L20,15.5 C20,14.6715729 19.3284271,14 18.5,14 L15.5,14 C14.6715729,14 14,14.6715729 14,15.5 Z"/>
</svg>
