<svg viewBox="0 0 24 24" xmlns="http://www.w3.org/2000/svg">
  <path fill="currentColor" d="M15.5,7 L8.5,7 C7.67157288,7 7,7.67157288 7,8.5 L7,15.5 C7,16.3284271 7.67157288,17 8.5,17 L15.5,17 C16.3284271,17 17,16.3284271 17,15.5 L17,8.5 C17,7.67157288 16.3284271,7 15.5,7 Z M15.5,6 C16.8807119,6 18,7.11928813 18,8.5 L18,15.5 C18,16.8807119 16.8807119,18 15.5,18 L8.5,18 C7.11928813,18 6,16.8807119 6,15.5 L6,8.5 C6,7.11928813 7.11928813,6 8.5,6 L15.5,6 Z M5,2.5 C5,2.22385763 5.22385763,2 5.5,2 C5.77614237,2 6,2.22385763 6,2.5 L6,5.5 C6,5.77614237 5.77614237,6 5.5,6 L2.5,6 C2.22385763,6 2,5.77614237 2,5.5 C2,5.22385763 2.22385763,5 2.5,5 L5,5 L5,2.5 Z M19,5 L21.5,5 C21.7761424,5 22,5.22385763 22,5.5 C22,5.77614237 21.7761424,6 21.5,6 L18.5,6 C18.2238576,6 18,5.77614237 18,5.5 L18,2.5 C18,2.22385763 18.2238576,2 18.5,2 C18.7761424,2 19,2.22385763 19,2.5 L19,5 Z M5,19 L2.5,19 C2.22385763,19 2,18.7761424 2,18.5 C2,18.2238576 2.22385763,18 2.5,18 L5.5,18 C5.77614237,18 6,18.2238576 6,18.5 L6,21.5 C6,21.7761424 5.77614237,22 5.5,22 C5.22385763,22 5,21.7761424 5,21.5 L5,19 Z M19,19 L19,21.5 C19,21.7761424 18.7761424,22 18.5,22 C18.2238576,22 18,21.7761424 18,21.5 L18,18.5 C18,18.2238576 18.2238576,18 18.5,18 L21.5,18 C21.7761424,18 22,18.2238576 22,18.5 C22,18.7761424 21.7761424,19 21.5,19 L19,19 Z"/>
</svg>