<svg xmlns="http://www.w3.org/2000/svg" viewBox="0 0 24 24">
  <path fill="currentColor" d="M9,3.5 L9,7.5 C9,7.77614237 9.22385763,8 9.5,8 L15.5,8 C15.7761424,8 16,7.77614237 16,7.5 L16,3.5 C16,3.22385763 15.7761424,3 15.5,3 L9.5,3 C9.22385763,3 9,3.22385763 9,3.5 Z M13,12 L16.5113578,12 C17.3397849,12 18.0113578,12.6715729 18.0113578,13.5 L18.0113578,14 L20.5,14 C21.3284271,14 22,14.6715729 22,15.5 L22,19.5 C22,20.3284271 21.3284271,21 20.5,21 L19.5,21 C19.7761424,21 20,21.2238576 20,21.5 C20,21.7761424 19.7761424,22 19.5,22 L15.5,22 C15.2238576,22 15,21.7761424 15,21.5 C15,21.2238576 15.2238576,21 15.5,21 L14.5,21 C13.6715729,21 13,20.3284271 13,19.5 L13,15.5 C13,14.6715729 13.6715729,14 14.5,14 L17.0113578,14 L17.0113578,13.5 C17.0113578,13.2238576 16.7875001,13 16.5113578,13 L8.5,13 C8.22385763,13 8,13.2238576 8,13.5 L8,14 L10.5,14 C11.3284271,14 12,14.6715729 12,15.5 L12,19.5 C12,20.3284271 11.3284271,21 10.5,21 L9.5,21 C9.77614237,21 10,21.2238576 10,21.5 C10,21.7761424 9.77614237,22 9.5,22 L5.5,22 C5.22385763,22 5,21.7761424 5,21.5 C5,21.2238576 5.22385763,21 5.5,21 L4.5,21 C3.67157288,21 3,20.3284271 3,19.5 L3,15.5 C3,14.6715729 3.67157288,14 4.5,14 L7,14 L7,13.5 C7,12.6715729 7.67157288,12 8.5,12 L12,12 L12,10 L10.5,10 C10.2238576,10 10,9.77614237 10,9.5 C10,9.22385763 10.2238576,9 10.5,9 L9.5,9 C8.67157288,9 8,8.32842712 8,7.5 L8,3.5 C8,2.67157288 8.67157288,2 9.5,2 L15.5,2 C16.3284271,2 17,2.67157288 17,3.5 L17,7.5 C17,8.32842712 16.3284271,9 15.5,9 L14.5,9 C14.7761424,9 15,9.22385763 15,9.5 C15,9.77614237 14.7761424,10 14.5,10 L13,10 L13,12 Z M17.5032443,15 L14.5,15 C14.2238576,15 14,15.2238576 14,15.5 L14,19.5 C14,19.7761424 14.2238576,20 14.5,20 L20.5,20 C20.7761424,20 21,19.7761424 21,19.5 L21,15.5 C21,15.2238576 20.7761424,15 20.5,15 L17.5194713,15 C17.5167719,15.0000429 17.5140674,15.0000645 17.5113578,15.0000645 C17.5086482,15.0000645 17.5059436,15.0000429 17.5032443,15 Z M4,15.5 L4,19.5 C4,19.7761424 4.22385763,20 4.5,20 L10.5,20 C10.7761424,20 11,19.7761424 11,19.5 L11,15.5 C11,15.2238576 10.7761424,15 10.5,15 L4.5,15 C4.22385763,15 4,15.2238576 4,15.5 Z"/>
</svg>
