<svg xmlns="http://www.w3.org/2000/svg" viewBox="0 0 24 24">
  <path fill="currentColor" d="M5,8 L5.5,8 C5.77614237,8 6,8.22385763 6,8.5 C6,8.77614237 5.77614237,9 5.5,9 L3.5,9 C3.22385763,9 3,8.77614237 3,8.5 C3,8.22385763 3.22385763,8 3.5,8 L4,8 L4,5 L3.5,5 C3.22385763,5 3,4.77614237 3,4.5 C3,4.22385763 3.22385763,4 3.5,4 L4.5,4 C4.77614237,4 5,4.22385763 5,4.5 L5,8 Z M4,11 L4,11.5 C4,11.7761424 3.77614237,12 3.5,12 C3.22385763,12 3,11.7761424 3,11.5 L3,10.5 C3,10.2238576 3.22385763,10 3.5,10 L5.5,10 C5.77614237,10 6,10.2238576 6,10.5 L6,11.5 C6,11.6326082 5.94732158,11.7597852 5.85355339,11.8535534 L4.70710678,13 L5.5,13 C5.77614237,13 6,13.2238576 6,13.5 C6,13.7761424 5.77614237,14 5.5,14 L3.5,14 C3.05454757,14 2.83146418,13.461429 3.14644661,13.1464466 L5,11.2928932 L5,11 L4,11 Z M3.5,16 C3.22385763,16 3,15.7761424 3,15.5 C3,15.2238576 3.22385763,15 3.5,15 L5.5,15 C5.77614237,15 6,15.2238576 6,15.5 L6,16.5 C6,16.6326082 5.94732158,16.7597852 5.85355339,16.8535534 L5.70710678,17 L5.85355339,17.1464466 C5.94732158,17.2402148 6,17.3673918 6,17.5 L6,18.5 C6,18.7761424 5.77614237,19 5.5,19 L3.5,19 C3.22385763,19 3,18.7761424 3,18.5 C3,18.2238576 3.22385763,18 3.5,18 L5,18 L5,17.7071068 L4.64644661,17.3535534 C4.45118446,17.1582912 4.45118446,16.8417088 4.64644661,16.6464466 L5,16.2928932 L5,16 L3.5,16 Z M8.5,17 C8.22385763,17 8,16.7761424 8,16.5 C8,16.2238576 8.22385763,16 8.5,16 L20.5,16 C20.7761424,16 21,16.2238576 21,16.5 C21,16.7761424 20.7761424,17 20.5,17 L8.5,17 Z M8.5,12 C8.22385763,12 8,11.7761424 8,11.5 C8,11.2238576 8.22385763,11 8.5,11 L20.5,11 C20.7761424,11 21,11.2238576 21,11.5 C21,11.7761424 20.7761424,12 20.5,12 L8.5,12 Z M8.5,7 C8.22385763,7 8,6.77614237 8,6.5 C8,6.22385763 8.22385763,6 8.5,6 L20.5,6 C20.7761424,6 21,6.22385763 21,6.5 C21,6.77614237 20.7761424,7 20.5,7 L8.5,7 Z"/>
</svg>
