<svg xmlns="http://www.w3.org/2000/svg" viewBox="0 0 24 24">
  <path fill="currentColor" fill="currentColor" d="M8.95305171,17.9846747 C8.72737466,19.1334216 7.71488744,20 6.5,20 L4.5,20 C4.22385763,20 4,19.7761424 4,19.5 L4,17.5 C4,16.2851126 4.86657841,15.2726253 6.0153253,15.0469483 L6.02714614,14.7041437 C6.04713299,14.1245251 6.10682628,13.555636 6.20352226,13 L2.5,13 C2.1462677,13 1.90438878,12.6427369 2.03576165,12.3143047 L4.03576165,7.31430466 C4.11169333,7.12447547 4.29554771,7 4.5,7 L9,7 C9.02538451,7 9.05032719,7.00189166 9.07469478,7.0055417 C11.4290981,4.32146349 14.9247139,2.67696313 18.771296,2.80960389 C19.3819666,2.8306615 19.9902263,2.89709634 20.5910446,3.008359 C20.7946429,3.04606238 20.9539376,3.20535713 20.991641,3.40895537 C21.812186,7.83989855 20.1522623,12.1558183 16.9947249,14.9271075 C16.9982004,14.9509022 17,14.9752409 17,15 L17,19.5 C17,19.7044523 16.8755245,19.8883067 16.6856953,19.9642383 L11.6856953,21.9642383 C11.3572631,22.0956112 11,21.8537323 11,21.5 L11,17.7949378 C10.4368132,17.8936903 9.86739064,17.9531458 9.29585627,17.9728539 L8.95305171,17.9846747 Z M7.98749247,17.6945992 L6.30540075,16.0125075 C5.56890748,16.1079151 5,16.7375198 5,17.5 L5,19 L6.5,19 C7.26248018,19 7.8920849,18.4310925 7.98749247,17.6945992 Z M12,17.5770127 L12,20.7614835 L16,19.1614835 L16,15.7132231 C14.8178863,16.5520811 13.4713529,17.1925443 12,17.5770127 Z M6.42079004,12 C6.80202391,10.5414825 7.44257093,9.19144113 8.28872675,8 L4.83851648,8 L3.23851648,12 L6.42079004,12 Z M8.69991595,16.9928092 L9.26139399,16.9734479 C9.82252402,16.9540985 10.3814387,16.8930532 10.9335157,16.7908167 C16.9701904,15.672914 20.9957193,9.95997934 20.0664857,3.93363717 C19.626205,3.86599452 19.1822172,3.82436794 18.7368337,3.80900989 C12.4850041,3.59342956 7.24213247,8.48677642 7.02655214,14.738606 L7.00719083,15.300084 L8.69991595,16.9928092 Z M14,13 C12.3431458,13 11,11.6568542 11,10 C11,8.34314575 12.3431458,7 14,7 C15.6568542,7 17,8.34314575 17,10 C17,11.6568542 15.6568542,13 14,13 Z M14,12 C15.1045695,12 16,11.1045695 16,10 C16,8.8954305 15.1045695,8 14,8 C12.8954305,8 12,8.8954305 12,10 C12,11.1045695 12.8954305,12 14,12 Z"/>
</svg>
