<svg xmlns="http://www.w3.org/2000/svg" viewBox="0 0 24 24">
  <path fill="currentColor" d="M5.56743386,15.562189 C5.77393626,15.745523 5.79271792,16.0615479 5.60938388,16.2680503 C5.42604984,16.4745527 5.11002497,16.4933344 4.90352257,16.3100003 C3.6353371,15.1840978 2.65019079,13.7703534 2.03381935,12.1807639 C1.98872688,12.0644728 1.98872688,11.9355272 2.03381935,11.8192361 C4.09127496,6.51316634 9.94270809,3.75672367 15.3272962,5.52526555 C15.58965,5.6114344 15.7324762,5.89396787 15.6463073,6.15632172 C15.5601385,6.41867556 15.277605,6.56150172 15.0152512,6.47533287 C10.1968585,4.89275514 4.96478728,7.30886456 3.03835009,11.999958 C3.6003685,13.3673355 4.46613921,14.5844532 5.56743386,15.562189 Z M12.6197345,8.04779147 C12.8925892,8.0902754 13.0793417,8.34590792 13.0368578,8.61876269 C12.9943739,8.89161747 12.7387413,9.07836994 12.4658866,9.03588601 C12.3128698,9.01206106 12.1572886,9 12,9 C10.3431458,9 9,10.3431458 9,12 C9,12.1556182 9.01180624,12.3095659 9.03513143,12.4610138 C9.07716577,12.7339382 8.88999239,12.9892627 8.617068,13.031297 C8.3441436,13.0733314 8.0888191,12.886158 8.04678476,12.6132336 C8.0157088,12.4114607 8,12.2066255 8,12 C8,9.790861 9.790861,8 12,8 C12.2088473,8 12.4158635,8.01604843 12.6197345,8.04779147 Z M11.4558981,15.9632446 C11.1822806,15.9259875 10.9906726,15.6739739 11.0279297,15.4003565 C11.0651868,15.126739 11.3172004,14.935131 11.5908178,14.9723881 C11.7255265,14.9907307 11.8621112,15 12,15 C13.6568542,15 15,13.6568542 15,12 C15,11.8784426 14.9927963,11.7578934 14.978521,11.6387409 C14.9456721,11.3645592 15.141311,11.1156619 15.4154926,11.082813 C15.6896742,11.0499641 15.9385716,11.245603 15.9714205,11.5197846 C15.9904226,11.6783906 16,11.8386622 16,12 C16,14.209139 14.209139,16 12,16 C11.8169513,16 11.6352908,15.9876716 11.4558981,15.9632446 Z M3.85355339,20.8535534 C3.65829124,21.0488155 3.34170876,21.0488155 3.14644661,20.8535534 C2.95118446,20.6582912 2.95118446,20.3417088 3.14644661,20.1464466 L20.1464466,3.14644661 C20.3417088,2.95118446 20.6582912,2.95118446 20.8535534,3.14644661 C21.0488155,3.34170876 21.0488155,3.65829124 20.8535534,3.85355339 L3.85355339,20.8535534 Z M18.432566,8.43781125 C18.2260636,8.25447724 18.2072819,7.93845237 18.3906159,7.73194994 C18.5739499,7.52544751 18.8899748,7.50666579 19.0964772,7.6899998 C20.3646628,8.81590202 21.3498091,10.2296464 21.9661807,11.8192361 C22.0112731,11.9355272 22.0112731,12.0644728 21.9661807,12.1807639 C19.908725,17.4868337 14.0572919,20.2432763 8.67270383,18.4747344 C8.41034999,18.3885656 8.26752383,18.1060321 8.35369268,17.8436783 C8.43986153,17.5813244 8.722395,17.4384983 8.98474884,17.5246671 C13.8031415,19.1072449 19.0352127,16.6911354 20.9616499,12.000042 C20.3996315,10.6326644 19.5338607,9.41554681 18.432566,8.43781125 Z"/>
</svg>
