<svg viewBox="0 0 24 24" xmlns="http://www.w3.org/2000/svg">
  <path fill="currentColor" d="M3.5,7 C3.22385763,7 3,6.77614237 3,6.5 C3,6.22385763 3.22385763,6 3.5,6 L20.5,6 C20.7761424,6 21,6.22385763 21,6.5 C21,6.77614237 20.7761424,7 20.5,7 L3.5,7 Z M3.5,19 C3.22385763,19 3,18.7761424 3,18.5 C3,18.2238576 3.22385763,18 3.5,18 L20.5,18 C20.7761424,18 21,18.2238576 21,18.5 C21,18.7761424 20.7761424,19 20.5,19 L3.5,19 Z M3.5,15 C3.22385763,15 3,14.7761424 3,14.5 C3,14.2238576 3.22385763,14 3.5,14 L11.5,14 C11.7761424,14 12,14.2238576 12,14.5 C12,14.7761424 11.7761424,15 11.5,15 L3.5,15 Z M3.5,11 C3.22385763,11 3,10.7761424 3,10.5 C3,10.2238576 3.22385763,10 3.5,10 L11.5,10 C11.7761424,10 12,10.2238576 12,10.5 C12,10.7761424 11.7761424,11 11.5,11 L3.5,11 Z M14,11.5 C14,10.1192881 15.1192881,9 16.5,9 L18.5,9 C19.8807119,9 21,10.1192881 21,11.5 L21,13.5 C21,14.8807119 19.8807119,16 18.5,16 L16.5,16 C15.1192881,16 14,14.8807119 14,13.5 L14,11.5 Z M15,11.5 L15,13.5 C15,14.3284271 15.6715729,15 16.5,15 L18.5,15 C19.3284271,15 20,14.3284271 20,13.5 L20,11.5 C20,10.6715729 19.3284271,10 18.5,10 L16.5,10 C15.6715729,10 15,10.6715729 15,11.5 Z"/>
</svg>