<svg xmlns="http://www.w3.org/2000/svg" viewBox="0 0 24 24">
  <path fill="currentColor" d="M8.29289322,13 L1.5,13 C1.22385763,13 1,12.7761424 1,12.5 C1,12.2238576 1.22385763,12 1.5,12 L8.29289322,12 L6.14644661,9.85355339 C5.95118446,9.65829124 5.95118446,9.34170876 6.14644661,9.14644661 C6.34170876,8.95118446 6.65829124,8.95118446 6.85355339,9.14644661 L9.85355339,12.1464466 C10.0488155,12.3417088 10.0488155,12.6582912 9.85355339,12.8535534 L6.85355339,15.8535534 C6.65829124,16.0488155 6.34170876,16.0488155 6.14644661,15.8535534 C5.95118446,15.6582912 5.95118446,15.3417088 6.14644661,15.1464466 L8.29289322,13 Z M12,16.7071068 L9.85355339,18.8535534 C9.65829124,19.0488155 9.34170876,19.0488155 9.14644661,18.8535534 C8.95118446,18.6582912 8.95118446,18.3417088 9.14644661,18.1464466 L12.1464466,15.1464466 C12.3417088,14.9511845 12.6582912,14.9511845 12.8535534,15.1464466 L15.8535534,18.1464466 C16.0488155,18.3417088 16.0488155,18.6582912 15.8535534,18.8535534 C15.6582912,19.0488155 15.3417088,19.0488155 15.1464466,18.8535534 L13,16.7071068 L13,22.5 C13,22.7761424 12.7761424,23 12.5,23 C12.2238576,23 12,22.7761424 12,22.5 L12,16.7071068 Z M16.7071068,12 L22.5,12 C22.7761424,12 23,12.2238576 23,12.5 C23,12.7761424 22.7761424,13 22.5,13 L16.7071068,13 L18.8535534,15.1464466 C19.0488155,15.3417088 19.0488155,15.6582912 18.8535534,15.8535534 C18.6582912,16.0488155 18.3417088,16.0488155 18.1464466,15.8535534 L15.1464466,12.8535534 C14.9511845,12.6582912 14.9511845,12.3417088 15.1464466,12.1464466 L18.1464466,9.14644661 C18.3417088,8.95118446 18.6582912,8.95118446 18.8535534,9.14644661 C19.0488155,9.34170876 19.0488155,9.65829124 18.8535534,9.85355339 L16.7071068,12 Z M12,8.29289322 L12,2.5 C12,2.22385763 12.2238576,2 12.5,2 C12.7761424,2 13,2.22385763 13,2.5 L13,8.29289322 L15.1464466,6.14644661 C15.3417088,5.95118446 15.6582912,5.95118446 15.8535534,6.14644661 C16.0488155,6.34170876 16.0488155,6.65829124 15.8535534,6.85355339 L12.8535534,9.85355339 C12.6582912,10.0488155 12.3417088,10.0488155 12.1464466,9.85355339 L9.14644661,6.85355339 C8.95118446,6.65829124 8.95118446,6.34170876 9.14644661,6.14644661 C9.34170876,5.95118446 9.65829124,5.95118446 9.85355339,6.14644661 L12,8.29289322 Z"/>
</svg>
