<svg fill="currentColor" viewBox="0 0 24 24" xmlns="http://www.w3.org/2000/svg">
  <path d="M4.5,9 C3.67157288,9 3,9.67157288 3,10.5 L3,19.5 C3,20.3284271 3.67157288,21 4.5,21 L13.5096118,21 C14.338039,21 15.0096118,20.3284271 15.0096118,19.5 L15.0096118,10.5 C15.0096118,9.67157288 14.338039,9 13.5096118,9 L4.5,9 Z M9,8 L13.5096118,8 C14.8903237,8 16.0096118,9.11928813 16.0096118,10.5 L16.0096118,15 L16.5,15 C16.7761424,15 17,15.2238576 17,15.5 C17,15.7761424 16.7761424,16 16.5,16 L16.0096118,16 L16.0096118,19.5 C16.0096118,20.8807119 14.8903237,22 13.5096118,22 L4.5,22 C3.11928813,22 2,20.8807119 2,19.5 L2,10.5 C2,9.11928813 3.11928813,8 4.5,8 L8,8 L8,7.5 C8,7.22385763 8.22385763,7 8.5,7 C8.77614237,7 9,7.22385763 9,7.5 L9,8 Z M10.5,2 C10.7761424,2 11,2.22385763 11,2.5 C11,2.77614237 10.7761424,3 10.5,3 C9.67157288,3 9,3.67157288 9,4.5 C9,4.77614237 8.77614237,5 8.5,5 C8.22385763,5 8,4.77614237 8,4.5 C8,3.11928813 9.11928813,2 10.5,2 Z M19.5,3 C19.2238576,3 19,2.77614237 19,2.5 C19,2.22385763 19.2238576,2 19.5,2 C20.8807119,2 22,3.11928813 22,4.5 C22,4.77614237 21.7761424,5 21.5,5 C21.2238576,5 21,4.77614237 21,4.5 C21,3.67157288 20.3284271,3 19.5,3 Z M21,7.5 C21,7.22385763 21.2238576,7 21.5,7 C21.7761424,7 22,7.22385763 22,7.5 L22,10.5 C22,10.7761424 21.7761424,11 21.5,11 C21.2238576,11 21,10.7761424 21,10.5 L21,7.5 Z M21,13.5 C21,13.2238576 21.2238576,13 21.5,13 C21.7761424,13 22,13.2238576 22,13.5 C22,14.8807119 20.8807119,16 19.5,16 C19.2238576,16 19,15.7761424 19,15.5 C19,15.2238576 19.2238576,15 19.5,15 C20.3284271,15 21,14.3284271 21,13.5 Z M16.5,2 C16.7761424,2 17,2.22385763 17,2.5 C17,2.77614237 16.7761424,3 16.5,3 L13.5,3 C13.2238576,3 13,2.77614237 13,2.5 C13,2.22385763 13.2238576,2 13.5,2 L16.5,2 Z"/>
</svg>