<svg xmlns="http://www.w3.org/2000/svg" viewBox="0 0 24 24">
  <path fill="currentColor" d="M8.5,3 C7.67157288,3 7,3.67157288 7,4.5 L7,19.5 C7,20.3284271 7.67157288,21 8.5,21 L15.5113578,21 C16.3397849,21 17.0113578,20.3284271 17.0113578,19.5 L17.0113578,4.5 C17.0113578,3.67157288 16.3397849,3 15.5113578,3 L15.4999997,3 C15.2238576,3 15,3.22385763 15,3.5 C15,4.32842712 14.3284271,5 13.5,5 L10.5,5 C9.67157288,5 9,4.32842712 9,3.5 C9,3.22385763 8.77614237,3 8.5,3 Z M9.91464715,3 C9.96992289,3.15638946 10,3.32468229 10,3.5 C10,3.77614237 10.2238576,4 10.5,4 L13.5,4 C13.7761424,4 14,3.77614237 14,3.5 C14,3.32468229 14.0300771,3.15638946 14.0853529,3 L9.91464715,3 Z M6,4.5 C6,3.11928813 7.11928813,2 8.5,2 L15.5113578,2 C16.8920696,2 18.0113578,3.11928813 18.0113578,4.5 L18.0113578,19.5 C18.0113578,20.8807119 16.8920696,22 15.5113578,22 L8.5,22 C7.11928813,22 6,20.8807119 6,19.5 L6,4.5 Z"/>
</svg>
