<svg viewBox="0 0 24 24" xmlns="http://www.w3.org/2000/svg">
  <path fill="currentColor" d="M4,14.5 L4,18.5 C4,19.3284271 4.67157288,20 5.5,20 L9.5,20 C10.3284271,20 11,19.3284271 11,18.5 L11,14.5 C11,13.6715729 10.3284271,13 9.5,13 L5.5,13 C4.67157288,13 4,13.6715729 4,14.5 Z M16.2928932,16 L15.1464466,14.8535534 C14.9511845,14.6582912 14.9511845,14.3417088 15.1464466,14.1464466 C15.3417088,13.9511845 15.6582912,13.9511845 15.8535534,14.1464466 L17.8535534,16.1464466 C18.0488155,16.3417088 18.0488155,16.6582912 17.8535534,16.8535534 L15.8535534,18.8535534 C15.6582912,19.0488155 15.3417088,19.0488155 15.1464466,18.8535534 C14.9511845,18.6582912 14.9511845,18.3417088 15.1464466,18.1464466 L16.2928932,17 L13.5,17 C13.2238576,17 13,16.7761424 13,16.5 C13,16.2238576 13.2238576,16 13.5,16 L16.2928932,16 L16.2928932,16 Z M8,7.70710678 L8,10.5 C8,10.7761424 7.77614237,11 7.5,11 C7.22385763,11 7,10.7761424 7,10.5 L7,7.70710678 L5.85355339,8.85355339 C5.65829124,9.04881554 5.34170876,9.04881554 5.14644661,8.85355339 C4.95118446,8.65829124 4.95118446,8.34170876 5.14644661,8.14644661 L7.14644661,6.14644661 C7.34170876,5.95118446 7.65829124,5.95118446 7.85355339,6.14644661 L9.85355339,8.14644661 C10.0488155,8.34170876 10.0488155,8.65829124 9.85355339,8.85355339 C9.65829124,9.04881554 9.34170876,9.04881554 9.14644661,8.85355339 L8,7.70710678 Z M3,14.5 C3,13.1192881 4.11928813,12 5.5,12 L9.5,12 C10.8807119,12 12,13.1192881 12,14.5 L12,18.5 C12,19.8807119 10.8807119,21 9.5,21 L5.5,21 C4.11928813,21 3,19.8807119 3,18.5 L3,14.5 Z M4,5.5 C4,5.77614237 3.77614237,6 3.5,6 C3.22385763,6 3,5.77614237 3,5.5 C3,4.11928813 4.11928813,3 5.5,3 C5.77614237,3 6,3.22385763 6,3.5 C6,3.77614237 5.77614237,4 5.5,4 C4.67157288,4 4,4.67157288 4,5.5 Z M8.5,4 C8.22385763,4 8,3.77614237 8,3.5 C8,3.22385763 8.22385763,3 8.5,3 L10.5,3 C10.7761424,3 11,3.22385763 11,3.5 C11,3.77614237 10.7761424,4 10.5,4 L8.5,4 Z M13.5,4 C13.2238576,4 13,3.77614237 13,3.5 C13,3.22385763 13.2238576,3 13.5,3 L15.5,3 C15.7761424,3 16,3.22385763 16,3.5 C16,3.77614237 15.7761424,4 15.5,4 L13.5,4 Z M18.5,4 C18.2238576,4 18,3.77614237 18,3.5 C18,3.22385763 18.2238576,3 18.5,3 C19.8807119,3 21,4.11928813 21,5.5 C21,5.77614237 20.7761424,6 20.5,6 C20.2238576,6 20,5.77614237 20,5.5 C20,4.67157288 19.3284271,4 18.5,4 Z M20,8.5 C20,8.22385763 20.2238576,8 20.5,8 C20.7761424,8 21,8.22385763 21,8.5 L21,10.5 C21,10.7761424 20.7761424,11 20.5,11 C20.2238576,11 20,10.7761424 20,10.5 L20,8.5 Z M20,13.5 C20,13.2238576 20.2238576,13 20.5,13 C20.7761424,13 21,13.2238576 21,13.5 L21,15.5 C21,15.7761424 20.7761424,16 20.5,16 C20.2238576,16 20,15.7761424 20,15.5 L20,13.5 Z M20,18.5 C20,18.2238576 20.2238576,18 20.5,18 C20.7761424,18 21,18.2238576 21,18.5 C21,19.8807119 19.8807119,21 18.5,21 C18.2238576,21 18,20.7761424 18,20.5 C18,20.2238576 18.2238576,20 18.5,20 C19.3284271,20 20,19.3284271 20,18.5 Z M15.5,20 C15.7761424,20 16,20.2238576 16,20.5 C16,20.7761424 15.7761424,21 15.5,21 L13.5,21 C13.2238576,21 13,20.7761424 13,20.5 C13,20.2238576 13.2238576,20 13.5,20 L15.5,20 Z M3,8.5 C3,8.22385763 3.22385763,8 3.5,8 C3.77614237,8 4,8.22385763 4,8.5 L4,10.5 C4,10.7761424 3.77614237,11 3.5,11 C3.22385763,11 3,10.7761424 3,10.5 L3,8.5 Z"/>
</svg>