<svg viewBox="0 0 24 24" xmlns="http://www.w3.org/2000/svg">
  <path fill="currentColor" d="M5,13 L19,13 L19,6.5 C19,5.67157288 18.3284271,5 17.5,5 L6.5,5 C5.67157288,5 5,5.67157288 5,6.5 L5,13 Z M20,13.4 L21.8846154,17.9230769 C21.9607842,18.1058822 22,18.301961 22,18.5 C22,19.3284271 21.3284271,20 20.5,20 L3.5,20 C3.30196097,20 3.10588218,19.9607842 2.92307692,19.8846154 C2.15837496,19.5659896 1.7967588,18.6877789 2.11538462,17.9230769 L4,13.4 L4,6.5 C4,5.11928813 5.11928813,4 6.5,4 L17.5,4 C18.8807119,4 20,5.11928813 20,6.5 L20,13.4 Z M4.83333333,14 L3.03846154,18.3076923 C2.93225293,18.562593 3.05279165,18.8553299 3.30769231,18.9615385 C3.36862739,18.9869281 3.43398699,19 3.5,19 L20.5,19 C20.7761424,19 21,18.7761424 21,18.5 C21,18.433987 20.9869281,18.3686274 20.9615385,18.3076923 L19.1666667,14 L4.83333333,14 Z M6.5,16 C6.22385763,16 6,15.7761424 6,15.5 C6,15.2238576 6.22385763,15 6.5,15 L7.5,15 C7.77614237,15 8,15.2238576 8,15.5 C8,15.7761424 7.77614237,16 7.5,16 L6.5,16 Z M5.5,18 C5.22385763,18 5,17.7761424 5,17.5 C5,17.2238576 5.22385763,17 5.5,17 L6.5,17 C6.77614237,17 7,17.2238576 7,17.5 C7,17.7761424 6.77614237,18 6.5,18 L5.5,18 Z M8.5,18 C8.22385763,18 8,17.7761424 8,17.5 C8,17.2238576 8.22385763,17 8.5,17 L12.5,17 C12.7761424,17 13,17.2238576 13,17.5 C13,17.7761424 12.7761424,18 12.5,18 L8.5,18 Z M14.5,18 C14.2238576,18 14,17.7761424 14,17.5 C14,17.2238576 14.2238576,17 14.5,17 L15.5,17 C15.7761424,17 16,17.2238576 16,17.5 C16,17.7761424 15.7761424,18 15.5,18 L14.5,18 Z M17.5,18 C17.2238576,18 17,17.7761424 17,17.5 C17,17.2238576 17.2238576,17 17.5,17 L18.5,17 C18.7761424,17 19,17.2238576 19,17.5 C19,17.7761424 18.7761424,18 18.5,18 L17.5,18 Z M9.5,16 C9.22385763,16 9,15.7761424 9,15.5 C9,15.2238576 9.22385763,15 9.5,15 L10.5,15 C10.7761424,15 11,15.2238576 11,15.5 C11,15.7761424 10.7761424,16 10.5,16 L9.5,16 Z M12.5,16 C12.2238576,16 12,15.7761424 12,15.5 C12,15.2238576 12.2238576,15 12.5,15 L13.5,15 C13.7761424,15 14,15.2238576 14,15.5 C14,15.7761424 13.7761424,16 13.5,16 L12.5,16 Z M15.5,16 C15.2238576,16 15,15.7761424 15,15.5 C15,15.2238576 15.2238576,15 15.5,15 L16.5,15 C16.7761424,15 17,15.2238576 17,15.5 C17,15.7761424 16.7761424,16 16.5,16 L15.5,16 Z"/>
</svg>