<svg xmlns="http://www.w3.org/2000/svg" viewBox="0 0 24 24">
  <path fill="currentColor" d="M12,13.9775785 C9.19674999,13.7249641 7,11.3690213 7,8.5 C7,5.46243388 9.46243388,3 12.5,3 C15.5375661,3 18,5.46243388 18,8.5 C18,11.3690213 15.80325,13.7249641 13,13.9775785 L13,20.5 C13,20.7761424 12.7761424,21 12.5,21 C12.2238576,21 12,20.7761424 12,20.5 L12,13.9775785 L12,13.9775785 Z M12.5,13 C14.9852814,13 17,10.9852814 17,8.5 C17,6.01471863 14.9852814,4 12.5,4 C10.0147186,4 8,6.01471863 8,8.5 C8,10.9852814 10.0147186,13 12.5,13 Z"/>
</svg>
