<svg xmlns="http://www.w3.org/2000/svg" viewBox="0 0 24 24">
  <path d="M7.8796283,13.1746043 C8.05933938,13.3842672 8.03505861,13.6999172 7.82539569,13.8796283 C7.61573277,14.0593394 7.30008277,14.0350586 7.1203717,13.8253957 L4.1203717,10.3253957 C3.9598761,10.1381508 3.9598761,9.86184918 4.1203717,9.67460431 L7.1203717,6.17460431 C7.30008277,5.96494139 7.61573277,5.94066062 7.82539569,6.1203717 C8.03505861,6.30008277 8.05933938,6.61573277 7.8796283,6.82539569 L5.15853889,10 L7.8796283,13.1746043 Z M8.95309157,19.7114427 C8.83631497,19.9616783 8.53879283,20.0698682 8.28855727,19.9530916 C8.0383217,19.836315 7.93013183,19.5387928 8.04690843,19.2885573 L15.0469084,4.28855727 C15.163685,4.0383217 15.4612072,3.93013183 15.7114427,4.04690843 C15.9616783,4.16368503 16.0698682,4.46120717 15.9530916,4.71144273 L8.95309157,19.7114427 Z M16.1203717,10.8253957 C15.9406606,10.6157328 15.9649414,10.3000828 16.1746043,10.1203717 C16.3842672,9.94066062 16.6999172,9.96494139 16.8796283,10.1746043 L19.8796283,13.6746043 C20.0401239,13.8618492 20.0401239,14.1381508 19.8796283,14.3253957 L16.8796283,17.8253957 C16.6999172,18.0350586 16.3842672,18.0593394 16.1746043,17.8796283 C15.9649414,17.6999172 15.9406606,17.3842672 16.1203717,17.1746043 L18.8414611,14 L16.1203717,10.8253957 Z"/>
</svg>