<svg viewBox="0 0 24 24" xmlns="http://www.w3.org/2000/svg">
  <path fill="currentColor" d="M18.2848192,17.5777124 L20.8535534,20.1464466 C21.0488155,20.3417088 21.0488155,20.6582912 20.8535534,20.8535534 C20.6582912,21.0488155 20.3417088,21.0488155 20.1464466,20.8535534 L17.5777124,18.2848192 L15.9160251,20.7773501 C15.6899572,21.116452 15.1749357,21.0571624 15.0318354,20.6755617 L12.0318354,12.6755617 C11.8811067,12.2736185 12.2736185,11.8811067 12.6755617,12.0318354 L20.6755617,15.0318354 C21.0571624,15.1749357 21.116452,15.6899572 20.7773501,15.9160251 L18.2848192,17.5777124 L18.2848192,17.5777124 Z M17.2312404,17.0782479 L19.4104716,15.6254271 L13.3544004,13.3544004 L15.6254271,19.4104716 L17.0782479,17.2312404 C17.0974475,17.2011742 17.1201804,17.1727128 17.1464466,17.1464466 C17.1727128,17.1201804 17.2011742,17.0974475 17.2312404,17.0782479 L17.2312404,17.0782479 Z M5.5,3 C5.77614237,3 6,3.22385763 6,3.5 C6,3.77614237 5.77614237,4 5.5,4 C4.67157288,4 4,4.67157288 4,5.5 C4,5.77614237 3.77614237,6 3.5,6 C3.22385763,6 3,5.77614237 3,5.5 C3,4.11928813 4.11928813,3 5.5,3 Z M8.5,4 C8.22385763,4 8,3.77614237 8,3.5 C8,3.22385763 8.22385763,3 8.5,3 L10.5,3 C10.7761424,3 11,3.22385763 11,3.5 C11,3.77614237 10.7761424,4 10.5,4 L8.5,4 Z M13.5,4 C13.2238576,4 13,3.77614237 13,3.5 C13,3.22385763 13.2238576,3 13.5,3 L15.5,3 C15.7761424,3 16,3.22385763 16,3.5 C16,3.77614237 15.7761424,4 15.5,4 L13.5,4 Z M8.5,21 C8.22385763,21 8,20.7761424 8,20.5 C8,20.2238576 8.22385763,20 8.5,20 L10.5,20 C10.7761424,20 11,20.2238576 11,20.5 C11,20.7761424 10.7761424,21 10.5,21 L8.5,21 Z M3,8.5 C3,8.22385763 3.22385763,8 3.5,8 C3.77614237,8 4,8.22385763 4,8.5 L4,10.5 C4,10.7761424 3.77614237,11 3.5,11 C3.22385763,11 3,10.7761424 3,10.5 L3,8.5 Z M3,13.5 C3,13.2238576 3.22385763,13 3.5,13 C3.77614237,13 4,13.2238576 4,13.5 L4,15.5 C4,15.7761424 3.77614237,16 3.5,16 C3.22385763,16 3,15.7761424 3,15.5 L3,13.5 Z M3,18.5 C3,18.2238576 3.22385763,18 3.5,18 C3.77614237,18 4,18.2238576 4,18.5 C4,19.3284271 4.67157288,20 5.5,20 C5.77614237,20 6,20.2238576 6,20.5 C6,20.7761424 5.77614237,21 5.5,21 C4.11928813,21 3,19.8807119 3,18.5 Z M21,10.5 C21,10.7761424 20.7761424,11 20.5,11 C20.2238576,11 20,10.7761424 20,10.5 L20,8.5 C20,8.22385763 20.2238576,8 20.5,8 C20.7761424,8 21,8.22385763 21,8.5 L21,10.5 Z M21,5.5 C21,5.77614237 20.7761424,6 20.5,6 C20.2238576,6 20,5.77614237 20,5.5 C20,4.67157288 19.3284271,4 18.5,4 C18.2238576,4 18,3.77614237 18,3.5 C18,3.22385763 18.2238576,3 18.5,3 C19.8807119,3 21,4.11928813 21,5.5 Z"/>
</svg>