<svg xmlns="http://www.w3.org/2000/svg" viewBox="0 0 24 24">
  <path fill="currentColor" d="M13,16 L14.5,16 C14.7761424,16 15,16.2238576 15,16.5 C15,16.7761424 14.7761424,17 14.5,17 L10.5,17 C10.2238576,17 10,16.7761424 10,16.5 C10,16.2238576 10.2238576,16 10.5,16 L12,16 L12,11 L10.5,11 C10.2238576,11 10,10.7761424 10,10.5 C10,10.2238576 10.2238576,10 10.5,10 L12.5,10 C12.7761424,10 13,10.2238576 13,10.5 L13,16 L13,16 Z M12,22 C6.4771525,22 2,17.5228475 2,12 C2,6.4771525 6.4771525,2 12,2 C17.5228475,2 22,6.4771525 22,12 C22,17.5228475 17.5228475,22 12,22 Z M12,21 C16.9705627,21 21,16.9705627 21,12 C21,7.02943725 16.9705627,3 12,3 C7.02943725,3 3,7.02943725 3,12 C3,16.9705627 7.02943725,21 12,21 Z M11.5,7 L12.5,7 C12.7761424,7 13,7.22385763 13,7.5 L13,8.5 C13,8.77614237 12.7761424,9 12.5,9 L11.5,9 C11.2238576,9 11,8.77614237 11,8.5 L11,7.5 C11,7.22385763 11.2238576,7 11.5,7 Z"/>
</svg>
