<svg xmlns="http://www.w3.org/2000/svg" viewBox="0 0 24 24">
  <path fill="currentColor" d="M5,6.5 C5,6.22385763 5.22385763,6 5.5,6 C5.77614237,6 6,6.22385763 6,6.5 L6,16.5 C6,16.7761424 5.77614237,17 5.5,17 C5.22385763,17 5,16.7761424 5,16.5 L5,6.5 Z M18.5,20 C18.2238576,20 18,19.7761424 18,19.5 C18,19.2238576 18.2238576,19 18.5,19 C19.3284271,19 20,18.3284271 20,17.5 L20,6.5 C20,5.67157288 19.3284271,5 18.5,5 L5.5,5 C4.67157288,5 4,5.67157288 4,6.5 L4,17.5 C4,18.3284271 4.67157288,19 5.5,19 C5.77614237,19 6,19.2238576 6,19.5 C6,19.7761424 5.77614237,20 5.5,20 C4.11928813,20 3,18.8807119 3,17.5 L3,6.5 C3,5.11928813 4.11928813,4 5.5,4 L18.5,4 C19.8807119,4 21,5.11928813 21,6.5 L21,17.5 C21,18.8807119 19.8807119,20 18.5,20 Z M9,6.5 C9,6.22385763 9.22385763,6 9.5,6 C9.77614237,6 10,6.22385763 10,6.5 L10,19.5 C10,19.7761424 9.77614237,20 9.5,20 C9.22385763,20 9,19.7761424 9,19.5 L9,6.5 Z M11,6.5 C11,6.22385763 11.2238576,6 11.5,6 C11.7761424,6 12,6.22385763 12,6.5 L12,16.5 C12,16.7761424 11.7761424,17 11.5,17 C11.2238576,17 11,16.7761424 11,16.5 L11,6.5 Z M13,6.5 C13,6.22385763 13.2238576,6 13.5,6 C13.7761424,6 14,6.22385763 14,6.5 L14,19.5 C14,19.7761424 13.7761424,20 13.5,20 C13.2238576,20 13,19.7761424 13,19.5 L13,6.5 Z M16,6.5 C16,6.22385763 16.2238576,6 16.5,6 C16.7761424,6 17,6.22385763 17,6.5 L17,16.5 C17,16.7761424 16.7761424,17 16.5,17 C16.2238576,17 16,16.7761424 16,16.5 L16,6.5 Z M18,6.5 C18,6.22385763 18.2238576,6 18.5,6 C18.7761424,6 19,6.22385763 19,6.5 L19,16.5 C19,16.7761424 18.7761424,17 18.5,17 C18.2238576,17 18,16.7761424 18,16.5 L18,6.5 Z M16,18.5 C16,18.2238576 16.2238576,18 16.5,18 C16.7761424,18 17,18.2238576 17,18.5 L17,19.5 C17,19.7761424 16.7761424,20 16.5,20 C16.2238576,20 16,19.7761424 16,19.5 L16,18.5 Z M11,18.5 C11,18.2238576 11.2238576,18 11.5,18 C11.7761424,18 12,18.2238576 12,18.5 L12,19.5 C12,19.7761424 11.7761424,20 11.5,20 C11.2238576,20 11,19.7761424 11,19.5 L11,18.5 Z M7,18.5 C7,18.2238576 7.22385763,18 7.5,18 C7.77614237,18 8,18.2238576 8,18.5 L8,19.5 C8,19.7761424 7.77614237,20 7.5,20 C7.22385763,20 7,19.7761424 7,19.5 L7,18.5 Z"/>
</svg>
