<svg xmlns="http://www.w3.org/2000/svg" viewBox="0 0 24 24">
  <path fill="currentColor" d="M5.49975218,3.00000021 L19.499807,2.99305708 C20.8814832,2.99305689 22.0007713,4.11234502 22.0007713,5.49308443 L22,19.5 C22,20.8807119 20.8807119,22 19.5,22 L5.5,22 C4.11928813,22 3,20.8807119 3,19.5 L3,5.5 C3.01771987,4.10278895 4.12991844,3.00052859 5.49975218,3.00000021 Z M4,19.5 C4,20.3284271 4.67157288,21 5.5,21 L19.5,21 C20.3284271,21 21,20.3284271 21,19.4999725 L21.0007713,5.49305689 C21.0007713,4.66462977 20.3291984,3.99305689 19.5007713,3.99305689 L5.50019301,4.00000011 C4.67199189,4.00031957 4.0007716,4.67179882 4.0007716,5.5 C4.0007716,5.50626743 4.0005144,10.1729341 4,19.5 Z M13,16.2928932 L16.1464466,13.1464466 C16.3417088,12.9511845 16.6582912,12.9511845 16.8535534,13.1464466 C17.0488155,13.3417088 17.0488155,13.6582912 16.8535534,13.8535534 L12.8535534,17.8535534 C12.6582912,18.0488155 12.3417088,18.0488155 12.1464466,17.8535534 L8.14644661,13.8535534 C7.95118446,13.6582912 7.95118446,13.3417088 8.14644661,13.1464466 C8.34170876,12.9511845 8.65829124,12.9511845 8.85355339,13.1464466 L12,16.2928932 L12,7.5 C12,7.22385763 12.2238576,7 12.5,7 C12.7761424,7 13,7.22385763 13,7.5 L13,16.2928932 Z"/>
</svg>
