<svg xmlns="http://www.w3.org/2000/svg" viewBox="0 0 24 24">
  <path fill="currentColor" d="M9.96455557,6 C9.74529919,7.53284558 8.53284558,8.74529919 7,8.96455557 L7,15.0354444 C8.69614707,15.2780593 10,16.736764 10,18.5 C10,20.4329966 8.43299662,22 6.5,22 C4.56700338,22 3,20.4329966 3,18.5 C3,16.736764 4.30385293,15.2780593 6,15.0354444 L6,8.96455557 C4.30385293,8.72194074 3,7.26323595 3,5.5 C3,3.56700338 4.56700338,2 6.5,2 C8.26323595,2 9.72194074,3.30385293 9.96455557,5 L14.5,5 C16.9852814,5 19,7.01471863 19,9.5 L19,10.0354444 C20.6961471,10.2780593 22,11.736764 22,13.5 C22,15.4329966 20.4329966,17 18.5,17 C16.5670034,17 15,15.4329966 15,13.5 C15,11.736764 16.3038529,10.2780593 18,10.0354444 L18,9.5 C18,7.56700338 16.4329966,6 14.5,6 L9.96455557,6 Z M4,5.5 C4,6.88071187 5.11928813,8 6.5,8 C7.88071187,8 9,6.88071187 9,5.5 C9,4.11928813 7.88071187,3 6.5,3 C5.11928813,3 4,4.11928813 4,5.5 Z M4,18.5 C4,19.8807119 5.11928813,21 6.5,21 C7.88071187,21 9,19.8807119 9,18.5 C9,17.1192881 7.88071187,16 6.5,16 C5.11928813,16 4,17.1192881 4,18.5 Z M18.5,11 C17.1192881,11 16,12.1192881 16,13.5 C16,14.8807119 17.1192881,16 18.5,16 C19.8807119,16 21,14.8807119 21,13.5 C21,12.1192881 19.8807119,11 18.5,11 Z"/>
</svg>
