<svg xmlns="http://www.w3.org/2000/svg" viewBox="0 0 24 24">
  <path fill="currentColor" d="M13.0778418,12.9406987 L16.5345074,14.5119103 C17.4269931,14.9175857 18,15.8074678 18,16.7878265 L18,17.5 C18,18.8807119 16.8807119,20 15.5,20 L4.5,20 C3.11928813,20 2,18.8807119 2,17.5 L2,16.7878265 C2,15.8074678 2.57300693,14.9175857 3.46549264,14.5119103 L6.92215823,12.9406987 C5.75209123,12.0255364 5,10.6005984 5,9 C5,6.23857625 7.23857625,4 10,4 C12.7614237,4 15,6.23857625 15,9 C15,10.6005984 14.2479088,12.0255364 13.0778418,12.9406987 Z M7.96126583,13.5668358 L3.87929558,15.4222768 C3.34380416,15.665682 3,16.1996113 3,16.7878265 L3,17.5 C3,18.3284271 3.67157288,19 4.5,19 L15.5,19 C16.3284271,19 17,18.3284271 17,17.5 L17,16.7878265 C17,16.1996113 16.6561958,15.665682 16.1207044,15.4222768 L12.0387342,13.5668358 C11.4161054,13.8452135 10.7261289,14 10,14 C9.27387115,14 8.58389462,13.8452135 7.96126583,13.5668358 Z M10,13 C12.209139,13 14,11.209139 14,9 C14,6.790861 12.209139,5 10,5 C7.790861,5 6,6.790861 6,9 C6,11.209139 7.790861,13 10,13 Z M17.1429857,6.8500583 C16.9496539,6.65288477 16.9527682,6.3363176 17.1499417,6.14298574 C17.3471152,5.94965387 17.6636824,5.95276816 17.8570143,6.1499417 C19.409204,7.7329748 19.409204,10.2670252 17.8570143,11.8500583 C17.6636824,12.0472318 17.3471152,12.0503461 17.1499417,11.8570143 C16.9527682,11.6636824 16.9496539,11.3471152 17.1429857,11.1499417 C18.3138802,9.95578055 18.3138802,8.04421945 17.1429857,6.8500583 Z M19.1652488,4.87140492 C18.9601275,4.68652692 18.9437171,4.37037004 19.1285951,4.16524877 C19.3134731,3.9601275 19.62963,3.94371708 19.8347512,4.12859508 C22.5251539,6.55348383 22.7403954,10.7002468 20.3155067,13.3906495 C20.1636751,13.5591059 20.0032077,13.7195733 19.8347512,13.8714049 C19.62963,14.0562829 19.3134731,14.0398725 19.1285951,13.8347512 C18.9437171,13.62963 18.9601275,13.3134731 19.1652488,13.1285951 C19.3080183,12.9999153 19.4440171,12.8639166 19.5726968,12.721147 C21.6278296,10.4409869 21.4454089,6.92653766 19.1652488,4.87140492 Z"/>
</svg>
