<svg xmlns="http://www.w3.org/2000/svg" viewBox="0 0 24 24">
  <path fill="currentColor" d="M5.15109186,12 L9.84890814,12 L7.5,5.89283883 L5.15109186,12 Z M4.76647647,13 L2.9666728,17.6794895 C2.86754347,17.9372258 2.57824673,18.0658021 2.32051046,17.9666728 C2.06277419,17.8675435 1.93419786,17.5782467 2.0333272,17.3205105 L7.0333272,4.32051046 C7.19769154,3.89316318 7.80230846,3.89316318 7.9666728,4.32051046 L12.9666728,17.3205105 C13.0658021,17.5782467 12.9372258,17.8675435 12.6794895,17.9666728 C12.4217533,18.0658021 12.1324565,17.9372258 12.0333272,17.6794895 L10.2335235,13 L4.76647647,13 Z M20.9570562,10.7969621 C20.9846595,10.8590065 21,10.9277118 21,11 C21,11.0680009 20.9975396,11.1347877 20.9926422,11.2003536 C20.9975423,11.2981122 21,11.3979995 21,11.5 L21,16.5 C21,16.7761424 21.2238576,17 21.5,17 C21.7761424,17 22,17.2238576 22,17.5 C22,17.7761424 21.7761424,18 21.5,18 C20.9667087,18 20.4984178,17.7216998 20.232437,17.3024088 C19.7830891,17.7344189 19.1725594,18 18.5,18 L16.5,18 C14.578646,18 13.5,17.1370832 13.5,15.5 C13.5,13.8048215 14.4884102,13.2846056 17.1695763,12.7689968 C17.273648,12.7489936 17.273648,12.7489936 17.377313,12.7289978 C17.8222599,12.6429747 18.1021245,12.5840807 18.3787322,12.5149287 C19.4171745,12.2553182 19.9157867,11.8201648 19.990146,11.1762976 C19.8952664,9.6786695 19.1119808,9 17.5,9 C15.7435171,9 15,9.49567806 15,10.5 C15,10.7761424 14.7761424,11 14.5,11 C14.2238576,11 14,10.7761424 14,10.5 C14,8.83765527 15.2564829,8 17.5,8 C19.529353,8 20.7222375,8.97285307 20.9570562,10.7969621 Z M20,15.5 L20,12.8965747 C19.6342901,13.1504595 19.1724164,13.3472841 18.6212678,13.4850713 C18.3228164,13.5596841 18.0285165,13.6216159 17.5671314,13.710817 C17.4624631,13.7310064 17.4624631,13.7310064 17.3584237,13.7510032 C15.1484383,14.1760004 14.5,14.5172837 14.5,15.5 C14.5,16.5295834 15.0880207,17 16.5,17 L18.5,17 C19.3284271,17 20,16.3284271 20,15.5 Z"/>
</svg>
