<svg xmlns="http://www.w3.org/2000/svg" viewBox="0 0 24 24">
  <path fill="currentColor" d="M11.5,7 C11.2238576,7 11,6.77614237 11,6.5 C11,6.22385763 11.2238576,6 11.5,6 L13,6 C14.1045695,6 15,6.8954305 15,8 C15,9.1045695 14.1045695,10 13,10 L5.5,10 C5.22385763,10 5,9.77614237 5,9.5 C5,9.22385763 5.22385763,9 5.5,9 L13,9 C13.5522847,9 14,8.55228475 14,8 C14,7.44771525 13.5522847,7 13,7 L11.5,7 Z M17.5,10 C17.2238576,10 17,9.77614237 17,9.5 C17,9.22385763 17.2238576,9 17.5,9 L19,9 C20.1045695,9 21,9.8954305 21,11 C21,12.1045695 20.1045695,13 19,13 L3.5,13 C3.22385763,13 3,12.7761424 3,12.5 C3,12.2238576 3.22385763,12 3.5,12 L19,12 C19.5522847,12 20,11.5522847 20,11 C20,10.4477153 19.5522847,10 19,10 L17.5,10 Z M7.5,16 C7.22385763,16 7,15.7761424 7,15.5 C7,15.2238576 7.22385763,15 7.5,15 L15,15 C16.1045695,15 17,15.8954305 17,17 C17,18.1045695 16.1045695,19 15,19 L13.5,19 C13.2238576,19 13,18.7761424 13,18.5 C13,18.2238576 13.2238576,18 13.5,18 L15,18 C15.5522847,18 16,17.5522847 16,17 C16,16.4477153 15.5522847,16 15,16 L7.5,16 Z"/>
</svg>
