<svg xmlns="http://www.w3.org/2000/svg" viewBox="0 0 24 24">
  <path fill="currentColor" d="M7,8 L3,8 L3,20.2928932 L7,16.2928932 L7,8 Z M8,7 L16.2928932,7 L20.2928932,3 L8,3 L8,7 Z M17,7.70710678 L17,16 L21,16 L21,3.70710678 L17,7.70710678 Z M16,17 L7.70710678,17 L3.70710678,21 L16,21 L16,17 Z M21.8535534,16.8535534 L16.8535534,21.8535534 C16.7630712,21.9440356 16.6380712,22 16.5,22 L2.5,22 C2.22385763,22 2,21.7761424 2,21.5 L2,7.5 C2,7.36192881 2.05596441,7.23692881 2.14644661,7.14644661 L7.14644661,2.14644661 C7.23692881,2.05596441 7.36192881,2 7.5,2 L21.5,2 C21.7761424,2 22,2.22385763 22,2.5 L22,16.5 C22,16.6380712 21.9440356,16.7630712 21.8535534,16.8535534 Z M20.2928932,17 L17,17 L17,20.2928932 L20.2928932,17 Z M7,3.70710678 L3.70710678,7 L7,7 L7,3.70710678 Z M8,8 L8,16 L16,16 L16,8 L8,8 Z"/>
</svg>
