<svg xmlns="http://www.w3.org/2000/svg" viewBox="0 0 233.45 198.43"><defs><style>.cls-1{fill:#384044;}.cls-2{fill:#e9893f;}.cls-3{fill:#e2690f;}.cls-4{fill:#f8d5b8;}.cls-5{fill:#eea163;}</style></defs><g id="Layer_2" data-name="Layer 2"><g id="Layer_1-2" data-name="Layer 1"><path class="cls-1" d="M207.89,161.86c.09,0,4.36,0,6.4,0a17.88,17.88,0,0,0,3.7-.49,9.5,9.5,0,0,0,6-4.93,14.74,14.74,0,0,0,1.4-4.05,32.59,32.59,0,0,0,.49-5,26.15,26.15,0,0,0-.37-5.79,15.38,15.38,0,0,0-1.33-4.29,9.62,9.62,0,0,0-5.43-5,13.22,13.22,0,0,0-4.48-.8c-2.06,0-6.33,0-6.4,0Zm25.54-13.16a26.93,26.93,0,0,1-1.75,8.83,16.44,16.44,0,0,1-3.71,5.76,15.72,15.72,0,0,1-6.4,3.81,20.68,20.68,0,0,1-5.57,1H200.34s-.08-42.55,0-42.95c.09,0,9.68,0,14.38,0a22.3,22.3,0,0,1,7.33,1.19,15.46,15.46,0,0,1,9.11,8.18,23.13,23.13,0,0,1,1.8,5.69,48.24,48.24,0,0,1,.49,8.46"/><path class="cls-1" d="M129.84,146.91c0,.54,0,1.07,0,1.6a28.8,28.8,0,0,0,.57,5.16,14.7,14.7,0,0,0,1.54,4.26,8.32,8.32,0,0,0,5.15,4.15,11.6,11.6,0,0,0,4.69.28,8.32,8.32,0,0,0,6.34-4.18,15.23,15.23,0,0,0,1.81-5.11,34,34,0,0,0,.53-5.95,39.41,39.41,0,0,0-.17-4.21,24.48,24.48,0,0,0-.73-4.26,12.92,12.92,0,0,0-1.88-4.18,8,8,0,0,0-4.49-3.21,11.41,11.41,0,0,0-5.83-.08,7.89,7.89,0,0,0-3.91,2.25,10.44,10.44,0,0,0-2.07,3.26,20.17,20.17,0,0,0-1.33,5.51,37,37,0,0,0-.22,4.71m10.82-22.37c.14,0,.27,0,.41,0a19.72,19.72,0,0,1,4.58.67,14.85,14.85,0,0,1,6.89,4,16.83,16.83,0,0,1,3.35,5.14,25.67,25.67,0,0,1,1.7,6A40.52,40.52,0,0,1,158,148a33.56,33.56,0,0,1-1.06,7.73,20.19,20.19,0,0,1-2.69,6.14,14.88,14.88,0,0,1-9.12,6.3,20.94,20.94,0,0,1-4.32.55,21.42,21.42,0,0,1-6-.61,15,15,0,0,1-6.54-3.49,16.18,16.18,0,0,1-3.52-4.81,23,23,0,0,1-1.86-5.54,35.2,35.2,0,0,1-.68-5.7,42.44,42.44,0,0,1,.13-5.86,27.89,27.89,0,0,1,1.85-8,17.08,17.08,0,0,1,3.17-5.12,14.7,14.7,0,0,1,6.55-4.16,19.65,19.65,0,0,1,5.21-.86c.15,0,.3,0,.44,0Z"/><path class="cls-1" d="M0,125.2H11c2.8,10.15,8.63,30.49,8.63,30.49h.19s5.88-20.33,8.69-30.5H39.67c.06.21,0,42.93,0,42.93H33.22V133.79h-.29s-7,22.9-10.24,34.36H16.9c-3.22-11.45-10-34.35-10-34.35H6.57s0,33.44,0,34.34H0Z"/><path class="cls-1" d="M171.5,144.31s7.16.06,9.23-.15a10.49,10.49,0,0,0,3-.77,4.86,4.86,0,0,0,2.87-3.42,9.13,9.13,0,0,0,.11-3.79,5.9,5.9,0,0,0-1-2.51,5.73,5.73,0,0,0-3-2,10.74,10.74,0,0,0-2.85-.42c-1.14-.05-8.3,0-8.3,0Zm7.68,6.05H171.5v17.77h-7.74v-43h17.31a21.56,21.56,0,0,1,5.54.81,11.11,11.11,0,0,1,4.45,2.62,10.7,10.7,0,0,1,2.74,4.61,16.07,16.07,0,0,1,.62,5.77,11.52,11.52,0,0,1-1.19,4.5,9.83,9.83,0,0,1-5.56,4.88c-.42.16-.86.28-1.32.44,3.16,6.44,6.33,12.86,9.51,19.33l-8.52,0Z"/><polygon class="cls-1" points="93.55 125.2 120.52 125.2 120.52 131.46 101.13 131.46 101.13 142.61 115.6 142.61 115.59 148.9 101.13 148.9 101.11 168.13 93.55 168.13 93.55 125.2"/><polygon class="cls-1" points="70.26 161.42 89.15 161.42 89.18 168.13 62.72 168.13 62.72 125.2 70.26 125.2 70.26 161.42"/><rect class="cls-1" x="47.49" y="125.2" width="7.54" height="42.93"/><path class="cls-1" d="M206.91,198.41c3.6,0,5.92-2.07,5.92-6.18v-7.82h-2.42v7.93c0,2.54-1.32,3.84-3.46,3.84s-3.49-1.38-3.49-3.93v-7.84H201v7.93c0,4,2.28,6.07,5.87,6.07M190.1,196.2a4.71,4.71,0,0,1-4.68-4.9v0a4.66,4.66,0,0,1,4.64-4.86,4.71,4.71,0,0,1,4.68,4.9v0a4.65,4.65,0,0,1-4.64,4.86m0,2.23a7.06,7.06,0,0,0,7.22-7.13v0a7.2,7.2,0,0,0-14.4,0v0a7,7,0,0,0,7.18,7.09m-16.49-.24H176V192.7l5.47-8.29H178.7l-3.89,6.1-3.86-6.1h-2.86l5.48,8.35Zm-27.48,0h2.38v-9.8l7.6,9.8h2V184.41h-2.38v9.53l-7.38-9.53h-2.25Zm-7.13,0h2.42V184.41H139ZM118,196v-9.36h2.71a4.52,4.52,0,0,1,4.79,4.68v0a4.49,4.49,0,0,1-4.79,4.64Zm-2.42,2.21h5.13c4.33,0,7.32-3,7.32-6.89v0c0-3.88-3-6.85-7.32-6.85h-5.13Zm-14.31,0h10.31V196h-7.89v-3.7h6.91v-2.16h-6.91v-3.58h7.8v-2.17H101.25Zm-10.17,0h2.44V186.66h4.37v-2.25H86.71v2.25h4.37Zm-12.09.2c2.9,0,4.92-1.54,4.92-4.12v0c0-2.28-1.51-3.32-4.42-4-2.64-.63-3.27-1.1-3.27-2.17v0c0-.91.83-1.64,2.24-1.64a6.23,6.23,0,0,1,3.74,1.42L83.5,186a7.65,7.65,0,0,0-5-1.73c-2.73,0-4.7,1.63-4.7,4v0c0,2.54,1.65,3.41,4.58,4.11,2.56.59,3.11,1.13,3.11,2.11v0c0,1-.94,1.73-2.44,1.73a6.36,6.36,0,0,1-4.35-1.79l-1.45,1.73A8.46,8.46,0,0,0,79,198.39m-19.11-.2H70.19V196H62.3v-3.7h6.9v-2.16H62.3v-3.58h7.79v-2.17H59.88Zm-11.13.1h2.13l5.73-13.88H54L49.86,195,45.7,184.41H43Zm-21-.1h2.38v-9.8l7.6,9.8h2V184.41H37.38v9.53L30,184.41H27.76Zm-7.14,0H23V184.41H20.62Z"/><path class="cls-2" d="M58.08,95.67c1.25-.87,1.92-1.15,2.21-1.92S61.15,92,61.64,92s1,1.24.87,1.81-1.94,1.84-2,2.31-.57,3-.57,3a1.9,1.9,0,0,0,1.24-.1,18.22,18.22,0,0,0,3.75-3.17c.77-.87,3.95-6.34,5.58-8.75s3.66-6.92,4.82-8.45,1.82-3.08,2.68-4,.77,1.14,1.06,1.83-.1,1.53-.1,2.11a15.56,15.56,0,0,0,.76,3.84,2.45,2.45,0,0,0,2.31,0c.48-.49,2.31-2.78,3.57-4.14a38.06,38.06,0,0,0,3.74-4.41c.77-1.25,1.25-4.24,1.54-6a39.92,39.92,0,0,1,1.62-6.44c.4-.59.59-2.41.87-2.5s1,2.6,1.64,3.65,3.37-1.05,4-1.83a20.55,20.55,0,0,1,4-2.88,45.25,45.25,0,0,0,5.48-3c1.16-.86,2.21-2.12,2.79-2.6a3.3,3.3,0,0,1,1.73-1l.15,0a2.52,2.52,0,0,1-1-2c0-1.62.19-7.5-.48-9.51s-1.06-3.95-1.82-6-.78-4.8.28-5.58,2.31-2.78,3.66-2.49,10.38-2.59,11.92-2.5,9.41-3.74,10-5.19a11.24,11.24,0,0,0,.37-5,29.21,29.21,0,0,1-.47-4.22,7.49,7.49,0,0,1,.91-2.06c-.88.7-2.74,2.55-2.74,2.55l-.39.1s-1.06,1.54-1.35,1.93-2.49,4.41-3.07,5.28a10.77,10.77,0,0,1-3.18,3.17c-1.25.68-1.33.28-2.3.48s-1.25.78-2.4,1.64-1.35,1.16-2.21,1.73-3.17-.67-3.17-.67c-1.16-.2-2.31,1.15-3.66,2.78S105,33.47,104.7,34s-.49,1.64-.86,2.41-1.17.38-1.73.57-.1.87-.48,2.31a13.91,13.91,0,0,1-2.8,4.52c-1,1.25-3.65,4.43-4.23,5.19s-4.22,5.57-5.67,7-4.32,3.75-6.72,6.15-3,3.07-3.37,3.26.1,1.45-.77,1.93a14.68,14.68,0,0,1-4.23,1.44c-2.2.49-1.73,1.26-3.27,2.7a8.94,8.94,0,0,1-4.32,2.77c-2.31.78-2.88,1.36-5.49,1.84a17.6,17.6,0,0,0-5.37,1.73c-1.54.77-1.83,1.73-3.66,2.89s-5.38,2.11-9.32,3.45-9.13,2.51-11,3.08-2.7,1.83-4.81,3.18S21.54,94.52,18,97.5s-5,2-7.21,2.41a8.28,8.28,0,0,0-4.61,2.59c-.77.86-4.14,4.22-4.14,4.22H50.2S53.47,101,55,98.93,56.83,96.54,58.08,95.67Z"/><path class="cls-3" d="M150.31,79.18c-1.15-1.37-1.58-2.45-1.44-3.45,0-.28.09-.61.15-1-4.19-2.57-16.4-10.88-19.9-14.39-4.22-4.23-10.19-9.13-12.79-8.56a3.9,3.9,0,0,1-2.71-.25,3.38,3.38,0,0,1-.41-.24l-.15,0a3.3,3.3,0,0,0-1.73,1c-.58.48-1.63,1.74-2.79,2.6a45.25,45.25,0,0,1-5.48,3,20.55,20.55,0,0,0-4,2.88c-.67.78-3.37,2.89-4,1.83S93.65,58.85,93.35,59s-.47,1.91-.87,2.5a39.92,39.92,0,0,0-1.62,6.44c-.29,1.72-.77,4.71-1.54,6a38.06,38.06,0,0,1-3.74,4.41c-1.26,1.36-3.09,3.65-3.57,4.14a2.45,2.45,0,0,1-2.31,0,15.56,15.56,0,0,1-.76-3.84c0-.58.39-1.44.1-2.11s-.2-2.79-1.06-1.83-1.54,2.5-2.68,4-3.19,6-4.82,8.45S65.67,95,64.9,95.86A18.22,18.22,0,0,1,61.15,99a1.9,1.9,0,0,1-1.24.1s.48-2.5.57-3,1.92-1.72,2-2.31S62.12,92,61.64,92s-1.07,1-1.35,1.73-1,1-2.21,1.92S56.54,96.92,55,98.93s-4.8,7.79-4.8,7.79H167.62S151.46,80.56,150.31,79.18Z"/><path class="cls-4" d="M175.92,47.29c-2-5-4.61-12.88-6.52-16.82S163,19.6,160.26,15A27.86,27.86,0,0,0,149,4.9,36.7,36.7,0,0,1,141.79,0s-2.3,3-4,5.09a13.47,13.47,0,0,0-1.2,1.7,7.49,7.49,0,0,0-.91,2.06,29.21,29.21,0,0,0,.47,4.22,11.24,11.24,0,0,1-.37,5c-.59,1.45-8.47,5.29-10,5.19s-10.57,2.79-11.92,2.5-2.6,1.73-3.66,2.49-1.06,3.57-.28,5.58,1.14,3.94,1.82,6,.48,7.89.48,9.51a2.52,2.52,0,0,0,1,2,3.38,3.38,0,0,0,.41.24,3.9,3.9,0,0,0,2.71.25c2.6-.57,8.57,4.33,12.79,8.56,3.5,3.51,15.71,11.82,19.9,14.39a2.8,2.8,0,0,1,.06-.28,4.1,4.1,0,0,1,1.16-2.43A26.18,26.18,0,0,1,155,68.73c2-.94,2.17-.65,2.17-3.1s-.57-2-.07-5.11-.93-4.19,1-4.63a5.86,5.86,0,0,1,4.69.51c1.07.79,2.88,1.59,3.38.14s3.25-2.66,4.26-2.66,7.21,2.45,7.78,2.74c.23.11,1.71,1.14,3.5,2.45C179.58,57.14,177.84,52,175.92,47.29Z"/><path class="cls-5" d="M217.43,95.84A21.79,21.79,0,0,1,214.84,93a70.34,70.34,0,0,0-8.15-7.14c-5.4-3.1-6.06-4-8.08-6.71s-8.51-12.76-9.87-14.42a62.48,62.48,0,0,0-7-5.62c-1.79-1.31-3.27-2.34-3.5-2.45-.57-.29-6.77-2.74-7.78-2.74s-3.75,1.23-4.26,2.66-2.31.65-3.38-.14a5.86,5.86,0,0,0-4.69-.51c-1.94.44-.5,1.52-1,4.63s.07,2.66.07,5.11-.21,2.16-2.17,3.1a26.18,26.18,0,0,0-4.75,3.32,4.1,4.1,0,0,0-1.16,2.43,2.8,2.8,0,0,0-.06.28c-.06.36-.11.69-.15,1-.14,1,.29,2.08,1.44,3.45s17.31,27.54,17.31,27.54H229C228.47,105.71,218.37,96.49,217.43,95.84Z"/></g></g></svg>