<?xml version="1.0" encoding="UTF-8" standalone="no"?>
<!DOCTYPE svg PUBLIC "-//W3C//DTD SVG 1.1//EN" "http://www.w3.org/Graphics/SVG/1.1/DTD/svg11.dtd">
<svg width="100%" height="100%" viewBox="0 0 188 169" version="1.1" xmlns="http://www.w3.org/2000/svg" xmlns:xlink="http://www.w3.org/1999/xlink" xml:space="preserve" xmlns:serif="http://www.serif.com/" style="fill-rule:evenodd;clip-rule:evenodd;stroke-linejoin:round;stroke-miterlimit:2;">
    <g id="Artboard1" transform="matrix(1,0,0,1,-1950,-1050)">
        <rect x="1950" y="1050" width="187.498" height="168.75" style="fill:none;"/>
        <clipPath id="_clip1">
            <rect x="1950" y="1050" width="187.498" height="168.75"/>
        </clipPath>
        <g clip-path="url(#_clip1)">
            <g transform="matrix(1,0,0,1,18.75,2.34195e-11)">
                <g transform="matrix(1,0,0,1.5,0.00237366,-693.75)">
                    <path d="M2118.75,1174.5C2118.75,1167.87 2110.69,1162.5 2100.75,1162.5C2064.93,1162.5 1985.08,1162.5 1949.26,1162.5C1939.31,1162.5 1931.26,1167.87 1931.26,1174.5C1931.26,1195.68 1931.26,1237.5 1931.26,1237.5L2118.75,1237.5L2118.75,1174.5Z" style="fill:rgb(255,230,157);"/>
                    <path d="M2100.75,1162.5L2100.98,1162.5L2101.22,1162.5L2101.45,1162.51L2101.68,1162.52L2101.91,1162.52L2102.14,1162.54L2102.36,1162.55L2102.59,1162.56L2102.82,1162.58L2103.04,1162.6L2103.27,1162.62L2103.49,1162.64L2103.71,1162.66L2103.94,1162.69L2104.16,1162.71L2104.38,1162.74L2104.6,1162.78L2104.82,1162.81L2105.03,1162.84L2105.25,1162.88L2105.46,1162.92L2105.68,1162.95L2105.89,1163L2106.1,1163.04L2106.31,1163.08L2106.52,1163.13L2106.73,1163.18L2106.94,1163.23L2107.14,1163.28L2107.35,1163.33L2107.55,1163.39L2107.76,1163.44L2107.96,1163.5L2108.16,1163.56L2108.36,1163.62L2108.55,1163.68L2108.75,1163.75L2108.95,1163.81L2109.14,1163.88L2109.33,1163.95L2109.52,1164.02L2109.71,1164.09L2109.9,1164.16L2110.08,1164.24L2110.27,1164.31L2110.45,1164.39L2110.63,1164.47L2110.81,1164.55L2110.99,1164.63L2111.17,1164.71L2111.35,1164.8L2111.52,1164.88L2111.69,1164.97L2111.86,1165.06L2112.03,1165.15L2112.2,1165.24L2112.37,1165.33L2112.53,1165.43L2112.69,1165.52L2112.85,1165.62L2113.01,1165.71L2113.17,1165.81L2113.32,1165.91L2113.48,1166.02L2113.63,1166.12L2113.78,1166.22L2113.93,1166.33L2114.07,1166.43L2114.22,1166.54L2114.36,1166.65L2114.5,1166.76L2114.64,1166.87L2114.78,1166.98L2114.91,1167.09L2115.04,1167.2L2115.17,1167.32L2115.3,1167.44L2115.43,1167.55L2115.55,1167.67L2115.68,1167.79L2115.8,1167.91L2115.91,1168.03L2116.03,1168.15L2116.14,1168.28L2116.26,1168.4L2116.37,1168.53L2116.47,1168.65L2116.58,1168.78L2116.68,1168.91L2116.78,1169.04L2116.88,1169.17L2116.97,1169.3L2117.07,1169.43L2117.16,1169.56L2117.25,1169.69L2117.34,1169.83L2117.42,1169.96L2117.5,1170.1L2117.58,1170.24L2117.66,1170.37L2117.73,1170.51L2117.8,1170.65L2117.87,1170.79L2117.94,1170.93L2118.01,1171.07L2118.07,1171.21L2118.13,1171.36L2118.18,1171.5L2118.24,1171.64L2118.29,1171.79L2118.34,1171.93L2118.38,1172.08L2118.43,1172.23L2118.47,1172.38L2118.51,1172.52L2118.54,1172.67L2118.57,1172.82L2118.61,1172.97L2118.63,1173.12L2118.66,1173.27L2118.68,1173.42L2118.7,1173.58L2118.71,1173.73L2118.73,1173.88L2118.74,1174.04L2118.74,1174.19L2118.75,1174.35L2118.75,1174.5L2118.75,1237.5L1931.26,1237.5L1931.26,1174.5L1931.26,1174.35L1931.26,1174.19L1931.27,1174.04L1931.28,1173.88L1931.29,1173.73L1931.31,1173.58L1931.33,1173.42L1931.35,1173.27L1931.37,1173.12L1931.4,1172.97L1931.43,1172.82L1931.46,1172.67L1931.5,1172.52L1931.54,1172.38L1931.58,1172.23L1931.62,1172.08L1931.67,1171.93L1931.72,1171.79L1931.77,1171.64L1931.82,1171.5L1931.88,1171.36L1931.94,1171.21L1932,1171.07L1932.06,1170.93L1932.13,1170.79L1932.2,1170.65L1932.27,1170.51L1932.35,1170.37L1932.42,1170.24L1932.5,1170.1L1932.59,1169.96L1932.67,1169.83L1932.76,1169.69L1932.85,1169.56L1932.94,1169.43L1933.03,1169.3L1933.13,1169.17L1933.22,1169.04L1933.32,1168.91L1933.43,1168.78L1933.53,1168.65L1933.64,1168.53L1933.75,1168.4L1933.86,1168.28L1933.97,1168.15L1934.09,1168.03L1934.21,1167.91L1934.33,1167.79L1934.45,1167.67L1934.58,1167.55L1934.7,1167.44L1934.83,1167.32L1934.96,1167.2L1935.09,1167.09L1935.23,1166.98L1935.37,1166.87L1935.5,1166.76L1935.64,1166.65L1935.79,1166.54L1935.93,1166.43L1936.08,1166.33L1936.23,1166.22L1936.38,1166.12L1936.53,1166.02L1936.68,1165.91L1936.84,1165.81L1936.99,1165.71L1937.15,1165.62L1937.31,1165.52L1937.48,1165.43L1937.64,1165.33L1937.81,1165.24L1937.97,1165.15L1938.14,1165.06L1938.31,1164.97L1938.49,1164.88L1938.66,1164.8L1938.84,1164.71L1939.01,1164.63L1939.19,1164.55L1939.37,1164.47L1939.55,1164.39L1939.74,1164.31L1939.92,1164.24L1940.11,1164.16L1940.3,1164.09L1940.48,1164.02L1940.67,1163.95L1940.87,1163.88L1941.06,1163.81L1941.26,1163.75L1941.45,1163.68L1941.65,1163.62L1941.85,1163.56L1942.05,1163.5L1942.25,1163.44L1942.45,1163.39L1942.65,1163.33L1942.86,1163.28L1943.07,1163.23L1943.27,1163.18L1943.48,1163.13L1943.69,1163.08L1943.9,1163.04L1944.11,1163L1944.33,1162.95L1944.54,1162.92L1944.76,1162.88L1944.97,1162.84L1945.19,1162.81L1945.41,1162.78L1945.63,1162.74L1945.85,1162.71L1946.07,1162.69L1946.29,1162.66L1946.51,1162.64L1946.74,1162.62L1946.96,1162.6L1947.19,1162.58L1947.41,1162.56L1947.64,1162.55L1947.87,1162.54L1948.1,1162.52L1948.33,1162.52L1948.56,1162.51L1948.79,1162.5L1949.02,1162.5L1949.26,1162.5L2100.75,1162.5ZM1949.05,1164.03L1948.85,1164.03L1948.65,1164.04L1948.44,1164.04L1948.24,1164.05L1948.04,1164.06L1947.84,1164.07L1947.65,1164.08L1947.45,1164.1L1947.25,1164.11L1947.06,1164.13L1946.86,1164.15L1946.66,1164.17L1946.47,1164.19L1946.28,1164.21L1946.09,1164.24L1945.89,1164.27L1945.7,1164.3L1945.52,1164.33L1945.33,1164.36L1945.14,1164.39L1944.95,1164.42L1944.77,1164.46L1944.58,1164.5L1944.4,1164.54L1944.22,1164.58L1944.03,1164.62L1943.85,1164.66L1943.67,1164.71L1943.5,1164.75L1943.32,1164.8L1943.14,1164.85L1942.97,1164.9L1942.79,1164.95L1942.62,1165.01L1942.45,1165.06L1942.28,1165.12L1942.11,1165.17L1941.94,1165.23L1941.77,1165.29L1941.6,1165.35L1941.44,1165.41L1941.27,1165.48L1941.11,1165.54L1940.95,1165.61L1940.79,1165.68L1940.63,1165.75L1940.47,1165.82L1940.32,1165.89L1940.16,1165.96L1940.01,1166.03L1939.86,1166.11L1939.71,1166.18L1939.56,1166.26L1939.41,1166.34L1939.26,1166.42L1939.12,1166.5L1938.98,1166.58L1938.83,1166.66L1938.69,1166.75L1938.55,1166.83L1938.42,1166.92L1938.28,1167.01L1938.15,1167.1L1938.02,1167.18L1937.88,1167.28L1937.75,1167.37L1937.63,1167.46L1937.5,1167.55L1937.38,1167.65L1937.25,1167.74L1937.13,1167.84L1937.01,1167.94L1936.9,1168.04L1936.78,1168.13L1936.67,1168.24L1936.55,1168.34L1936.44,1168.44L1936.34,1168.54L1936.23,1168.65L1936.12,1168.75L1936.02,1168.86L1935.92,1168.96L1935.82,1169.07L1935.72,1169.18L1935.63,1169.29L1935.53,1169.4L1935.44,1169.51L1935.35,1169.62L1935.26,1169.73L1935.18,1169.85L1935.09,1169.96L1935.01,1170.08L1934.93,1170.19L1934.86,1170.31L1934.78,1170.42L1934.71,1170.54L1934.63,1170.66L1934.57,1170.78L1934.5,1170.9L1934.43,1171.02L1934.37,1171.14L1934.31,1171.26L1934.25,1171.38L1934.2,1171.51L1934.14,1171.63L1934.09,1171.76L1934.04,1171.88L1933.99,1172.01L1933.95,1172.13L1933.91,1172.26L1933.87,1172.39L1933.83,1172.52L1933.79,1172.64L1933.76,1172.77L1933.73,1172.9L1933.7,1173.03L1933.67,1173.16L1933.65,1173.3L1933.63,1173.43L1933.61,1173.56L1933.59,1173.69L1933.58,1173.83L1933.57,1173.96L1933.56,1174.09L1933.55,1174.23L1933.55,1174.36L1933.55,1174.51L1933.55,1235.97L2116.46,1235.97L2116.46,1174.51L2116.46,1174.36L2116.45,1174.23L2116.45,1174.09L2116.44,1173.96L2116.43,1173.83L2116.41,1173.69L2116.4,1173.56L2116.38,1173.43L2116.36,1173.3L2116.33,1173.16L2116.31,1173.03L2116.28,1172.9L2116.25,1172.77L2116.21,1172.64L2116.18,1172.52L2116.14,1172.39L2116.1,1172.26L2116.06,1172.13L2116.01,1172.01L2115.96,1171.88L2115.91,1171.76L2115.86,1171.63L2115.81,1171.51L2115.75,1171.38L2115.69,1171.26L2115.63,1171.14L2115.57,1171.02L2115.51,1170.9L2115.44,1170.78L2115.37,1170.66L2115.3,1170.54L2115.22,1170.42L2115.15,1170.31L2115.07,1170.19L2114.99,1170.08L2114.91,1169.96L2114.83,1169.85L2114.74,1169.73L2114.65,1169.62L2114.56,1169.51L2114.47,1169.4L2114.38,1169.29L2114.28,1169.18L2114.19,1169.07L2114.09,1168.96L2113.99,1168.86L2113.88,1168.75L2113.78,1168.65L2113.67,1168.54L2113.56,1168.44L2113.45,1168.34L2113.34,1168.24L2113.22,1168.13L2113.11,1168.04L2112.99,1167.94L2112.87,1167.84L2112.75,1167.74L2112.63,1167.65L2112.5,1167.55L2112.38,1167.46L2112.25,1167.37L2112.12,1167.28L2111.99,1167.18L2111.86,1167.1L2111.72,1167.01L2111.59,1166.92L2111.45,1166.83L2111.31,1166.75L2111.17,1166.66L2111.03,1166.58L2110.89,1166.5L2110.74,1166.42L2110.6,1166.34L2110.45,1166.26L2110.3,1166.18L2110.15,1166.11L2109.99,1166.03L2109.84,1165.96L2109.69,1165.89L2109.53,1165.82L2109.37,1165.75L2109.22,1165.68L2109.05,1165.61L2108.89,1165.54L2108.73,1165.48L2108.57,1165.41L2108.4,1165.35L2108.24,1165.29L2108.07,1165.23L2107.9,1165.17L2107.73,1165.12L2107.56,1165.06L2107.39,1165.01L2107.21,1164.95L2107.04,1164.9L2106.86,1164.85L2106.69,1164.8L2106.51,1164.75L2106.33,1164.71L2106.15,1164.66L2105.97,1164.62L2105.79,1164.58L2105.61,1164.54L2105.42,1164.5L2105.24,1164.46L2105.05,1164.42L2104.87,1164.39L2104.68,1164.36L2104.49,1164.33L2104.3,1164.3L2104.11,1164.27L2103.92,1164.24L2103.73,1164.21L2103.53,1164.19L2103.34,1164.17L2103.14,1164.15L2102.95,1164.13L2102.75,1164.11L2102.56,1164.1L2102.36,1164.08L2102.16,1164.07L2101.96,1164.06L2101.76,1164.05L2101.56,1164.04L2101.36,1164.04L2101.16,1164.03L2100.95,1164.03L2100.74,1164.03L1949.26,1164.03L1949.05,1164.03Z" style="fill:rgb(200,59,80);"/>
                </g>
                <g transform="matrix(1.04736,0,0,1.06044,-360.97,-57.4004)">
                    <path d="M2190.71,1150.25C2190.71,1150.25 2190.24,1125.69 2192.29,1122.77C2194.24,1119.99 2199.41,1118.92 2199.41,1118.92C2199.41,1118.92 2194,1106.84 2200.69,1097.03C2207.55,1086.96 2222.49,1087.97 2222.49,1087.97C2222.49,1087.97 2224.84,1075.38 2236.65,1075.1C2249.74,1074.8 2252.65,1088.01 2252.65,1088.01C2252.65,1088.01 2255.23,1088.47 2256.36,1089.07C2257.53,1089.7 2259.25,1091.1 2259.25,1091.1C2259.25,1091.1 2259.95,1079.67 2268.27,1076.41C2280.25,1071.69 2287.17,1081.49 2287.17,1081.49C2287.17,1081.49 2288.42,1079.12 2291.05,1077.36C2293.35,1075.82 2297.45,1076 2297.45,1076C2297.45,1076 2292.96,1059.16 2311.57,1056.26C2324.6,1054.22 2327.99,1069.1 2327.99,1069.1C2327.99,1069.1 2334.26,1067.35 2338.32,1071.92C2341.9,1075.93 2340.34,1081.69 2340.34,1081.69C2340.34,1081.69 2342.78,1082.23 2344.35,1084.08C2345.95,1085.98 2345.75,1088.12 2345.75,1088.12C2345.75,1088.12 2355.49,1086.28 2358.63,1092.84C2362.33,1100.54 2354.82,1104.73 2354.82,1104.73C2354.82,1104.73 2357.99,1107.71 2358.88,1111.42C2359.79,1115.2 2358.95,1118.96 2358.95,1118.96C2358.95,1118.96 2362.6,1120.53 2364.34,1123.33C2366.2,1126.34 2366.63,1150.47 2366.63,1150.47L2190.71,1150.25Z" style="fill:rgb(255,218,125);"/>
                    <ellipse cx="2240.54" cy="1093.82" rx="6.564" ry="6.52" style="fill:rgb(255,173,26);"/>
                    <ellipse cx="2318.73" cy="1084.49" rx="9.435" ry="9.511" style="fill:rgb(255,173,26);"/>
                    <ellipse cx="2340.53" cy="1100.08" rx="6.414" ry="6.226" style="fill:rgb(255,173,26);"/>
                    <path d="M2202.25,1150.15C2202.25,1150.15 2196.49,1133.03 2205.43,1125.14C2213.46,1118.06 2219.28,1121.07 2219.28,1121.07L2221.7,1119.24C2221.7,1119.24 2220.8,1114.83 2222.59,1111.04C2224.7,1106.55 2228.91,1105.68 2231.75,1105.78C2239.2,1106.03 2239.51,1112.96 2239.51,1112.96C2239.51,1112.96 2245.51,1112.76 2247.74,1113.57C2249.72,1114.29 2251.56,1115.9 2252.38,1117.82C2253.19,1119.73 2252.63,1125.06 2252.63,1125.06C2252.63,1125.06 2255.43,1124.39 2258.43,1124.92C2261.06,1125.38 2262.58,1127.01 2262.58,1127.01L2265.25,1125.96C2265.25,1125.96 2265.18,1119.29 2266.37,1117.07C2267.56,1114.87 2272.44,1112.63 2272.44,1112.63C2272.44,1112.63 2270.89,1110.23 2271.2,1108.56C2271.8,1105.28 2272.64,1103.8 2274.63,1102.19C2277.01,1100.27 2278.22,1100.13 2281.29,1099.86C2283.21,1099.68 2285.09,1100.95 2285.09,1100.95C2285.09,1100.95 2287.01,1097.87 2288.26,1096.73C2289.52,1095.58 2291.03,1094.64 2292.63,1094.08C2294.23,1093.51 2296.22,1093.27 2297.86,1093.35C2299.45,1093.42 2301.07,1093.78 2302.47,1094.51C2305.19,1095.94 2306.87,1097.22 2308.59,1100.36C2309.74,1102.46 2309.62,1107.47 2309.62,1107.47C2309.62,1107.47 2313.36,1106.33 2315.28,1106.39C2317.28,1106.46 2319.76,1106.76 2321.63,1107.86C2323.51,1108.97 2325.55,1110.87 2326.55,1113.03C2327.57,1115.23 2328.2,1118.6 2327.74,1121.11C2327.28,1123.62 2323.81,1128.08 2323.81,1128.08C2323.81,1128.08 2332.95,1128.46 2338.35,1135.41C2343.39,1141.91 2342.05,1150.52 2342.05,1150.52L2202.25,1150.15Z" style="fill:rgb(255,173,26);"/>
                    <g transform="matrix(0.954782,0,0,0.943007,339.521,55.2063)">
                        <path d="M1960.7,1157.38C1961.1,1153.5 1960.48,1147.22 1965.59,1142.32C1970.22,1137.88 1975.24,1143.08 1975.24,1143.08C1975.24,1143.08 1977.84,1134.15 1990.31,1135.93C2002.56,1137.68 1999.8,1145.98 2000.96,1150.97C2002.12,1155.94 1997.26,1165.84 1997.26,1165.84L1963.14,1165.57C1963.14,1165.57 1960.4,1160.21 1960.7,1157.38Z" style="fill:rgb(255,218,125);"/>
                    </g>
                    <g transform="matrix(0.954782,0,0,0.943007,344.648,54.129)">
                        <path d="M2025.64,1157.41C2025.64,1157.41 2016.65,1153.38 2022.39,1139.02C2025.84,1130.38 2038.65,1133.64 2038.65,1133.64C2038.65,1133.64 2037.42,1121.96 2047.61,1121.76C2060.58,1121.51 2056.72,1137.37 2056.72,1137.37C2056.72,1137.37 2068.97,1136.94 2069.06,1143.04C2069.24,1155.84 2058.9,1152.09 2054.51,1156.17C2050.51,1159.89 2047.51,1167.32 2042.7,1167.52C2037.89,1167.73 2025.64,1157.41 2025.64,1157.41Z" style="fill:rgb(255,218,125);"/>
                    </g>
                </g>
                <g transform="matrix(1,0,0,1.5,0.00237366,-693.75)">
                    <path d="M2100.75,1162.5L2100.98,1162.5L2101.22,1162.5L2101.45,1162.51L2101.68,1162.52L2101.91,1162.52L2102.14,1162.54L2102.36,1162.55L2102.59,1162.56L2102.82,1162.58L2103.04,1162.6L2103.27,1162.62L2103.49,1162.64L2103.71,1162.66L2103.94,1162.69L2104.16,1162.71L2104.38,1162.74L2104.6,1162.78L2104.82,1162.81L2105.03,1162.84L2105.25,1162.88L2105.46,1162.92L2105.68,1162.95L2105.89,1163L2106.1,1163.04L2106.31,1163.08L2106.52,1163.13L2106.73,1163.18L2106.94,1163.23L2107.14,1163.28L2107.35,1163.33L2107.55,1163.39L2107.76,1163.44L2107.96,1163.5L2108.16,1163.56L2108.36,1163.62L2108.55,1163.68L2108.75,1163.75L2108.95,1163.81L2109.14,1163.88L2109.33,1163.95L2109.52,1164.02L2109.71,1164.09L2109.9,1164.16L2110.08,1164.24L2110.27,1164.31L2110.45,1164.39L2110.63,1164.47L2110.81,1164.55L2110.99,1164.63L2111.17,1164.71L2111.35,1164.8L2111.52,1164.88L2111.69,1164.97L2111.86,1165.06L2112.03,1165.15L2112.2,1165.24L2112.37,1165.33L2112.53,1165.43L2112.69,1165.52L2112.85,1165.62L2113.01,1165.71L2113.17,1165.81L2113.32,1165.91L2113.48,1166.02L2113.63,1166.12L2113.78,1166.22L2113.93,1166.33L2114.07,1166.43L2114.22,1166.54L2114.36,1166.65L2114.5,1166.76L2114.64,1166.87L2114.78,1166.98L2114.91,1167.09L2115.04,1167.2L2115.17,1167.32L2115.3,1167.44L2115.43,1167.55L2115.55,1167.67L2115.68,1167.79L2115.8,1167.91L2115.91,1168.03L2116.03,1168.15L2116.14,1168.28L2116.26,1168.4L2116.37,1168.53L2116.47,1168.65L2116.58,1168.78L2116.68,1168.91L2116.78,1169.04L2116.88,1169.17L2116.97,1169.3L2117.07,1169.43L2117.16,1169.56L2117.25,1169.69L2117.34,1169.83L2117.42,1169.96L2117.5,1170.1L2117.58,1170.24L2117.66,1170.37L2117.73,1170.51L2117.8,1170.65L2117.87,1170.79L2117.94,1170.93L2118.01,1171.07L2118.07,1171.21L2118.13,1171.36L2118.18,1171.5L2118.24,1171.64L2118.29,1171.79L2118.34,1171.93L2118.38,1172.08L2118.43,1172.23L2118.47,1172.38L2118.51,1172.52L2118.54,1172.67L2118.57,1172.82L2118.61,1172.97L2118.63,1173.12L2118.66,1173.27L2118.68,1173.42L2118.7,1173.58L2118.71,1173.73L2118.73,1173.88L2118.74,1174.04L2118.74,1174.19L2118.75,1174.35L2118.75,1174.5L2118.75,1237.5L1931.26,1237.5L1931.26,1174.5L1931.26,1174.35L1931.26,1174.19L1931.27,1174.04L1931.28,1173.88L1931.29,1173.73L1931.31,1173.58L1931.33,1173.42L1931.35,1173.27L1931.37,1173.12L1931.4,1172.97L1931.43,1172.82L1931.46,1172.67L1931.5,1172.52L1931.54,1172.38L1931.58,1172.23L1931.62,1172.08L1931.67,1171.93L1931.72,1171.79L1931.77,1171.64L1931.82,1171.5L1931.88,1171.36L1931.94,1171.21L1932,1171.07L1932.06,1170.93L1932.13,1170.79L1932.2,1170.65L1932.27,1170.51L1932.35,1170.37L1932.42,1170.24L1932.5,1170.1L1932.59,1169.96L1932.67,1169.83L1932.76,1169.69L1932.85,1169.56L1932.94,1169.43L1933.03,1169.3L1933.13,1169.17L1933.22,1169.04L1933.32,1168.91L1933.43,1168.78L1933.53,1168.65L1933.64,1168.53L1933.75,1168.4L1933.86,1168.28L1933.97,1168.15L1934.09,1168.03L1934.21,1167.91L1934.33,1167.79L1934.45,1167.67L1934.58,1167.55L1934.7,1167.44L1934.83,1167.32L1934.96,1167.2L1935.09,1167.09L1935.23,1166.98L1935.37,1166.87L1935.5,1166.76L1935.64,1166.65L1935.79,1166.54L1935.93,1166.43L1936.08,1166.33L1936.23,1166.22L1936.38,1166.12L1936.53,1166.02L1936.68,1165.91L1936.84,1165.81L1936.99,1165.71L1937.15,1165.62L1937.31,1165.52L1937.48,1165.43L1937.64,1165.33L1937.81,1165.24L1937.97,1165.15L1938.14,1165.06L1938.31,1164.97L1938.49,1164.88L1938.66,1164.8L1938.84,1164.71L1939.01,1164.63L1939.19,1164.55L1939.37,1164.47L1939.55,1164.39L1939.74,1164.31L1939.92,1164.24L1940.11,1164.16L1940.3,1164.09L1940.48,1164.02L1940.67,1163.95L1940.87,1163.88L1941.06,1163.81L1941.26,1163.75L1941.45,1163.68L1941.65,1163.62L1941.85,1163.56L1942.05,1163.5L1942.25,1163.44L1942.45,1163.39L1942.65,1163.33L1942.86,1163.28L1943.07,1163.23L1943.27,1163.18L1943.48,1163.13L1943.69,1163.08L1943.9,1163.04L1944.11,1163L1944.33,1162.95L1944.54,1162.92L1944.76,1162.88L1944.97,1162.84L1945.19,1162.81L1945.41,1162.78L1945.63,1162.74L1945.85,1162.71L1946.07,1162.69L1946.29,1162.66L1946.51,1162.64L1946.74,1162.62L1946.96,1162.6L1947.19,1162.58L1947.41,1162.56L1947.64,1162.55L1947.87,1162.54L1948.1,1162.52L1948.33,1162.52L1948.56,1162.51L1948.79,1162.5L1949.02,1162.5L1949.26,1162.5L2100.75,1162.5ZM1949.1,1166.67L1948.95,1166.67L1948.8,1166.67L1948.64,1166.68L1948.49,1166.68L1948.34,1166.69L1948.19,1166.7L1948.05,1166.71L1947.9,1166.72L1947.75,1166.73L1947.6,1166.74L1947.46,1166.76L1947.31,1166.77L1947.17,1166.79L1947.02,1166.81L1946.88,1166.83L1946.74,1166.85L1946.6,1166.87L1946.45,1166.89L1946.31,1166.91L1946.17,1166.94L1946.04,1166.96L1945.9,1166.99L1945.76,1167.02L1945.62,1167.05L1945.49,1167.08L1945.35,1167.11L1945.22,1167.14L1945.08,1167.17L1944.95,1167.21L1944.82,1167.24L1944.68,1167.28L1944.55,1167.32L1944.42,1167.36L1944.29,1167.4L1944.16,1167.44L1944.04,1167.48L1943.91,1167.52L1943.78,1167.57L1943.66,1167.61L1943.53,1167.65L1943.41,1167.7L1943.29,1167.75L1943.17,1167.8L1943.05,1167.85L1942.93,1167.9L1942.81,1167.95L1942.69,1168L1942.57,1168.06L1942.46,1168.11L1942.34,1168.16L1942.23,1168.22L1942.12,1168.28L1942,1168.34L1941.89,1168.39L1941.78,1168.45L1941.67,1168.51L1941.57,1168.58L1941.46,1168.64L1941.36,1168.7L1941.25,1168.77L1941.15,1168.83L1941.05,1168.89L1940.95,1168.96L1940.85,1169.03L1940.75,1169.1L1940.65,1169.16L1940.56,1169.23L1940.46,1169.3L1940.37,1169.38L1940.28,1169.45L1940.19,1169.52L1940.1,1169.59L1940.01,1169.67L1939.92,1169.74L1939.84,1169.82L1939.75,1169.89L1939.67,1169.97L1939.59,1170.05L1939.51,1170.12L1939.43,1170.2L1939.35,1170.28L1939.28,1170.36L1939.2,1170.44L1939.13,1170.52L1939.06,1170.6L1938.99,1170.69L1938.92,1170.77L1938.85,1170.85L1938.79,1170.94L1938.72,1171.02L1938.66,1171.11L1938.6,1171.19L1938.54,1171.28L1938.48,1171.37L1938.43,1171.45L1938.37,1171.54L1938.32,1171.63L1938.27,1171.72L1938.22,1171.81L1938.17,1171.9L1938.12,1171.99L1938.08,1172.08L1938.03,1172.17L1937.99,1172.26L1937.95,1172.35L1937.91,1172.45L1937.87,1172.54L1937.84,1172.63L1937.81,1172.73L1937.77,1172.82L1937.74,1172.92L1937.72,1173.01L1937.69,1173.11L1937.66,1173.2L1937.64,1173.3L1937.62,1173.4L1937.6,1173.5L1937.58,1173.6L1937.57,1173.69L1937.55,1173.79L1937.54,1173.89L1937.53,1173.99L1937.52,1174.09L1937.51,1174.19L1937.51,1174.3L1937.51,1174.4L1937.51,1174.51L1937.51,1233.33L2112.5,1233.33L2112.5,1174.51L2112.5,1174.4L2112.5,1174.3L2112.49,1174.19L2112.48,1174.09L2112.48,1173.99L2112.47,1173.89L2112.45,1173.79L2112.44,1173.69L2112.42,1173.6L2112.41,1173.5L2112.39,1173.4L2112.36,1173.3L2112.34,1173.2L2112.32,1173.11L2112.29,1173.01L2112.26,1172.92L2112.23,1172.82L2112.2,1172.73L2112.17,1172.63L2112.13,1172.54L2112.09,1172.45L2112.05,1172.35L2112.01,1172.26L2111.97,1172.17L2111.93,1172.08L2111.88,1171.99L2111.84,1171.9L2111.79,1171.81L2111.74,1171.72L2111.69,1171.63L2111.63,1171.54L2111.58,1171.45L2111.52,1171.37L2111.47,1171.28L2111.41,1171.19L2111.34,1171.11L2111.28,1171.02L2111.22,1170.94L2111.15,1170.85L2111.09,1170.77L2111.02,1170.69L2110.95,1170.6L2110.88,1170.52L2110.8,1170.44L2110.73,1170.36L2110.65,1170.28L2110.57,1170.2L2110.5,1170.12L2110.42,1170.05L2110.34,1169.97L2110.25,1169.89L2110.17,1169.82L2110.08,1169.74L2110,1169.67L2109.91,1169.59L2109.82,1169.52L2109.73,1169.45L2109.64,1169.38L2109.54,1169.3L2109.45,1169.23L2109.35,1169.16L2109.26,1169.1L2109.16,1169.03L2109.06,1168.96L2108.96,1168.89L2108.86,1168.83L2108.75,1168.77L2108.65,1168.7L2108.54,1168.64L2108.44,1168.58L2108.33,1168.51L2108.22,1168.45L2108.11,1168.39L2108,1168.34L2107.89,1168.28L2107.78,1168.22L2107.66,1168.16L2107.55,1168.11L2107.43,1168.06L2107.32,1168L2107.2,1167.95L2107.08,1167.9L2106.96,1167.85L2106.84,1167.8L2106.72,1167.75L2106.59,1167.7L2106.47,1167.65L2106.35,1167.61L2106.22,1167.57L2106.1,1167.52L2105.97,1167.48L2105.84,1167.44L2105.71,1167.4L2105.58,1167.36L2105.45,1167.32L2105.32,1167.28L2105.19,1167.24L2105.06,1167.21L2104.92,1167.17L2104.79,1167.14L2104.66,1167.11L2104.52,1167.08L2104.38,1167.05L2104.25,1167.02L2104.11,1166.99L2103.97,1166.96L2103.83,1166.94L2103.69,1166.91L2103.55,1166.89L2103.41,1166.87L2103.27,1166.85L2103.12,1166.83L2102.98,1166.81L2102.84,1166.79L2102.69,1166.77L2102.55,1166.76L2102.4,1166.74L2102.25,1166.73L2102.11,1166.72L2101.96,1166.71L2101.81,1166.7L2101.66,1166.69L2101.51,1166.68L2101.36,1166.68L2101.21,1166.67L2101.06,1166.67L2100.9,1166.67L2100.73,1166.67L1949.28,1166.67L1949.1,1166.67Z" style="fill:rgb(200,59,80);"/>
                </g>
                <g transform="matrix(1,0,0,0.75,0.00237366,290.625)">
                    <path d="M2118.75,1162.5L1931.26,1162.5L1931.26,1225.5C1931.26,1228.68 1932.2,1231.74 1933.89,1233.99C1935.58,1236.24 1937.87,1237.5 1940.26,1237.5C1971.93,1237.5 2078.07,1237.5 2109.75,1237.5C2112.14,1237.5 2114.43,1236.24 2116.11,1233.99C2117.8,1231.74 2118.75,1228.68 2118.75,1225.5C2118.75,1204.32 2118.75,1162.5 2118.75,1162.5Z" style="fill:rgb(200,59,80);"/>
                </g>
                <g transform="matrix(1,0,0,1,0.00474731,1.36424e-11)">
                    <circle cx="1950" cy="1162.5" r="18.75" style="fill:rgb(200,59,80);"/>
                </g>
                <g transform="matrix(1,0,0,1,0.00474731,1.36424e-11)">
                    <circle cx="1987.5" cy="1162.5" r="18.75" style="fill:white;"/>
                </g>
                <g transform="matrix(1,0,0,1,0.00474731,1.36424e-11)">
                    <circle cx="2025" cy="1162.5" r="18.75" style="fill:rgb(200,59,80);"/>
                </g>
                <g transform="matrix(1,0,0,1,37.5047,1.36424e-11)">
                    <circle cx="2025" cy="1162.5" r="18.75" style="fill:white;"/>
                </g>
                <g transform="matrix(1,0,0,1,75,1.36424e-11)">
                    <circle cx="2025" cy="1162.5" r="18.75" style="fill:rgb(200,59,80);"/>
                </g>
                <g transform="matrix(1,0,0,0.75,0,290.625)">
                    <rect x="1968.76" y="1162.5" width="37.5" height="75" style="fill:white;"/>
                </g>
                <g transform="matrix(1,0,0,0.75,0,290.625)">
                    <rect x="2043.76" y="1162.5" width="37.5" height="75" style="fill:white;"/>
                </g>
            </g>
        </g>
    </g>
</svg>
