<svg width="200" height="200" viewBox="0 0 200 200" fill="none" xmlns="http://www.w3.org/2000/svg">
<path fill-rule="evenodd" clip-rule="evenodd" d="M111.558 0.0145151C107.646 0.210413 103.858 1.33996 100.624 3.26768C98.6532 4.44098 98.2711 4.70982 97.0791 5.73933C95.8808 6.78134 94.0906 8.74449 93.4427 9.73857L93.2392 10.0428L93.0169 9.86153C92.8923 9.75942 92.4957 9.44889 92.1281 9.1738C87.1335 5.3392 80.3716 4.44098 74.5318 6.83344C71.7241 7.97757 69.1759 9.8907 67.3297 12.2311C66.8894 12.7896 66.8894 12.7896 66.0504 13.1293C59.7786 15.701 54.2586 20.2441 50.4748 25.9627C47.2205 30.8685 45.3369 36.3453 44.8322 42.3598C44.6723 44.2 44.745 47.3031 44.9839 49.2808C45.9433 57.3377 49.8123 64.911 55.7663 70.3962C58.3726 72.8011 60.8191 74.4892 63.9217 76.0189C67.8198 77.9382 71.5953 79.0032 76.0042 79.4242C77.0156 79.5179 77.1444 79.5471 77.2607 79.693C78.4444 81.1643 80.4422 83.2213 81.7485 84.3154C82.7744 85.1782 84.3631 86.3369 85.3288 86.9246L86.2177 87.4685L92.07 93.3079C98.0967 99.3287 98.35 99.5537 99.3593 100.004C99.5919 100.106 100.053 100.279 100.4 100.381C100.963 100.554 101.129 100.577 102.175 100.569C103.129 100.569 103.432 100.548 103.887 100.417C104.543 100.235 105.365 99.8663 105.943 99.4891C106.202 99.3162 108.368 97.2134 111.774 93.8143L117.188 88.4105L118.306 87.7936C121.524 86.018 124.449 83.6131 127.111 80.5475C128.216 79.2804 129.782 77.063 130.511 75.7292C130.799 75.1998 130.814 75.1853 131.499 74.8164C134.589 73.1575 137.015 71.3382 139.534 68.8165C146.605 61.6995 150.078 51.8963 149.083 41.8242C148.31 33.9841 144.809 26.6796 139.193 21.2007C138.176 20.2087 136.957 19.1438 136.053 18.4623L135.657 18.158L135.42 17.3098C134.539 14.1359 132.82 10.8973 130.685 8.39021C126.758 3.7741 121.425 0.889806 115.456 0.158313C114.561 0.049944 112.445 -0.0292494 111.558 0.0145151Z" fill="#FFE69D"/>
<path d="M111.558 0.0145151C107.646 0.210413 103.858 1.33996 100.624 3.26768C98.6532 4.44098 98.2711 4.70982 97.0791 5.73933C95.8808 6.78134 94.0906 8.74449 93.4427 9.73857L93.2392 10.0428L93.0169 9.86153C92.8923 9.75942 92.4957 9.44889 92.1281 9.1738C87.1335 5.3392 80.3716 4.44098 74.5318 6.83344C71.7241 7.97757 69.1759 9.8907 67.3297 12.2311C66.8894 12.7896 66.8894 12.7896 66.0504 13.1293C59.7786 15.701 54.2586 20.2441 50.4748 25.9627C47.2205 30.8685 45.3369 36.3453 44.8322 42.3598C44.6723 44.2 44.745 47.3031 44.9839 49.2808C45.9433 57.3377 49.8123 64.911 55.7663 70.3962C58.3726 72.8011 60.8191 74.4892 63.9217 76.0189C67.8198 77.9382 71.5953 79.0032 76.0042 79.4242C77.0156 79.5179 77.1444 79.5471 77.2607 79.693C78.4444 81.1643 80.4422 83.2213 81.7485 84.3154C82.7744 85.1782 84.3631 86.3369 85.3288 86.9246L86.2177 87.4685L92.07 93.3079C98.0967 99.3287 98.35 99.5537 99.3593 100.004C99.5919 100.106 100.053 100.279 100.4 100.381C100.963 100.554 101.129 100.577 102.175 100.569C103.129 100.569 103.432 100.548 103.887 100.417C104.543 100.235 105.365 99.8663 105.943 99.4891C106.202 99.3162 108.368 97.2134 111.774 93.8143L117.188 88.4105L118.306 87.7936C121.524 86.018 124.449 83.6131 127.111 80.5475C128.216 79.2804 129.782 77.063 130.511 75.7292C130.799 75.1998 130.814 75.1853 131.499 74.8164C134.589 73.1575 137.015 71.3382 139.534 68.8165C146.605 61.6995 150.078 51.8963 149.083 41.8242C148.31 33.9841 144.809 26.6796 139.193 21.2007C138.176 20.2087 136.957 19.1438 136.053 18.4623L135.657 18.158L135.42 17.3098C134.539 14.1359 132.82 10.8973 130.685 8.39021C126.758 3.7741 121.425 0.889806 115.456 0.158313C114.561 0.049944 112.445 -0.0292494 111.558 0.0145151ZM115.168 5.36212C118.32 5.83311 121.171 7.00016 123.618 8.84036C127.277 11.5788 129.667 15.2967 130.729 19.8982C130.994 21.0632 131.196 21.3466 132.452 22.274C135.636 24.6435 138.255 27.5341 140.167 30.7955C140.645 31.6062 141.511 33.3464 141.893 34.2446C143.056 37.0122 143.756 39.9694 144.007 43.1934C144.101 44.3813 144.059 47.0989 143.928 48.193C143.17 54.6868 140.508 60.3387 136.062 64.9256C135.167 65.8447 133.622 67.2576 133.572 67.1993C133.557 67.1847 133.586 66.8742 133.63 66.5053C133.752 65.4112 133.528 64.6714 132.878 64.0628C132.461 63.671 132.091 63.4835 131.551 63.3813C130.432 63.1709 129.283 63.7877 128.808 64.8443C128.714 65.0631 128.592 65.5696 128.519 66.0406C128.201 68.3017 126.577 72.3739 125.142 74.533C123.092 77.6131 120.565 80.1494 117.512 82.1918C114.034 84.5175 110.339 85.9034 105.928 86.5328C104.832 86.6849 101.561 86.7495 100.327 86.6411C94.1862 86.0847 88.7139 83.6777 84.2115 79.5409C81.3602 76.9317 79.0654 73.3367 78.1184 70.0252C77.8525 69.0916 77.7715 68.6998 77.6345 67.6494C77.5057 66.6345 77.2607 66.0697 76.7539 65.6196C76.2929 65.2153 75.8526 65.034 75.2462 64.9902C73.9753 64.8964 72.8933 65.6779 72.5755 66.9179C72.4821 67.3097 72.4758 67.4827 72.5464 68.1788C72.7126 69.8022 73.1529 71.5987 73.7738 73.1846C73.9337 73.5847 74.0479 73.9182 74.0417 73.9244C74.0334 73.9328 73.7302 73.8807 73.3771 73.8077C64.3329 71.9467 56.813 66.0843 52.8153 57.7941C51.7831 55.6496 51.1248 53.7657 50.6201 51.5274C49.046 44.548 50.1072 37.0997 53.5567 30.8747C54.2731 29.5847 55.4133 27.8821 56.3499 26.7088C57.3467 25.4542 59.5273 23.266 60.7817 22.2677C61.7702 21.4695 63.0059 20.5859 63.0557 20.6359C63.0702 20.6505 63.0349 21.1153 62.9685 21.6717C62.8688 22.5199 62.8688 22.8617 62.9332 23.737C62.9768 24.3184 63.064 24.9561 63.1284 25.1499C63.3942 25.9627 64.0962 26.6004 64.9622 26.8255C66.0878 27.1068 67.3297 26.5212 67.8551 25.4396C68.0295 25.0937 68.0358 25.0207 68.0358 23.5557C68.0441 22.3615 68.0731 21.9051 68.1728 21.4195C68.5342 19.7231 69.3711 18.0497 70.6774 16.42C70.9162 16.1219 71.2838 15.6447 71.4935 15.3675C71.7033 15.0862 72.1872 14.5652 72.561 14.2088C75.9253 11.014 80.6167 9.91988 85.063 11.2808C87.0982 11.9039 89.1542 13.1939 90.4979 14.6798L90.7928 15.007L90.6204 15.5863C90.2009 16.9847 89.9475 18.7311 89.9413 20.2587C89.9413 23.2305 90.664 26.0648 92.207 29.1658C92.9297 30.608 93.6441 31.1498 94.8133 31.1582C95.2889 31.1582 95.4634 31.129 95.8102 30.9685C96.5807 30.608 97.0064 30.1287 97.239 29.3617C97.4986 28.5198 97.4321 28.1718 96.7032 26.6504C95.4405 24.0204 95.0085 22.1864 95.0875 19.8982C95.1809 17.5349 95.8517 15.5488 97.2951 13.3981C99.1226 10.6868 101.575 8.53609 104.485 7.10853C105.083 6.81885 105.893 6.45623 106.289 6.31035C107.581 5.82477 109.429 5.41214 110.908 5.26001C111.797 5.17248 114.287 5.23083 115.168 5.36212Z" fill="#C83B50"/>
<path fill-rule="evenodd" clip-rule="evenodd" d="M115.072 49.8954C114.279 50.1058 113.722 50.4393 113.103 51.0562C112.194 51.9544 111.803 52.9109 111.803 54.2072C111.797 55.7515 112.526 57.0853 113.832 57.9314C114.48 58.3523 115.043 58.5274 115.903 58.5691C116.841 58.6212 117.375 58.5191 118.148 58.1502C118.856 57.8084 119.655 57.0623 120.017 56.4184C120.999 54.6636 120.71 52.4608 119.331 51.0708C118.494 50.2371 117.556 49.8308 116.357 49.7807C115.759 49.7578 115.491 49.7807 115.072 49.8954Z" fill="#C83B50"/>
<path fill-rule="evenodd" clip-rule="evenodd" d="M82.9551 50.0707C81.7568 50.3666 80.6021 51.3086 80.0684 52.4319C79.7216 53.1634 79.6198 53.6135 79.6198 54.4117C79.6198 55.5913 80.0455 56.627 80.8762 57.469C81.4826 58.0838 82.1244 58.461 82.9031 58.6652C84.442 59.0632 86.0141 58.6277 87.1335 57.5127C88.2445 56.3957 88.6703 54.8098 88.2819 53.2738C88.0784 52.4694 87.7461 51.9025 87.1272 51.2669C86.6932 50.823 86.4627 50.65 85.9726 50.4187C85.632 50.2582 85.1855 50.0915 84.9757 50.0478C84.4711 49.9477 83.4389 49.954 82.9551 50.0707Z" fill="#C83B50"/>
<path fill-rule="evenodd" clip-rule="evenodd" d="M88.8593 64.1538C88.8593 64.3789 89.2061 65.7335 89.4428 66.4525C90.8799 70.6977 94.1487 73.8946 98.0821 74.8866C99.758 75.3075 101.627 75.3075 103.33 74.8866C107.033 73.9592 110.214 71.0103 111.716 67.1048C112.1 66.1191 112.526 64.5894 112.532 64.183C112.532 64.1184 110.115 64.0976 100.695 64.0976C94.1861 64.0976 88.8593 64.1267 88.8593 64.1538Z" fill="#C83B50"/>
<path fill-rule="evenodd" clip-rule="evenodd" d="M80.7537 110.806C76.891 111.306 73.4934 113.444 71.371 116.704C70.9806 117.306 70.2745 118.683 70.1083 119.161C70.0502 119.327 69.9982 119.377 69.9339 119.336C69.884 119.307 69.6161 119.125 69.3358 118.944C68.2662 118.233 67.0472 117.727 65.6828 117.414C65.0265 117.27 64.7524 117.248 63.4897 117.256C62.306 117.256 61.9218 117.285 61.359 117.414C57.0373 118.371 53.8453 121.691 53.052 126.053C52.8942 126.928 52.9295 129.11 53.1164 129.964C53.2036 130.341 54.0052 132.901 54.9003 135.645C55.7871 138.392 56.5098 140.659 56.4869 140.689C56.4745 140.718 56.0612 140.812 55.5711 140.899C52.4601 141.479 50.996 142.327 50.1653 144.059C49.5527 145.342 49.4945 146.197 49.9057 148.268C50.049 148.994 50.3813 150.769 50.6409 152.217C51.8911 159.168 52.8422 164.246 53.1039 165.291C53.378 166.42 53.8827 167.37 54.6179 168.146L55.218 168.783L55.11 169.138C54.9356 169.688 54.9003 170.782 55.0291 171.341C55.297 172.464 58.4225 182.196 58.6758 182.682C59.1867 183.651 60.2188 184.47 61.3091 184.753C62.1108 184.97 62.767 184.926 66.0358 184.464C67.6889 184.224 69.3856 183.984 69.8051 183.934L70.5631 183.84L72.1643 188.767C73.0531 191.478 73.9898 194.398 74.2494 195.253C74.511 196.107 74.8059 197.057 74.9077 197.353C75.348 198.629 75.9024 199.427 76.6252 199.804L76.9865 200H102.464C127.4 200 127.95 200 128.303 199.86C128.498 199.781 128.816 199.571 129.003 199.398C129.609 198.833 129.962 198.058 130.569 196.013C130.93 194.796 134.502 183.747 134.554 183.695C134.595 183.659 137.569 184.107 140.01 184.522C142.377 184.92 143.127 184.97 143.885 184.774C145.293 184.414 146.526 183.217 146.917 181.848C147.046 181.392 148.605 171.349 148.663 170.58C148.684 170.296 148.678 169.892 148.643 169.673L148.584 169.275L148.908 169.015C150.165 168.014 151.11 166.572 151.506 165.057C151.947 163.348 151.529 161.312 150.489 160.124L150.265 159.87L150.468 159.718C151.27 159.13 152.337 158.001 153.002 157.05C154.667 154.66 155.189 151.313 154.358 148.406C154.113 147.537 153.346 146.015 152.769 145.232C151.781 143.9 150.404 142.654 149.016 141.841C148.599 141.595 148.273 141.378 148.287 141.349C148.375 141.203 151.76 130.698 151.868 130.219C152.605 127.103 151.818 123.704 149.768 121.161C148.229 119.248 146.144 117.973 143.619 117.423C142.579 117.189 140.479 117.189 139.432 117.414C138.082 117.712 136.674 118.298 135.671 118.973L135.173 119.307L134.61 118.169C133.788 116.516 132.863 115.291 131.551 114.111C127.661 110.618 121.894 109.799 117.151 112.075C115.678 112.777 114.553 113.582 113.377 114.77C112.748 115.407 111.701 116.756 111.5 117.189C111.456 117.285 111.407 117.356 111.377 117.356C111.348 117.356 111.147 117.118 110.931 116.829C109.803 115.328 108.109 114.053 106.362 113.378C102.42 111.865 98.0468 112.769 95.0812 115.705C94.7406 116.039 94.3149 116.51 94.1197 116.762L93.7729 117.218L93.6649 117.016C93.4427 116.589 92.6701 115.574 92.0637 114.916C89.2186 111.821 84.9405 110.27 80.7537 110.806Z" fill="white"/>
<path d="M80.7537 110.806C76.891 111.306 73.4934 113.444 71.371 116.704C70.9806 117.306 70.2745 118.683 70.1083 119.161C70.0502 119.327 69.9982 119.377 69.9339 119.336C69.884 119.307 69.6161 119.125 69.3358 118.944C68.2662 118.233 67.0472 117.727 65.6828 117.414C65.0265 117.27 64.7524 117.248 63.4897 117.256C62.306 117.256 61.9218 117.285 61.359 117.414C57.0373 118.371 53.8453 121.691 53.052 126.053C52.8942 126.928 52.9295 129.11 53.1164 129.964C53.2036 130.341 54.0052 132.901 54.9003 135.645C55.7871 138.392 56.5098 140.659 56.4869 140.689C56.4745 140.718 56.0612 140.812 55.5711 140.899C52.4601 141.479 50.996 142.327 50.1653 144.059C49.5527 145.342 49.4945 146.197 49.9057 148.268C50.049 148.994 50.3813 150.769 50.6409 152.217C51.8911 159.168 52.8422 164.246 53.1039 165.291C53.378 166.42 53.8827 167.37 54.6179 168.146L55.218 168.783L55.11 169.138C54.9356 169.688 54.9003 170.782 55.0291 171.341C55.297 172.464 58.4225 182.196 58.6758 182.682C59.1867 183.651 60.2188 184.47 61.3091 184.753C62.1108 184.97 62.767 184.926 66.0358 184.464C67.6889 184.224 69.3856 183.984 69.8051 183.934L70.5631 183.84L72.1643 188.767C73.0531 191.478 73.9898 194.398 74.2494 195.253C74.511 196.107 74.8059 197.057 74.9077 197.353C75.348 198.629 75.9024 199.427 76.6252 199.804L76.9865 200H102.464C127.4 200 127.95 200 128.303 199.86C128.498 199.781 128.816 199.571 129.003 199.398C129.609 198.833 129.962 198.058 130.569 196.013C130.93 194.796 134.502 183.747 134.554 183.695C134.595 183.659 137.569 184.107 140.01 184.522C142.377 184.92 143.127 184.97 143.885 184.774C145.293 184.414 146.526 183.217 146.917 181.848C147.046 181.392 148.605 171.349 148.663 170.58C148.684 170.296 148.678 169.892 148.643 169.673L148.584 169.275L148.908 169.015C150.165 168.014 151.11 166.572 151.506 165.057C151.947 163.348 151.529 161.312 150.489 160.124L150.265 159.87L150.468 159.718C151.27 159.13 152.337 158.001 153.002 157.05C154.667 154.66 155.189 151.313 154.358 148.406C154.113 147.537 153.346 146.015 152.769 145.232C151.781 143.9 150.404 142.654 149.016 141.841C148.599 141.595 148.273 141.378 148.287 141.349C148.375 141.203 151.76 130.698 151.868 130.219C152.605 127.103 151.818 123.704 149.768 121.161C148.229 119.248 146.144 117.973 143.619 117.423C142.579 117.189 140.479 117.189 139.432 117.414C138.082 117.712 136.674 118.298 135.671 118.973L135.173 119.307L134.61 118.169C133.788 116.516 132.863 115.291 131.551 114.111C127.661 110.618 121.894 109.799 117.151 112.075C115.678 112.777 114.553 113.582 113.377 114.77C112.748 115.407 111.701 116.756 111.5 117.189C111.456 117.285 111.407 117.356 111.377 117.356C111.348 117.356 111.147 117.118 110.931 116.829C109.803 115.328 108.109 114.053 106.362 113.378C102.42 111.865 98.0468 112.769 95.0812 115.705C94.7406 116.039 94.3149 116.51 94.1197 116.762L93.7729 117.218L93.6649 117.016C93.4427 116.589 92.6701 115.574 92.0637 114.916C89.2186 111.821 84.9405 110.27 80.7537 110.806ZM83.7484 116.016C86.8801 116.56 89.4948 119.002 90.1946 122.024C90.2881 122.428 91.8892 135.624 91.8892 135.993C91.8892 136.095 91.8332 136.125 91.6151 136.125C91.1188 136.125 89.6588 136.341 89.1625 136.494C88.4398 136.719 87.8043 137.102 87.2124 137.675C86.606 138.263 86.2322 138.834 85.9726 139.58L85.7836 140.109L85.2852 139.74C83.9581 138.769 82.2988 138.044 80.6374 137.711C80.0746 137.602 79.5409 137.552 78.6458 137.538L77.4185 137.523L75.9544 131.406L74.4819 125.292L74.4736 123.987C74.4591 122.82 74.4819 122.61 74.6336 122.03C75.377 119.198 77.4558 117.031 80.1972 116.226C80.5377 116.124 80.9926 116.016 81.2085 115.987C81.8648 115.887 83.0984 115.899 83.7484 116.016ZM124.606 116.197C127.495 116.85 129.804 119.132 130.583 122.103C130.735 122.674 130.756 122.914 130.756 124.023L130.749 125.292L129.35 131.161C128.583 134.385 127.942 137.044 127.927 137.058C127.913 137.081 127.314 137.037 126.585 136.973C124.326 136.762 123.3 136.827 122.226 137.263C121.416 137.588 120.55 138.24 120.052 138.898L119.9 139.109L119.556 138.819C118.183 137.667 116.378 136.812 114.302 136.335C113.789 136.212 113.355 136.102 113.34 136.095C113.319 136.066 114.798 123.493 114.914 122.704C115.404 119.4 118.168 116.639 121.533 116.089C122.363 115.951 123.755 116.001 124.606 116.197ZM110.476 139.966C111.94 140.036 112.59 140.124 113.651 140.399C115.051 140.747 116.09 141.276 117.151 142.168C119.346 144.009 119.894 147.385 118.494 150.371C117.614 152.247 116.177 153.689 114.191 154.704C112.929 155.341 111.811 155.696 110.208 155.942C109.876 155.994 109.89 155.935 109.797 157.986C109.71 159.899 109.602 160.189 108.908 160.552C108.549 160.739 106.981 160.754 106.412 160.581C105.992 160.449 105.581 160.131 105.409 159.791C105.156 159.297 105.22 157.899 106.001 147.355C106.138 145.501 106.304 143.219 106.362 142.283C106.426 141.349 106.514 140.487 106.555 140.378C106.657 140.109 106.917 139.943 107.328 139.878C107.654 139.828 108.042 139.84 110.476 139.966ZM96.834 140.326C98.6968 140.624 100.184 141.335 101.309 142.464C102.053 143.21 102.566 144.138 102.904 145.369C103.056 145.936 103.12 147.616 103.012 148.268C102.811 149.444 102.342 150.638 101.685 151.653C100.342 153.724 97.997 155.312 95.2183 156.015C94.8486 156.108 94.5309 156.196 94.5163 156.21C94.5018 156.225 94.5246 157.015 94.5683 157.963C94.6472 159.972 94.6181 160.139 94.1716 160.587C93.7729 160.993 93.4489 161.073 92.2506 161.081C91.3784 161.087 91.2475 161.073 90.9734 160.929C90.5767 160.71 90.2735 160.326 90.1718 159.914C90.0493 159.384 90.0202 158.355 89.9413 152.536C89.906 149.587 89.854 145.77 89.825 144.052L89.7834 140.928L89.9766 140.703C90.0929 140.566 90.2881 140.443 90.4688 140.393C90.8218 140.291 94.2713 140.132 95.2827 140.168C95.6585 140.182 96.3584 140.255 96.834 140.326ZM126.174 141.051C128.72 141.291 133.939 141.899 134.525 142.031C134.957 142.125 135.167 142.958 135.044 144.059C134.878 145.544 134.33 146.609 133.767 146.522C133.659 146.507 133.283 146.451 132.922 146.407C132.569 146.363 131.767 146.232 131.154 146.118C128.498 145.624 127.04 145.369 127.003 145.407C126.988 145.428 126.822 146.384 126.635 147.531C126.405 148.985 126.326 149.637 126.382 149.667C126.426 149.696 127.559 149.856 128.895 150.029C130.236 150.204 131.42 150.386 131.528 150.442C131.825 150.594 131.968 150.942 132.006 151.58C132.056 152.463 131.802 153.516 131.377 154.131C131.196 154.399 131.154 154.42 130.814 154.443C130.452 154.464 128.209 154.11 126.585 153.776C125.985 153.66 125.719 153.63 125.705 153.689C125.624 153.935 125.236 157.196 125.236 157.588C125.236 157.784 125.242 157.79 125.653 157.79C127.017 157.79 131.831 158.378 132.49 158.624C132.648 158.682 132.82 158.805 132.878 158.893C133.015 159.116 132.994 159.674 132.814 160.581C132.56 161.848 132.222 162.652 131.831 162.906C131.601 163.059 131.248 163.021 129.674 162.681C128.058 162.333 126.44 162.102 124.687 161.956C123.892 161.892 122.982 161.812 122.658 161.775C121.576 161.652 120.876 161.152 120.638 160.326C120.436 159.616 120.53 158.574 121.367 152.486C121.626 150.632 121.958 148.362 122.096 147.449C122.449 145.203 123.128 141.727 123.259 141.479C123.408 141.174 123.915 140.949 124.478 140.914C124.565 140.914 125.321 140.972 126.174 141.051ZM80.0019 141.777C83.4743 142.543 86.3319 145.799 87.1626 149.935C87.7254 152.697 87.4658 155.283 86.4046 157.544C84.9321 160.689 82.4068 162.435 79.3312 162.427C77.188 162.421 75.3334 161.558 73.6159 159.753C72.0418 158.109 71.0968 156.175 70.6192 153.624C70.4676 152.791 70.4178 150.857 70.5195 149.994C71.0159 145.943 73.564 142.639 76.7913 141.849C77.0945 141.777 77.4122 141.697 77.4912 141.683C77.9169 141.587 79.4038 141.645 80.0019 141.777ZM142.558 143.833C144.715 144.377 145.191 144.544 146.31 145.117C147.797 145.878 148.83 146.782 149.646 148.037C150.582 149.5 150.85 151.146 150.424 152.82C149.963 154.631 148.555 156.254 146.585 157.255C145.891 157.603 144.232 158.182 143.698 158.261C143.503 158.29 143.351 158.326 143.351 158.334C143.351 158.37 143.812 159.174 144.016 159.493C144.585 160.399 145.876 161.754 146.742 162.356C146.996 162.535 147.284 162.798 147.378 162.936C147.529 163.159 147.544 163.246 147.515 163.673C147.436 164.899 146.232 166.195 145.177 166.195C144.57 166.195 143.625 165.624 142.637 164.653C141.771 163.805 141.013 162.681 139.981 160.704C139.721 160.21 139.497 159.82 139.482 159.835C139.476 159.849 139.287 160.581 139.071 161.464C138.639 163.275 138.529 163.492 137.981 163.769C137.549 163.986 137.295 163.992 136.408 163.811C135.578 163.644 135.079 163.398 134.733 163C134.141 162.304 134.207 161.921 136.053 155.225C136.61 153.232 137.196 151.073 137.36 150.436C138.01 147.92 139.036 144.117 139.135 143.819C139.202 143.652 139.316 143.465 139.403 143.4C139.677 143.204 140.529 143.319 142.558 143.833ZM62.306 144.494C63.1429 144.638 63.7202 144.834 64.5925 145.269C66.1812 146.059 67.2715 147.493 67.7969 149.485C68.015 150.29 68.0295 152.109 67.826 152.972C67.5228 154.297 67.041 155.385 66.2829 156.442C65.7264 157.211 64.4346 158.449 63.5541 159.036C62.8895 159.487 61.6767 160.131 61.1513 160.312C60.9623 160.376 60.927 160.42 60.9623 160.558C61.1721 161.508 61.6476 163.898 61.6476 164.036C61.6476 164.24 61.3964 164.797 61.2302 164.986C60.9125 165.341 59.735 165.703 58.869 165.718C58.4079 165.724 58.2356 165.695 58.003 165.566C57.4111 165.253 57.2242 164.87 56.9272 163.436C56.7195 162.398 55.4423 155.508 54.7923 151.884C54.5472 150.529 54.2212 148.754 54.0634 147.935C53.9118 147.124 53.7809 146.349 53.7809 146.218C53.7809 145.87 54.0696 145.58 54.5971 145.407C55.1163 145.232 57.924 144.632 58.869 144.494C59.7869 144.363 61.5687 144.363 62.306 144.494ZM104.578 165.399H106.397V169.079C106.397 173.204 106.377 173.022 106.931 173.47C107.141 173.637 107.284 173.695 107.61 173.716C108.15 173.754 108.555 173.564 108.829 173.137L109.031 172.833L109.054 169.188L109.074 165.543H109.596C110.258 165.543 112.864 165.674 113.456 165.732L113.903 165.776V175.079L114.083 175.442C114.302 175.869 114.655 176.13 115.087 176.173C115.664 176.238 116.177 175.971 116.43 175.463C116.567 175.196 116.573 175.021 116.573 170.58V165.978H116.885C117.165 165.978 117.988 166.058 120.197 166.276L121.043 166.362L121.063 169.602L121.084 172.833L121.288 173.137C121.85 174 123.163 173.906 123.583 172.979C123.705 172.703 123.72 172.455 123.72 169.659V166.645L123.994 166.681C124.139 166.704 125.055 166.818 126.029 166.941L127.798 167.175L127.869 175.144L128.064 175.471C128.583 176.363 129.863 176.363 130.359 175.471L130.54 175.144L130.577 171.37L130.612 167.602L132.504 167.906C133.534 168.073 134.51 168.239 134.668 168.275L134.942 168.342L134.98 170.653C135.015 172.885 135.021 172.979 135.173 173.224C135.628 173.956 136.805 174.023 137.324 173.341C137.598 172.979 137.642 172.58 137.648 170.659V168.854L137.981 168.906C138.502 168.971 144.267 170.232 144.348 170.296C144.369 170.311 142.882 180.131 142.809 180.441C142.774 180.594 142.759 180.587 140.703 180.239C131.044 178.607 121.005 177.638 110.692 177.347C107.083 177.247 97.5484 177.305 94.2007 177.457C84.1596 177.905 74.3303 178.841 64.607 180.283C63.4378 180.456 62.4721 180.587 62.4576 180.579C62.3911 180.521 59.2594 170.457 59.2947 170.419C59.3611 170.355 64.0234 169.275 65.8489 168.906L66.0441 168.869L66.0877 172.753L66.2829 173.093C66.7087 173.812 67.7034 173.956 68.3182 173.385C68.7065 173.014 68.7211 172.914 68.7211 170.544C68.7211 168.848 68.7439 168.354 68.8145 168.333C68.9952 168.26 72.6544 167.66 72.7126 167.696C72.7416 167.71 72.7645 169.398 72.7645 171.449C72.7645 173.912 72.7915 175.24 72.8434 175.377C73.0095 175.819 73.564 176.196 74.0624 176.196C74.374 176.196 74.835 175.986 75.051 175.754C75.3978 175.369 75.3978 175.377 75.4186 171.174C75.4414 167.5 75.4476 167.21 75.5639 167.21C75.6283 167.204 76.5898 167.081 77.6864 166.935L79.6842 166.66L79.707 169.702L79.7278 172.753L79.923 173.093C80.4651 174.014 81.9084 173.906 82.2843 172.914C82.3341 172.783 82.3632 171.609 82.3632 169.559C82.3632 167.102 82.384 166.399 82.4567 166.376C82.5003 166.362 83.2292 166.283 84.0599 166.203C84.8968 166.116 85.7483 166.037 85.9581 166.014L86.3319 165.978V170.449C86.3319 173.479 86.3609 175.021 86.4129 175.217C86.5271 175.652 87.0255 176.1 87.4512 176.167C88.0639 176.253 88.5914 175.992 88.8593 175.463C88.9963 175.196 89.0026 175.021 89.0026 170.515C89.0026 167.941 89.0254 165.826 89.0607 165.812C89.0898 165.791 89.7606 165.739 90.5539 165.695C91.3493 165.653 92.2651 165.601 92.5974 165.58L93.1893 165.543V169.109C93.1893 172.595 93.1893 172.681 93.3409 172.993C93.5714 173.456 93.9618 173.695 94.5246 173.695C95.0376 173.695 95.3553 173.522 95.6502 173.093L95.8226 172.833L95.8455 169.159L95.8662 165.486L96.0261 165.443C96.1113 165.42 96.942 165.399 97.8599 165.399H99.54L99.5545 170.384L99.5774 175.377L99.785 175.644C100.377 176.428 101.519 176.334 102.03 175.463C102.167 175.225 102.175 175.065 102.196 170.261L102.219 165.305L102.485 165.355C102.63 165.376 103.575 165.399 104.578 165.399ZM114.171 181.752C115.774 181.819 117.116 181.898 117.159 181.927C117.223 181.963 116.929 183.311 116.142 186.608C115.541 189.151 114.935 191.754 114.798 192.383C114.517 193.731 114.293 194.448 114.142 194.507C113.789 194.644 107.724 193.585 106.817 193.231C106.622 193.158 106.613 193.137 106.613 192.608C106.613 192.31 106.678 191.645 106.759 191.137C106.902 190.282 107.913 181.934 107.913 181.667C107.913 181.55 108.042 181.544 109.596 181.588C110.511 181.608 112.576 181.688 114.171 181.752ZM97.3324 181.898C97.3532 182.05 97.5775 183.832 97.8163 185.868C98.2711 189.651 98.3999 191.564 98.2773 192.681C98.2337 193.087 98.2046 193.166 98.0676 193.225C97.9824 193.252 96.9918 193.419 95.8808 193.579C94.7635 193.746 93.4987 193.942 93.0668 194.021C91.586 194.296 90.8571 194.39 90.8073 194.311C90.7782 194.267 90.6557 193.658 90.5269 192.948C90.3961 192.245 89.7834 189.522 89.1625 186.906C88.5478 184.282 88.0576 182.123 88.0784 182.1C88.1449 182.029 94.7199 181.681 96.7405 181.644L97.2888 181.629L97.3324 181.898Z" fill="#C83B50"/>
<path fill-rule="evenodd" clip-rule="evenodd" d="M110.339 144.754C110.325 144.892 110.266 146.138 110.223 147.536C110.179 148.926 110.129 150.31 110.1 150.594L110.057 151.123H110.316C111.06 151.123 112.223 150.775 112.958 150.333C114.445 149.435 115.116 147.928 114.617 146.594C114.401 146.007 113.809 145.392 113.153 145.073C112.482 144.746 111.934 144.608 111.074 144.55L110.374 144.506L110.339 144.754Z" fill="#C83B50"/>
<path fill-rule="evenodd" clip-rule="evenodd" d="M94.2214 144.726C94.0054 144.755 93.9826 144.776 93.9826 145.008C93.9826 145.262 94.157 148.965 94.2422 150.53L94.2858 151.349L94.5537 151.299C96.6616 150.943 98.3064 149.632 98.6096 148.067C98.892 146.616 97.9388 145.306 96.2857 144.849C95.8807 144.741 94.6264 144.662 94.2214 144.726Z" fill="#C83B50"/>
<path fill-rule="evenodd" clip-rule="evenodd" d="M77.7653 145.727C76.2056 146.146 74.9866 147.805 74.6045 150.031C74.2867 151.827 74.5962 153.849 75.4414 155.472C76.9927 158.45 79.7943 159.328 81.7069 157.429C83.3953 155.756 83.9498 152.64 83.0423 149.864C82.1036 146.98 79.8005 145.175 77.7653 145.727Z" fill="#C83B50"/>
<path fill-rule="evenodd" clip-rule="evenodd" d="M142.088 148.601C142.066 148.695 141.771 150.008 141.438 151.521C141.1 153.036 140.803 154.326 140.782 154.39C140.759 154.478 140.803 154.528 140.934 154.557C141.287 154.645 142.601 154.609 143.091 154.499C144.296 154.217 145.307 153.492 145.748 152.586C145.957 152.167 145.986 152.035 145.986 151.521C145.986 151.035 145.949 150.877 145.783 150.529C145.307 149.551 143.987 148.753 142.398 148.478C142.161 148.442 142.124 148.457 142.088 148.601Z" fill="#C83B50"/>
<path fill-rule="evenodd" clip-rule="evenodd" d="M59.9883 148.923C59.8512 148.938 59.4546 149.011 59.1015 149.075C58.5948 149.169 58.4806 149.221 58.5097 149.307C58.545 149.423 59.5044 153.823 59.7433 154.958C59.8159 155.292 59.9094 155.575 59.9592 155.596C60.1046 155.648 61.1368 155.198 61.6559 154.858C62.335 154.402 62.9539 153.712 63.2862 153.033C63.5541 152.489 63.5603 152.46 63.5603 151.676C63.5603 150.967 63.5395 150.83 63.3817 150.511C63.0349 149.8 62.254 149.213 61.4254 149.031C61.0142 148.946 60.3061 148.894 59.9883 148.923Z" fill="#C83B50"/>
<path fill-rule="evenodd" clip-rule="evenodd" d="M91.9809 102.679C91.9905 102.684 93.1375 103.372 93.1471 103.377C94.3362 104.103 94.6041 105.735 93.8928 106.942C93.1872 108.139 91.5674 108.341 90.3681 107.655C90.3509 107.651 89.4043 107.083 89.3899 107.074C88.1828 106.358 87.7812 104.788 88.4953 103.576C89.2122 102.36 90.7738 101.962 91.9809 102.679Z" fill="#F3909F"/>
<path fill-rule="evenodd" clip-rule="evenodd" d="M71.6098 87.0488C71.6198 84.513 74.9443 83.7477 76.1853 85.5483C76.9629 86.6687 77.1572 88.7044 79.9135 92.5157C80.9053 93.8911 81.8025 95.2215 83.208 96.4919C84.175 97.3672 85.426 98.2025 86.9412 99.0578C89.2489 100.358 87.8384 104.575 84.7731 103.584C83.5171 103.184 82.1763 102.319 80.9801 101.339C79.435 100.078 78.169 98.7126 76.9678 97.2121C74.7499 94.4412 71.5998 88.8944 71.6098 87.0488Z" fill="#F3909F"/>
<path fill-rule="evenodd" clip-rule="evenodd" d="M111.998 102.663C111.988 102.669 110.841 103.356 110.832 103.362C109.643 104.087 109.375 105.72 110.086 106.927C110.792 108.124 112.411 108.326 113.611 107.639C113.628 107.636 114.575 107.067 114.589 107.059C115.796 106.342 116.198 104.772 115.484 103.561C114.767 102.345 113.205 101.947 111.998 102.663Z" fill="#F3909F"/>
<path fill-rule="evenodd" clip-rule="evenodd" d="M132.028 86.6681C132.018 84.1322 128.694 83.367 127.453 85.1676C126.675 86.288 126.481 88.3237 123.724 92.1349C122.733 93.5104 121.835 94.8408 120.43 96.1112C119.463 96.9865 118.212 97.8218 116.697 98.6771C114.389 99.9775 115.8 104.194 118.865 103.204C120.121 102.803 121.462 101.938 122.658 100.958C124.203 99.6974 125.469 98.3319 126.67 96.8314C128.888 94.0605 132.038 88.5137 132.028 86.6681Z" fill="#F3909F"/>
</svg>
