<?xml version="1.0" encoding="UTF-8" standalone="no"?>
<!DOCTYPE svg PUBLIC "-//W3C//DTD SVG 1.1//EN" "http://www.w3.org/Graphics/SVG/1.1/DTD/svg11.dtd">
<svg width="100%" height="100%" viewBox="0 0 200 200" version="1.1" xmlns="http://www.w3.org/2000/svg" xmlns:xlink="http://www.w3.org/1999/xlink" xml:space="preserve" xmlns:serif="http://www.serif.com/" style="fill-rule:evenodd;clip-rule:evenodd;stroke-linejoin:round;stroke-miterlimit:2;">
    <g transform="matrix(0.931871,0,0,0.931871,6.79566,6.81298)">
        <path d="M91.981,102.679C91.991,102.684 93.138,103.372 93.147,103.377C94.336,104.103 94.604,105.735 93.893,106.942C93.187,108.139 91.567,108.341 90.368,107.655C90.351,107.651 89.404,107.083 89.39,107.074C88.183,106.358 87.781,104.788 88.495,103.576C89.212,102.36 90.774,101.962 91.981,102.679Z" style="fill:white;stroke:white;stroke-width:9.66px;"/>
    </g>
    <g transform="matrix(0.931871,0,0,0.931871,6.79566,6.81298)">
        <path d="M71.61,87.049C71.62,84.513 74.944,83.748 76.185,85.548C76.963,86.669 77.157,88.704 79.914,92.516C80.905,93.891 81.803,95.222 83.208,96.492C84.175,97.367 85.426,98.203 86.941,99.058C89.249,100.358 87.838,104.575 84.773,103.584C83.517,103.184 82.176,102.319 80.98,101.339C79.435,100.078 78.169,98.713 76.968,97.212C74.75,94.441 71.6,88.894 71.61,87.049Z" style="fill:white;stroke:white;stroke-width:9.66px;"/>
    </g>
    <g transform="matrix(0.931871,0,0,0.931871,6.79566,6.81298)">
        <path d="M111.998,102.663C111.988,102.669 110.841,103.356 110.832,103.362C109.643,104.087 109.375,105.72 110.086,106.927C110.792,108.124 112.411,108.326 113.611,107.639C113.628,107.636 114.575,107.067 114.589,107.059C115.796,106.342 116.198,104.772 115.484,103.561C114.767,102.345 113.205,101.947 111.998,102.663Z" style="fill:white;stroke:white;stroke-width:9.66px;"/>
    </g>
    <g transform="matrix(0.931871,0,0,0.931871,6.79566,6.81298)">
        <path d="M132.028,86.668C132.018,84.132 128.694,83.367 127.453,85.168C126.675,86.288 126.481,88.324 123.724,92.135C122.733,93.51 121.835,94.841 120.43,96.111C119.463,96.987 118.212,97.822 116.697,98.677C114.389,99.978 115.8,104.194 118.865,103.204C120.121,102.803 121.462,101.938 122.658,100.958C124.203,99.697 125.469,98.332 126.67,96.831C128.888,94.061 132.038,88.514 132.028,86.668Z" style="fill:white;stroke:white;stroke-width:9.66px;"/>
    </g>
    <g transform="matrix(1.04904,0,0,1.04904,-5.17824,-11.3891)">
        <path d="M80.754,110.806C76.891,111.306 73.493,113.444 71.371,116.704C70.981,117.306 70.275,118.683 70.108,119.161C70.05,119.327 69.998,119.377 69.934,119.336C69.884,119.307 69.616,119.125 69.336,118.944C68.266,118.233 67.047,117.727 65.683,117.414C65.027,117.27 64.752,117.248 63.49,117.256C62.306,117.256 61.922,117.285 61.359,117.414C57.037,118.371 53.845,121.691 53.052,126.053C52.894,126.928 52.929,129.11 53.116,129.964C53.204,130.341 54.005,132.901 54.9,135.645C55.787,138.392 56.51,140.659 56.487,140.689C56.475,140.718 56.061,140.812 55.571,140.899C52.46,141.479 50.996,142.327 50.165,144.059C49.553,145.342 49.495,146.197 49.906,148.268C50.049,148.994 50.381,150.769 50.641,152.217C51.891,159.168 52.842,164.246 53.104,165.291C53.378,166.42 53.883,167.37 54.618,168.146L55.218,168.783L55.11,169.138C54.936,169.688 54.9,170.782 55.029,171.341C55.297,172.464 58.423,182.196 58.676,182.682C59.187,183.651 60.219,184.47 61.309,184.753C62.111,184.97 62.767,184.926 66.036,184.464C67.689,184.224 69.386,183.984 69.805,183.934L70.563,183.84L72.164,188.767C73.053,191.478 73.99,194.398 74.249,195.253C74.511,196.107 74.806,197.057 74.908,197.353C75.348,198.629 75.902,199.427 76.625,199.804L76.987,200L102.464,200C127.4,200 127.95,200 128.303,199.86C128.498,199.781 128.816,199.571 129.003,199.398C129.609,198.833 129.962,198.058 130.569,196.013C130.93,194.796 134.502,183.747 134.554,183.695C134.595,183.659 137.569,184.107 140.01,184.522C142.377,184.92 143.127,184.97 143.885,184.774C145.293,184.414 146.526,183.217 146.917,181.848C147.046,181.392 148.605,171.349 148.663,170.58C148.684,170.296 148.678,169.892 148.643,169.673L148.584,169.275L148.908,169.015C150.165,168.014 151.11,166.572 151.506,165.057C151.947,163.348 151.529,161.312 150.489,160.124L150.265,159.87L150.468,159.718C151.27,159.13 152.337,158.001 153.002,157.05C154.667,154.66 155.189,151.313 154.358,148.406C154.113,147.537 153.346,146.015 152.769,145.232C151.781,143.9 150.404,142.654 149.016,141.841C148.599,141.595 148.273,141.378 148.287,141.349C148.375,141.203 151.76,130.698 151.868,130.219C152.605,127.103 151.818,123.704 149.768,121.161C148.229,119.248 146.144,117.973 143.619,117.423C142.579,117.189 140.479,117.189 139.432,117.414C138.082,117.712 136.674,118.298 135.671,118.973L135.173,119.307L134.61,118.169C133.788,116.516 132.863,115.291 131.551,114.111C127.661,110.618 121.894,109.799 117.151,112.075C115.678,112.777 114.553,113.582 113.377,114.77C112.748,115.407 111.701,116.756 111.5,117.189C111.456,117.285 111.407,117.356 111.377,117.356C111.348,117.356 111.147,117.118 110.931,116.829C109.803,115.328 105.822,110.67 104.075,109.995C100.133,108.482 98.047,112.769 95.081,115.705C94.741,116.039 94.315,116.51 94.12,116.762L93.773,117.218L93.665,117.016C93.443,116.589 92.67,115.574 92.064,114.916C89.219,111.821 84.941,110.27 80.754,110.806Z" style="fill:white;fill-rule:nonzero;"/>
    </g>
    <g transform="matrix(1.04904,0,0,1.04904,-4.56943,0.921055)">
        <path d="M111.558,0.015C107.646,0.21 103.858,1.34 100.624,3.268C98.653,4.441 98.271,4.71 97.079,5.739C95.881,6.781 94.091,8.744 93.443,9.739L93.239,10.043L93.017,9.862C92.892,9.759 92.496,9.449 92.128,9.174C87.134,5.339 80.372,4.441 74.532,6.833C71.724,7.978 69.176,9.891 67.33,12.231C66.889,12.79 66.889,12.79 66.05,13.129C59.779,15.701 54.259,20.244 50.475,25.963C47.221,30.869 45.337,36.345 44.832,42.36C44.672,44.2 44.745,47.303 44.984,49.281C45.943,57.338 49.812,64.911 55.766,70.396C58.373,72.801 60.819,74.489 63.922,76.019C67.82,77.938 71.595,79.003 76.004,79.424C77.016,79.518 77.144,79.547 77.261,79.693C78.444,81.164 80.442,83.221 81.749,84.315C82.774,85.178 84.363,86.337 85.329,86.925L86.218,87.469L92.07,93.308C98.097,99.329 98.35,99.554 99.359,100.004C99.592,100.106 100.053,100.279 100.4,100.381C100.963,100.554 101.129,100.577 102.175,100.569C103.129,100.569 103.432,100.548 103.887,100.417C104.543,100.235 105.365,99.866 105.943,99.489C106.202,99.316 108.368,97.213 111.774,93.814L117.188,88.411L118.306,87.794C121.524,86.018 124.449,83.613 127.111,80.548C128.216,79.28 129.782,77.063 130.511,75.729C130.799,75.2 130.814,75.185 131.499,74.816C134.589,73.158 137.015,71.338 139.534,68.817C146.605,61.7 150.078,51.896 149.083,41.824C148.31,33.984 144.809,26.68 139.193,21.201C138.176,20.209 136.957,19.144 136.053,18.462L135.657,18.158L135.42,17.31C134.539,14.136 132.82,10.897 130.685,8.39C126.758,3.774 121.425,0.89 115.456,0.158C114.561,0.05 112.445,-0.029 111.558,0.015Z" style="fill:white;"/>
    </g>
    <g transform="matrix(0.931871,0,0,0.931871,6.79566,6.81298)">
        <path d="M111.558,0.015C107.646,0.21 103.858,1.34 100.624,3.268C98.653,4.441 98.271,4.71 97.079,5.739C95.881,6.781 94.091,8.744 93.443,9.739L93.239,10.043L93.017,9.862C92.892,9.759 92.496,9.449 92.128,9.174C87.134,5.339 80.372,4.441 74.532,6.833C71.724,7.978 69.176,9.891 67.33,12.231C66.889,12.79 66.889,12.79 66.05,13.129C59.779,15.701 54.259,20.244 50.475,25.963C47.221,30.869 45.337,36.345 44.832,42.36C44.672,44.2 44.745,47.303 44.984,49.281C45.943,57.338 49.812,64.911 55.766,70.396C58.373,72.801 60.819,74.489 63.922,76.019C67.82,77.938 71.595,79.003 76.004,79.424C77.016,79.518 77.144,79.547 77.261,79.693C78.444,81.164 80.442,83.221 81.749,84.315C82.774,85.178 84.363,86.337 85.329,86.925L86.218,87.469L92.07,93.308C98.097,99.329 98.35,99.554 99.359,100.004C99.592,100.106 100.053,100.279 100.4,100.381C100.963,100.554 101.129,100.577 102.175,100.569C103.129,100.569 103.432,100.548 103.887,100.417C104.543,100.235 105.365,99.866 105.943,99.489C106.202,99.316 108.368,97.213 111.774,93.814L117.188,88.411L118.306,87.794C121.524,86.018 124.449,83.613 127.111,80.548C128.216,79.28 129.782,77.063 130.511,75.729C130.799,75.2 130.814,75.185 131.499,74.816C134.589,73.158 137.015,71.338 139.534,68.817C146.605,61.7 150.078,51.896 149.083,41.824C148.31,33.984 144.809,26.68 139.193,21.201C138.176,20.209 136.957,19.144 136.053,18.462L135.657,18.158L135.42,17.31C134.539,14.136 132.82,10.897 130.685,8.39C126.758,3.774 121.425,0.89 115.456,0.158C114.561,0.05 112.445,-0.029 111.558,0.015Z" style="fill:rgb(255,230,157);"/>
    </g>
    <g transform="matrix(0.931871,0,0,0.931871,6.79566,6.81298)">
        <path d="M111.558,0.015C107.646,0.21 103.858,1.34 100.624,3.268C98.653,4.441 98.271,4.71 97.079,5.739C95.881,6.781 94.091,8.744 93.443,9.739L93.239,10.043L93.017,9.862C92.892,9.759 92.496,9.449 92.128,9.174C87.134,5.339 80.372,4.441 74.532,6.833C71.724,7.978 69.176,9.891 67.33,12.231C66.889,12.79 66.889,12.79 66.05,13.129C59.779,15.701 54.259,20.244 50.475,25.963C47.221,30.869 45.337,36.345 44.832,42.36C44.672,44.2 44.745,47.303 44.984,49.281C45.943,57.338 49.812,64.911 55.766,70.396C58.373,72.801 60.819,74.489 63.922,76.019C67.82,77.938 71.595,79.003 76.004,79.424C77.016,79.518 77.144,79.547 77.261,79.693C78.444,81.164 80.442,83.221 81.749,84.315C82.774,85.178 84.363,86.337 85.329,86.925L86.218,87.469L92.07,93.308C98.097,99.329 98.35,99.554 99.359,100.004C99.592,100.106 100.053,100.279 100.4,100.381C100.963,100.554 101.129,100.577 102.175,100.569C103.129,100.569 103.432,100.548 103.887,100.417C104.543,100.235 105.365,99.866 105.943,99.489C106.202,99.316 108.368,97.213 111.774,93.814L117.188,88.411L118.306,87.794C121.524,86.018 124.449,83.613 127.111,80.548C128.216,79.28 129.782,77.063 130.511,75.729C130.799,75.2 130.814,75.185 131.499,74.816C134.589,73.158 137.015,71.338 139.534,68.817C146.605,61.7 150.078,51.896 149.083,41.824C148.31,33.984 144.809,26.68 139.193,21.201C138.176,20.209 136.957,19.144 136.053,18.462L135.657,18.158L135.42,17.31C134.539,14.136 132.82,10.897 130.685,8.39C126.758,3.774 121.425,0.89 115.456,0.158C114.561,0.05 112.445,-0.029 111.558,0.015ZM115.168,5.362C118.32,5.833 121.171,7 123.618,8.84C127.277,11.579 129.667,15.297 130.729,19.898C130.994,21.063 131.196,21.347 132.452,22.274C135.636,24.644 138.255,27.534 140.167,30.796C140.645,31.606 141.511,33.346 141.893,34.245C143.056,37.012 143.756,39.969 144.007,43.193C144.101,44.381 144.059,47.099 143.928,48.193C143.17,54.687 140.508,60.339 136.062,64.926C135.167,65.845 133.622,67.258 133.572,67.199C133.557,67.185 133.586,66.874 133.63,66.505C133.752,65.411 133.528,64.671 132.878,64.063C132.461,63.671 132.091,63.484 131.551,63.381C130.432,63.171 129.283,63.788 128.808,64.844C128.714,65.063 128.592,65.57 128.519,66.041C128.201,68.302 126.577,72.374 125.142,74.533C123.092,77.613 120.565,80.149 117.512,82.192C114.034,84.518 110.339,85.903 105.928,86.533C104.832,86.685 101.561,86.75 100.327,86.641C94.186,86.085 88.714,83.678 84.212,79.541C81.36,76.932 79.065,73.337 78.118,70.025C77.853,69.092 77.772,68.7 77.635,67.649C77.506,66.635 77.261,66.07 76.754,65.62C76.293,65.215 75.853,65.034 75.246,64.99C73.975,64.896 72.893,65.678 72.576,66.918C72.482,67.31 72.476,67.483 72.546,68.179C72.713,69.802 73.153,71.599 73.774,73.185C73.934,73.585 74.048,73.918 74.042,73.924C74.033,73.933 73.73,73.881 73.377,73.808C64.333,71.947 56.813,66.084 52.815,57.794C51.783,55.65 51.125,53.766 50.62,51.527C49.046,44.548 50.107,37.1 53.557,30.875C54.273,29.585 55.413,27.882 56.35,26.709C57.347,25.454 59.527,23.266 60.782,22.268C61.77,21.47 63.006,20.586 63.056,20.636C63.07,20.651 63.035,21.115 62.969,21.672C62.869,22.52 62.869,22.862 62.933,23.737C62.977,24.318 63.064,24.956 63.128,25.15C63.394,25.963 64.096,26.6 64.962,26.826C66.088,27.107 67.33,26.521 67.855,25.44C68.03,25.094 68.036,25.021 68.036,23.556C68.044,22.362 68.073,21.905 68.173,21.42C68.534,19.723 69.371,18.05 70.677,16.42C70.916,16.122 71.284,15.645 71.494,15.368C71.703,15.086 72.187,14.565 72.561,14.209C75.925,11.014 80.617,9.92 85.063,11.281C87.098,11.904 89.154,13.194 90.498,14.68L90.793,15.007L90.62,15.586C90.201,16.985 89.948,18.731 89.941,20.259C89.941,23.231 90.664,26.065 92.207,29.166C92.93,30.608 93.644,31.15 94.813,31.158C95.289,31.158 95.463,31.129 95.81,30.968C96.581,30.608 97.006,30.129 97.239,29.362C97.499,28.52 97.432,28.172 96.703,26.65C95.441,24.02 95.009,22.186 95.088,19.898C95.181,17.535 95.852,15.549 97.295,13.398C99.123,10.687 101.575,8.536 104.485,7.109C105.083,6.819 105.893,6.456 106.289,6.31C107.581,5.825 109.429,5.412 110.908,5.26C111.797,5.172 114.287,5.231 115.168,5.362Z" style="fill:rgb(200,59,80);fill-rule:nonzero;"/>
    </g>
    <g transform="matrix(0.931871,0,0,0.931871,6.79566,6.81298)">
        <path d="M115.072,49.895C114.279,50.106 113.722,50.439 113.103,51.056C112.194,51.954 111.803,52.911 111.803,54.207C111.797,55.752 112.526,57.085 113.832,57.931C114.48,58.352 115.043,58.527 115.903,58.569C116.841,58.621 117.375,58.519 118.148,58.15C118.856,57.808 119.655,57.062 120.017,56.418C120.999,54.664 120.71,52.461 119.331,51.071C118.494,50.237 117.556,49.831 116.357,49.781C115.759,49.758 115.491,49.781 115.072,49.895Z" style="fill:rgb(200,59,80);"/>
    </g>
    <g transform="matrix(0.931871,0,0,0.931871,6.79566,6.81298)">
        <path d="M82.955,50.071C81.757,50.367 80.602,51.309 80.068,52.432C79.722,53.163 79.62,53.614 79.62,54.412C79.62,55.591 80.046,56.627 80.876,57.469C81.483,58.084 82.124,58.461 82.903,58.665C84.442,59.063 86.014,58.628 87.134,57.513C88.245,56.396 88.67,54.81 88.282,53.274C88.078,52.469 87.746,51.903 87.127,51.267C86.693,50.823 86.463,50.65 85.973,50.419C85.632,50.258 85.186,50.092 84.976,50.048C84.471,49.948 83.439,49.954 82.955,50.071Z" style="fill:rgb(200,59,80);"/>
    </g>
    <g transform="matrix(0.931871,0,0,0.931871,6.79566,6.81298)">
        <path d="M88.859,64.154C88.859,64.379 89.206,65.734 89.443,66.453C90.88,70.698 94.149,73.895 98.082,74.887C99.758,75.308 101.627,75.308 103.33,74.887C107.033,73.959 110.214,71.01 111.716,67.105C112.1,66.119 112.526,64.589 112.532,64.183C112.532,64.118 110.115,64.098 100.695,64.098C94.186,64.098 88.859,64.127 88.859,64.154Z" style="fill:rgb(200,59,80);"/>
    </g>
    <g transform="matrix(0.931871,0,0,0.931871,6.79566,6.81298)">
        <path d="M80.754,110.806C76.891,111.306 73.493,113.444 71.371,116.704C70.981,117.306 70.275,118.683 70.108,119.161C70.05,119.327 69.998,119.377 69.934,119.336C69.884,119.307 69.616,119.125 69.336,118.944C68.266,118.233 67.047,117.727 65.683,117.414C65.027,117.27 64.752,117.248 63.49,117.256C62.306,117.256 61.922,117.285 61.359,117.414C57.037,118.371 53.845,121.691 53.052,126.053C52.894,126.928 52.929,129.11 53.116,129.964C53.204,130.341 54.005,132.901 54.9,135.645C55.787,138.392 56.51,140.659 56.487,140.689C56.475,140.718 56.061,140.812 55.571,140.899C52.46,141.479 50.996,142.327 50.165,144.059C49.553,145.342 49.495,146.197 49.906,148.268C50.049,148.994 50.381,150.769 50.641,152.217C51.891,159.168 52.842,164.246 53.104,165.291C53.378,166.42 53.883,167.37 54.618,168.146L55.218,168.783L55.11,169.138C54.936,169.688 54.9,170.782 55.029,171.341C55.297,172.464 58.423,182.196 58.676,182.682C59.187,183.651 60.219,184.47 61.309,184.753C62.111,184.97 62.767,184.926 66.036,184.464C67.689,184.224 69.386,183.984 69.805,183.934L70.563,183.84L72.164,188.767C73.053,191.478 73.99,194.398 74.249,195.253C74.511,196.107 74.806,197.057 74.908,197.353C75.348,198.629 75.902,199.427 76.625,199.804L76.987,200L102.464,200C127.4,200 127.95,200 128.303,199.86C128.498,199.781 128.816,199.571 129.003,199.398C129.609,198.833 129.962,198.058 130.569,196.013C130.93,194.796 134.502,183.747 134.554,183.695C134.595,183.659 137.569,184.107 140.01,184.522C142.377,184.92 143.127,184.97 143.885,184.774C145.293,184.414 146.526,183.217 146.917,181.848C147.046,181.392 148.605,171.349 148.663,170.58C148.684,170.296 148.678,169.892 148.643,169.673L148.584,169.275L148.908,169.015C150.165,168.014 151.11,166.572 151.506,165.057C151.947,163.348 151.529,161.312 150.489,160.124L150.265,159.87L150.468,159.718C151.27,159.13 152.337,158.001 153.002,157.05C154.667,154.66 155.189,151.313 154.358,148.406C154.113,147.537 153.346,146.015 152.769,145.232C151.781,143.9 150.404,142.654 149.016,141.841C148.599,141.595 148.273,141.378 148.287,141.349C148.375,141.203 151.76,130.698 151.868,130.219C152.605,127.103 151.818,123.704 149.768,121.161C148.229,119.248 146.144,117.973 143.619,117.423C142.579,117.189 140.479,117.189 139.432,117.414C138.082,117.712 136.674,118.298 135.671,118.973L135.173,119.307L134.61,118.169C133.788,116.516 132.863,115.291 131.551,114.111C127.661,110.618 121.894,109.799 117.151,112.075C115.678,112.777 114.553,113.582 113.377,114.77C112.748,115.407 111.701,116.756 111.5,117.189C111.456,117.285 111.407,117.356 111.377,117.356C111.348,117.356 111.147,117.118 110.931,116.829C109.803,115.328 108.109,114.053 106.362,113.378C102.42,111.865 98.047,112.769 95.081,115.705C94.741,116.039 94.315,116.51 94.12,116.762L93.773,117.218L93.665,117.016C93.443,116.589 92.67,115.574 92.064,114.916C89.219,111.821 84.941,110.27 80.754,110.806Z" style="fill:white;"/>
    </g>
    <g transform="matrix(0.931871,0,0,0.931871,6.79566,6.81298)">
        <path d="M80.754,110.806C76.891,111.306 73.493,113.444 71.371,116.704C70.981,117.306 70.275,118.683 70.108,119.161C70.05,119.327 69.998,119.377 69.934,119.336C69.884,119.307 69.616,119.125 69.336,118.944C68.266,118.233 67.047,117.727 65.683,117.414C65.027,117.27 64.752,117.248 63.49,117.256C62.306,117.256 61.922,117.285 61.359,117.414C57.037,118.371 53.845,121.691 53.052,126.053C52.894,126.928 52.929,129.11 53.116,129.964C53.204,130.341 54.005,132.901 54.9,135.645C55.787,138.392 56.51,140.659 56.487,140.689C56.475,140.718 56.061,140.812 55.571,140.899C52.46,141.479 50.996,142.327 50.165,144.059C49.553,145.342 49.495,146.197 49.906,148.268C50.049,148.994 50.381,150.769 50.641,152.217C51.891,159.168 52.842,164.246 53.104,165.291C53.378,166.42 53.883,167.37 54.618,168.146L55.218,168.783L55.11,169.138C54.936,169.688 54.9,170.782 55.029,171.341C55.297,172.464 58.423,182.196 58.676,182.682C59.187,183.651 60.219,184.47 61.309,184.753C62.111,184.97 62.767,184.926 66.036,184.464C67.689,184.224 69.386,183.984 69.805,183.934L70.563,183.84L72.164,188.767C73.053,191.478 73.99,194.398 74.249,195.253C74.511,196.107 74.806,197.057 74.908,197.353C75.348,198.629 75.902,199.427 76.625,199.804L76.987,200L102.464,200C127.4,200 127.95,200 128.303,199.86C128.498,199.781 128.816,199.571 129.003,199.398C129.609,198.833 129.962,198.058 130.569,196.013C130.93,194.796 134.502,183.747 134.554,183.695C134.595,183.659 137.569,184.107 140.01,184.522C142.377,184.92 143.127,184.97 143.885,184.774C145.293,184.414 146.526,183.217 146.917,181.848C147.046,181.392 148.605,171.349 148.663,170.58C148.684,170.296 148.678,169.892 148.643,169.673L148.584,169.275L148.908,169.015C150.165,168.014 151.11,166.572 151.506,165.057C151.947,163.348 151.529,161.312 150.489,160.124L150.265,159.87L150.468,159.718C151.27,159.13 152.337,158.001 153.002,157.05C154.667,154.66 155.189,151.313 154.358,148.406C154.113,147.537 153.346,146.015 152.769,145.232C151.781,143.9 150.404,142.654 149.016,141.841C148.599,141.595 148.273,141.378 148.287,141.349C148.375,141.203 151.76,130.698 151.868,130.219C152.605,127.103 151.818,123.704 149.768,121.161C148.229,119.248 146.144,117.973 143.619,117.423C142.579,117.189 140.479,117.189 139.432,117.414C138.082,117.712 136.674,118.298 135.671,118.973L135.173,119.307L134.61,118.169C133.788,116.516 132.863,115.291 131.551,114.111C127.661,110.618 121.894,109.799 117.151,112.075C115.678,112.777 114.553,113.582 113.377,114.77C112.748,115.407 111.701,116.756 111.5,117.189C111.456,117.285 111.407,117.356 111.377,117.356C111.348,117.356 111.147,117.118 110.931,116.829C109.803,115.328 108.109,114.053 106.362,113.378C102.42,111.865 98.047,112.769 95.081,115.705C94.741,116.039 94.315,116.51 94.12,116.762L93.773,117.218L93.665,117.016C93.443,116.589 92.67,115.574 92.064,114.916C89.219,111.821 84.941,110.27 80.754,110.806ZM83.748,116.016C86.88,116.56 89.495,119.002 90.195,122.024C90.288,122.428 91.889,135.624 91.889,135.993C91.889,136.095 91.833,136.125 91.615,136.125C91.119,136.125 89.659,136.341 89.162,136.494C88.44,136.719 87.804,137.102 87.212,137.675C86.606,138.263 86.232,138.834 85.973,139.58L85.784,140.109L85.285,139.74C83.958,138.769 82.299,138.044 80.637,137.711C80.075,137.602 79.541,137.552 78.646,137.538L77.419,137.523L75.954,131.406L74.482,125.292L74.474,123.987C74.459,122.82 74.482,122.61 74.634,122.03C75.377,119.198 77.456,117.031 80.197,116.226C80.538,116.124 80.993,116.016 81.209,115.987C81.865,115.887 83.098,115.899 83.748,116.016ZM124.606,116.197C127.495,116.85 129.804,119.132 130.583,122.103C130.735,122.674 130.756,122.914 130.756,124.023L130.749,125.292L129.35,131.161C128.583,134.385 127.942,137.044 127.927,137.058C127.913,137.081 127.314,137.037 126.585,136.973C124.326,136.762 123.3,136.827 122.226,137.263C121.416,137.588 120.55,138.24 120.052,138.898L119.9,139.109L119.556,138.819C118.183,137.667 116.378,136.812 114.302,136.335C113.789,136.212 113.355,136.102 113.34,136.095C113.319,136.066 114.798,123.493 114.914,122.704C115.404,119.4 118.168,116.639 121.533,116.089C122.363,115.951 123.755,116.001 124.606,116.197ZM110.476,139.966C111.94,140.036 112.59,140.124 113.651,140.399C115.051,140.747 116.09,141.276 117.151,142.168C119.346,144.009 119.894,147.385 118.494,150.371C117.614,152.247 116.177,153.689 114.191,154.704C112.929,155.341 111.811,155.696 110.208,155.942C109.876,155.994 109.89,155.935 109.797,157.986C109.71,159.899 109.602,160.189 108.908,160.552C108.549,160.739 106.981,160.754 106.412,160.581C105.992,160.449 105.581,160.131 105.409,159.791C105.156,159.297 105.22,157.899 106.001,147.355C106.138,145.501 106.304,143.219 106.362,142.283C106.426,141.349 106.514,140.487 106.555,140.378C106.657,140.109 106.917,139.943 107.328,139.878C107.654,139.828 108.042,139.84 110.476,139.966ZM96.834,140.326C98.697,140.624 100.184,141.335 101.309,142.464C102.053,143.21 102.566,144.138 102.904,145.369C103.056,145.936 103.12,147.616 103.012,148.268C102.811,149.444 102.342,150.638 101.685,151.653C100.342,153.724 97.997,155.312 95.218,156.015C94.849,156.108 94.531,156.196 94.516,156.21C94.502,156.225 94.525,157.015 94.568,157.963C94.647,159.972 94.618,160.139 94.172,160.587C93.773,160.993 93.449,161.073 92.251,161.081C91.378,161.087 91.248,161.073 90.973,160.929C90.577,160.71 90.274,160.326 90.172,159.914C90.049,159.384 90.02,158.355 89.941,152.536C89.906,149.587 89.854,145.77 89.825,144.052L89.783,140.928L89.977,140.703C90.093,140.566 90.288,140.443 90.469,140.393C90.822,140.291 94.271,140.132 95.283,140.168C95.659,140.182 96.358,140.255 96.834,140.326ZM126.174,141.051C128.72,141.291 133.939,141.899 134.525,142.031C134.957,142.125 135.167,142.958 135.044,144.059C134.878,145.544 134.33,146.609 133.767,146.522C133.659,146.507 133.283,146.451 132.922,146.407C132.569,146.363 131.767,146.232 131.154,146.118C128.498,145.624 127.04,145.369 127.003,145.407C126.988,145.428 126.822,146.384 126.635,147.531C126.405,148.985 126.326,149.637 126.382,149.667C126.426,149.696 127.559,149.856 128.895,150.029C130.236,150.204 131.42,150.386 131.528,150.442C131.825,150.594 131.968,150.942 132.006,151.58C132.056,152.463 131.802,153.516 131.377,154.131C131.196,154.399 131.154,154.42 130.814,154.443C130.452,154.464 128.209,154.11 126.585,153.776C125.985,153.66 125.719,153.63 125.705,153.689C125.624,153.935 125.236,157.196 125.236,157.588C125.236,157.784 125.242,157.79 125.653,157.79C127.017,157.79 131.831,158.378 132.49,158.624C132.648,158.682 132.82,158.805 132.878,158.893C133.015,159.116 132.994,159.674 132.814,160.581C132.56,161.848 132.222,162.652 131.831,162.906C131.601,163.059 131.248,163.021 129.674,162.681C128.058,162.333 126.44,162.102 124.687,161.956C123.892,161.892 122.982,161.812 122.658,161.775C121.576,161.652 120.876,161.152 120.638,160.326C120.436,159.616 120.53,158.574 121.367,152.486C121.626,150.632 121.958,148.362 122.096,147.449C122.449,145.203 123.128,141.727 123.259,141.479C123.408,141.174 123.915,140.949 124.478,140.914C124.565,140.914 125.321,140.972 126.174,141.051ZM80.002,141.777C83.474,142.543 86.332,145.799 87.163,149.935C87.725,152.697 87.466,155.283 86.405,157.544C84.932,160.689 82.407,162.435 79.331,162.427C77.188,162.421 75.333,161.558 73.616,159.753C72.042,158.109 71.097,156.175 70.619,153.624C70.468,152.791 70.418,150.857 70.519,149.994C71.016,145.943 73.564,142.639 76.791,141.849C77.095,141.777 77.412,141.697 77.491,141.683C77.917,141.587 79.404,141.645 80.002,141.777ZM142.558,143.833C144.715,144.377 145.191,144.544 146.31,145.117C147.797,145.878 148.83,146.782 149.646,148.037C150.582,149.5 150.85,151.146 150.424,152.82C149.963,154.631 148.555,156.254 146.585,157.255C145.891,157.603 144.232,158.182 143.698,158.261C143.503,158.29 143.351,158.326 143.351,158.334C143.351,158.37 143.812,159.174 144.016,159.493C144.585,160.399 145.876,161.754 146.742,162.356C146.996,162.535 147.284,162.798 147.378,162.936C147.529,163.159 147.544,163.246 147.515,163.673C147.436,164.899 146.232,166.195 145.177,166.195C144.57,166.195 143.625,165.624 142.637,164.653C141.771,163.805 141.013,162.681 139.981,160.704C139.721,160.21 139.497,159.82 139.482,159.835C139.476,159.849 139.287,160.581 139.071,161.464C138.639,163.275 138.529,163.492 137.981,163.769C137.549,163.986 137.295,163.992 136.408,163.811C135.578,163.644 135.079,163.398 134.733,163C134.141,162.304 134.207,161.921 136.053,155.225C136.61,153.232 137.196,151.073 137.36,150.436C138.01,147.92 139.036,144.117 139.135,143.819C139.202,143.652 139.316,143.465 139.403,143.4C139.677,143.204 140.529,143.319 142.558,143.833ZM62.306,144.494C63.143,144.638 63.72,144.834 64.593,145.269C66.181,146.059 67.272,147.493 67.797,149.485C68.015,150.29 68.03,152.109 67.826,152.972C67.523,154.297 67.041,155.385 66.283,156.442C65.726,157.211 64.435,158.449 63.554,159.036C62.89,159.487 61.677,160.131 61.151,160.312C60.962,160.376 60.927,160.42 60.962,160.558C61.172,161.508 61.648,163.898 61.648,164.036C61.648,164.24 61.396,164.797 61.23,164.986C60.913,165.341 59.735,165.703 58.869,165.718C58.408,165.724 58.236,165.695 58.003,165.566C57.411,165.253 57.224,164.87 56.927,163.436C56.719,162.398 55.442,155.508 54.792,151.884C54.547,150.529 54.221,148.754 54.063,147.935C53.912,147.124 53.781,146.349 53.781,146.218C53.781,145.87 54.07,145.58 54.597,145.407C55.116,145.232 57.924,144.632 58.869,144.494C59.787,144.363 61.569,144.363 62.306,144.494ZM104.578,165.399L106.397,165.399L106.397,169.079C106.397,173.204 106.377,173.022 106.931,173.47C107.141,173.637 107.284,173.695 107.61,173.716C108.15,173.754 108.555,173.564 108.829,173.137L109.031,172.833L109.054,169.188L109.074,165.543L109.596,165.543C110.258,165.543 112.864,165.674 113.456,165.732L113.903,165.776L113.903,175.079L114.083,175.442C114.302,175.869 114.655,176.13 115.087,176.173C115.664,176.238 116.177,175.971 116.43,175.463C116.567,175.196 116.573,175.021 116.573,170.58L116.573,165.978L116.885,165.978C117.165,165.978 117.988,166.058 120.197,166.276L121.043,166.362L121.063,169.602L121.084,172.833L121.288,173.137C121.85,174 123.163,173.906 123.583,172.979C123.705,172.703 123.72,172.455 123.72,169.659L123.72,166.645L123.994,166.681C124.139,166.704 125.055,166.818 126.029,166.941L127.798,167.175L127.869,175.144L128.064,175.471C128.583,176.363 129.863,176.363 130.359,175.471L130.54,175.144L130.577,171.37L130.612,167.602L132.504,167.906C133.534,168.073 134.51,168.239 134.668,168.275L134.942,168.342L134.98,170.653C135.015,172.885 135.021,172.979 135.173,173.224C135.628,173.956 136.805,174.023 137.324,173.341C137.598,172.979 137.642,172.58 137.648,170.659L137.648,168.854L137.981,168.906C138.502,168.971 144.267,170.232 144.348,170.296C144.369,170.311 142.882,180.131 142.809,180.441C142.774,180.594 142.759,180.587 140.703,180.239C131.044,178.607 121.005,177.638 110.692,177.347C107.083,177.247 97.548,177.305 94.201,177.457C84.16,177.905 74.33,178.841 64.607,180.283C63.438,180.456 62.472,180.587 62.458,180.579C62.391,180.521 59.259,170.457 59.295,170.419C59.361,170.355 64.023,169.275 65.849,168.906L66.044,168.869L66.088,172.753L66.283,173.093C66.709,173.812 67.703,173.956 68.318,173.385C68.707,173.014 68.721,172.914 68.721,170.544C68.721,168.848 68.744,168.354 68.815,168.333C68.995,168.26 72.654,167.66 72.713,167.696C72.742,167.71 72.765,169.398 72.765,171.449C72.765,173.912 72.792,175.24 72.843,175.377C73.01,175.819 73.564,176.196 74.062,176.196C74.374,176.196 74.835,175.986 75.051,175.754C75.398,175.369 75.398,175.377 75.419,171.174C75.441,167.5 75.448,167.21 75.564,167.21C75.628,167.204 76.59,167.081 77.686,166.935L79.684,166.66L79.707,169.702L79.728,172.753L79.923,173.093C80.465,174.014 81.908,173.906 82.284,172.914C82.334,172.783 82.363,171.609 82.363,169.559C82.363,167.102 82.384,166.399 82.457,166.376C82.5,166.362 83.229,166.283 84.06,166.203C84.897,166.116 85.748,166.037 85.958,166.014L86.332,165.978L86.332,170.449C86.332,173.479 86.361,175.021 86.413,175.217C86.527,175.652 87.025,176.1 87.451,176.167C88.064,176.253 88.591,175.992 88.859,175.463C88.996,175.196 89.003,175.021 89.003,170.515C89.003,167.941 89.025,165.826 89.061,165.812C89.09,165.791 89.761,165.739 90.554,165.695C91.349,165.653 92.265,165.601 92.597,165.58L93.189,165.543L93.189,169.109C93.189,172.595 93.189,172.681 93.341,172.993C93.571,173.456 93.962,173.695 94.525,173.695C95.038,173.695 95.355,173.522 95.65,173.093L95.823,172.833L95.846,169.159L95.866,165.486L96.026,165.443C96.111,165.42 96.942,165.399 97.86,165.399L99.54,165.399L99.555,170.384L99.577,175.377L99.785,175.644C100.377,176.428 101.519,176.334 102.03,175.463C102.167,175.225 102.175,175.065 102.196,170.261L102.219,165.305L102.485,165.355C102.63,165.376 103.575,165.399 104.578,165.399ZM114.171,181.752C115.774,181.819 117.116,181.898 117.159,181.927C117.223,181.963 116.929,183.311 116.142,186.608C115.541,189.151 114.935,191.754 114.798,192.383C114.517,193.731 114.293,194.448 114.142,194.507C113.789,194.644 107.724,193.585 106.817,193.231C106.622,193.158 106.613,193.137 106.613,192.608C106.613,192.31 106.678,191.645 106.759,191.137C106.902,190.282 107.913,181.934 107.913,181.667C107.913,181.55 108.042,181.544 109.596,181.588C110.511,181.608 112.576,181.688 114.171,181.752ZM97.332,181.898C97.353,182.05 97.578,183.832 97.816,185.868C98.271,189.651 98.4,191.564 98.277,192.681C98.234,193.087 98.205,193.166 98.068,193.225C97.982,193.252 96.992,193.419 95.881,193.579C94.763,193.746 93.499,193.942 93.067,194.021C91.586,194.296 90.857,194.39 90.807,194.311C90.778,194.267 90.656,193.658 90.527,192.948C90.396,192.245 89.783,189.522 89.162,186.906C88.548,184.282 88.058,182.123 88.078,182.1C88.145,182.029 94.72,181.681 96.741,181.644L97.289,181.629L97.332,181.898Z" style="fill:rgb(200,59,80);fill-rule:nonzero;"/>
    </g>
    <g transform="matrix(0.931871,0,0,0.931871,6.79566,6.81298)">
        <path d="M110.339,144.754C110.325,144.892 110.266,146.138 110.223,147.536C110.179,148.926 110.129,150.31 110.1,150.594L110.057,151.123L110.316,151.123C111.06,151.123 112.223,150.775 112.958,150.333C114.445,149.435 115.116,147.928 114.617,146.594C114.401,146.007 113.809,145.392 113.153,145.073C112.482,144.746 111.934,144.608 111.074,144.55L110.374,144.506L110.339,144.754Z" style="fill:rgb(200,59,80);"/>
    </g>
    <g transform="matrix(0.931871,0,0,0.931871,6.79566,6.81298)">
        <path d="M94.221,144.726C94.005,144.755 93.983,144.776 93.983,145.008C93.983,145.262 94.157,148.965 94.242,150.53L94.286,151.349L94.554,151.299C96.662,150.943 98.306,149.632 98.61,148.067C98.892,146.616 97.939,145.306 96.286,144.849C95.881,144.741 94.626,144.662 94.221,144.726Z" style="fill:rgb(200,59,80);"/>
    </g>
    <g transform="matrix(0.931871,0,0,0.931871,6.79566,6.81298)">
        <path d="M77.765,145.727C76.206,146.146 74.987,147.805 74.605,150.031C74.287,151.827 74.596,153.849 75.441,155.472C76.993,158.45 79.794,159.328 81.707,157.429C83.395,155.756 83.95,152.64 83.042,149.864C82.104,146.98 79.801,145.175 77.765,145.727Z" style="fill:rgb(200,59,80);"/>
    </g>
    <g transform="matrix(0.931871,0,0,0.931871,6.79566,6.81298)">
        <path d="M142.088,148.601C142.066,148.695 141.771,150.008 141.438,151.521C141.1,153.036 140.803,154.326 140.782,154.39C140.759,154.478 140.803,154.528 140.934,154.557C141.287,154.645 142.601,154.609 143.091,154.499C144.296,154.217 145.307,153.492 145.748,152.586C145.957,152.167 145.986,152.035 145.986,151.521C145.986,151.035 145.949,150.877 145.783,150.529C145.307,149.551 143.987,148.753 142.398,148.478C142.161,148.442 142.124,148.457 142.088,148.601Z" style="fill:rgb(200,59,80);"/>
    </g>
    <g transform="matrix(0.931871,0,0,0.931871,6.79566,6.81298)">
        <path d="M59.988,148.923C59.851,148.938 59.455,149.011 59.102,149.075C58.595,149.169 58.481,149.221 58.51,149.307C58.545,149.423 59.504,153.823 59.743,154.958C59.816,155.292 59.909,155.575 59.959,155.596C60.105,155.648 61.137,155.198 61.656,154.858C62.335,154.402 62.954,153.712 63.286,153.033C63.554,152.489 63.56,152.46 63.56,151.676C63.56,150.967 63.539,150.83 63.382,150.511C63.035,149.8 62.254,149.213 61.425,149.031C61.014,148.946 60.306,148.894 59.988,148.923Z" style="fill:rgb(200,59,80);"/>
    </g>
    <g transform="matrix(0.931871,0,0,0.931871,6.79566,6.81298)">
        <path d="M91.981,102.679C91.991,102.684 93.138,103.372 93.147,103.377C94.336,104.103 94.604,105.735 93.893,106.942C93.187,108.139 91.567,108.341 90.368,107.655C90.351,107.651 89.404,107.083 89.39,107.074C88.183,106.358 87.781,104.788 88.495,103.576C89.212,102.36 90.774,101.962 91.981,102.679Z" style="fill:rgb(243,144,159);"/>
    </g>
    <g transform="matrix(0.931871,0,0,0.931871,6.79566,6.81298)">
        <path d="M71.61,87.049C71.62,84.513 74.944,83.748 76.185,85.548C76.963,86.669 77.157,88.704 79.914,92.516C80.905,93.891 81.803,95.222 83.208,96.492C84.175,97.367 85.426,98.203 86.941,99.058C89.249,100.358 87.838,104.575 84.773,103.584C83.517,103.184 82.176,102.319 80.98,101.339C79.435,100.078 78.169,98.713 76.968,97.212C74.75,94.441 71.6,88.894 71.61,87.049Z" style="fill:rgb(243,144,159);"/>
    </g>
    <g transform="matrix(0.931871,0,0,0.931871,6.79566,6.81298)">
        <path d="M111.998,102.663C111.988,102.669 110.841,103.356 110.832,103.362C109.643,104.087 109.375,105.72 110.086,106.927C110.792,108.124 112.411,108.326 113.611,107.639C113.628,107.636 114.575,107.067 114.589,107.059C115.796,106.342 116.198,104.772 115.484,103.561C114.767,102.345 113.205,101.947 111.998,102.663Z" style="fill:rgb(243,144,159);"/>
    </g>
    <g transform="matrix(0.931871,0,0,0.931871,6.79566,6.81298)">
        <path d="M132.028,86.668C132.018,84.132 128.694,83.367 127.453,85.168C126.675,86.288 126.481,88.324 123.724,92.135C122.733,93.51 121.835,94.841 120.43,96.111C119.463,96.987 118.212,97.822 116.697,98.677C114.389,99.978 115.8,104.194 118.865,103.204C120.121,102.803 121.462,101.938 122.658,100.958C124.203,99.697 125.469,98.332 126.67,96.831C128.888,94.061 132.038,88.514 132.028,86.668Z" style="fill:rgb(243,144,159);"/>
    </g>
</svg>
