<?xml version="1.0" encoding="UTF-8" standalone="no"?>
<!DOCTYPE svg PUBLIC "-//W3C//DTD SVG 1.1//EN" "http://www.w3.org/Graphics/SVG/1.1/DTD/svg11.dtd">
<svg width="100%" height="100%" viewBox="0 0 221 400" version="1.1" xmlns="http://www.w3.org/2000/svg" xmlns:xlink="http://www.w3.org/1999/xlink" xml:space="preserve" xmlns:serif="http://www.serif.com/" style="fill-rule:evenodd;clip-rule:evenodd;stroke-linejoin:round;stroke-miterlimit:2;">
    <g transform="matrix(1,0,0,1,-1080.09,-1128.84)">
        <g transform="matrix(4.16667,0,0,4.16667,1080.08,930.048)">
            <path d="M32.172,47.717C30.288,47.811 28.464,48.353 26.907,49.278C25.958,49.841 25.774,49.97 25.2,50.464C24.623,50.964 23.761,51.906 23.449,52.383L23.351,52.529L23.244,52.442C23.184,52.393 22.993,52.244 22.816,52.112C20.411,50.272 17.155,49.841 14.343,50.989C12.991,51.538 11.764,52.456 10.875,53.579C10.663,53.847 10.663,53.847 10.259,54.01C7.239,55.244 4.581,57.424 2.759,60.168C1.192,62.522 0.285,65.15 0.042,68.036C-0.035,68.919 0,70.408 0.115,71.357C0.577,75.223 2.44,78.857 5.307,81.489C6.562,82.643 7.74,83.453 9.234,84.187C11.111,85.108 12.929,85.619 15.052,85.821C15.539,85.866 15.601,85.88 15.657,85.95C16.227,86.656 17.189,87.643 17.818,88.168C18.312,88.582 19.077,89.138 19.542,89.42L19.97,89.681L22.788,92.483C25.69,95.372 25.812,95.48 26.298,95.696C26.41,95.745 26.632,95.828 26.799,95.877C27.07,95.96 27.15,95.971 27.654,95.967C28.113,95.967 28.259,95.957 28.478,95.894C28.794,95.807 29.19,95.63 29.468,95.449C29.593,95.366 30.636,94.357 32.276,92.726L34.883,90.133L35.421,89.837C36.971,88.985 38.379,87.831 39.661,86.36C40.193,85.752 40.947,84.688 41.298,84.048C41.437,83.794 41.444,83.787 41.774,83.61C43.262,82.814 44.43,81.941 45.643,80.731C49.048,77.316 50.72,72.612 50.241,67.779C49.869,64.017 48.183,60.512 45.479,57.883C44.989,57.407 44.402,56.896 43.967,56.569L43.776,56.423L43.662,56.016C43.238,54.493 42.41,52.939 41.382,51.736C39.491,49.521 36.923,48.137 34.049,47.786C33.618,47.734 32.599,47.696 32.172,47.717Z" style="fill:rgb(255,230,157);"/>
        </g>
        <g transform="matrix(4.16667,0,0,4.16667,1080.08,930.048)">
            <path d="M32.172,47.717C30.288,47.811 28.464,48.353 26.907,49.278C25.958,49.841 25.774,49.97 25.2,50.464C24.623,50.964 23.761,51.906 23.449,52.383L23.351,52.529L23.244,52.442C23.184,52.393 22.993,52.244 22.816,52.112C20.411,50.272 17.155,49.841 14.343,50.989C12.991,51.538 11.764,52.456 10.875,53.579C10.663,53.847 10.663,53.847 10.259,54.01C7.239,55.244 4.581,57.424 2.759,60.168C1.192,62.522 0.285,65.15 0.042,68.036C-0.035,68.919 0,70.408 0.115,71.357C0.577,75.223 2.44,78.857 5.307,81.489C6.562,82.643 7.74,83.453 9.234,84.187C11.111,85.108 12.929,85.619 15.052,85.821C15.539,85.866 15.601,85.88 15.657,85.95C16.227,86.656 17.189,87.643 17.818,88.168C18.312,88.582 19.077,89.138 19.542,89.42L19.97,89.681L22.788,92.483C25.69,95.372 25.812,95.48 26.298,95.696C26.41,95.745 26.632,95.828 26.799,95.877C27.07,95.96 27.15,95.971 27.654,95.967C28.113,95.967 28.259,95.957 28.478,95.894C28.794,95.807 29.19,95.63 29.468,95.449C29.593,95.366 30.636,94.357 32.276,92.726L34.883,90.133L35.421,89.837C36.971,88.985 38.379,87.831 39.661,86.36C40.193,85.752 40.947,84.688 41.298,84.048C41.437,83.794 41.444,83.787 41.774,83.61C43.262,82.814 44.43,81.941 45.643,80.731C49.048,77.316 50.72,72.612 50.241,67.779C49.869,64.017 48.183,60.512 45.479,57.883C44.989,57.407 44.402,56.896 43.967,56.569L43.776,56.423L43.662,56.016C43.238,54.493 42.41,52.939 41.382,51.736C39.491,49.521 36.923,48.137 34.049,47.786C33.618,47.734 32.599,47.696 32.172,47.717ZM33.91,50.283C35.428,50.509 36.801,51.069 37.979,51.952C39.741,53.266 40.892,55.05 41.403,57.258C41.531,57.817 41.628,57.953 42.233,58.398C43.766,59.535 45.027,60.922 45.948,62.487C46.178,62.876 46.595,63.711 46.779,64.142C47.339,65.47 47.676,66.889 47.797,68.436C47.842,69.006 47.822,70.31 47.759,70.835C47.394,73.951 46.112,76.663 43.971,78.864C43.54,79.305 42.796,79.983 42.772,79.955C42.765,79.948 42.779,79.799 42.8,79.622C42.859,79.097 42.751,78.742 42.438,78.45C42.237,78.262 42.059,78.172 41.799,78.123C41.26,78.022 40.707,78.318 40.478,78.825C40.433,78.93 40.374,79.173 40.339,79.399C40.186,80.484 39.404,82.438 38.713,83.474C37.726,84.952 36.509,86.169 35.039,87.149C33.364,88.265 31.585,88.93 29.461,89.232C28.933,89.305 27.358,89.336 26.764,89.284C23.807,89.017 21.172,87.862 19.004,85.877C17.631,84.625 16.526,82.9 16.07,81.311C15.942,80.863 15.903,80.675 15.837,80.171C15.775,79.684 15.657,79.413 15.413,79.197C15.191,79.003 14.979,78.916 14.687,78.895C14.075,78.85 13.554,79.225 13.401,79.82C13.356,80.008 13.353,80.091 13.387,80.425C13.467,81.204 13.679,82.066 13.978,82.827C14.055,83.019 14.11,83.179 14.107,83.182C14.103,83.186 13.957,83.161 13.787,83.126C9.432,82.233 5.811,79.42 3.886,75.442C3.389,74.413 3.072,73.509 2.829,72.435C2.071,69.086 2.582,65.512 4.243,62.525C4.588,61.906 5.137,61.089 5.588,60.526C6.068,59.924 7.118,58.874 7.722,58.395C8.198,58.012 8.793,57.588 8.817,57.612C8.824,57.619 8.807,57.842 8.775,58.109C8.727,58.516 8.727,58.68 8.758,59.1C8.779,59.379 8.821,59.685 8.852,59.778C8.98,60.168 9.318,60.474 9.735,60.582C10.277,60.717 10.875,60.436 11.128,59.917C11.212,59.751 11.215,59.716 11.215,59.013C11.219,58.44 11.233,58.221 11.281,57.988C11.455,57.174 11.858,56.371 12.487,55.589C12.602,55.446 12.779,55.217 12.88,55.084C12.981,54.949 13.214,54.699 13.394,54.528C15.014,52.995 17.273,52.47 19.414,53.123C20.394,53.422 21.384,54.041 22.031,54.754L22.173,54.911L22.09,55.189C21.888,55.86 21.766,56.698 21.763,57.431C21.763,58.857 22.111,60.217 22.854,61.705C23.202,62.397 23.546,62.657 24.109,62.661C24.338,62.661 24.422,62.647 24.589,62.57C24.96,62.397 25.165,62.167 25.277,61.799C25.402,61.395 25.37,61.228 25.019,60.498C24.411,59.236 24.203,58.356 24.241,57.258C24.286,56.124 24.609,55.171 25.304,54.139C26.184,52.838 27.365,51.806 28.766,51.121C29.054,50.982 29.444,50.808 29.635,50.738C30.257,50.505 31.147,50.307 31.859,50.234C32.287,50.192 33.486,50.22 33.91,50.283Z" style="fill:rgb(200,59,80);fill-rule:nonzero;"/>
        </g>
        <g transform="matrix(4.16667,0,0,4.16667,1080.08,945.61)">
            <path d="M33.864,67.917C33.482,68.018 33.214,68.178 32.916,68.474C32.478,68.905 32.29,69.364 32.29,69.986C32.287,70.727 32.638,71.367 33.267,71.773C33.579,71.975 33.85,72.059 34.264,72.079C34.716,72.104 34.973,72.055 35.345,71.878C35.686,71.714 36.071,71.356 36.245,71.047C36.718,70.205 36.579,69.148 35.915,68.481C35.512,68.081 35.06,67.886 34.483,67.862C34.195,67.851 34.066,67.862 33.864,67.917Z" style="fill:rgb(200,59,80);"/>
        </g>
        <g transform="matrix(4.16667,0,0,4.16667,1080.08,946.473)">
            <path d="M18.399,67.794C17.822,67.936 17.266,68.388 17.009,68.927C16.842,69.278 16.793,69.494 16.793,69.877C16.793,70.443 16.998,70.94 17.398,71.344C17.69,71.639 17.999,71.82 18.374,71.918C19.115,72.109 19.872,71.9 20.411,71.365C20.946,70.829 21.151,70.068 20.964,69.331C20.866,68.945 20.706,68.673 20.408,68.368C20.199,68.155 20.088,68.072 19.852,67.961C19.688,67.884 19.473,67.804 19.372,67.783C19.129,67.735 18.632,67.738 18.399,67.794Z" style="fill:rgb(200,59,80);"/>
        </g>
        <g transform="matrix(4.16667,0,0,4.16667,1080.08,1007.48)">
            <path d="M21.242,59.91C21.242,60.018 21.409,60.668 21.523,61.013C22.215,63.05 23.789,64.584 25.683,65.06C26.49,65.262 27.39,65.262 28.21,65.06C29.993,64.615 31.525,63.2 32.248,61.326C32.433,60.853 32.638,60.119 32.641,59.924C32.641,59.893 31.477,59.883 26.941,59.883C23.807,59.883 21.242,59.897 21.242,59.91Z" style="fill:rgb(200,59,80);"/>
        </g>
        <g transform="matrix(4.16667,0,0,4.16667,1080.08,1350.17)">
            <path d="M17.339,0.05C15.479,0.29 13.843,1.316 12.821,2.88C12.633,3.169 12.293,3.83 12.213,4.059C12.185,4.139 12.16,4.163 12.129,4.143C12.105,4.129 11.976,4.042 11.841,3.955C11.326,3.614 10.739,3.371 10.082,3.221C9.766,3.152 9.634,3.141 9.026,3.145C8.456,3.145 8.271,3.159 8,3.221C5.919,3.68 4.382,5.273 4,7.366C3.924,7.786 3.941,8.833 4.031,9.243C4.073,9.424 4.459,10.652 4.89,11.969C5.317,13.287 5.665,14.375 5.654,14.389C5.648,14.403 5.449,14.448 5.213,14.49C3.715,14.768 3.01,15.175 2.61,16.006C2.315,16.622 2.287,17.032 2.485,18.026C2.554,18.374 2.714,19.226 2.839,19.921C3.441,23.256 3.899,25.693 4.025,26.194C4.157,26.736 4.4,27.192 4.754,27.564L5.043,27.87L4.991,28.04C4.907,28.304 4.89,28.829 4.952,29.097C5.081,29.636 6.586,34.306 6.708,34.539C6.954,35.004 7.451,35.397 7.976,35.533C8.362,35.637 8.678,35.616 10.252,35.394C11.048,35.279 11.865,35.164 12.067,35.14L12.432,35.095L13.203,37.459C13.631,38.76 14.082,40.161 14.207,40.571C14.333,40.981 14.475,41.437 14.524,41.579C14.736,42.191 15.003,42.574 15.351,42.755L15.525,42.849L27.793,42.849C39.8,42.849 40.065,42.849 40.235,42.782C40.329,42.744 40.482,42.643 40.572,42.56C40.864,42.289 41.034,41.917 41.326,40.936C41.5,40.352 43.22,35.05 43.245,35.025C43.265,35.008 44.697,35.223 45.872,35.422C47.012,35.613 47.373,35.637 47.738,35.543C48.416,35.37 49.01,34.796 49.198,34.139C49.26,33.92 50.011,29.101 50.039,28.732C50.049,28.596 50.046,28.402 50.029,28.297L50.001,28.106L50.157,27.981C50.762,27.501 51.217,26.809 51.408,26.082C51.62,25.262 51.419,24.285 50.918,23.715L50.81,23.593L50.908,23.52C51.294,23.238 51.808,22.696 52.128,22.24C52.93,21.093 53.181,19.487 52.781,18.092C52.663,17.675 52.294,16.945 52.016,16.569C51.54,15.93 50.877,15.332 50.209,14.942C50.008,14.824 49.851,14.72 49.858,14.706C49.9,14.636 51.53,9.595 51.582,9.365C51.937,7.87 51.558,6.239 50.571,5.019C49.83,4.101 48.826,3.489 47.61,3.225C47.109,3.113 46.098,3.113 45.594,3.221C44.944,3.364 44.266,3.645 43.783,3.969L43.543,4.129L43.272,3.583C42.876,2.79 42.431,2.202 41.799,1.636C39.926,-0.04 37.149,-0.433 34.865,0.659C34.156,0.996 33.614,1.382 33.048,1.952C32.745,2.258 32.241,2.905 32.144,3.113C32.123,3.159 32.099,3.193 32.085,3.193C32.071,3.193 31.974,3.079 31.87,2.94C31.327,2.22 30.511,1.608 29.67,1.284C27.772,0.558 25.666,0.992 24.238,2.401C24.074,2.561 23.869,2.787 23.775,2.908L23.608,3.127L23.556,3.03C23.449,2.825 23.077,2.338 22.785,2.022C21.415,0.537 19.355,-0.207 17.339,0.05Z" style="fill:white;"/>
        </g>
        <g transform="matrix(4.16667,0,0,4.16667,1080.08,1350.17)">
            <path d="M17.339,0.05C15.479,0.29 13.843,1.316 12.821,2.88C12.633,3.169 12.293,3.83 12.213,4.059C12.185,4.139 12.16,4.163 12.129,4.143C12.105,4.129 11.976,4.042 11.841,3.955C11.326,3.614 10.739,3.371 10.082,3.221C9.766,3.152 9.634,3.141 9.026,3.145C8.456,3.145 8.271,3.159 8,3.221C5.919,3.68 4.382,5.273 4,7.366C3.924,7.786 3.941,8.833 4.031,9.243C4.073,9.424 4.459,10.652 4.89,11.969C5.317,13.287 5.665,14.375 5.654,14.389C5.648,14.403 5.449,14.448 5.213,14.49C3.715,14.768 3.01,15.175 2.61,16.006C2.315,16.622 2.287,17.032 2.485,18.026C2.554,18.374 2.714,19.226 2.839,19.921C3.441,23.256 3.899,25.693 4.025,26.194C4.157,26.736 4.4,27.192 4.754,27.564L5.043,27.87L4.991,28.04C4.907,28.304 4.89,28.829 4.952,29.097C5.081,29.636 6.586,34.306 6.708,34.539C6.954,35.004 7.451,35.397 7.976,35.533C8.362,35.637 8.678,35.616 10.252,35.394C11.048,35.279 11.865,35.164 12.067,35.14L12.432,35.095L13.203,37.459C13.631,38.76 14.082,40.161 14.207,40.571C14.333,40.981 14.475,41.437 14.524,41.579C14.736,42.191 15.003,42.574 15.351,42.755L15.525,42.849L27.793,42.849C39.8,42.849 40.065,42.849 40.235,42.782C40.329,42.744 40.482,42.643 40.572,42.56C40.864,42.289 41.034,41.917 41.326,40.936C41.5,40.352 43.22,35.05 43.245,35.025C43.265,35.008 44.697,35.223 45.872,35.422C47.012,35.613 47.373,35.637 47.738,35.543C48.416,35.37 49.01,34.796 49.198,34.139C49.26,33.92 50.011,29.101 50.039,28.732C50.049,28.596 50.046,28.402 50.029,28.297L50.001,28.106L50.157,27.981C50.762,27.501 51.217,26.809 51.408,26.082C51.62,25.262 51.419,24.285 50.918,23.715L50.81,23.593L50.908,23.52C51.294,23.238 51.808,22.696 52.128,22.24C52.93,21.093 53.181,19.487 52.781,18.092C52.663,17.675 52.294,16.945 52.016,16.569C51.54,15.93 50.877,15.332 50.209,14.942C50.008,14.824 49.851,14.72 49.858,14.706C49.9,14.636 51.53,9.595 51.582,9.365C51.937,7.87 51.558,6.239 50.571,5.019C49.83,4.101 48.826,3.489 47.61,3.225C47.109,3.113 46.098,3.113 45.594,3.221C44.944,3.364 44.266,3.645 43.783,3.969L43.543,4.129L43.272,3.583C42.876,2.79 42.431,2.202 41.799,1.636C39.926,-0.04 37.149,-0.433 34.865,0.659C34.156,0.996 33.614,1.382 33.048,1.952C32.745,2.258 32.241,2.905 32.144,3.113C32.123,3.159 32.099,3.193 32.085,3.193C32.071,3.193 31.974,3.079 31.87,2.94C31.327,2.22 30.511,1.608 29.67,1.284C27.772,0.558 25.666,0.992 24.238,2.401C24.074,2.561 23.869,2.787 23.775,2.908L23.608,3.127L23.556,3.03C23.449,2.825 23.077,2.338 22.785,2.022C21.415,0.537 19.355,-0.207 17.339,0.05ZM18.781,2.55C20.289,2.811 21.548,3.983 21.885,5.433C21.93,5.627 22.701,11.959 22.701,12.136C22.701,12.185 22.674,12.199 22.569,12.199C22.33,12.199 21.627,12.303 21.388,12.376C21.04,12.484 20.734,12.668 20.449,12.943C20.157,13.225 19.977,13.499 19.852,13.857L19.761,14.111L19.521,13.934C18.882,13.468 18.083,13.12 17.283,12.96C17.012,12.908 16.755,12.884 16.324,12.877L15.733,12.87L15.028,9.935L14.319,7.001L14.315,6.375C14.308,5.815 14.319,5.714 14.392,5.436C14.75,4.077 15.751,3.037 17.071,2.651C17.235,2.602 17.454,2.55 17.558,2.536C17.874,2.488 18.468,2.494 18.781,2.55ZM38.455,2.637C39.846,2.95 40.958,4.045 41.333,5.471C41.406,5.745 41.416,5.86 41.416,6.392L41.413,7.001L40.739,9.817C40.37,11.364 40.061,12.64 40.054,12.647C40.047,12.658 39.759,12.637 39.408,12.606C38.32,12.505 37.826,12.536 37.309,12.745C36.919,12.901 36.502,13.214 36.262,13.53L36.189,13.631L36.023,13.492C35.362,12.939 34.493,12.529 33.493,12.3C33.246,12.241 33.037,12.188 33.03,12.185C33.02,12.171 33.732,6.138 33.788,5.759C34.024,4.174 35.355,2.849 36.975,2.585C37.375,2.519 38.045,2.543 38.455,2.637ZM31.651,14.042C32.356,14.076 32.669,14.118 33.18,14.25C33.854,14.417 34.354,14.671 34.865,15.099C35.922,15.982 36.186,17.602 35.512,19.035C35.088,19.935 34.396,20.627 33.44,21.114C32.832,21.42 32.294,21.59 31.522,21.708C31.362,21.733 31.369,21.705 31.324,22.689C31.282,23.607 31.23,23.746 30.896,23.92C30.723,24.01 29.968,24.017 29.694,23.934C29.492,23.871 29.294,23.718 29.211,23.555C29.089,23.318 29.12,22.647 29.496,17.588C29.562,16.698 29.642,15.603 29.67,15.154C29.701,14.706 29.743,14.292 29.763,14.24C29.812,14.111 29.937,14.031 30.135,14C30.292,13.976 30.479,13.982 31.651,14.042ZM25.082,14.215C25.979,14.358 26.695,14.699 27.237,15.241C27.595,15.599 27.842,16.044 28.005,16.635C28.078,16.907 28.109,17.713 28.057,18.026C27.96,18.59 27.734,19.163 27.418,19.65C26.771,20.644 25.642,21.406 24.304,21.743C24.126,21.788 23.973,21.83 23.966,21.837C23.959,21.844 23.97,22.223 23.991,22.678C24.029,23.642 24.015,23.722 23.8,23.937C23.608,24.132 23.452,24.17 22.875,24.174C22.455,24.177 22.392,24.17 22.26,24.101C22.069,23.996 21.923,23.812 21.874,23.614C21.815,23.36 21.801,22.866 21.763,20.074C21.746,18.659 21.721,16.827 21.707,16.003L21.687,14.504L21.78,14.396C21.836,14.33 21.93,14.271 22.017,14.247C22.187,14.198 23.848,14.122 24.335,14.139C24.516,14.146 24.853,14.181 25.082,14.215ZM39.21,14.563C40.436,14.678 42.949,14.97 43.231,15.033C43.439,15.078 43.54,15.478 43.481,16.006C43.401,16.719 43.137,17.23 42.866,17.188C42.814,17.181 42.633,17.154 42.459,17.133C42.289,17.112 41.903,17.049 41.608,16.994C40.329,16.757 39.627,16.635 39.609,16.653C39.602,16.663 39.522,17.122 39.432,17.672C39.321,18.37 39.283,18.683 39.31,18.697C39.331,18.711 39.877,18.788 40.52,18.871C41.166,18.955 41.736,19.042 41.788,19.069C41.931,19.142 42,19.309 42.018,19.615C42.042,20.039 41.92,20.544 41.715,20.839C41.628,20.968 41.608,20.978 41.444,20.989C41.27,20.999 40.19,20.829 39.408,20.669C39.119,20.613 38.991,20.599 38.984,20.627C38.945,20.745 38.758,22.31 38.758,22.498C38.758,22.592 38.761,22.595 38.959,22.595C39.616,22.595 41.934,22.877 42.251,22.995C42.327,23.023 42.41,23.082 42.438,23.124C42.504,23.231 42.494,23.499 42.407,23.934C42.285,24.542 42.122,24.928 41.934,25.05C41.823,25.123 41.653,25.105 40.895,24.942C40.117,24.775 39.338,24.664 38.494,24.594C38.111,24.563 37.673,24.525 37.517,24.507C36.996,24.448 36.659,24.208 36.544,23.812C36.447,23.471 36.492,22.971 36.895,20.05C37.02,19.16 37.18,18.071 37.246,17.633C37.416,16.555 37.743,14.887 37.806,14.768C37.878,14.622 38.122,14.514 38.393,14.497C38.435,14.497 38.799,14.525 39.21,14.563ZM16.977,14.911C18.649,15.279 20.025,16.841 20.425,18.826C20.696,20.151 20.571,21.392 20.06,22.477C19.351,23.986 18.135,24.824 16.654,24.82C15.622,24.817 14.729,24.403 13.902,23.537C13.144,22.748 12.689,21.82 12.459,20.596C12.386,20.196 12.362,19.268 12.411,18.854C12.65,16.91 13.877,15.325 15.431,14.946C15.577,14.911 15.73,14.873 15.768,14.866C15.973,14.82 16.689,14.848 16.977,14.911ZM47.099,15.898C48.138,16.159 48.367,16.239 48.906,16.514C49.622,16.879 50.119,17.313 50.512,17.915C50.963,18.617 51.092,19.407 50.887,20.21C50.665,21.079 49.987,21.858 49.038,22.338C48.704,22.505 47.905,22.783 47.648,22.821C47.554,22.835 47.481,22.852 47.481,22.856C47.481,22.873 47.703,23.259 47.801,23.412C48.075,23.847 48.697,24.497 49.114,24.786C49.236,24.872 49.375,24.998 49.42,25.064C49.493,25.171 49.5,25.213 49.486,25.418C49.448,26.006 48.868,26.628 48.36,26.628C48.068,26.628 47.613,26.354 47.137,25.888C46.72,25.481 46.355,24.942 45.858,23.993C45.733,23.756 45.625,23.569 45.618,23.576C45.615,23.583 45.524,23.934 45.42,24.358C45.212,25.227 45.159,25.331 44.895,25.464C44.687,25.568 44.565,25.571 44.138,25.484C43.738,25.404 43.498,25.286 43.331,25.095C43.046,24.761 43.078,24.577 43.967,21.364C44.235,20.408 44.517,19.372 44.596,19.066C44.909,17.859 45.403,16.034 45.451,15.891C45.483,15.811 45.538,15.721 45.58,15.69C45.712,15.596 46.122,15.651 47.099,15.898ZM8.456,16.215C8.859,16.284 9.137,16.378 9.557,16.587C10.322,16.966 10.847,17.654 11.1,18.61C11.205,18.996 11.212,19.869 11.114,20.283C10.968,20.919 10.736,21.441 10.371,21.948C10.103,22.317 9.481,22.911 9.057,23.193C8.737,23.409 8.153,23.718 7.9,23.805C7.809,23.836 7.792,23.857 7.809,23.923C7.91,24.379 8.139,25.526 8.139,25.592C8.139,25.69 8.018,25.957 7.938,26.048C7.785,26.218 7.218,26.392 6.801,26.399C6.579,26.402 6.496,26.388 6.384,26.326C6.099,26.176 6.009,25.992 5.866,25.304C5.766,24.806 5.151,21.5 4.838,19.761C4.72,19.111 4.563,18.259 4.487,17.866C4.414,17.477 4.351,17.105 4.351,17.042C4.351,16.875 4.49,16.736 4.744,16.653C4.994,16.569 6.346,16.281 6.801,16.215C7.243,16.152 8.101,16.152 8.456,16.215ZM28.811,26.246L29.687,26.246L29.687,28.012C29.687,29.991 29.677,29.904 29.944,30.119C30.045,30.199 30.114,30.227 30.271,30.237C30.531,30.255 30.726,30.164 30.858,29.959L30.955,29.813L30.966,28.064L30.976,26.315L31.227,26.315C31.546,26.315 32.801,26.378 33.086,26.406L33.301,26.427L33.301,30.891L33.388,31.065C33.493,31.27 33.663,31.395 33.871,31.416C34.149,31.447 34.396,31.319 34.518,31.075C34.584,30.947 34.587,30.863 34.587,28.732L34.587,26.524L34.737,26.524C34.872,26.524 35.268,26.562 36.332,26.667L36.739,26.708L36.749,28.263L36.759,29.813L36.857,29.959C37.128,30.373 37.76,30.328 37.962,29.883C38.021,29.751 38.028,29.632 38.028,28.29L38.028,26.844L38.16,26.861C38.23,26.872 38.671,26.927 39.14,26.986L39.992,27.098L40.026,30.922L40.12,31.079C40.37,31.507 40.986,31.507 41.225,31.079L41.312,30.922L41.33,29.111L41.347,27.303L42.258,27.449C42.754,27.529 43.224,27.609 43.3,27.626L43.432,27.658L43.45,28.767C43.467,29.838 43.47,29.883 43.543,30.001C43.762,30.352 44.329,30.384 44.579,30.057C44.711,29.883 44.732,29.692 44.735,28.77L44.735,27.904L44.895,27.929C45.146,27.96 47.922,28.565 47.961,28.596C47.971,28.603 47.255,33.315 47.22,33.464C47.203,33.537 47.196,33.534 46.206,33.367C41.555,32.584 36.721,32.119 31.755,31.979C30.017,31.931 25.426,31.959 23.814,32.032C18.979,32.247 14.246,32.696 9.564,33.388C9.001,33.471 8.536,33.534 8.529,33.53C8.497,33.502 6.989,28.673 7.006,28.655C7.038,28.624 9.283,28.106 10.162,27.929L10.256,27.911L10.277,29.775L10.371,29.938C10.576,30.283 11.055,30.352 11.351,30.078C11.538,29.9 11.545,29.852 11.545,28.715C11.545,27.901 11.556,27.664 11.59,27.654C11.677,27.619 13.439,27.331 13.467,27.348C13.481,27.355 13.492,28.165 13.492,29.149C13.492,30.331 13.505,30.968 13.53,31.034C13.61,31.246 13.877,31.427 14.117,31.427C14.267,31.427 14.489,31.326 14.593,31.215C14.76,31.03 14.76,31.034 14.77,29.017C14.781,27.254 14.784,27.115 14.84,27.115C14.871,27.112 15.334,27.053 15.862,26.983L16.824,26.851L16.835,28.311L16.845,29.775L16.939,29.938C17.2,30.38 17.895,30.328 18.076,29.852C18.1,29.789 18.114,29.226 18.114,28.242C18.114,27.063 18.124,26.726 18.159,26.715C18.18,26.708 18.531,26.67 18.931,26.632C19.334,26.59 19.744,26.552 19.845,26.541L20.025,26.524L20.025,28.669C20.025,30.123 20.039,30.863 20.064,30.957C20.119,31.166 20.359,31.381 20.564,31.413C20.859,31.454 21.113,31.329 21.242,31.075C21.308,30.947 21.311,30.863 21.311,28.701C21.311,27.466 21.322,26.451 21.339,26.444C21.353,26.434 21.676,26.409 22.058,26.388C22.441,26.368 22.882,26.343 23.042,26.333L23.327,26.315L23.327,28.026C23.327,29.699 23.327,29.74 23.4,29.89C23.511,30.112 23.699,30.227 23.97,30.227C24.217,30.227 24.37,30.144 24.512,29.938L24.595,29.813L24.606,28.05L24.616,26.288L24.693,26.267C24.734,26.256 25.134,26.246 25.576,26.246L26.385,26.246L26.392,28.638L26.403,31.034L26.503,31.162C26.788,31.538 27.338,31.493 27.584,31.075C27.65,30.961 27.654,30.884 27.664,28.579L27.675,26.201L27.803,26.225C27.873,26.235 28.328,26.246 28.811,26.246ZM33.43,34.093C34.202,34.125 34.848,34.163 34.869,34.177C34.9,34.194 34.758,34.841 34.379,36.423C34.09,37.643 33.798,38.892 33.732,39.194C33.597,39.841 33.489,40.185 33.416,40.213C33.246,40.279 30.326,39.771 29.889,39.601C29.795,39.566 29.791,39.556 29.791,39.302C29.791,39.159 29.822,38.84 29.861,38.596C29.93,38.186 30.417,34.18 30.417,34.052C30.417,33.996 30.479,33.993 31.227,34.014C31.668,34.024 32.662,34.062 33.43,34.093ZM25.322,34.163C25.332,34.236 25.44,35.091 25.555,36.068C25.774,37.883 25.836,38.801 25.777,39.337C25.756,39.532 25.742,39.57 25.676,39.598C25.635,39.611 25.158,39.691 24.623,39.768C24.085,39.848 23.476,39.942 23.268,39.98C22.555,40.112 22.204,40.157 22.18,40.119C22.166,40.098 22.107,39.806 22.045,39.465C21.982,39.128 21.687,37.821 21.388,36.566C21.092,35.307 20.856,34.271 20.866,34.26C20.898,34.226 24.064,34.059 25.037,34.041L25.301,34.034L25.322,34.163Z" style="fill:rgb(200,59,80);fill-rule:nonzero;"/>
        </g>
        <g transform="matrix(4.16667,0,0,4.16667,1080.08,1320.04)">
            <path d="M31.585,23.571C31.578,23.637 31.55,24.235 31.529,24.906C31.508,25.573 31.484,26.237 31.47,26.373L31.449,26.627L31.574,26.627C31.932,26.627 32.492,26.46 32.846,26.248C33.562,25.817 33.885,25.094 33.645,24.454C33.541,24.172 33.256,23.877 32.94,23.724C32.617,23.567 32.353,23.501 31.939,23.473L31.602,23.452L31.585,23.571Z" style="fill:rgb(200,59,80);"/>
        </g>
        <g transform="matrix(4.16667,0,0,4.16667,1080.08,1320.88)">
            <path d="M23.824,23.356C23.72,23.37 23.709,23.38 23.709,23.491C23.709,23.613 23.793,25.39 23.834,26.141L23.855,26.534L23.984,26.51C24.999,26.339 25.791,25.71 25.937,24.959C26.073,24.263 25.614,23.634 24.818,23.415C24.623,23.363 24.019,23.325 23.824,23.356Z" style="fill:rgb(200,59,80);"/>
        </g>
        <g transform="matrix(4.16667,0,0,4.16667,1080.08,1336.89)">
            <path d="M15.9,19.994C15.149,20.195 14.562,20.991 14.378,22.059C14.225,22.921 14.374,23.891 14.781,24.67C15.528,26.099 16.877,26.52 17.798,25.609C18.611,24.806 18.878,23.311 18.441,21.979C17.989,20.595 16.88,19.729 15.9,19.994Z" style="fill:rgb(200,59,80);"/>
        </g>
        <g transform="matrix(4.16667,0,0,4.16667,1080.08,1334.91)">
            <path d="M46.873,21.848C46.862,21.893 46.72,22.523 46.56,23.249C46.397,23.976 46.254,24.595 46.244,24.626C46.233,24.668 46.254,24.692 46.317,24.706C46.487,24.748 47.12,24.731 47.356,24.678C47.936,24.543 48.423,24.195 48.635,23.76C48.736,23.559 48.75,23.496 48.75,23.249C48.75,23.016 48.732,22.94 48.652,22.773C48.423,22.304 47.787,21.921 47.022,21.789C46.908,21.772 46.89,21.779 46.873,21.848Z" style="fill:rgb(200,59,80);"/>
        </g>
        <g transform="matrix(4.16667,0,0,4.16667,1080.08,1337.8)">
            <path d="M7.34,21.309C7.274,21.316 7.083,21.351 6.913,21.382C6.669,21.427 6.614,21.452 6.628,21.493C6.645,21.549 7.107,23.66 7.222,24.205C7.257,24.365 7.302,24.501 7.326,24.511C7.396,24.536 7.893,24.32 8.143,24.157C8.47,23.938 8.768,23.607 8.928,23.281C9.057,23.02 9.06,23.006 9.06,22.63C9.06,22.29 9.05,22.224 8.974,22.071C8.807,21.73 8.431,21.448 8.032,21.361C7.834,21.32 7.493,21.295 7.34,21.309Z" style="fill:rgb(200,59,80);"/>
        </g>
        <g transform="matrix(0.95731,0.56627,-0.56627,0.95731,804.214,-609.905)">
            <path d="M1176.67,1334.7C1176.69,1334.7 1179.1,1334.71 1179.12,1334.71C1181.63,1334.74 1183.54,1337.02 1183.54,1339.54C1183.54,1342.04 1181.21,1343.84 1178.72,1343.88C1178.69,1343.89 1176.7,1343.88 1176.67,1343.88C1174.14,1343.88 1172.08,1341.82 1172.08,1339.29C1172.08,1336.75 1174.14,1334.7 1176.67,1334.7Z" style="fill:rgb(243,144,159);"/>
        </g>
        <path d="M1133.98,1302.88C1134,1297.81 1140.67,1296.28 1143.16,1299.88C1144.72,1302.12 1145.11,1306.19 1150.64,1313.81C1152.63,1316.56 1154.43,1319.22 1157.25,1321.76C1159.19,1323.51 1161.7,1325.18 1164.74,1326.89C1169.37,1329.49 1166.54,1337.92 1160.39,1335.94C1157.87,1335.14 1155.18,1333.41 1152.78,1331.45C1149.68,1328.93 1147.14,1326.2 1144.73,1323.2C1140.28,1317.66 1133.96,1306.57 1133.98,1302.88Z" style="fill:rgb(243,144,159);"/>
        <g transform="matrix(-0.95731,0.56627,0.56627,0.95731,1585.65,-609.936)">
            <path d="M1176.67,1334.7C1176.69,1334.7 1179.1,1334.71 1179.12,1334.71C1181.63,1334.74 1183.54,1337.02 1183.54,1339.54C1183.54,1342.04 1181.21,1343.84 1178.72,1343.88C1178.69,1343.89 1176.7,1343.88 1176.67,1343.88C1174.14,1343.88 1172.08,1341.82 1172.08,1339.29C1172.08,1336.75 1174.14,1334.7 1176.67,1334.7Z" style="fill:rgb(243,144,159);"/>
        </g>
        <g transform="matrix(-1,0,0,1,2389.18,-0.761276)">
            <path d="M1133.98,1302.88C1134,1297.81 1140.67,1296.28 1143.16,1299.88C1144.72,1302.12 1145.11,1306.19 1150.64,1313.81C1152.63,1316.56 1154.43,1319.22 1157.25,1321.76C1159.19,1323.51 1161.7,1325.18 1164.74,1326.89C1169.37,1329.49 1166.54,1337.92 1160.39,1335.94C1157.87,1335.14 1155.18,1333.41 1152.78,1331.45C1149.68,1328.93 1147.14,1326.2 1144.73,1323.2C1140.28,1317.66 1133.96,1306.57 1133.98,1302.88Z" style="fill:rgb(243,144,159);"/>
        </g>
    </g>
</svg>
