<svg width="1440" height="653" viewBox="0 0 1440 653" fill="none" xmlns="http://www.w3.org/2000/svg">
<g style="mix-blend-mode:lighten" opacity="0.1">
<g clip-path="url(#clip0)">
<path d="M1993.71 0H-553.71V1998.63H1993.71V0Z" fill="#2C4B95"/>
<path fill-rule="evenodd" clip-rule="evenodd" d="M720 302.676C550.293 219.963 310.294 102.99 0 -48.2427H180C406.663 88.4435 586.663 205.417 720 302.676Z" fill="#FFFCE1"/>
<path fill-rule="evenodd" clip-rule="evenodd" d="M720 302.676C628.157 194.607 508.156 77.6345 360 -48.2427H540C613.178 70.9776 673.178 187.951 720 302.676Z" fill="#FFFCE1"/>
<path fill-rule="evenodd" clip-rule="evenodd" d="M720 302.676C720 185.703 720 68.7303 720 -48.2427H900C826.822 70.9776 766.822 187.951 720 302.676Z" fill="#FFFCE1"/>
<path fill-rule="evenodd" clip-rule="evenodd" d="M720 302.676C811.843 194.607 931.844 77.6345 1080 -48.2427H1260C1033.34 88.4435 853.337 205.417 720 302.676Z" fill="#FFFCE1"/>
<path fill-rule="evenodd" clip-rule="evenodd" d="M720 302.676C889.707 219.963 1129.71 102.99 1440 -48.2427V39.4869C1159.55 149.959 919.552 237.689 720 302.676Z" fill="#FFFCE1"/>
<path fill-rule="evenodd" clip-rule="evenodd" d="M360 653H180C406.663 516.429 586.663 399.555 720 302.379C628.157 410.355 508.156 527.229 360 653Z" fill="#FFFCE1"/>
<path fill-rule="evenodd" clip-rule="evenodd" d="M0 653V565.345C280.447 454.966 520.448 367.31 720 302.379C550.293 385.021 310.294 501.895 0 653Z" fill="#FFFCE1"/>
<path fill-rule="evenodd" clip-rule="evenodd" d="M0 477.689V390.034C244.611 354.398 484.612 325.18 720 302.379C498.27 347.104 258.27 405.541 0 477.689Z" fill="#FFFCE1"/>
<path fill-rule="evenodd" clip-rule="evenodd" d="M0 302.379V214.723C244.611 250.359 484.612 279.578 720 302.379C480 302.379 240 302.379 0 302.379Z" fill="#FFFCE1"/>
<path fill-rule="evenodd" clip-rule="evenodd" d="M0 127.068V39.4126C280.447 149.792 520.448 237.447 720 302.379C498.27 257.653 258.27 199.216 0 127.068Z" fill="#FFFCE1"/>
<path fill-rule="evenodd" clip-rule="evenodd" d="M720 302.379C941.73 257.526 1181.73 198.922 1440 126.568V214.474C1195.39 250.211 955.388 279.513 720 302.379Z" fill="#FFFCE1"/>
<path fill-rule="evenodd" clip-rule="evenodd" d="M720 302.379C960 302.379 1200 302.379 1440 302.379V390.284C1195.39 354.546 955.388 325.244 720 302.379Z" fill="#FFFCE1"/>
<path fill-rule="evenodd" clip-rule="evenodd" d="M720 302.379C941.73 347.061 1181.73 405.443 1440 477.523V565.095C1159.55 454.821 919.552 367.249 720 302.379Z" fill="#FFFCE1"/>
<path fill-rule="evenodd" clip-rule="evenodd" d="M720 302.379C889.707 385.021 1129.71 501.895 1440 653H1260C1033.34 516.429 853.337 399.555 720 302.379Z" fill="#FFFCE1"/>
<path fill-rule="evenodd" clip-rule="evenodd" d="M720 302.379C812.105 410.355 932.448 527.229 1081.03 653H900.513C827.126 533.881 766.955 417.007 720 302.379Z" fill="#FFFCE1"/>
<path fill-rule="evenodd" clip-rule="evenodd" d="M720 302.379C720 419.253 720 536.126 720 653H539.487C612.874 533.881 673.045 417.007 720 302.379Z" fill="#FFFCE1"/>
<path fill-rule="evenodd" clip-rule="evenodd" d="M720 302.379C586.663 205.202 406.663 88.3278 180 -48.2427H360C508.156 77.528 628.157 194.401 720 302.379Z" fill="#E99994"/>
<path fill-rule="evenodd" clip-rule="evenodd" d="M720 302.379C673.178 187.751 613.178 70.8767 540 -48.2427H720C720 68.6313 720 185.505 720 302.379Z" fill="#E99994"/>
<path fill-rule="evenodd" clip-rule="evenodd" d="M720 302.379C766.822 187.751 826.822 70.8767 900 -48.2427H1080C931.844 77.528 811.843 194.401 720 302.379Z" fill="#E99994"/>
<path fill-rule="evenodd" clip-rule="evenodd" d="M720 302.379C853.337 205.202 1033.34 88.3278 1260 -48.2427H1440C1129.71 102.862 889.707 219.737 720 302.379Z" fill="#E99994"/>
<path fill-rule="evenodd" clip-rule="evenodd" d="M720 302.379C919.552 237.509 1159.55 149.937 1440 39.6624V127.234C1181.73 199.314 941.73 257.696 720 302.379Z" fill="#E99994"/>
<path fill-rule="evenodd" clip-rule="evenodd" d="M720 302.379C955.388 279.513 1195.39 250.211 1440 214.474V302.379C1200 302.379 960 302.379 720 302.379Z" fill="#E99994"/>
<path fill-rule="evenodd" clip-rule="evenodd" d="M720 302.379C955.388 325.244 1195.39 354.546 1440 390.284V478.189C1181.73 405.835 941.73 347.231 720 302.379Z" fill="#E99994"/>
<path fill-rule="evenodd" clip-rule="evenodd" d="M720 302.379C919.552 367.31 1159.55 454.966 1440 565.345V653C1129.71 501.895 889.707 385.021 720 302.379Z" fill="#E99994"/>
<path fill-rule="evenodd" clip-rule="evenodd" d="M720 302.379C853.21 399.555 1033.04 516.429 1259.49 653H1079.66C931.643 527.229 811.756 410.355 720 302.379Z" fill="#E99994"/>
<path fill-rule="evenodd" clip-rule="evenodd" d="M900.513 653H720C720 536.126 720 419.253 720 302.379C766.955 417.007 827.126 533.881 900.513 653Z" fill="#E99994"/>
<path fill-rule="evenodd" clip-rule="evenodd" d="M540 653H360C508.156 527.229 628.157 410.355 720 302.379C673.178 417.007 613.178 533.881 540 653Z" fill="#E99994"/>
<path fill-rule="evenodd" clip-rule="evenodd" d="M180 653H0C310.294 501.895 550.293 385.021 720 302.379C586.663 399.555 406.663 516.429 180 653Z" fill="#E99994"/>
<path fill-rule="evenodd" clip-rule="evenodd" d="M0 565.345V477.689C258.27 405.541 498.27 347.104 720 302.379C520.448 367.31 280.447 454.966 0 565.345Z" fill="#E99994"/>
<path fill-rule="evenodd" clip-rule="evenodd" d="M0 390.034V302.379C240 302.379 480 302.379 720 302.379C484.612 325.18 244.611 354.398 0 390.034Z" fill="#E99994"/>
<path fill-rule="evenodd" clip-rule="evenodd" d="M0 214.723V127.068C258.27 199.216 498.27 257.653 720 302.379C484.612 279.578 244.611 250.359 0 214.723Z" fill="#E99994"/>
<path fill-rule="evenodd" clip-rule="evenodd" d="M0 39.4126V-48.2427C310.294 102.862 550.293 219.737 720 302.379C520.448 237.447 280.447 149.792 0 39.4126Z" fill="#E99994"/>
</g>
</g>
<defs>
<clipPath id="clip0">
<rect width="1440" height="653" fill="white"/>
</clipPath>
</defs>
</svg>
