<svg width="48" height="48" viewBox="0 0 48 48" xmlns="http://www.w3.org/2000/svg">
<circle fill="#fff" cx="29" cy="24" r="5" />
<path fill-rule="evenodd" clip-rule="evenodd" fill="#fff" d="M12 4C7.58172 4 4 7.58172 4 12V36C4 40.4183 7.58172 44 12 44H36C40.4183 44 44 40.4183 44 36V12C44 7.58172 40.4183 4 36 4H12ZM23.9997 35.9997C30.6271 35.9997 35.9997 30.6271 35.9997 23.9997C35.9997 17.3723 30.6271 11.9997 23.9997 11.9997C17.3723 11.9997 11.9997 17.3723 11.9997 23.9997C11.9997 30.6271 17.3723 35.9997 23.9997 35.9997Z"/>
<path fill-rule="evenodd" clip-rule="evenodd" fill="#fff" d="M12 0C5.37258 0 0 5.37258 0 12V36C0 42.6274 5.37258 48 12 48H36C42.6274 48 48 42.6274 48 36V12C48 5.37258 42.6274 0 36 0H12ZM12 2C6.47715 2 2 6.47715 2 12V36C2 41.5228 6.47715 46 12 46H36C41.5228 46 46 41.5228 46 36V12C46 6.47715 41.5228 2 36 2H12Z"/>
</svg>