<?xml version="1.0" encoding="UTF-8"?>
<!DOCTYPE svg PUBLIC "-//W3C//DTD SVG 1.1//EN" "http://www.w3.org/Graphics/SVG/1.1/DTD/svg11.dtd">
<svg xmlns="http://www.w3.org/2000/svg" version="1.1" width="93px" height="100px" style="shape-rendering:geometricPrecision; text-rendering:geometricPrecision; image-rendering:optimizeQuality; fill-rule:evenodd; clip-rule:evenodd" xmlns:xlink="http://www.w3.org/1999/xlink">
<g><path style="opacity:0.869" fill="#fefffe" d="M 92.5,49.5 C 92.5,53.1667 92.5,56.8333 92.5,60.5C 89.0862,79.9142 78.0862,92.9142 59.5,99.5C 50.8333,99.5 42.1667,99.5 33.5,99.5C 10.4805,90.944 -0.352795,74.2774 1,49.5C 3.89873,29.937 14.7321,17.1037 33.5,11C 29.5559,9.03478 28.5559,6.03478 30.5,2C 33.1272,-0.0167261 35.6272,0.149941 38,2.5C 40.0972,8.37639 41.9306,14.3764 43.5,20.5C 47.3718,20.4302 49.7051,22.2635 50.5,26C 61.1308,27.9776 68.7974,33.8109 73.5,43.5C 78.9966,45.1583 80.8299,48.8249 79,54.5C 77.4708,55.7287 76.3041,57.2287 75.5,59C 67.0015,59.9025 58.6682,61.4025 50.5,63.5C 51.3094,65.0709 51.6427,66.7376 51.5,68.5C 56.1724,67.9973 60.8391,67.8306 65.5,68C 68.1684,73.1533 70.0017,78.6533 71,84.5C 85.1306,70.6348 88.1306,54.6348 80,36.5C 71.7069,23.7612 59.8736,16.7612 44.5,15.5C 43.627,13.5866 42.627,11.7533 41.5,10C 69.7162,8.76677 86.7162,21.9334 92.5,49.5 Z M 37.5,13.5 C 35.9153,12.9976 35.4153,11.9976 36,10.5C 37.0386,11.2438 37.5386,12.2438 37.5,13.5 Z M 37.5,13.5 C 40.8355,17.2858 40.6689,20.6192 37,23.5C 36.5065,25.1341 36.3398,26.8008 36.5,28.5C 25.5716,32.2721 19.0716,39.9388 17,51.5C 11.5648,57.9152 12.7315,62.9152 20.5,66.5C 28.7872,65.0891 37.1206,64.0891 45.5,63.5C 45.2606,65.4672 45.5939,67.3005 46.5,69C 41.9187,70.2753 37.252,71.2753 32.5,72C 32,72.5 31.5,73 31,73.5C 30.7409,78.9262 30.5742,84.2595 30.5,89.5C 14.3813,80.5981 7.2146,66.9315 9,48.5C 12.2857,32.547 21.7857,22.3803 37.5,18C 37.9662,16.7012 37.9662,15.2012 37.5,13.5 Z M 40.5,31.5 C 56.3998,29.924 66.3998,36.7573 70.5,52C 70.1667,52.8333 69.8333,53.6667 69.5,54.5C 56.2994,56.4618 43.1327,58.4618 30,60.5C 26.3283,48.164 29.8283,38.4973 40.5,31.5 Z M 58.5,72.5 C 59.9778,72.238 61.3112,72.5713 62.5,73.5C 64.6458,78.3816 65.3125,83.3816 64.5,88.5C 57.6625,92.1656 50.4959,93.4989 43,92.5C 41.6493,86.9284 41.1493,81.2617 41.5,75.5C 47.3403,74.7651 53.007,73.7651 58.5,72.5 Z"/></g>
<g><path style="opacity:0.121" fill="#fefffe" d="M 47.5,32.5 C 59.5006,34.5006 66.5006,41.5006 68.5,53.5C 65.8333,53.8333 63.1667,54.1667 60.5,54.5C 59.7881,46.0736 55.7881,39.7402 48.5,35.5C 47.6143,34.675 47.281,33.675 47.5,32.5 Z"/></g>
<g><path style="opacity:0.114" fill="#fefffe" d="M 56.5,74.5 C 58.7144,74.2907 60.381,75.124 61.5,77C 63.2251,80.0933 63.5584,83.26 62.5,86.5C 58.892,80.5128 53.5587,77.5128 46.5,77.5C 49.8316,76.1347 53.1649,75.1347 56.5,74.5 Z"/></g>
</svg>
