<?xml version="1.0" encoding="UTF-8"?>
<svg version="1.1" xmlns="http://www.w3.org/2000/svg" width="260" height="260">
<path d="M0 0 C1.93449427 -0.005428 3.86898441 -0.01255445 5.8034668 -0.02124023 C11.03076413 -0.03939581 16.25774386 -0.0324382 21.48504639 -0.01972389 C26.97050801 -0.00955587 32.45594349 -0.0190001 37.94140625 -0.02526855 C47.15109103 -0.03253391 56.36064726 -0.02298645 65.5703125 -0.00390625 C76.1989726 0.01786028 86.82732572 0.01080813 97.45597839 -0.01121187 C106.60197059 -0.02939757 115.74787068 -0.0319087 124.89387512 -0.0214572 C130.34743273 -0.01523969 135.80084632 -0.01433854 141.25439453 -0.02760315 C146.38292726 -0.0392072 151.51106641 -0.03105293 156.63955688 -0.00802612 C158.51518095 -0.00276331 160.39083848 -0.00421092 162.26644897 -0.01307678 C176.56184634 -0.07439012 187.92782995 1.186395 198.75 11.51757812 C209.86561398 23.16145891 210.33958481 35.53425788 210.26757812 50.76757812 C210.27300613 52.7020724 210.28013258 54.63656253 210.28881836 56.57104492 C210.30697393 61.79834226 210.30001633 67.02532199 210.28730202 72.25262451 C210.277134 77.73808613 210.28657822 83.22352162 210.29284668 88.70898438 C210.30011203 97.91866916 210.29056457 107.12822539 210.27148438 116.33789062 C210.24971785 126.96655073 210.25677 137.59490385 210.27879 148.22355652 C210.29697569 157.36954871 210.29948683 166.5154488 210.28903532 175.66145325 C210.28281782 181.11501086 210.28191667 186.56842445 210.29518127 192.02197266 C210.30678532 197.15050538 210.29863106 202.27864454 210.27560425 207.40713501 C210.27034143 209.28275908 210.27178905 211.1584166 210.28065491 213.0340271 C210.34196825 227.32942447 209.08118313 238.69540808 198.75 249.51757812 C187.10611921 260.63319211 174.73332024 261.10716293 159.5 261.03515625 C157.56550573 261.04058425 155.63101559 261.0477107 153.6965332 261.05639648 C148.46923587 261.07455206 143.24225614 261.06759445 138.01495361 261.05488014 C132.52949199 261.04471212 127.04405651 261.05415635 121.55859375 261.0604248 C112.34890897 261.06769016 103.13935274 261.0581427 93.9296875 261.0390625 C83.3010274 261.01729597 72.67267428 261.02434812 62.04402161 261.04636812 C52.89802941 261.06455382 43.75212932 261.06706495 34.60612488 261.05661345 C29.15256727 261.05039594 23.69915368 261.04949479 18.24560547 261.0627594 C13.11707274 261.07436345 7.98893359 261.06620918 2.86044312 261.04318237 C0.98481905 261.03791956 -0.89083848 261.03936717 -2.76644897 261.04823303 C-17.06184634 261.10954637 -28.42782995 259.84876125 -39.25 249.51757812 C-50.36561398 237.87369734 -50.83958481 225.50089837 -50.76757812 210.26757812 C-50.77300613 208.33308385 -50.78013258 206.39859372 -50.78881836 204.46411133 C-50.80697393 199.23681399 -50.80001633 194.00983426 -50.78730202 188.78253174 C-50.777134 183.29707012 -50.78657822 177.81163463 -50.79284668 172.32617188 C-50.80011203 163.11648709 -50.79056457 153.90693086 -50.77148438 144.69726562 C-50.74971785 134.06860552 -50.75677 123.4402524 -50.77879 112.81159973 C-50.79697569 103.66560754 -50.79948683 94.51970745 -50.78903532 85.373703 C-50.78281782 79.92014539 -50.78191667 74.4667318 -50.79518127 69.01318359 C-50.80678532 63.88465087 -50.79863106 58.75651171 -50.77560425 53.62802124 C-50.77034143 51.75239717 -50.77178905 49.87673965 -50.78065491 48.00112915 C-50.84196825 33.70573178 -49.58118313 22.33974817 -39.25 11.51757812 C-27.60611921 0.40196414 -15.23332024 -0.07200668 0 0 Z M75.28515625 68.23632812 C71.50110492 72.62468235 68.93244085 77.95187634 66.1875 83.01757812 C64.94878464 85.26805609 63.70918583 87.518048 62.46875 89.76757812 C61.84871094 90.89679688 61.22867188 92.02601562 60.58984375 93.18945312 C57.84091589 98.16203601 55.01872588 103.09152314 52.1875 108.01757812 C50.37010414 111.18147812 48.55744814 114.3479854 46.75 117.51757812 C46.27191895 118.34902344 45.79383789 119.18046875 45.30126953 120.03710938 C44.84220215 120.84535156 44.38313477 121.65359375 43.91015625 122.48632812 C43.49515869 123.21271484 43.08016113 123.93910156 42.65258789 124.6875 C41.60255819 126.47643773 41.60255819 126.47643773 41.75 128.51757812 C41.24967255 128.2670166 40.74934509 128.01645508 40.2338562 127.75830078 C35.01713002 125.14871722 29.79230446 122.5559266 24.5625 119.97265625 C22.6127877 119.00687456 20.66516825 118.03685567 18.71972656 117.0625 C15.92013662 115.66127521 13.11333032 114.27554944 10.3046875 112.89257812 C9.43883026 112.45510254 8.57297302 112.01762695 7.68087769 111.56689453 C1.51977592 108.52906888 1.51977592 108.52906888 -5.25 108.51757812 C-7.0064279 109.69565622 -7.0064279 109.69565622 -8.25 111.51757812 C-9.02554597 120.29907656 -5.86944554 129.77709333 -3.9765625 138.32617188 C-3.64857742 139.82537949 -3.32089537 141.32465342 -2.99349976 142.82398987 C-2.31048495 145.94383186 -1.62231497 149.06248164 -0.93066406 152.18041992 C-0.04603004 156.17134779 0.82307839 160.16548116 1.68814659 164.16068935 C2.35884149 167.24804778 3.03885289 170.33329793 3.72157669 173.41801643 C4.04606319 174.89049377 4.36738601 176.36367208 4.68543625 177.83755302 C5.13010458 179.89258953 5.58755246 181.94437614 6.04833984 183.99584961 C6.30513519 185.16180161 6.56193054 186.3277536 6.82650757 187.52903748 C7.77834173 190.60929564 8.51930891 192.21716121 10.75 194.51757812 C13.32236821 195.11756425 13.32236821 195.11756425 16.29162598 195.01878357 C17.44415359 195.02861771 18.59668121 195.03845184 19.78413391 195.04858398 C21.04968613 195.03891602 22.31523834 195.02924805 23.61914062 195.01928711 C24.96445786 195.02306983 26.3097712 195.02856948 27.65507507 195.03565979 C31.31010613 195.04963823 34.96466772 195.03842834 38.61967278 195.02194858 C42.44196836 195.00811305 46.26423627 195.01455644 50.08654785 195.01808167 C56.5058551 195.02078499 62.92497549 195.00729785 69.34423828 194.98413086 C76.76914955 194.95752024 84.19374836 194.9557735 91.61869097 194.96751922 C98.75691767 194.97829303 105.89503119 194.9721131 113.0332489 194.95796394 C116.07308116 194.95220065 119.11283069 194.95228949 122.15266418 194.95702934 C125.7314319 194.96179665 129.30985685 194.95170817 132.88855934 194.93007469 C134.83097825 194.92184227 136.77344202 194.92836289 138.71586609 194.93527222 C140.44465752 194.92041527 140.44465752 194.92041527 142.20837402 194.90525818 C143.2119973 194.90282828 144.21562057 194.90039839 145.24965668 194.89789486 C147.76997891 194.71010029 147.76997891 194.71010029 149.52463531 193.23059177 C151.69985341 190.18971886 152.19699228 186.5035847 152.984375 182.90820312 C153.28291885 181.60755165 153.28291885 181.60755165 153.5874939 180.28062439 C154.235607 177.44523587 154.86807209 174.60661373 155.5 171.76757812 C155.94165559 169.81726244 156.38420635 167.86714926 156.82763672 165.91723633 C157.719162 161.98984954 158.60452491 158.06114711 159.48535156 154.13134766 C160.62045977 149.07614144 161.78522024 144.02831158 162.9609375 138.98242188 C163.4476015 136.88075461 163.93338388 134.77888668 164.4185791 132.67687988 C164.86542998 130.74642194 165.3169418 128.81704478 165.76855469 126.88769531 C166.03313477 125.72786133 166.29771484 124.56802734 166.5703125 123.37304688 C166.79992676 122.37942139 167.02954102 121.3857959 167.26611328 120.36206055 C168.26200096 114.81035869 168.26200096 114.81035869 166.625 109.64257812 C163.80256781 107.94911881 162.03902626 108.20274072 158.75 108.51757812 C155.61300395 109.664583 152.67673089 111.15901801 149.703125 112.67382812 C148.85071228 113.09555298 147.99829956 113.51727783 147.12005615 113.95178223 C144.4076759 115.29594317 141.70362527 116.65590527 139 118.01757812 C136.28080736 119.37645445 133.56000261 120.7319529 130.83709717 122.08337402 C129.14521012 122.92419743 127.45571608 123.76985627 125.76885986 124.62072754 C125.00756775 125.00112183 124.24627563 125.38151611 123.46191406 125.7734375 C122.7916217 126.11097046 122.12132935 126.44850342 121.4307251 126.79626465 C119.75 127.51757812 119.75 127.51757812 117.75 127.51757812 C117.4190332 126.90052002 117.08806641 126.28346191 116.74707031 125.64770508 C109.39212076 111.95398362 101.93138396 98.33615045 94.11816406 84.89794922 C92.78799566 82.58368406 91.49576224 80.25178432 90.2109375 77.91210938 C89.43273824 76.53034736 88.6541198 75.1488213 87.875 73.76757812 C87.54209961 73.14101318 87.20919922 72.51444824 86.86621094 71.86889648 C85.1547373 68.89166317 84.01603435 67.62624998 80.8046875 66.31445312 C77.66881633 66.25896181 77.66881633 66.25896181 75.28515625 68.23632812 Z " fill="#FFFFFF" transform="translate(50.25,-0.517578125)"/>
</svg>
