<?xml version="1.0" encoding="UTF-8" standalone="no"?>
<svg
   xmlns="http://www.w3.org/2000/svg"
   width="640"
   height="640"
   viewBox="0 0 640 640"
   version="1.1">
  <path
     d="m 218.12044,489.209 q -26.62409,0 -46.08015,-7.16803 -19.45607,-7.16799 -35.84012,-22.01606 l -3.07201,24.06407 H 85 v -345.089 h 55.80818 v 118.27235 q 31.74411,-20.99206 76.28825,-20.99206 51.71218,0 81.40828,29.69608 30.20809,29.18409 30.20809,94.72028 0,66.0482 -29.69609,97.2803 -29.6961,31.23207 -80.89627,31.23207 z m -14.84805,-41.98411 q 37.88812,0 53.24818,-21.50405 15.87205,-21.50409 15.87205,-65.02421 0,-45.05613 -16.89606,-63.48818 -16.89605,-18.43206 -53.24817,-18.43206 -37.88813,0 -61.44021,20.99206 v 121.85636 q 24.06408,25.60008 62.46421,25.60008 z"
     style="fill:#ffffff" />
  <path
     d="M 351.50023,483.58903 V 138.5 H 407.3084 V 338.18059 L 509.19677,240.9003 h 64.00019 l -98.81632,97.79229 104.44835,144.89644 H 519.94878 L 439.56454,368.38868 407.3084,399.10876 v 84.48027 z"
     style="fill:#ffffff" />
</svg>
