<?xml version="1.0" encoding="UTF-8" standalone="no"?>
<!DOCTYPE svg PUBLIC "-//W3C//DTD SVG 1.1//EN" "http://www.w3.org/Graphics/SVG/1.1/DTD/svg11.dtd">
<svg width="100%" height="100%" viewBox="0 0 1024 1024" version="1.1" xmlns="http://www.w3.org/2000/svg" xmlns:xlink="http://www.w3.org/1999/xlink" xml:space="preserve" xmlns:serif="http://www.serif.com/" style="fill-rule:evenodd;clip-rule:evenodd;stroke-linejoin:round;stroke-miterlimit:2;">
    <g id="g20" transform="matrix(5.64526,0,0,-5.64526,810.846,849.403)">
        <path id="path22" d="M0,0C0.967,12.874 -0.773,35.084 -19.975,52.471L-2.784,65.283C-2.427,65.548 -2.563,66.327 -3.085,67.03C-3.604,67.725 -4.314,68.081 -4.671,67.816L-22.408,54.597C-29.585,60.489 -38.923,65.732 -51.08,69.72C-63.306,73.73 -73.964,75.046 -83.241,74.55L-89.761,95.439C-89.895,95.863 -90.679,95.992 -91.505,95.734C-92.34,95.472 -92.908,94.921 -92.777,94.498L-86.466,74.279C-110.265,71.838 -124.328,57.184 -131.658,46.204C-132.416,50.616 -132.833,55.142 -132.833,59.767C-132.833,103.822 -96.994,139.663 -52.939,139.663C-8.885,139.663 26.954,103.822 26.954,59.767C26.954,36.006 16.517,14.647 0,0M-22.078,28.988C-23.552,24.447 -28.432,21.962 -32.969,23.435C-37.51,24.909 -39.996,29.785 -38.522,34.326C-37.048,38.867 -32.172,41.353 -27.631,39.879C-23.094,38.406 -20.604,33.529 -22.078,28.988M-104.054,29.378L-100.784,30.879C-95.335,18.989 -85.582,9.922 -73.33,5.35C-61.584,0.967 -48.756,1.221 -37.2,6.072L-35.808,2.753C-42.336,0.013 -49.248,-1.362 -56.167,-1.362C-62.39,-1.362 -68.619,-0.251 -74.589,1.978C-87.741,6.884 -98.207,16.616 -104.054,29.378M-98.476,53.789C-97.002,58.33 -92.126,60.816 -87.585,59.342C-83.046,57.869 -80.557,52.992 -82.032,48.451C-83.506,43.91 -88.384,41.424 -92.923,42.898C-97.464,44.372 -99.95,49.248 -98.476,53.789M-52.939,150.463C-102.95,150.463 -143.633,109.778 -143.633,59.767C-143.633,9.757 -102.95,-30.928 -52.939,-30.928C-2.929,-30.928 37.754,9.757 37.754,59.767C37.754,109.778 -2.929,150.463 -52.939,150.463" style="fill:white;fill-rule:nonzero;"/>
    </g>
</svg>
