<?xml version="1.0" encoding="utf-8"?>
<!-- Generator: Adobe Illustrator 21.1.0, SVG Export Plug-In . SVG Version: 6.00 Build 0)  -->
<svg version="1.1" id="Layer_1" xmlns="http://www.w3.org/2000/svg" xmlns:xlink="http://www.w3.org/1999/xlink" x="0px" y="0px"
	 viewBox="0 0 1000 1000" style="enable-background:new 0 0 1000 1000;" xml:space="preserve">
<style type="text/css">
	.st0{fill:#FFFFFF;}
</style>
<g>
	<path d="M600.2,84.4c0,0-41.5,50.9-80.5,112c-40.6-59.1-76.4-103-76.4-103S251.9,327.8,251.9,442.7c0,33.2,10.9,78.7,42.4,116.4
		c31.5,37.7,81,70.4,148.8,70.4s117.4-32.7,148.9-70.4c16.4-19.6,27.1-41.2,33.7-62.2c39.5-6.6,69.3-28.1,89.5-52.3
		c24.4-29.1,32.8-64.4,32.8-90C748.1,265.7,600.2,84.4,600.2,84.4z M610.9,479.8c-1.4,6.1-3.3,12.5-5.8,19.2
		c-5.6,15.5-14.3,32.2-27.6,48.1c-24.3,29-67.3,63.6-134.4,63.6c-67.1,0-110.1-34.6-134.4-63.6c-35.3-42.2-38-90.5-38-104.3
		c0-43.2,31.9-114.8,92.4-207.1c31-47.3,62.3-89,80-111.8c14.9,19.2,39.5,51.9,65.5,90.1c3.8,5.7,7.7,11.4,11.6,17.3
		c0.9,1.4,1.8,2.8,2.7,4.2c60.6,92.4,92.5,164.1,92.5,207.4C615.6,449,615,462.7,610.9,479.8z M700.8,432.5
		c-14.1,16.9-36.8,36.4-69.8,44.2c2.4-12.1,3.5-23.6,3.5-34c0-60.5-53.1-154.1-103.3-229.3c23.5-37.6,49.5-73.5,69-98.6
		c46.1,59.7,129.1,179.5,129.1,239.8C729.2,364.9,727.2,401,700.8,432.5z"/>
	<path class="st0" d="M729.2,354.5c0,10.3-2,46.4-28.4,78c-14.1,16.9-36.8,36.4-69.8,44.2c2.4-12.1,3.5-23.6,3.5-34
		c0-60.5-53.1-154.1-103.3-229.3c23.5-37.6,49.5-73.5,69-98.6C646.3,174.5,729.2,294.3,729.2,354.5z"/>
	<path class="st0" d="M615.6,442.7c0,6.4-0.6,20-4.7,37.1c-1.4,6.1-3.3,12.5-5.8,19.2c-5.6,15.5-14.3,32.2-27.6,48.1
		c-24.3,29-67.3,63.6-134.4,63.6c-67.1,0-110.1-34.6-134.4-63.6c-35.3-42.2-38-90.5-38-104.3c0-43.2,31.9-114.8,92.4-207.1
		c31-47.3,62.3-89,80-111.8c14.9,19.2,39.5,51.9,65.5,90.1c3.8,5.7,7.7,11.4,11.6,17.3c0.9,1.4,1.8,2.8,2.7,4.2
		C583.6,327.7,615.6,399.4,615.6,442.7z"/>
	<path d="M443.2,559.1v18.8H443c-77.2,0-140.1-62.8-140.1-140.1v-0.1h18.8v0.1c0,66.9,54.4,121.3,121.2,121.3H443.2z"/>
	<path d="M646.8,700.1v210.7c0,2.6-2.1,4.7-4.7,4.7h-21.8c-2.6,0-4.7-2.1-4.7-4.7V815h-29.3v95.9c0,2.6-2.1,4.7-4.7,4.7h-21.8
		c-2.6,0-4.7-2.1-4.7-4.7V700.1c0-2.6,2.1-4.7,4.7-4.7h21.8c2.6,0,4.7,2.1,4.7,4.7v85.4h29.3v-85.4c0-2.6,2.1-4.7,4.7-4.7h21.8
		C644.7,695.4,646.8,697.5,646.8,700.1z"/>
	<path d="M420.8,798.4c7.8-6.9,15.9-19.6,15.9-30.8v-32.4c0-21.9-17.8-39.7-39.7-39.7h-43.3c-2.6,0-4.7,2.1-4.7,4.7v210.7
		c0,2.6,2.1,4.7,4.7,4.7h43.2c23.8,0,43.1-19.3,43.1-43.1v-40.1C440,809.4,420.8,798.4,420.8,798.4z M380.2,723.4h11.1
		c8.2,0,14.9,6.7,14.9,14.9v32.2c0,8.2-6.7,14.9-14.9,14.9h-11.1V723.4z M411.5,869.2c0,8.6-6.9,15.5-15.5,15.5h-15.8v-69.4H396
		c8.6,0,15.5,6.9,15.5,15.5V869.2z"/>
	<path d="M490.9,722.2v63.3H522c2.6,0,4.7,2.1,4.7,4.7v17.4c0,2.6-2.1,4.7-4.7,4.7h-31.1v98.6c0,2.6-2.1,4.7-4.7,4.7h-21.8
		c-2.6,0-4.7-2.1-4.7-4.7V700.1c0-2.6,2.1-4.7,4.7-4.7h67.1c2.6,0,4.7,2.1,4.7,4.7v17.4c0,2.6-2.1,4.7-4.7,4.7H490.9z"/>
</g>
</svg>
