<?xml version="1.0" encoding="UTF-8" standalone="no"?>
<!DOCTYPE svg PUBLIC "-//W3C//DTD SVG 1.1//EN" "http://www.w3.org/Graphics/SVG/1.1/DTD/svg11.dtd">
<svg width="100%" height="100%" viewBox="0 0 125 125" version="1.1" xmlns="http://www.w3.org/2000/svg" xmlns:xlink="http://www.w3.org/1999/xlink" xml:space="preserve" xmlns:serif="http://www.serif.com/" style="fill-rule:evenodd;clip-rule:evenodd;stroke-linejoin:round;stroke-miterlimit:2;">
    <g transform="matrix(1.52725,0,0,1.52725,-13.9469,-39.7426)">
        <g transform="matrix(1.8949,0,0,1.8128,-34.4241,-70.9446)">
            <g transform="matrix(1.06781,0,0,1.13895,-6.47866,-5.64681)">
                <path d="M57.07,86.061L55.776,86.162C55.692,85.875 55.541,85.656 55.331,85.487C55.113,85.325 54.846,85.242 54.575,85.251C54.205,85.251 53.92,85.336 53.701,85.513C53.483,85.69 53.382,85.934 53.382,86.238C53.365,86.474 53.491,86.685 53.76,86.862C53.844,86.921 54.029,87.005 54.315,87.115L54.651,87.207L55.323,87.427L55.885,87.637C56.221,87.772 56.515,87.958 56.767,88.169C56.944,88.32 57.078,88.497 57.154,88.691C57.238,88.885 57.271,89.13 57.28,89.416C57.28,90.082 57.036,90.588 56.549,90.934C56.062,91.288 55.423,91.465 54.617,91.465C53.861,91.465 53.231,91.297 52.735,90.959C52.231,90.614 51.954,90.133 51.895,89.501L53.189,89.391C53.256,89.711 53.416,89.964 53.685,90.133C53.937,90.302 54.256,90.403 54.609,90.403C55.02,90.403 55.348,90.319 55.583,90.15C55.81,89.981 55.944,89.745 55.953,89.442C55.953,89.18 55.843,88.961 55.633,88.767C55.513,88.675 55.384,88.596 55.247,88.531C55.071,88.447 54.911,88.388 54.793,88.346L54.273,88.177L53.937,88.076C53.541,87.96 53.158,87.805 52.794,87.612C52.685,87.536 52.581,87.451 52.483,87.359C52.332,87.216 52.231,87.056 52.156,86.879C52.089,86.71 52.055,86.465 52.047,86.179C52.033,85.898 52.09,85.618 52.212,85.365C52.333,85.111 52.516,84.893 52.744,84.729C53.214,84.391 53.819,84.223 54.558,84.223C55.23,84.214 55.801,84.374 56.247,84.695C56.7,85.015 56.986,85.471 57.07,86.061Z" style="fill:white;stroke:white;stroke-width:0.32px;"/>
            </g>
            <g transform="matrix(0.558998,0,0,0.558998,19.2934,31.8014)">
                <path d="M19.82,119.23L17.301,119.23L16.498,116.568L10.642,116.568L9.839,119.23L7.304,119.23L11.669,104.783L15.455,104.783L19.82,119.23ZM13.562,106.947L11.316,114.42L15.84,114.42L13.562,106.947Z" style="fill:white;stroke:white;stroke-width:0.63px;"/>
            </g>
            <g transform="matrix(0.558998,0,0,0.558998,19.2934,31.8014)">
                <path d="M23.813,104.783L29.14,104.783C30.697,104.783 31.948,105.247 32.863,106.191C33.777,107.136 34.227,108.356 34.227,109.833C34.227,111.311 33.777,112.548 32.863,113.475C32.36,113.961 31.772,114.336 31.133,114.578C30.494,114.82 29.817,114.924 29.14,114.884L26.316,114.884L26.316,119.23L23.813,119.23L23.813,104.783ZM26.3,112.737L28.883,112.737C29.686,112.737 30.36,112.462 30.905,111.878C31.451,111.328 31.708,110.641 31.708,109.816C31.708,109.009 31.451,108.322 30.905,107.755C30.36,107.188 29.686,106.913 28.867,106.913L26.3,106.913L26.3,112.737Z" style="fill:white;stroke:white;stroke-width:0.63px;"/>
            </g>
            <g transform="matrix(0.558998,0,0,0.558998,19.2934,31.8014)">
                <path d="M38.621,104.783L43.932,104.783C45.489,104.783 46.74,105.247 47.655,106.191C48.569,107.136 49.019,108.356 49.019,109.833C49.019,111.311 48.569,112.548 47.655,113.475C47.15,113.964 46.559,114.34 45.918,114.581C45.276,114.823 44.595,114.926 43.916,114.884L41.124,114.884L41.124,119.23L38.621,119.23L38.621,104.783ZM41.124,112.737L43.659,112.737C44.462,112.737 45.152,112.462 45.697,111.878C46.243,111.328 46.5,110.641 46.5,109.816C46.5,109.009 46.243,108.322 45.697,107.755C45.152,107.188 44.462,106.913 43.643,106.913L41.124,106.913L41.124,112.737Z" style="fill:white;stroke:white;stroke-width:0.63px;"/>
            </g>
        </g>
        <g transform="matrix(1.1464,0,0,1.83128,-8.94881,-53.8522)">
            <g transform="matrix(1.06781,0,0,1.13895,-6.47866,-5.64681)">
                <path d="M54.424,63.04C54.844,63.04 55.239,62.938 55.6,62.745C55.953,62.551 56.23,62.272 56.448,61.927L57.599,62.483C57.292,63.026 56.841,63.472 56.297,63.773C55.734,64.085 55.121,64.245 54.432,64.245C53.778,64.256 53.133,64.096 52.559,63.782C52.004,63.487 51.543,63.039 51.232,62.492C50.906,61.926 50.741,61.282 50.753,60.628C50.744,59.986 50.907,59.353 51.225,58.796C51.542,58.238 52.003,57.776 52.559,57.458C53.135,57.15 53.78,56.993 54.432,57.003C55.104,57.003 55.726,57.171 56.297,57.475C56.851,57.795 57.288,58.217 57.599,58.765L56.448,59.33C56.246,58.987 55.956,58.705 55.608,58.512C55.247,58.315 54.843,58.214 54.432,58.217C53.76,58.217 53.206,58.445 52.752,58.908C52.523,59.131 52.342,59.398 52.22,59.694C52.099,59.99 52.039,60.308 52.047,60.628C52.047,61.32 52.282,61.893 52.744,62.348C53.197,62.804 53.769,63.04 54.424,63.04Z" style="fill:white;stroke:white;stroke-width:0.38px;"/>
            </g>
            <g transform="matrix(1.06781,0,0,1.13895,-6.47866,-5.64681)">
                <path d="M83.904,57.117C84.216,57.197 84.512,57.315 84.793,57.467C85.348,57.787 85.785,58.208 86.095,58.757L84.945,59.321C84.742,58.979 84.452,58.696 84.105,58.504C83.744,58.307 83.339,58.206 82.929,58.208C82.257,58.208 81.694,58.436 81.232,58.9C81.004,59.123 80.824,59.391 80.704,59.687C80.584,59.983 80.526,60.301 80.535,60.62C80.535,61.294 80.77,61.876 81.232,62.331C81.694,62.795 82.257,63.031 82.929,63.031C83.441,63.031 83.911,62.863 84.34,62.534C84.76,62.205 85.054,61.792 85.213,61.311L82.794,61.311L82.794,60.122L86.608,60.122L86.608,60.62C86.608,61.311 86.44,61.927 86.121,62.483C85.804,63.03 85.341,63.476 84.785,63.773C84.231,64.085 83.609,64.237 82.92,64.237C82.269,64.246 81.627,64.086 81.055,63.773C80.5,63.478 80.04,63.031 79.728,62.483C79.4,61.918 79.231,61.274 79.241,60.62C79.233,59.977 79.397,59.343 79.716,58.786C80.035,58.228 80.498,57.767 81.055,57.45C81.629,57.143 82.27,56.986 82.92,56.994L83.904,57.117Z" style="fill:white;stroke:white;stroke-width:0.38px;"/>
            </g>
            <g transform="matrix(1.06781,0,0,1.13895,-6.47866,-5.64681)">
                <path d="M63.856,57.079L65.242,57.079L62.898,60.215L65.242,64.178L63.856,64.178L62.092,61.286L61.143,62.551L61.143,64.169L59.841,64.169L59.841,57.087L61.143,57.087L61.143,60.772L63.856,57.079Z" style="fill:white;stroke:white;stroke-width:0.38px;"/>
            </g>
            <g transform="matrix(1.06781,0,0,1.13895,-6.47866,-5.64681)">
                <path d="M33.184,58.133L31.336,58.133L31.336,64.169L30.017,64.169L30.017,58.133L28.169,58.133L28.169,57.079L33.184,57.079L33.184,58.133Z" style="fill:white;stroke:white;stroke-width:0.38px;"/>
            </g>
            <g transform="matrix(1.06781,0,0,1.13895,-6.47866,-5.64681)">
                <rect x="67.332" y="57.087" width="1.31" height="7.082" style="fill:white;stroke:white;stroke-width:0.38px;"/>
            </g>
            <g transform="matrix(1.06781,0,0,1.13895,-6.47866,-5.64681)">
                <path d="M75.731,62.281L75.731,57.079L77.033,57.079L77.033,64.169L75.387,64.169L72.447,58.976L72.447,64.169L71.145,64.169L71.145,57.087L72.783,57.087L75.723,62.281L75.731,62.281Z" style="fill:white;stroke:white;stroke-width:0.38px;"/>
            </g>
            <g transform="matrix(0.558998,0,0,0.558998,19.2934,31.8014)">
                <path d="M48.136,63.753L45.601,63.753L44.799,61.09L38.958,61.09L38.156,63.753L35.62,63.753L40.001,49.323L43.772,49.323L48.136,63.753ZM41.87,51.497L41.878,51.47L41.862,51.47L41.87,51.497L39.616,58.943L44.141,58.943L41.87,51.497Z" style="fill:white;stroke:white;stroke-width:0.77px;"/>
            </g>
            <g transform="matrix(0.558998,0,0,0.558998,19.2934,31.8014)">
                <path d="M32.045,54.373C32.095,55.402 31.826,56.419 31.281,57.267C30.735,58.115 29.943,58.747 29.028,59.063L31.788,63.77L29.269,63.77L26.765,59.424L24.166,59.424L24.166,63.77L21.663,63.77L21.663,49.34L26.958,49.34C28.53,49.34 29.766,49.787 30.681,50.731C31.595,51.659 32.045,52.896 32.045,54.373ZM24.182,51.453L24.182,57.277L26.717,57.277C27.52,57.277 28.21,57.002 28.755,56.418C29.301,55.885 29.557,55.198 29.557,54.356C29.557,53.566 29.301,52.862 28.755,52.295C28.21,51.728 27.52,51.453 26.701,51.453L24.182,51.453Z" style="fill:white;stroke:white;stroke-width:0.77px;"/>
            </g>
        </g>
        <g transform="matrix(1.88444,0,0,1.8028,-10.525,-32.6382)">
            <g transform="matrix(1.06781,0,0,1.13895,-6.47866,-5.64681)">
                <path d="M31.831,39.563C32.251,39.563 32.638,39.462 32.999,39.268C33.36,39.074 33.637,38.796 33.856,38.45L34.998,39.007C34.694,39.548 34.246,39.995 33.705,40.297C33.142,40.609 32.52,40.769 31.831,40.769C31.177,40.78 30.532,40.62 29.958,40.305C29.408,40.006 28.953,39.555 28.648,39.007C28.319,38.442 28.151,37.798 28.161,37.144C28.152,36.504 28.315,35.873 28.631,35.317C28.947,34.761 29.405,34.3 29.958,33.982C30.538,33.674 31.185,33.518 31.84,33.527C32.512,33.527 33.142,33.687 33.713,33.999C34.259,34.319 34.696,34.741 35.007,35.289L33.864,35.845C33.658,35.504 33.365,35.225 33.016,35.036C32.655,34.839 32.25,34.737 31.84,34.741C31.168,34.741 30.605,34.968 30.143,35.424C29.915,35.648 29.737,35.918 29.618,36.215C29.5,36.513 29.444,36.832 29.454,37.152C29.454,37.843 29.681,38.417 30.143,38.872C30.605,39.336 31.168,39.563 31.831,39.563Z" style="fill:white;stroke:white;stroke-width:0.32px;"/>
            </g>
            <g transform="matrix(1.06781,0,0,1.13895,-6.47866,-5.64681)">
                <path d="M37.257,40.693L37.257,33.602L41.977,33.602L41.977,34.656L38.567,34.656L38.567,36.714L41.675,36.714L41.675,37.776L38.567,37.776L38.567,39.631L42.129,39.631L42.129,40.693L37.257,40.693Z" style="fill:white;stroke:white;stroke-width:0.32px;"/>
            </g>
            <g transform="matrix(1.06781,0,0,1.13895,-6.47866,-5.64681)">
                <path d="M48.999,40.693L44.631,40.693L44.631,33.602L45.941,33.602L45.941,39.639L48.999,39.639L48.999,40.693Z" style="fill:white;stroke:white;stroke-width:0.32px;"/>
            </g>
            <g transform="matrix(1.06781,0,0,1.13895,-6.47866,-5.64681)">
                <path d="M55.86,40.693L51.501,40.693L51.501,33.602L52.811,33.602L52.811,39.639L55.86,39.639L55.86,40.693Z" style="fill:white;stroke:white;stroke-width:0.32px;"/>
            </g>
        </g>
        <g transform="matrix(0.706191,0,0,0.706191,3.64088,24.9304)">
            <rect x="20.145" y="4.265" width="12.808" height="12.808" style="fill:white;"/>
        </g>
        <g transform="matrix(0.706191,0,0,0.706191,59.3893,93.6888)">
            <rect x="20.145" y="4.265" width="12.808" height="12.808" style="fill:white;"/>
        </g>
        <g transform="matrix(0.706191,0,0,0.706191,5.48401,22.0926)">
            <path d="M101.911,112.587L117.872,112.587L117.872,87.6L7.986,87.6L7.986,14.825L24.325,14.825" style="fill:none;stroke:white;stroke-width:3.25px;stroke-linecap:round;stroke-linejoin:miter;stroke-miterlimit:1.5;"/>
        </g>
    </g>
</svg>
