<?xml version="1.0" encoding="UTF-8" standalone="no"?>
<!DOCTYPE svg PUBLIC "-//W3C//DTD SVG 1.1//EN" "http://www.w3.org/Graphics/SVG/1.1/DTD/svg11.dtd">
<svg width="100%" height="100%" viewBox="0 0 1024 1024" version="1.1" xmlns="http://www.w3.org/2000/svg" xmlns:xlink="http://www.w3.org/1999/xlink" xml:space="preserve" xmlns:serif="http://www.serif.com/" style="fill-rule:evenodd;clip-rule:evenodd;stroke-linejoin:round;stroke-miterlimit:2;">
    <path d="M1012.91,621.64C1010.52,633.148 1000.38,641.4 988.629,641.4C947.667,641.429 854.919,641.429 818.631,641.429C815.349,641.429 812.292,643.093 810.509,645.848C808.727,648.604 808.464,652.075 809.81,655.068C819.405,676.408 837.975,717.705 848.673,741.495C853.618,752.493 864.554,759.567 876.612,759.567C887.903,759.567 902.523,759.567 916.37,759.567C925.341,759.566 933.564,764.566 937.691,772.531C941.819,780.496 941.164,790.097 935.991,797.426C842.61,930.468 685.214,1024 512,1024C229.42,1024 0,794.58 0,512C0,229.42 229.42,0 512,0C794.58,0 1024,229.42 1024,512C1024,546.688 1019.75,586.829 1012.91,621.64ZM810.184,330.697C805.628,321.884 796.535,316.349 786.614,316.349C733.283,316.349 558.44,316.349 421.915,316.349C375.327,316.349 330.647,334.856 297.705,367.799C264.762,400.741 246.255,445.421 246.255,492.009L246.255,563.402C246.255,671.741 334.081,759.567 442.419,759.567L603.426,759.567C607.887,759.567 612.062,757.367 614.583,753.687C617.105,750.007 617.649,745.32 616.039,741.16C607.331,718.666 592.707,680.891 584.181,658.865C580.121,648.378 570.032,641.465 558.786,641.465C542.717,641.465 518.179,641.465 492.881,641.465C466.481,641.465 441.161,630.977 422.493,612.309C403.825,593.641 393.337,568.322 393.337,541.921L393.337,541.431C393.337,486.016 438.261,441.092 493.677,441.092C613.854,441.092 805.241,441.092 855.079,441.092C857.667,441.092 860.068,439.743 861.414,437.532C862.76,435.321 862.855,432.569 861.667,430.27C850.034,407.771 823.239,355.946 810.184,330.697ZM339.376,395.899C359.807,395.899 376.395,412.486 376.395,432.917C376.395,453.348 359.807,469.936 339.376,469.936C318.945,469.936 302.358,453.348 302.358,432.917C302.358,412.486 318.945,395.899 339.376,395.899Z" style="fill:white;"/>
</svg>
