<svg xmlns="http://www.w3.org/2000/svg" version="1.0" preserveAspectRatio="xMidYMid meet" viewBox="33.3 0.96 225.3 45.82">

<g transform="translate(0.000000,53.000000) scale(0.100000,-0.100000)" fill="#fff" stroke="none">
<path d="M731 509 c-46 -9 -61 -21 -61 -52 0 -9 -16 -96 -35 -191 -19 -96 -35 -178 -35 -184 0 -6 18 -5 49 1 49 9 49 9 56 56 11 75 16 91 32 91 35 0 85 35 110 77 26 46 34 102 20 155 -11 44 -62 61 -136 47z m57 -116 c2 -32 -2 -47 -23 -69 l-26 -29 6 50 c10 75 16 96 29 92 6 -2 12 -22 14 -44z"/>
<path d="M1342 491 c-78 -57 -134 -174 -136 -286 -2 -113 38 -152 127 -125 58 17 128 92 157 166 32 82 34 201 4 241 -32 43 -96 44 -152 4z m89 -120 c9 -107 -64 -229 -118 -195 -63 39 35 243 103 217 8 -3 15 -13 15 -22z"/>
<path d="M1861 509 c-24 -5 -45 -10 -46 -11 -1 -2 -18 -88 -38 -193 -20 -104 -40 -200 -43 -211 -6 -21 -4 -22 43 -12 26 6 50 12 52 14 2 2 9 31 15 65 11 58 13 61 49 74 78 27 124 104 114 191 -8 75 -54 102 -146 83z m65 -132 c-7 -37 -40 -86 -50 -76 -6 5 8 92 20 128 4 12 7 12 21 -1 11 -12 14 -26 9 -51z"/>
<path d="M2134 501 c-85 -52 -145 -167 -152 -292 -4 -70 -2 -77 23 -107 30 -36 64 -41 118 -18 43 18 114 96 140 154 21 49 34 171 23 217 -16 63 -88 85 -152 46z m66 -116 c29 -35 -10 -160 -61 -198 -42 -30 -69 -16 -69 36 0 56 41 141 77 161 35 19 38 19 53 1z"/>
<path d="M2517 513 c-3 -5 -13 -47 -22 -95 -10 -49 -21 -88 -25 -88 -4 0 -13 35 -20 77 -17 105 -15 103 -70 103 l-47 0 -7 -62 c-4 -34 -21 -131 -37 -216 -17 -85 -28 -156 -26 -158 2 -3 22 1 43 8 l39 13 16 88 c9 48 19 90 22 93 5 6 13 -36 23 -133 6 -67 8 -69 65 -53 l36 10 17 103 c9 56 27 150 40 210 l22 107 -32 0 c-18 0 -35 -3 -37 -7z"/>
<path d="M433 503 c-18 -4 -23 -15 -33 -76 -7 -40 -25 -137 -40 -216 l-27 -144 52 6 c96 10 162 62 215 170 51 104 42 223 -20 254 -24 12 -100 15 -147 6z m107 -103 c12 -23 -12 -118 -47 -182 -28 -51 -53 -79 -53 -59 0 13 48 240 55 258 6 16 33 6 45 -17z"/>
<path d="M1098 490 c-75 -40 -127 -152 -128 -277 0 -73 3 -85 26 -112 31 -38 67 -40 115 -8 35 23 79 81 79 103 0 7 -12 16 -27 22 -24 7 -32 5 -55 -20 -49 -53 -63 -6 -29 94 26 77 50 111 72 105 10 -3 37 0 60 5 39 10 41 12 35 41 -14 67 -73 86 -148 47z"/>
<path d="M1590 501 l-35 -6 -22 -120 c-27 -153 -37 -238 -29 -269 8 -31 55 -50 101 -42 45 9 101 57 114 99 9 26 42 192 66 320 5 29 5 29 -38 22 -23 -4 -44 -9 -46 -11 -2 -2 -16 -70 -32 -151 -32 -165 -41 -193 -65 -193 -21 0 -17 37 24 228 32 145 35 136 -38 123z"/>
</g>
</svg>