<?xml version="1.0" encoding="UTF-8" standalone="no"?>
<!DOCTYPE svg PUBLIC "-//W3C//DTD SVG 1.1//EN" "http://www.w3.org/Graphics/SVG/1.1/DTD/svg11.dtd">
<svg width="100%" height="100%" viewBox="0 0 128 128" version="1.1" xmlns="http://www.w3.org/2000/svg" xmlns:xlink="http://www.w3.org/1999/xlink" xml:space="preserve" xmlns:serif="http://www.serif.com/" style="fill-rule:evenodd;clip-rule:evenodd;stroke-linejoin:round;stroke-miterlimit:2;">
    <g transform="matrix(1.10875,0,0,1.10875,-7.56465,-17.6869)">
        <g transform="matrix(1,0,0,1,-0.284477,11.9052)">
            <g transform="matrix(0.1,0,0,-0.1,4.48904,68.413)">
                <path d="M731,509C685,500 670,488 670,457C670,448 654,361 635,266C616,170 600,88 600,82C600,76 618,77 649,83C698,92 698,92 705,139C716,214 721,230 737,230C772,230 822,265 847,307C873,353 881,409 867,462C856,506 805,523 731,509ZM788,393C790,361 786,346 765,324L739,295L745,345C755,420 761,441 774,437C780,435 786,415 788,393Z" style="fill:white;fill-rule:nonzero;"/>
            </g>
            <g transform="matrix(0.1,0,0,-0.1,4.48904,68.413)">
                <path d="M433,503C415,499 410,488 400,427C393,387 375,290 360,211L333,67L385,73C481,83 547,135 600,243C651,347 642,466 580,497C556,509 480,512 433,503ZM540,400C552,377 528,282 493,218C465,167 440,139 440,159C440,172 488,399 495,417C501,433 528,423 540,400Z" style="fill:white;fill-rule:nonzero;"/>
            </g>
        </g>
        <g transform="matrix(1,0,0,1,0,12.3013)">
            <g transform="matrix(0.0702449,-9.77874e-34,-9.77874e-34,-0.0702449,-60.3501,110.476)">
                <path d="M1342,491C1264,434 1208,317 1206,205C1204,92 1244,53 1333,80C1391,97 1461,172 1490,246C1522,328 1524,447 1494,487C1462,530 1398,531 1342,491ZM1431,371C1440,264 1367,142 1313,176C1250,215 1348,419 1416,393C1424,390 1431,380 1431,371Z" style="fill:white;fill-rule:nonzero;"/>
            </g>
            <g transform="matrix(0.0702449,-9.77874e-34,-9.77874e-34,-0.0702449,-60.3501,110.476)">
                <path d="M1861,509C1837,504 1816,499 1815,498C1814,496 1797,410 1777,305C1757,201 1737,105 1734,94C1728,73 1730,72 1777,82C1803,88 1827,94 1829,96C1831,98 1838,127 1844,161C1855,219 1857,222 1893,235C1971,262 2017,339 2007,426C1999,501 1953,528 1861,509ZM1926,377C1919,340 1886,291 1876,301C1870,306 1884,393 1896,429C1900,441 1903,441 1917,428C1928,416 1931,402 1926,377Z" style="fill:white;fill-rule:nonzero;"/>
            </g>
            <g transform="matrix(0.0702449,-9.77874e-34,-9.77874e-34,-0.0702449,-60.3501,110.476)">
                <path d="M2134,501C2049,449 1989,334 1982,209C1978,139 1980,132 2005,102C2035,66 2069,61 2123,84C2166,102 2237,180 2263,238C2284,287 2297,409 2286,455C2270,518 2198,540 2134,501ZM2200,385C2229,350 2190,225 2139,187C2097,157 2070,171 2070,223C2070,279 2111,364 2147,384C2182,403 2185,403 2200,385Z" style="fill:white;fill-rule:nonzero;"/>
            </g>
            <g transform="matrix(0.0702449,-9.77874e-34,-9.77874e-34,-0.0702449,-60.3501,110.476)">
                <path d="M2517,513C2514,508 2504,466 2495,418C2485,369 2474,330 2470,330C2466,330 2457,365 2450,407C2433,512 2435,510 2380,510L2333,510L2326,448C2322,414 2305,317 2289,232C2272,147 2261,76 2263,74C2265,71 2285,75 2306,82L2345,95L2361,183C2370,231 2380,273 2383,276C2388,282 2396,240 2406,143C2412,76 2414,74 2471,90L2507,100L2524,203C2533,259 2551,353 2564,413L2586,520L2554,520C2536,520 2519,517 2517,513Z" style="fill:white;fill-rule:nonzero;"/>
            </g>
            <g transform="matrix(0.0702449,-9.77874e-34,-9.77874e-34,-0.0702449,-60.3501,110.476)">
                <path d="M1098,490C1023,450 971,338 970,213C970,140 973,128 996,101C1027,63 1063,61 1111,93C1146,116 1190,174 1190,196C1190,203 1178,212 1163,218C1139,225 1131,223 1108,198C1059,145 1045,192 1079,292C1105,369 1129,403 1151,397C1161,394 1188,397 1211,402C1250,412 1252,414 1246,443C1232,510 1173,529 1098,490Z" style="fill:white;fill-rule:nonzero;"/>
            </g>
            <g transform="matrix(0.0702449,-9.77874e-34,-9.77874e-34,-0.0702449,-60.3501,110.476)">
                <path d="M1590,501L1555,495L1533,375C1506,222 1496,137 1504,106C1512,75 1559,56 1605,64C1650,73 1706,121 1719,163C1728,189 1761,355 1785,483C1790,512 1790,512 1747,505C1724,501 1703,496 1701,494C1699,492 1685,424 1669,343C1637,178 1628,150 1604,150C1583,150 1587,187 1628,378C1660,523 1663,514 1590,501Z" style="fill:white;fill-rule:nonzero;"/>
            </g>
        </g>
    </g>
</svg>
