<?xml version="1.0" encoding="UTF-8"?><svg id="Layer_1" xmlns="http://www.w3.org/2000/svg" viewBox="0 0 256 256"><path d="m209.24,34.5c-2.28-3.61-5.41-6.73-9.13-8.89l-22.83-12.98c-7.52-4.3-16.71-4.48-24.4-.48h-.36l-.72.48-23.68,13.58-23.44-13.34c-7.83-4.41-17.4-4.41-25.24,0l-22.83,12.62c-1.2.84-2.52,1.68-3.97,2.88-5.09,4.43-8.2,10.7-8.65,17.43v.36l-.12,1.44v27.04l-29.68,17.19-2.4,1.56-.36.24c-5.8,4.42-9.44,11.11-9.98,18.39v.36l-.12,1.44v28.24c.36,3.85,1.56,7.69,3.61,11.06,2.03,3.41,4.83,6.29,8.17,8.41l.12.12.84.6,29.81,17.07v32.57c.6,8.05,5.05,15.38,12.02,19.83l21.63,12.26.48.24c7.51,3.49,16.24,3.13,23.44-.96l26.68-15.38,26.92,15.5.84.48c3.61,1.92,7.81,2.88,11.9,2.88h.24c4.33,0,8.65-1.2,12.38-3.37l19.71-11.18c7.93-4.55,12.83-12.98,12.86-22.11v-31.13l28.84-16.59c7.55-4.29,12.39-12.12,12.86-20.79v-27.76c-.12-9.01-5.05-17.43-12.86-21.99l-28.84-16.59v-27.4c0-4.45-1.2-8.77-3.24-12.5m26.08,115.98h-.12l-22.59,13.1v-26.32l22.83,13.22h-.12Zm-35.33,58.05c0,4.69-2.64,9.61-6.61,11.9l-19.59,11.18v-116.58l26.2,15.02m-118.02,101.43l-20.07-11.42c-3.34-2.13-5.51-5.67-5.89-9.61v-80.76l25.84-14.9m-38.46,22.23v26.92l-23.32-13.46s23.32-13.46,23.32-13.46ZM98.44,23.68l17.07,9.85-29.44,16.95-23.2-13.34,24.04-14.06c3.73-1.56,8.05-1.32,11.54.6Zm-41.94,43.87v-19.47l16.95,9.61-16.83,9.85h-.12Zm105.16,92.54v24.04l-20.79-12.02,20.79-12.02Zm-66.58,72.35v-23.68l20.43,11.78-20.43,11.78v.12Zm0-124.03l33.05-18.99,33.41,19.23v37.14l-33.41,19.23-33.17-19.11v-37.62l.12.12Zm66.58,90.38v33.65l-66.58-38.1v-33.77m-81-19.95v-27.64c.24-3.61,2.04-6.97,4.81-9.13L158.53,23.44c3.9-2.02,8.56-1.93,12.38.24l22.95,13.1h.24m-53.24,45.31l29.44-16.83,65.26,37.5c3.97,2.4,6.37,6.61,6.37,11.18v26.44m-59.01-82.44l17.43-10.1v20.07l-17.43-9.98Z" fill="#fff"/></svg>