<?xml version="1.0" encoding="utf-8"?>
<!-- Generator: Adobe Illustrator 22.0.1, SVG Export Plug-In . SVG Version: 6.00 Build 0)  -->
<svg version="1.1" id="Layer_1" xmlns="http://www.w3.org/2000/svg" xmlns:xlink="http://www.w3.org/1999/xlink" x="0px" y="0px"
	 viewBox="0 0 40 40" style="enable-background:new 0 0 40 40;" xml:space="preserve">
<style type="text/css">
	.st0{fill:#FFFFFF;}
</style>
<g>
	<path class="st0" d="M10.9,7.4c0,0,1.7,3.9-0.8,6.4s-7.5,6.2-6.7,11c0,0-1.5-2.1-0.6-5.4s5.8-5.3,7.1-8.3S10.9,7.4,10.9,7.4z"/>
	<path class="st0" d="M1.3,7.4c0,0-0.6,3.6,3.1,5.8s6.8,3.7,4.1,8.7s-5,4.8-4.6,10.7c0,0-2.8-2.6-1.1-6.6c1.2-2.7,5.3-4.5,5.4-7.4
		c-0.3-1.3-1.2-1.6-3.3-2.9S-1.3,12.2,1.3,7.4z"/>
	<circle class="st0" cx="6.3" cy="11.6" r="1.4"/>
	<g>
		<polygon class="st0" points="13.2,14.8 13.2,15.3 13.2,19.2 13.2,21 13.2,26.4 15.2,26.4 15.2,21 21.3,21 21.3,19.2 15.2,19.2 
			15.2,15.3 21.3,15.3 21.3,13.5 13.2,13.5 		"/>
		<polygon class="st0" points="39.6,13.5 35.7,13.5 33.7,13.5 29.8,13.5 29.8,15.5 33.7,15.5 33.7,26.4 35.7,26.4 35.7,15.5 
			39.6,15.5 		"/>
		<polygon class="st0" points="25.3,13.5 23.3,13.5 23.3,26.4 23.6,26.4 25.3,26.4 30.3,26.4 30.3,24.6 25.3,24.6 		"/>
	</g>
</g>
</svg>
