<?xml version="1.0" standalone="no"?>
<!DOCTYPE svg PUBLIC "-//W3C//DTD SVG 20010904//EN"
 "http://www.w3.org/TR/2001/REC-SVG-20010904/DTD/svg10.dtd">
<svg version="1.0" xmlns="http://www.w3.org/2000/svg"
 width="581.000000pt" height="544.000000pt" viewBox="0 0 581.000000 544.000000"
 preserveAspectRatio="xMidYMid meet">

<g transform="translate(0.000000,544.000000) scale(0.100000,-0.100000)"
fill="#ffffff" stroke="none">
<path d="M2975 5354 c-423 -33 -760 -127 -1120 -313 -418 -215 -771 -532
-1027 -922 l-70 -106 -376 147 -377 147 -3 -355 c-1 -211 2 -358 7 -361 5 -4
121 -26 258 -50 136 -24 250 -45 252 -47 2 -2 -7 -39 -19 -83 -21 -71 -26 -80
-44 -76 -12 3 -106 18 -211 35 -104 17 -202 33 -218 36 l-27 6 0 -291 0 -291
201 0 201 0 -6 -22 c-3 -13 -6 -47 -6 -75 l0 -53 -82 0 c-46 0 -134 -3 -195
-7 l-113 -6 0 -279 c0 -153 3 -278 8 -278 4 0 101 18 217 39 115 22 211 39
212 38 1 -2 6 -21 11 -44 12 -51 34 -42 -213 -88 -104 -19 -200 -37 -213 -40
l-22 -5 0 -225 c0 -124 3 -225 6 -225 5 0 458 162 527 189 28 11 28 10 57 -55
17 -36 30 -71 30 -77 0 -7 -133 -61 -295 -122 -162 -60 -295 -113 -295 -117 0
-13 111 -98 174 -132 84 -47 194 -83 302 -97 l89 -12 109 62 c60 33 111 61
115 61 7 -1 84 -110 79 -114 -1 -2 -29 -18 -61 -36 -32 -18 -55 -36 -50 -40
17 -15 93 -39 158 -51 l67 -11 116 -117 c434 -435 994 -699 1616 -762 152 -15
523 -7 666 15 1038 160 1891 877 2208 1856 142 438 164 906 66 1350 -235 1056
-1110 1840 -2218 1985 -119 15 -398 26 -491 19z m750 -679 c373 -59 713 -201
997 -416 516 -392 813 -1022 785 -1664 -48 -1071 -894 -1966 -2016 -2132 -161
-24 -485 -23 -641 0 -368 57 -698 189 -973 390 l-67 49 57 35 c107 64 237 170
400 327 l162 156 153 74 c397 192 742 307 1090 363 70 11 167 17 303 17 170 0
217 -3 313 -22 212 -43 383 -118 518 -229 l64 -53 -6 47 c-19 174 -54 294
-121 425 -80 156 -214 306 -356 397 -54 36 -67 49 -67 70 0 45 -47 130 -103
186 -134 133 -372 247 -742 354 -71 21 -535 183 -1030 361 -495 177 -912 327
-927 332 l-28 10 33 45 c55 78 255 280 361 365 378 305 808 478 1321 532 83 9
424 -4 520 -19z m165 -2162 c0 -7 -16 -31 -36 -53 -68 -75 -157 -75 -276 2
-59 38 -218 190 -238 227 -7 14 55 -3 270 -73 171 -55 280 -96 280 -103z"/>
</g>
</svg>
