<?xml version="1.0" encoding="UTF-8" standalone="no"?>
<!DOCTYPE svg PUBLIC "-//W3C//DTD SVG 1.1//EN" "http://www.w3.org/Graphics/SVG/1.1/DTD/svg11.dtd">
<svg width="100%" height="100%" viewBox="0 0 48 48" version="1.1" xmlns="http://www.w3.org/2000/svg" xmlns:xlink="http://www.w3.org/1999/xlink" xml:space="preserve" xmlns:serif="http://www.serif.com/" style="fill-rule:evenodd;clip-rule:evenodd;stroke-linejoin:round;stroke-miterlimit:2;">
    <g transform="matrix(0.024,6.30985e-34,6.30985e-34,-0.024,-1.11022e-14,44.4)">
        <path d="M0,1700L0,0L2000,0L2000,1700L0,1700ZM1204,1372C1206,1368 1212,1289 1216,1196C1222,1057 1221,1026 1209,1019C1188,1006 1124,1008 1112,1023C1107,1029 1095,1082 1086,1140C1058,1308 1070,1291 976,1288L895,1285L895,525L972,520C1058,514 1073,506 1068,464L1065,435L798,432L530,430L530,469C530,506 532,509 563,515C580,517 615,521 640,522L685,525L688,908L690,1290L524,1290L513,1233C507,1201 496,1142 489,1102C475,1020 463,1007 402,1012L365,1015L369,1190C371,1286 374,1368 377,1373C383,1382 1197,1382 1204,1372ZM1705,1335C1705,1296 1704,1295 1661,1288C1636,1284 1613,1277 1608,1272C1604,1268 1601,1098 1602,894L1605,525L1648,519C1696,513 1711,498 1708,460L1705,435L1295,435L1292,466C1288,504 1304,518 1355,522L1395,525L1398,891C1401,1298 1404,1278 1332,1289C1297,1295 1295,1297 1292,1338L1289,1380L1497,1378L1705,1375L1705,1335ZM1760,310L1760,230L340,230L340,310L1760,310Z" style="fill:white;fill-rule:nonzero;"/>
    </g>
</svg>
