<?xml version="1.0" encoding="UTF-8" standalone="no"?>
<!DOCTYPE svg PUBLIC "-//W3C//DTD SVG 1.1//EN" "http://www.w3.org/Graphics/SVG/1.1/DTD/svg11.dtd">
<svg width="100%" height="100%" viewBox="0 0 67 67" version="1.1" xmlns="http://www.w3.org/2000/svg" xmlns:xlink="http://www.w3.org/1999/xlink" xml:space="preserve" xmlns:serif="http://www.serif.com/" style="fill-rule:evenodd;clip-rule:evenodd;stroke-linejoin:round;stroke-miterlimit:2;">
    <g transform="matrix(0.0391813,7.78928e-34,7.78928e-34,-0.0391813,1.77636e-15,68.6462)">
        <path d="M820,1694C632,1645 415,1530 248,1392C165,1324 108,1261 41,1166L0,1107L0,959C0,820 1,811 20,805C47,796 80,808 80,826C80,860 133,987 179,1063C264,1203 401,1338 576,1452C664,1509 830,1593 839,1585C842,1581 838,1573 830,1567C798,1542 688,1400 606,1277C396,962 270,604 270,321C270,244 272,237 298,213C351,163 400,159 400,205C400,242 454,378 518,500C668,790 904,1082 1161,1295C1252,1371 1291,1388 1233,1327C1070,1154 868,762 853,589C848,526 848,523 876,501C924,463 984,492 996,559C1004,607 1069,727 1127,803C1221,924 1377,1067 1528,1169C1593,1213 1619,1217 1583,1177C1505,1091 1407,900 1346,718C1284,532 1268,447 1266,300C1265,191 1268,170 1284,145C1313,100 1330,91 1385,90L1435,90L1432,215C1430,299 1434,368 1445,425C1476,592 1577,858 1674,1028L1710,1092L1710,1221C1710,1319 1707,1350 1697,1350C1679,1350 1475,1235 1400,1182C1338,1139 1251,1070 1221,1042C1151,976 1316,1224 1447,1383C1476,1419 1476,1452 1448,1484C1411,1525 1383,1525 1308,1486C1144,1401 1003,1292 850,1134C729,1008 666,927 533,724C508,687 553,797 617,930C700,1104 777,1236 912,1435C971,1524 1020,1603 1020,1611C1020,1633 992,1668 962,1684C917,1707 878,1710 820,1694Z" style="fill:white;fill-rule:nonzero;"/>
    </g>
</svg>
