<?xml version="1.0" encoding="UTF-8" standalone="no"?>
<!DOCTYPE svg PUBLIC "-//W3C//DTD SVG 1.1//EN" "http://www.w3.org/Graphics/SVG/1.1/DTD/svg11.dtd">
<svg width="100%" height="100%" viewBox="0 0 67 67" version="1.1" xmlns="http://www.w3.org/2000/svg" xmlns:xlink="http://www.w3.org/1999/xlink" xml:space="preserve" xmlns:serif="http://www.serif.com/" style="fill-rule:evenodd;clip-rule:evenodd;stroke-linejoin:round;stroke-miterlimit:2;">
    <g transform="matrix(0.0391813,7.78928e-34,7.78928e-34,-0.0391813,1.77636e-15,68.6462)">
        <g transform="matrix(84.285,1.67559e-30,1.67559e-30,-84.285,-4.53369e-14,1739.86)">
            <path d="M0.464,5.986C0.236,5.911 0,6.078 0,6.315L0,19.167C0,19.627 0.378,20 0.845,20L3.945,20C4.412,20 4.79,19.627 4.79,19.167L4.79,8.208C4.79,7.73 4.48,7.305 4.02,7.154L0.464,5.986Z" style="fill:white;"/>
        </g>
        <g transform="matrix(84.285,1.67559e-30,1.67559e-30,-84.285,-4.53369e-14,1739.86)">
            <path d="M7.749,8.861C7.749,8.624 7.985,8.457 8.213,8.532L10.144,9.167L12.076,8.532C12.304,8.457 12.539,8.624 12.539,8.861L12.539,19.167C12.539,19.627 12.161,20 11.694,20L8.594,20C8.127,20 7.749,19.627 7.749,19.167L7.749,8.861Z" style="fill:white;"/>
        </g>
        <g transform="matrix(84.285,1.67559e-30,1.67559e-30,-84.285,-4.53369e-14,1739.86)">
            <path d="M16.269,7.154C15.809,7.305 15.498,7.73 15.498,8.208L15.498,19.167C15.498,19.627 15.877,20 16.343,20L19.443,20C19.91,20 20.288,19.627 20.288,19.167L20.288,6.315C20.288,6.078 20.053,5.911 19.825,5.986L16.269,7.154Z" style="fill:white;"/>
        </g>
        <g transform="matrix(84.285,1.67559e-30,1.67559e-30,-84.285,-4.53369e-14,1739.86)">
            <path d="M10.144,6.389L0.385,3.182C0.155,3.107 0,2.894 0,2.655L0,1.111C0,0.497 0.505,0 1.127,0L19.161,0C19.783,0 20.288,0.497 20.288,1.111L20.288,2.655C20.288,2.894 20.133,3.107 19.903,3.182L10.144,6.389Z" style="fill:white;fill-rule:nonzero;"/>
        </g>
    </g>
</svg>
