<?xml version="1.0" encoding="UTF-8" standalone="no"?>
<!DOCTYPE svg PUBLIC "-//W3C//DTD SVG 1.1//EN" "http://www.w3.org/Graphics/SVG/1.1/DTD/svg11.dtd">
<svg width="100%" height="100%" viewBox="0 0 48 48" version="1.1" xmlns="http://www.w3.org/2000/svg" xmlns:xlink="http://www.w3.org/1999/xlink" xml:space="preserve" xmlns:serif="http://www.serif.com/" style="fill-rule:evenodd;clip-rule:evenodd;stroke-linejoin:round;stroke-miterlimit:2;">
    <g>
        <g transform="matrix(0.0241211,0,0,-0.0241211,-0.0516333,48.1325)">
            <path d="M879,1990C468,1939 128,1632 28,1223C-4,1091 -2,890 33,759C84,570 171,421 308,288C444,156 586,77 775,30C893,0 1086,-3 1204,24C1403,69 1546,147 1692,288C1891,480 1993,720 1993,995C1994,1280 1895,1516 1692,1712C1557,1842 1418,1921 1246,1965C1141,1992 978,2003 879,1990ZM1155,1695C1194,1687 1268,1659 1320,1634C1399,1595 1429,1572 1500,1501C1577,1423 1620,1366 1609,1357C1607,1355 1471,1275 1308,1179C1144,1083 1010,1003 1010,1000C1010,997 1143,916 1305,821C1467,726 1603,644 1606,639C1615,624 1545,537 1472,470C1393,397 1257,326 1155,305C1066,286 934,286 845,305C807,313 732,341 680,366C601,405 570,428 499,499C428,570 405,601 366,680C312,790 290,881 290,1000C290,1119 312,1210 366,1320C405,1399 428,1430 499,1501C640,1641 798,1708 995,1709C1045,1709 1117,1703 1155,1695Z" style="fill:white;fill-rule:nonzero;"/>
        </g>
        <g transform="matrix(0.0241595,0,0,-0.0241595,-0.128201,48.1327)">
            <path d="M949,1437C928,1421 910,1386 910,1360C910,1330 963,1280 995,1280C1027,1280 1080,1329 1080,1359C1080,1427 999,1476 949,1437Z" style="fill:white;fill-rule:nonzero;"/>
        </g>
    </g>
</svg>
