<?xml version="1.0" standalone="no"?>
<!DOCTYPE svg PUBLIC "-//W3C//DTD SVG 20010904//EN" "http://www.w3.org/TR/2001/REC-SVG-20010904/DTD/svg10.dtd">
<svg version="1.0" xmlns="http://www.w3.org/2000/svg"
  width="1000.000000pt" height="1000.000000pt" viewBox="0 0 1000.000000 1000.000000">

  <g transform="translate(0.000000,1000.000000) scale(0.100000,-0.100000)"
    fill="#ffffff" stroke="none">
    <path
      d="M8440 6330 l0 -920 135 0 135 0 2 611 3 612 50 -64 c27 -35 314 -327
638 -649 l587 -585 0 918 0 917 -130 0 -130 0 -1 -607 c0 -575 -1 -607 -17
-583 -48 70 -173 198 -513 524 -206 198 -461 447 -566 553 l-193 193 0 -920z" />
    <path
      d="M7065 7176 c-90 -17 -207 -63 -294 -115 -143 -85 -297 -260 -366
-416 -54 -123 -70 -207 -69 -365 1 -127 4 -156 27 -233 103 -338 360 -574 698
-643 100 -20 301 -15 394 11 215 58 401 192 524 375 116 174 157 321 148 534
-6 155 -22 217 -87 351 -59 122 -149 235 -250 316 -85 68 -243 149 -340 174
-88 22 -296 28 -385 11z m310 -258 c28 -5 88 -28 135 -50 111 -53 238 -177
288 -282 123 -254 85 -539 -99 -739 -118 -129 -261 -197 -434 -205 -121 -5
-201 11 -312 65 -108 52 -233 176 -285 283 -57 117 -71 185 -66 325 6 133 26
205 89 312 71 120 221 238 362 283 85 27 215 31 322 8z" />
    <path
      d="M290 6291 l0 -881 135 0 135 0 0 315 0 315 178 0 c145 0 193 4 256
20 262 67 407 264 407 555 0 60 -6 123 -16 159 -48 180 -188 314 -390 372 -50
14 -116 18 -382 21 l-323 5 0 -881z m633 615 c126 -38 211 -155 211 -290 1
-135 -60 -238 -172 -293 -55 -27 -64 -28 -229 -31 l-173 -4 0 316 0 316 158 0
c107 0 174 -5 205 -14z" />
    <path
      d="M1478 7138 c32 -53 93 -164 371 -670 l261 -476 0 -291 0 -291 135 0
135 0 0 288 0 287 286 520 c157 286 303 553 325 593 l40 72 -150 0 -150 0 -45
-82 c-98 -182 -406 -781 -417 -813 -16 -42 -25 -44 -34 -8 -6 26 -278 549
-409 786 l-61 112 -154 3 -153 3 20 -33z" />
    <path
      d="M3140 7045 l0 -125 220 0 220 0 0 -755 0 -755 130 0 130 0 2 753 3
752 223 3 222 2 0 125 0 125 -575 0 -575 0 0 -125z" />
    <path
      d="M4600 6290 l0 -880 135 0 135 0 0 380 0 380 440 0 440 0 0 -380 0
-380 135 0 135 0 0 880 0 880 -135 0 -135 0 0 -375 0 -375 -440 0 -440 0 0
375 0 375 -135 0 -135 0 0 -880z" />
    <path
      d="M1771 4889 c-191 -17 -373 -103 -525 -248 -126 -121 -216 -277 -256
-442 -25 -105 -27 -286 -4 -397 54 -265 242 -501 495 -621 136 -65 220 -84
384 -84 112 0 156 5 220 22 325 87 574 338 661 666 27 104 25 313 -3 420 -46
171 -134 317 -266 441 -199 188 -430 267 -706 243z m243 -269 c119 -30 209
-82 302 -175 129 -128 187 -271 187 -455 0 -184 -59 -327 -188 -455 -86 -86
-172 -139 -280 -171 -82 -25 -248 -25 -330 0 -172 51 -331 184 -405 337 -92
192 -93 385 -2 574 49 101 115 182 196 240 160 114 342 151 520 105z" />
    <path
      d="M4950 4879 c-98 -9 -149 -23 -234 -66 -136 -68 -233 -200 -256 -346
-21 -135 18 -246 120 -341 71 -65 149 -106 379 -197 194 -76 284 -128 335
-192 41 -51 49 -152 18 -214 -49 -95 -229 -173 -399 -173 -87 0 -232 34 -325
75 -46 20 -88 39 -95 42 -7 3 -33 -38 -68 -108 l-57 -112 24 -19 c33 -25 160
-78 243 -100 243 -65 553 -39 731 62 64 37 153 131 183 192 12 25 29 82 38
125 20 97 9 212 -29 294 -53 116 -202 238 -368 301 -261 100 -315 123 -369
158 -75 48 -101 88 -101 153 0 65 19 106 70 150 58 49 117 68 236 74 109 6
206 -9 341 -52 l74 -23 9 21 c4 12 25 60 45 106 20 46 33 87 28 91 -14 15
-164 60 -262 79 -118 23 -213 30 -311 20z" />
    <path
      d="M397 4108 c-4 -809 -4 -809 -49 -906 -46 -98 -172 -185 -287 -199
l-51 -6 0 -125 0 -125 70 7 c84 7 207 46 275 85 121 70 219 194 270 341 l30
85 3 808 3 807 -130 0 -130 0 -4 -772z" />
    <path
      d="M3080 3994 l0 -886 338 5 c274 3 349 7 401 21 261 68 401 265 370
519 -20 164 -127 290 -287 338 l-44 13 54 27 c136 69 206 219 195 419 -3 52
-13 115 -21 140 -27 76 -86 150 -150 192 -120 77 -252 98 -628 98 l-228 0 0
-886z m604 622 c64 -19 115 -60 136 -110 62 -141 14 -303 -108 -363 -52 -25
-67 -27 -209 -31 l-153 -4 0 261 0 261 143 0 c95 0 160 -5 191 -14z m-21 -736
c94 -14 159 -44 207 -96 51 -56 60 -79 60 -162 -1 -108 -44 -178 -140 -227
-66 -33 -145 -45 -302 -45 l-138 0 0 270 0 270 123 0 c67 0 153 -5 190 -10z" />
  </g>
</svg>