<?xml version="1.0" encoding="UTF-8" standalone="no"?>
<!DOCTYPE svg PUBLIC "-//W3C//DTD SVG 1.1//EN" "http://www.w3.org/Graphics/SVG/1.1/DTD/svg11.dtd">
<svg width="100%" height="100%" viewBox="0 0 340 340" version="1.1" xmlns="http://www.w3.org/2000/svg" xmlns:xlink="http://www.w3.org/1999/xlink" xml:space="preserve" xmlns:serif="http://www.serif.com/" style="fill-rule:evenodd;clip-rule:evenodd;stroke-linejoin:round;stroke-miterlimit:2;">
    <path d="M170,0C263.826,0 340,76.174 340,170C340,263.826 263.826,340 170,340C76.174,340 0,263.826 0,170C0,76.174 76.174,0 170,0ZM71.105,160.312C80.569,160.312 88.185,165.912 87.401,178.288L60.521,178.288C61.305,183.384 64.945,186.744 71.217,186.744C77.041,186.744 79.505,183.944 80.513,181.816L86.561,181.816C85.049,187.92 79.225,191.84 71.217,191.84C62.705,191.84 54.305,186.968 54.305,176.104C54.305,165.408 62.537,160.312 71.105,160.312ZM130.332,160.312C139.796,160.312 147.412,165.912 146.628,178.288L119.748,178.288C120.532,183.384 124.172,186.744 130.444,186.744C136.268,186.744 138.732,183.944 139.74,181.816L145.788,181.816C144.276,187.92 138.452,191.84 130.444,191.84C121.932,191.84 113.532,186.968 113.532,176.104C113.532,165.408 121.764,160.312 130.332,160.312ZM250.945,160.312C259.177,160.312 266.177,163.056 266.177,171.624L266.177,191L259.289,191L259.289,187.136C257.833,188.816 254.249,191.84 247.249,191.84C240.081,191.84 235.321,188.872 235.321,183.16C235.321,177 238.681,172.128 259.289,173.472L259.289,171.624C259.289,167.48 257.161,165.408 250.945,165.408C245.625,165.408 243.441,167.144 242.937,169.664L236.497,169.664C237.393,163.392 243.217,160.312 250.945,160.312ZM313.152,160.312C322.616,160.312 330.232,165.912 329.448,178.288L302.568,178.288C303.352,183.384 306.992,186.744 313.264,186.744C319.088,186.744 321.552,183.944 322.56,181.816L328.608,181.816C327.096,187.92 321.272,191.84 313.264,191.84C304.752,191.84 296.352,186.968 296.352,176.104C296.352,165.408 304.584,160.312 313.152,160.312ZM292.431,166.416L283.415,166.416L283.415,179.856C283.415,184.896 285.431,186.296 292.431,185.568L292.431,190.944C291.423,191.224 289.911,191.448 288.511,191.448C279.439,191.448 276.527,187.752 276.527,179.856L276.527,166.416L270.703,166.416L270.703,161.152L276.527,161.152L276.527,153.424L283.415,153.424L283.415,161.152L292.431,161.152L292.431,166.416ZM52.016,191L44.064,191L35.44,177.168C35.048,177.168 34.6,177.224 34.208,177.224L19.368,177.224L19.368,191L12.48,191L12.48,151.8L36.448,151.8C46.192,151.8 50.672,156.896 50.672,164.456C50.672,169.944 47.872,174.032 42.328,175.992L52.016,191ZM111.289,155.44C104.289,154.768 102.385,155.832 102.385,161.152L110.505,161.152L110.505,166.416L102.385,166.416L102.385,191L95.497,191L95.497,166.416L90.289,166.416L90.289,161.152L95.497,161.152C95.497,155.048 97.625,149.672 106.193,149.672C108.209,149.672 109.665,149.784 111.289,150.008L111.289,155.44ZM171.175,160.312C172.519,160.312 173.303,160.368 174.479,160.536L174.479,167.368L174.255,167.368C173.079,167.032 171.567,166.808 169.663,166.808C162.103,166.808 159.247,171.176 159.247,175.824L159.247,191L152.303,191L152.303,161.152L159.247,161.152L159.247,166.752C160.591,164.568 164.735,160.312 171.175,160.312ZM218.164,160.312C225.948,160.312 229.7,164.736 229.7,171.68L229.7,191L222.756,191L222.756,173.752C222.756,168.712 220.908,165.912 215.644,165.912C210.436,165.912 208.308,169.272 208.308,173.752L208.308,191L201.42,191L201.42,173.752C201.42,168.712 199.516,165.912 194.308,165.912C189.1,165.912 186.972,169.272 186.972,173.752L186.972,191L180.084,191L180.084,161.152L186.972,161.152L186.972,165.52C188.092,163.56 190.948,160.312 196.772,160.312C201.924,160.312 205.284,162.216 206.964,165.52C208.476,163.504 212.172,160.312 218.164,160.312ZM259.289,182.6L259.289,177.616C246.857,177 242.377,178.064 242.377,182.712C242.377,185.736 244.729,187.248 248.705,187.248C253.969,187.248 257.441,185.288 259.289,182.6ZM60.689,173.248L81.241,173.248C80.345,168.544 77.097,165.408 71.105,165.408C65.561,165.408 61.753,168.544 60.689,173.248ZM119.916,173.248L140.468,173.248C139.572,168.544 136.324,165.408 130.332,165.408C124.788,165.408 120.98,168.544 119.916,173.248ZM302.736,173.248L323.288,173.248C322.392,168.544 319.144,165.408 313.152,165.408C307.608,165.408 303.8,168.544 302.736,173.248ZM19.368,157.624L19.368,171.456L35.048,171.456C40.48,171.456 43.616,169.104 43.616,164.456C43.616,159.696 40.648,157.624 35.048,157.624L19.368,157.624Z" style="fill:white;"/>
</svg>
