<?xml version="1.0" encoding="UTF-8"?>
<svg width="40px" height="40px" viewBox="0 0 40 40" version="1.1" xmlns="http://www.w3.org/2000/svg" xmlns:xlink="http://www.w3.org/1999/xlink">
    <title>画板备份 2@1x</title>
    <g id="画板备份-2" stroke="none" stroke-width="1" fill="none" fill-rule="evenodd">
        <g id="编组-5" transform="translate(0.600000, 3.700000)" fill="#FFFFFF">
            <path d="M16.6276485,18.4111216 C17.1366625,18.4111216 17.5492998,18.823759 17.5492998,19.3327729 L17.5492998,31.5042767 C17.5492998,32.0132907 17.1366625,32.425928 16.6276485,32.425928 L10.1581249,32.425928 C9.64911094,32.425928 9.23647359,32.0132907 9.23647359,31.5042767 L9.23647359,19.3327729 C9.23647359,18.823759 9.64911094,18.4111216 10.1581249,18.4111216 L16.6276485,18.4111216 Z M13.3928867,20.5943308 C12.4833707,20.5943308 11.8303607,20.8480983 11.4338568,21.3556332 C11.0733987,21.8170286 10.8767852,22.4755813 10.8440163,23.3312914 L10.839101,23.5939191 L10.839101,27.1751766 C10.839101,27.6618019 10.8842009,28.0875989 10.9744009,28.4525678 C11.0646008,28.8175368 11.2074174,29.1368846 11.4028506,29.4106113 C11.5982838,29.6843379 11.8623065,29.8915338 12.1949188,30.0321989 C12.5275311,30.172864 12.9268537,30.2431966 13.3928867,30.2431966 C14.2948861,30.2431966 14.9460169,29.9789743 15.3462791,29.4505297 C15.7101538,28.9701256 15.908631,28.3012044 15.9417105,27.4437662 L15.9466724,27.1808793 L15.9466724,23.5939191 C15.9466724,22.6168669 15.7474809,21.8726725 15.3490978,21.3613358 C14.9507148,20.8499992 14.2986444,20.5943308 13.3928867,20.5943308 Z M13.3928867,21.6208059 C13.6484532,21.6208059 13.8598593,21.6578731 14.027105,21.7320074 C14.1943507,21.8061417 14.3211944,21.9230458 14.407636,22.0827197 C14.4940776,22.2423936 14.5532713,22.4172745 14.5852171,22.6073625 C14.6091765,22.7499285 14.6241511,22.9192256 14.6301409,23.1152538 L14.6331358,23.3201924 L14.6331358,27.4603086 C14.6331358,27.7492423 14.6171629,27.9916045 14.5852171,28.1873951 C14.5532713,28.3831857 14.4940776,28.5628189 14.407636,28.7262945 C14.3211944,28.8897702 14.1943507,29.0114265 14.027105,29.0912634 C13.8598593,29.1711004 13.6484532,29.2110189 13.3928867,29.2110189 C13.1373202,29.2110189 12.9249745,29.1711004 12.7558496,29.0912634 C12.5904831,29.0114265 12.464579,28.8897702 12.3781374,28.7262945 C12.2916958,28.5628189 12.2325021,28.3831857 12.2005563,28.1873951 C12.1765969,28.0405522 12.1616223,27.8675127 12.1556325,27.6682767 L12.1526376,27.4603086 L12.1526376,23.3201924 C12.1526376,23.0350605 12.1686105,22.7974505 12.2005563,22.6073625 C12.2325021,22.4172745 12.2916958,22.2423936 12.3781374,22.0827197 C12.464579,21.9230458 12.5914227,21.8061417 12.7586684,21.7320074 C12.9259141,21.6578731 13.1373202,21.6208059 13.3928867,21.6208059 Z" id="形状结合"></path>
            <path d="M7.39117489,18.4111216 C7.90018887,18.4111216 8.31282623,18.823759 8.31282623,19.3327729 L8.31282623,31.5042767 C8.31282623,32.0132907 7.90018887,32.425928 7.39117489,32.425928 L0.921651334,32.425928 C0.412637357,32.425928 9.66526692e-16,32.0132907 0,31.5042767 L0,19.3327729 C-6.23362337e-17,18.823759 0.412637357,18.4111216 0.921651334,18.4111216 L7.39117489,18.4111216 Z M4.25225055,20.5943308 C3.86514248,20.5943308 3.52595314,20.6437537 3.2346825,20.7425995 C2.94341187,20.8414452 2.70381829,20.9783086 2.51590175,21.1531895 C2.32798522,21.3280704 2.17577282,21.5504734 2.05926457,21.8203983 C1.94275632,22.0903232 1.86101262,22.3811578 1.81403349,22.6929021 C1.76705436,23.0046464 1.74356479,23.3601109 1.74356479,23.7592957 L1.74356479,27.1010423 C1.74356479,27.4736148 1.76611477,27.8100705 1.81121474,28.1104095 C1.85631471,28.4107485 1.9380584,28.6968309 2.05644582,28.9686567 C2.17483324,29.2404825 2.32704563,29.4676376 2.51308301,29.6501221 C2.69912038,29.8326066 2.93871396,29.9770734 3.23186376,30.0835227 C3.52501355,30.189972 3.86514248,30.2431966 4.25225055,30.2431966 C4.6130503,30.2431966 4.93062924,30.196625 5.20498739,30.1034819 C5.47934553,30.0103388 5.70484537,29.8820294 5.88148692,29.7185538 C6.05812846,29.5550781 6.20094503,29.3488327 6.30993662,29.0998174 C6.41892821,28.8508022 6.49597399,28.5837285 6.54107396,28.2985966 C6.58617393,28.0134646 6.60872391,27.6903151 6.60872391,27.3291479 L6.60872391,26.6277233 L5.37411227,26.6277233 L5.37387737,27.4302113 C5.37309439,27.6023466 5.37035394,27.7454406 5.36565602,27.8594934 C5.36001853,27.9963567 5.34592479,28.1455758 5.3233748,28.3071505 C5.30082482,28.4687253 5.26512068,28.5970347 5.21626238,28.6920787 C5.16740408,28.7871227 5.10257287,28.8783649 5.02176876,28.9658054 C4.94096465,29.0532459 4.83761056,29.1159749 4.71170648,29.1539925 C4.5858024,29.1920101 4.43640875,29.2110189 4.26352554,29.2110189 C3.81252585,29.2110189 3.49870524,29.0722547 3.32206369,28.7947262 C3.14542215,28.5171978 3.05710138,28.022969 3.05710138,27.31204 L3.05710138,23.5711086 C3.05710138,23.3506065 3.06179929,23.1652707 3.07119512,23.0151012 C3.08059094,22.8649317 3.09844302,22.7090596 3.12475133,22.5474848 C3.15105965,22.38591 3.1914617,22.2537989 3.2459575,22.1511514 C3.30045329,22.0485039 3.37092199,21.9544103 3.4573636,21.8688707 C3.54380521,21.7833311 3.65467596,21.7206021 3.78997587,21.6806836 C3.92527577,21.6407652 4.08312567,21.6208059 4.26352554,21.6208059 C4.38379212,21.6208059 4.49278371,21.6303103 4.59050031,21.6493191 C4.68821691,21.6683279 4.77277935,21.6920889 4.84418764,21.7206021 C4.91559592,21.7491153 4.97948754,21.7928355 5.0358625,21.8517628 C5.09223746,21.9106901 5.1392166,21.9658156 5.17679991,22.0171394 C5.21438321,22.0684631 5.24538944,22.1397461 5.26981859,22.2309883 C5.29424774,22.3222306 5.31397898,22.4020675 5.3290123,22.4704992 C5.34404562,22.5389309 5.35438103,22.6339748 5.36001853,22.7556311 C5.36565602,22.8772875 5.36941436,22.9789845 5.37129352,23.0607224 C5.37317269,23.1424602 5.37411227,23.2555625 5.37411227,23.4000294 L5.37411227,24.0672382 L6.60872391,24.0672382 L6.60872391,23.3144898 C6.60872391,22.4210763 6.42644487,21.7443631 6.06188679,21.2843502 C5.69732871,20.8243373 5.09411663,20.5943308 4.25225055,20.5943308 Z" id="形状结合"></path>
            <path d="M25.8641221,18.4111216 C26.373136,18.4111216 26.7857734,18.823759 26.7857734,19.3327729 L26.7857734,31.5042767 C26.7857734,32.0132907 26.373136,32.425928 25.8641221,32.425928 L19.3945985,32.425928 C18.8855845,32.425928 18.4729472,32.0132907 18.4729472,31.5042767 L18.4729472,19.3327729 C18.4729472,18.823759 18.8855845,18.4111216 19.3945985,18.4111216 L25.8641221,18.4111216 Z M22.3503042,20.7057173 L20.3208056,20.7057173 L20.3208056,30.1606933 L22.4461417,30.1606933 C23.4007577,30.1606933 24.0838343,29.905025 24.4953715,29.3936883 C24.8726139,28.9249631 25.0769536,28.2350163 25.1083905,27.3238481 L25.1126773,27.0698628 L25.1126773,23.5912528 C25.1126773,22.5951918 24.9050295,21.865254 24.489734,21.4014393 C24.1063843,20.9733027 23.4692471,20.7427676 22.5783226,20.709834 L22.3503042,20.7057173 Z M22.3277542,21.6808686 C22.5194291,21.6808686 22.6866748,21.6941748 22.8294914,21.7207871 C22.972308,21.7473994 23.0963329,21.7844666 23.2015661,21.8319886 C23.3067994,21.8795106 23.3951202,21.9479423 23.4665285,22.0372836 C23.5379367,22.126625 23.5961909,22.2207185 23.6412908,22.3195643 C23.6863908,22.41841 23.7202158,22.5457689 23.7427658,22.7016411 C23.7653157,22.8575132 23.7803491,23.0133854 23.7878657,23.1692575 C23.7935032,23.2861616 23.7970267,23.4233814 23.798436,23.5809168 L23.7991407,23.7452241 L23.7990257,26.9307301 C23.7985655,27.1464993 23.7967247,27.3154836 23.7935032,27.4376831 C23.7897449,27.580249 23.7784699,27.7522787 23.7596783,27.9537719 C23.7408866,28.1552652 23.7136387,28.3073356 23.6779346,28.4099831 C23.6422304,28.5126306 23.5896138,28.6247825 23.5200847,28.7464388 C23.4505556,28.8680951 23.3650535,28.956486 23.2635786,29.0116115 C23.1621037,29.066737 23.03526,29.114259 22.8830476,29.1541775 C22.7308352,29.194096 22.5551333,29.2140552 22.3559417,29.2140552 L21.6230672,29.2140552 L21.6230672,21.6808686 L22.3277542,21.6808686 Z" id="形状结合"></path>
            <path d="M32.0616858,17.2732404 L35.2851329,19.0127595 C35.5580117,19.1600173 35.738553,19.4346214 35.765578,19.7435184 L36.7839072,31.3830737 C36.8282706,31.8901507 36.4531672,32.3371816 35.9460902,32.381545 L29.8502317,32.9148636 C29.3431547,32.9592271 28.8961238,32.5841236 28.8517603,32.0770466 L27.8334312,20.4374913 C27.8064062,20.1285944 27.9365202,19.8268114 28.1796823,19.6344059 L31.0520937,17.3615682 C31.340783,17.1331385 31.7377159,17.0984114 32.0616858,17.2732404 Z M33.9826696,21.4468444 L30.2511102,21.7733135 L31.028871,30.6631595 L34.7862037,30.3344355 L34.7083338,29.4443785 L32.1417269,29.6689276 L31.8565167,26.4089599 L34.0004417,26.2213908 L33.9230409,25.3366956 L31.7791159,25.5242647 L31.5220514,22.5860044 L34.062885,22.3637103 L33.9826696,21.4468444 Z M31.5440898,18.2034827 C31.1982368,18.2337409 30.9427402,18.5425643 30.973422,18.893259 C31.0041038,19.2439538 31.3093455,19.5037189 31.6551984,19.4734607 C31.7353734,19.4664463 31.8106927,19.4444619 31.8787168,19.4104562 C32.1731315,19.4880402 32.6397089,19.3759839 33.2159586,19.1138089 L33.2159586,19.1138089 L33.4061204,19.0238107 L33.6034695,18.9236426 L33.807542,18.8136076 L34.0178739,18.6940088 L34.2340011,18.5651494 L34.2853817,18.5336796 L34.2853817,18.5336796 L34.3370485,18.5017227 L33.8513493,18.2395062 L33.727298,18.3137376 L33.5327322,18.424818 L33.3460266,18.5271538 L33.2558616,18.5749562 L33.0823878,18.663658 L32.9186964,18.7429259 L32.8407593,18.778936 L32.693183,18.843536 L32.6580877,18.858115 L32.6580877,18.858115 L32.6237359,18.8720571 L32.4940046,18.921369 L32.4635508,18.9320614 L32.4635508,18.9320614 L32.4339126,18.9420909 L32.3237562,18.9754944 L32.227611,18.9979477 L32.2078523,19.0019707 C32.2058853,19.0095537 32.2037827,19.0170852 32.2015469,19.0245619 C32.2241635,18.9491219 32.2332081,18.8676019 32.2258662,18.7836844 C32.1951844,18.4329896 31.8899427,18.1732245 31.5440898,18.2034827 Z" id="形状结合"></path>
            <path d="M32.2078523,19.0019707 C32.1618066,19.1794821 32.0414617,19.3287322 31.8769672,19.4094338 C31.7749134,19.3822492 31.6931273,19.3319884 31.6345958,19.2570714 C31.4629007,19.0373117 31.6265581,18.5555974 31.8486814,18.1713272 C32.0126207,18.2223062 32.2479684,18.4321695 32.2187154,18.483125 C32.0943564,18.6997449 31.9780028,18.9464864 31.9985178,18.9727444 C32.0378725,19.0231161 32.1516247,19.0221183 32.3237562,18.9754944 Z M34.2853817,18.5336796 L34.3370485,18.5017227 L33.8520847,18.239046 L33.928955,18.1941881 L34.1369345,18.0664454 L34.3504676,17.930785 L34.6794983,17.713052 C34.7165592,17.6879387 34.7537715,17.6625242 34.791119,17.6368142 L34.791119,17.6368142 L35.0166997,17.4790552 L35.0166997,17.4790552 L35.1304673,17.3976029 L35.3594768,17.229725 C35.3977768,17.2012042 35.436132,17.1724167 35.4745264,17.1433683 L35.4745264,17.1433683 L35.7052348,16.9659918 L35.9331559,16.7850477 C36.0081039,16.7245948 36.0820012,16.6640414 36.154772,16.6035008 L36.154772,16.6035008 L36.3696297,16.4220304 C36.4048509,16.3918294 36.4397717,16.36166 36.4743825,16.3315362 L36.4743825,16.3315362 L36.6782522,16.1514543 L36.9691174,15.8848716 C37.0003925,15.8555581 37.0313104,15.8263609 37.0618618,15.7972944 L37.0618618,15.7972944 L37.2406945,15.624575 L37.4102745,15.4556685 L37.5701483,15.2912541 L37.7198623,15.1320112 L37.8589631,14.9786192 L37.9869972,14.8317572 C38.0073888,14.8078622 38.0273004,14.7842675 38.0467225,14.7609874 L38.0467225,14.7609874 L38.1573061,14.6251944 C38.1747326,14.603229 38.1916507,14.5816066 38.2080511,14.5603411 L38.2080511,14.5603411 L38.3001638,14.4371455 L38.3793958,14.3231974 C38.3915026,14.3050145 38.4030537,14.2872451 38.4140398,14.2699035 L38.4140398,14.2699035 L38.4731003,14.1711003 C38.5599816,14.0153611 38.588469,13.9052293 38.5491142,13.8548575 C38.5097595,13.8044857 38.3960073,13.8054836 38.2238758,13.8521074 L38.2238758,13.8521074 L38.1137194,13.8855109 C38.0942352,13.8919754 38.0741992,13.8988846 38.0536274,13.9062328 L38.0536274,13.9062328 L37.9238961,13.9555448 C37.9012454,13.9646262 37.8780911,13.9741351 37.854449,13.9840658 L37.854449,13.9840658 L37.7068727,14.0486659 C37.681344,14.0602609 37.6553596,14.0722661 37.6289356,14.084676 L37.6289356,14.084676 L37.4652442,14.1639438 L37.2917704,14.2526456 L37.2917704,14.2526456 L37.2016054,14.3004481 L37.0148998,14.4027838 L36.8203341,14.5138643 L36.618677,14.6334137 L36.4106975,14.7611565 L36.1971644,14.8968169 L35.8681337,15.1145498 L35.8681337,15.1145498 L35.756513,15.1907876 L35.5309323,15.3485467 C35.4931077,15.3754154 35.4551798,15.4025681 35.4171647,15.429999 L35.4171647,15.429999 L35.1881552,15.5978769 C35.1498552,15.6263976 35.1115,15.6551851 35.0731056,15.6842336 L35.0731056,15.6842336 L34.8423972,15.86161 C34.15982,16.3948978 33.3250533,17.1906197 32.833571,17.7007046 C32.6242504,17.7368492 32.5005638,17.7360218 32.4625113,17.6982226 C32.427107,17.6630538 32.3905178,17.603165 32.3527436,17.518556 L32.3527436,17.518556 L32.6170356,17.2342189 L32.7780804,17.0663733 C33.2741717,16.558805 33.8848281,16.0169102 34.5547846,15.4934827 L34.5547846,15.4934827 L34.921149,15.2131064 L35.1623044,15.035049 L35.4004484,14.8644335 L35.6351171,14.701563 L35.8658464,14.5467405 L35.8658464,14.5467405 L35.9795888,14.4724421 L36.2035391,14.3302601 L36.2035391,14.3302601 L36.3136309,14.2624524 L36.5297582,14.1335931 L36.74009,14.0139943 L36.9441625,13.9039593 L37.1415116,13.8037911 L37.3316734,13.713793 C38.1083959,13.3604093 38.6858641,13.2797634 38.9130363,13.5705304 C39.1402084,13.8612975 38.9222558,14.4021025 38.3914629,15.0702618 L38.3914629,15.0702618 L38.2581338,15.2330024 L38.113198,15.4002565 L37.9570619,15.5716473 L37.7901319,15.7467978 C37.7614333,15.776282 37.7323019,15.8059071 37.7027461,15.8356652 L37.7027461,15.8356652 L37.5203871,16.0157488 C37.4891678,16.0460079 37.4575411,16.0763845 37.4255155,16.1068706 L37.4255155,16.1068706 L37.2286419,16.2910391 L37.0225998,16.4774599 L36.8077957,16.6657559 L36.584636,16.8555504 L36.3535269,17.0464665 L36.114875,17.2381272 L35.8701857,17.4292994 L35.626483,17.6144955 L35.3853276,17.7925528 L35.1471836,17.9631683 L34.9125149,18.1260389 L34.6817856,18.2808613 C34.6436848,18.3059775 34.6057674,18.3307458 34.5680432,18.3551598 L34.5680432,18.3551598 L34.3440929,18.4973417 C34.30718,18.5203133 34.2704795,18.542918 34.2340011,18.5651494 L34.2340011,18.5651494 L34.2853817,18.5336796 L34.2853817,18.5336796 Z" id="形状结合" fill-rule="nonzero"></path>
            <path d="M8.20779651,4.17067782 L8.20779651,3.84918807 C8.18517363,3.31047552 8.07630101,2.59023285 7.88117866,2.1239279 C7.68605631,1.65762295 7.42447924,1.47132245 7.09644745,1.12955858 C6.76841567,0.787794699 6.38241275,0.516990271 5.9384387,0.317145292 C5.49446465,0.117300314 5.01231449,0.0115852162 4.49198821,0 L4.49198821,2.14616129 C4.67297126,2.19829477 4.82567571,2.29097649 4.95010156,2.42420648 C5.07452741,2.55743647 5.17491645,2.71383688 5.25126867,2.89340773 C5.3276209,3.07297858 5.38559203,3.26703096 5.42518208,3.47556485 C5.46477212,3.68409874 5.49022286,3.88684002 5.5015343,4.08378869 C5.5015343,4.17647042 5.49870644,4.26625585 5.49305072,4.35314497 C5.487395,4.44003409 5.48456714,4.52402691 5.48456714,4.60512342 L8.20779651,4.17067782 Z M3.14603987,8.37295168 L4.9048558,6.57331625 C4.76172837,6.43813237 4.62410584,6.30717298 4.49198821,6.18043809 C4.35987058,6.0537032 4.25527746,5.95372346 4.17820884,5.88049886 C4.002052,5.72278433 3.83828119,5.55802897 3.68689641,5.38623279 C3.53551163,5.21443661 3.403394,5.03278326 3.29054352,4.84127276 C3.17769305,4.64976227 3.08961463,4.44417011 3.02630827,4.2244963 C2.9630019,4.0048225 2.93134872,3.7682507 2.93134872,3.51478093 C2.93134872,3.32890309 2.95336833,3.15147424 2.99740754,2.98249439 C3.04144675,2.81351454 3.10888178,2.664249 3.19971265,2.53469778 C3.29054352,2.40514656 3.40477022,2.29671782 3.54239275,2.20941157 C3.68001528,2.12210531 3.83965742,2.07000319 4.02131916,2.0531052 L4.02131916,0 C3.47633394,0.0337959704 2.97951661,0.14504104 2.53086716,0.333735208 C2.08221771,0.522429376 1.69687463,0.780123651 1.37483791,1.10681803 C1.05280119,1.43351241 0.803704411,1.82357424 0.627547573,2.27700351 C0.451390735,2.73043278 0.363312316,3.2387805 0.363312316,3.80204667 C0.363312316,4.28645558 0.425242454,4.7215787 0.549102731,5.10741603 C0.672963008,5.49325336 0.838110044,5.84388655 1.04454384,6.15931561 C1.25097763,6.47474467 1.48493593,6.76482675 1.74641874,7.02956185 C2.00790155,7.29429695 2.27626548,7.55058306 2.55151054,7.79842018 L3.14603987,8.37295168 Z M4.42171287,15.9086082 C4.9429216,15.8916524 5.43338488,15.7955693 5.89310269,15.620359 C6.3528205,15.4451488 6.75397553,15.2035281 7.09656779,14.8954972 C7.43916004,14.5874662 7.71001289,14.2186769 7.90912634,13.7891291 C8.10823979,13.3595813 8.20779651,12.8791661 8.20779651,12.3478833 C8.20779651,11.7996447 8.13459304,11.2966217 7.98818609,10.8388142 C7.84177915,10.3810067 7.64412977,9.95428493 7.39523796,9.55864883 C7.14634615,9.16301274 6.85353226,8.78857143 6.51679628,8.43532492 C6.1800603,8.0820784 5.82136328,7.73589682 5.44070522,7.39678016 L5.1156818,7.11700892 L3.25338544,8.90584927 L3.60476211,9.21953218 C3.84486951,9.43430606 4.07912062,9.66462279 4.30751546,9.91048236 C4.53591029,10.1563419 4.73941595,10.4149184 4.91803242,10.6862117 C5.0966489,10.957505 5.24012771,11.2415152 5.34846885,11.5382423 C5.45680999,11.8349694 5.51098056,12.1415873 5.51098056,12.4580962 C5.51098056,12.6502623 5.49194765,12.8268856 5.45388185,12.987966 C5.41581604,13.1490464 5.35286105,13.291758 5.26501689,13.4161008 C5.17717272,13.5404435 5.06443937,13.6393526 4.92681684,13.7128278 C4.78919431,13.7863031 4.62082632,13.8286927 4.42171287,13.8399966 L4.42171287,15.9086082 Z M4.07912062,13.8004945 C3.8519533,13.7381578 3.66670376,13.6106509 3.523372,13.4179738 C3.38004024,13.2252968 3.26645658,12.9943676 3.18262102,12.7251865 C3.09878546,12.4560053 3.03928926,12.1613227 3.00413241,11.8411388 C2.96897556,11.5209548 2.94598839,11.2021876 2.9351709,10.8848372 L0.363312316,11.4288665 C0.401173536,11.9898968 0.499883145,12.5310927 0.659441144,13.0524541 C0.818999142,13.5738156 1.05022302,14.0413408 1.35311278,14.4550298 C1.65600254,14.8687188 2.03191037,15.2059036 2.48083626,15.4665843 C2.92976216,15.7272651 3.46252361,15.8746063 4.07912062,15.9086082 L4.07912062,13.8004945 Z M17.7037511,15.4899606 L14.4314425,0 L12.3364724,0 L13.3493298,5.76083333 L15.0633962,15.4899606 L17.7037511,15.4899606 Z M11.7344292,15.4899606 L12.3988672,12.0697652 L14.4008104,12.0697652 L14.1678256,10.4839603 L12.5973357,10.4839603 L13.3394353,5.94084361 L12.2953184,0 L9.03353169,15.4899606 L11.7344292,15.4899606 Z M21.1057449,15.4899606 L22.2452945,9.08673763 L20.7814116,0 L18.1166187,0 L21.1057449,15.4899606 Z M23.4682532,15.4899606 L26.3739704,0 L23.9171702,0 L21.4195594,15.4899606 L23.4682532,15.4899606 Z M30.5026463,15.4899606 L30.5026463,0 L28.0254408,0 L28.0254408,15.4899606 L30.5026463,15.4899606 Z M33.805587,2.09323792 L33.805587,0 L30.9155139,0 L30.9155139,2.09323792 L33.805587,2.09323792 Z M32.9798519,8.79159926 L32.9798519,6.69836134 L30.9155139,6.69836134 L30.9155139,8.79159926 L32.9798519,8.79159926 Z M33.805587,15.4899606 L33.805587,13.3967227 L30.9155139,13.3967227 L30.9155139,15.4899606 L33.805587,15.4899606 Z" id="SAVE" fill-rule="nonzero"></path>
        </g>
    </g>
</svg>