<svg width="40" height="40" viewBox="0 0 40 40" fill="none" xmlns="http://www.w3.org/2000/svg">
<g clip-path="url(#clip0_919_991)">
<path d="M36.4851 6.3881H36.4851C36.6795 6.38815 36.8695 6.33046 37.031 6.22236L37.0313 6.22217L39.375 4.65968L39.375 4.65967C39.8284 4.35742 39.951 3.74482 39.6487 3.29141C39.3465 2.83797 38.7338 2.7154 38.2805 3.01775L38.2805 3.01778L35.9367 4.58027L35.9367 4.58027C35.4833 4.88252 35.3608 5.49511 35.663 5.94852L36.4851 6.3881ZM36.4851 6.3881C36.1657 6.3881 35.8531 6.23362 35.663 5.94854L36.4851 6.3881ZM38.8267 25.9192H38.8267C38.6323 25.9193 38.4423 25.8616 38.2807 25.7535L38.2805 25.7534L35.9367 24.1909L35.8344 24.3444L35.9367 24.1909C35.4833 23.8886 35.3608 23.276 35.663 22.8226C35.9653 22.3691 36.578 22.2467 37.0313 22.549L37.0313 22.549L39.375 24.1115L39.4777 23.9574L39.375 24.1115C39.8284 24.4137 39.951 25.0263 39.6487 25.4797C39.4587 25.7647 39.1461 25.9192 38.8267 25.9192ZM38.8278 15.3723H36.4841C35.9392 15.3723 35.4974 14.9305 35.4974 14.3856C35.4974 13.8407 35.9392 13.3989 36.4841 13.3989H38.8278C39.3727 13.3989 39.8145 13.8407 39.8145 14.3856C39.8145 14.9305 39.3727 15.3723 38.8278 15.3723Z" fill="black" stroke="white" stroke-width="0.37037"/>
<path d="M16.0937 0.370798H16.0938C16.9255 0.370578 17.7411 0.591373 18.4577 1.0089V17.2922C17.466 16.8701 16.8547 16.0751 16.8547 15.2347C16.8547 14.383 16.1642 13.6925 15.3124 13.6925C14.4607 13.6925 13.7702 14.383 13.7702 15.2347C13.7702 17.8084 15.8001 19.9197 18.4577 20.5142V29.3174H16.0937C13.8096 29.3174 11.8603 27.6674 11.4635 25.4417L11.4232 25.2156L11.2028 25.1512C8.53803 24.3719 6.6985 21.9352 6.6985 19.1409C6.6985 17.6471 7.22707 16.22 8.19472 15.0843L8.39939 14.8441L8.19471 14.6039C7.227 13.4682 6.6985 12.0411 6.6985 10.5472C6.6985 7.7531 8.53804 5.31629 11.2028 4.53698L11.4232 4.47253L11.4635 4.24651C11.8604 2.02067 13.8096 0.370798 16.0937 0.370798Z" fill="white" stroke="black" stroke-width="0.740741"/>
<path d="M28.5362 4.24638L28.5765 4.4724L28.7968 4.53685C31.4617 5.31624 33.3013 7.75299 33.3012 10.5472C33.3012 12.0411 32.7727 13.4682 31.805 14.6038L31.6004 14.844L31.805 15.0843C32.7727 16.2199 33.3012 17.647 33.3012 19.1409C33.3012 21.935 31.4616 24.3719 28.7968 25.1512L28.5765 25.2156L28.5362 25.4416C28.1394 27.6675 26.1901 29.3173 23.906 29.3173H21.542V12.3959C22.5336 12.818 23.145 13.613 23.145 14.4534C23.145 15.3052 23.8355 15.9957 24.6872 15.9957C25.539 15.9957 26.2295 15.3052 26.2295 14.4534C26.2295 11.8798 24.1996 9.76839 21.542 9.17398V1.00878C22.2586 0.591251 23.0742 0.370456 23.9059 0.370676H23.906C26.1901 0.370676 28.1394 2.02063 28.5362 4.24638Z" fill="black" stroke="white" stroke-width="0.740741"/>
<path d="M16.3993 37.6852H23.6006C22.8994 38.9542 21.5483 39.8152 20 39.8152C18.4517 39.8152 17.1005 38.9542 16.3993 37.6852ZM16.0937 34.9715C15.1172 34.9715 14.3256 34.1799 14.3256 33.2034V32.2165H25.6743V33.2034C25.6743 34.1799 24.8827 34.9715 23.9062 34.9715H16.0937Z" fill="white" stroke="black" stroke-width="0.37"/>
<path d="M3.5144 6.388H3.51446C3.83384 6.388 4.14646 6.23352 4.33646 5.94852C4.63871 5.49511 4.51617 4.88251 4.06276 4.58026L4.06275 4.58025L1.71901 3.01776L1.71898 3.01774C1.26575 2.71545 0.65309 2.8379 0.350755 3.29139L3.5144 6.388ZM3.5144 6.388C3.32002 6.38807 3.13001 6.3304 2.96845 6.22232L2.9682 6.22215M3.5144 6.388L2.9682 6.22215M2.9682 6.22215L0.624467 4.65966L0.624462 4.65966M2.9682 6.22215L0.624462 4.65966M0.624462 4.65966C0.17105 4.35741 0.0485042 3.74481 0.350752 3.2914L0.624462 4.65966ZM1.17283 25.9191H1.17289C1.36724 25.9192 1.55722 25.8615 1.71873 25.7534L1.71901 25.7532L4.06275 24.1907L4.16547 24.3448L4.06276 24.1907C4.51617 23.8885 4.63871 23.2759 4.33646 22.8225C4.03419 22.369 3.42153 22.2464 2.96824 22.5488L2.9682 22.5488L0.624467 24.1113L0.521745 23.9572L0.624462 24.1113C0.171052 24.4136 0.0485041 25.0262 0.350747 25.4796L1.17283 25.9191ZM1.17283 25.9191C0.853469 25.9191 0.540843 25.7647 0.350755 25.4796L1.17283 25.9191ZM3.51556 15.3722H1.17182C0.62691 15.3722 0.185136 14.9304 0.185136 14.3855C0.185136 13.8406 0.62691 13.3988 1.17182 13.3988H3.51556C4.06046 13.3988 4.50224 13.8406 4.50224 14.3855C4.50224 14.9304 4.06046 15.3722 3.51556 15.3722Z" fill="white" stroke="black" stroke-width="0.37037"/>
</g>
<defs>
<clipPath id="clip0_919_991">
<rect width="40" height="40" fill="white"/>
</clipPath>
</defs>
</svg>
