<svg width="40" height="40" viewBox="0 0 40 40" fill="none" xmlns="http://www.w3.org/2000/svg">
<g clip-path="url(#clip0_450_13251)">
<rect width="40" height="40" fill="white"/>
<rect x="0.227273" y="0.227273" width="39.5455" height="39.5455" rx="2.59759" fill="white" stroke="#48484A" stroke-width="0.454545"/>
<path d="M7.11719 7.28809L20.055 20.0564H32.7669V32.9943" stroke="#48484A" stroke-width="2.82486" stroke-linecap="round" stroke-linejoin="round"/>
<path d="M20.0009 33.1638H7.28906V19.9435H20.0009V7.28809H32.7128" stroke="#48484A" stroke-width="2.82486" stroke-linecap="round" stroke-linejoin="round"/>
<rect x="2.03622" y="2.03573" width="10.3916" height="10.3916" rx="1.91898" fill="white" stroke="#48484A" stroke-width="0.681818"/>
<path d="M7.47203 9.8351C7.02955 9.8351 6.62684 9.74063 6.2639 9.55171C5.90593 9.36278 5.62006 9.08436 5.40627 8.71645C5.19746 8.34357 5.09305 7.88617 5.09305 7.34425C5.09305 6.8073 5.19994 6.3499 5.41373 5.97205C5.63249 5.58922 5.92085 5.29837 6.27881 5.0995C6.63678 4.89566 7.03203 4.79374 7.46458 4.79374C7.81757 4.79374 8.12085 4.85837 8.37441 4.98764C8.62797 5.1169 8.83429 5.26357 8.99339 5.42764L8.41915 6.12866C8.29486 6.01928 8.16311 5.9273 8.0239 5.85272C7.88469 5.77815 7.71068 5.74086 7.50186 5.74086C7.12401 5.74086 6.81576 5.88007 6.57712 6.15849C6.33847 6.4369 6.21915 6.81973 6.21915 7.30696C6.21915 7.80414 6.3335 8.19193 6.5622 8.47035C6.7909 8.74877 7.13147 8.88798 7.5839 8.88798C7.68333 8.88798 7.78028 8.87555 7.87475 8.85069C7.96921 8.82583 8.04627 8.78854 8.10593 8.73883V7.90357H7.30051V7.00866H9.07542V9.24594C8.90638 9.41001 8.68017 9.54922 8.39678 9.66357C8.11836 9.77792 7.81011 9.8351 7.47203 9.8351Z" fill="#48484A"/>
<rect x="1.69531" y="14.4634" width="11.0734" height="11.0734" rx="2.25989" fill="#48484A"/>
<path d="M5.43361 22.5142V17.6518H7.18615C7.52921 17.6518 7.84243 17.699 8.12582 17.7935C8.40921 17.883 8.63542 18.0371 8.80446 18.2559C8.9735 18.4746 9.05802 18.7779 9.05802 19.1657C9.05802 19.5237 8.97847 19.8195 8.81938 20.0531C8.66525 20.2818 8.45644 20.4534 8.19293 20.5677L9.29666 22.5142H8.06615L7.13395 20.7616H6.52988V22.5142H5.43361ZM6.52988 19.8891H7.09666C7.38502 19.8891 7.60378 19.8294 7.75293 19.7101C7.90706 19.5858 7.98412 19.4043 7.98412 19.1657C7.98412 18.927 7.90706 18.7605 7.75293 18.666C7.60378 18.5716 7.38502 18.5243 7.09666 18.5243H6.52988V19.8891Z" fill="white"/>
<rect x="1.69531" y="27.2314" width="11.0734" height="11.0734" rx="2.25989" fill="#48484A"/>
<path d="M6.71667 35.2822V31.3446H5.38175V30.4199H9.15531V31.3446H7.8204V35.2822H6.71667Z" fill="white"/>
<rect x="14.4609" y="1.69482" width="11.0734" height="11.0734" rx="2.25989" fill="#48484A"/>
<path d="M18.0899 9.74561V4.88323H19.216L20.4838 7.2995L20.961 8.3734H20.9909C20.971 8.11487 20.9436 7.82651 20.9088 7.50832C20.874 7.19013 20.8566 6.88685 20.8566 6.59849V4.88323H21.9007V9.74561H20.7746L19.5068 7.32188L19.0295 6.26289H18.9997C19.0246 6.53137 19.0519 6.81973 19.0817 7.12798C19.1165 7.43623 19.1339 7.73453 19.1339 8.02289V9.74561H18.0899Z" fill="white"/>
<rect x="14.7791" y="14.7816" width="10.4371" height="10.4371" rx="1.94171" fill="url(#paint0_linear_450_13251)" stroke="#48484A" stroke-width="0.636364"/>
<path d="M19.5668 20.0531L19.4475 20.5006H20.4841L20.3722 20.0531C20.3076 19.8095 20.2405 19.551 20.1709 19.2775C20.1063 19.0041 20.0416 18.7406 19.977 18.487H19.9472C19.8875 18.7456 19.8253 19.0116 19.7607 19.285C19.7011 19.5535 19.6364 19.8095 19.5668 20.0531ZM17.8068 22.5142L19.3282 17.6518H20.6482L22.1695 22.5142H21.0061L20.7078 21.3582H19.2238L18.9255 22.5142H17.8068Z" fill="url(#paint1_linear_450_13251)"/>
<rect x="14.4609" y="27.2314" width="11.0734" height="11.0734" rx="2.25989" fill="#48484A"/>
<path d="M19.9099 35.3717C19.5917 35.3717 19.2735 35.3121 18.9553 35.1927C18.6421 35.0734 18.3612 34.8994 18.1126 34.6707L18.739 33.9175C18.913 34.0666 19.1069 34.1884 19.3207 34.2829C19.5345 34.3774 19.7408 34.4246 19.9397 34.4246C20.1684 34.4246 20.3374 34.3823 20.4468 34.2978C20.5612 34.2133 20.6183 34.0989 20.6183 33.9548C20.6183 33.8006 20.5537 33.6888 20.4244 33.6192C20.3002 33.5446 20.1311 33.4626 19.9173 33.3731L19.2834 33.1046C19.1194 33.035 18.9627 32.943 18.8136 32.8287C18.6644 32.7093 18.5426 32.5627 18.4482 32.3887C18.3537 32.2147 18.3065 32.0108 18.3065 31.7771C18.3065 31.5087 18.3786 31.2651 18.5227 31.0463C18.6719 30.8275 18.8757 30.6535 19.1343 30.5243C19.3978 30.395 19.6986 30.3304 20.0366 30.3304C20.3151 30.3304 20.5935 30.3851 20.8719 30.4944C21.1503 30.6038 21.3939 30.7629 21.6027 30.9717L21.0434 31.6653C20.8843 31.541 20.7252 31.4465 20.5661 31.3819C20.407 31.3123 20.2305 31.2775 20.0366 31.2775C19.8477 31.2775 19.6961 31.3173 19.5817 31.3968C19.4724 31.4714 19.4177 31.5783 19.4177 31.7175C19.4177 31.8666 19.4873 31.9785 19.6265 32.0531C19.7707 32.1277 19.9472 32.2072 20.156 32.2917L20.7824 32.5453C21.0757 32.6646 21.3094 32.8287 21.4834 33.0375C21.6574 33.2463 21.7444 33.5222 21.7444 33.8653C21.7444 34.1338 21.6724 34.3823 21.5282 34.611C21.384 34.8397 21.1752 35.0237 20.9017 35.1629C20.6283 35.3021 20.2977 35.3717 19.9099 35.3717Z" fill="white"/>
<rect x="27.2344" y="1.69482" width="11.0734" height="11.0734" rx="2.25989" fill="#48484A"/>
<rect x="27.5753" y="14.8043" width="10.3916" height="10.3916" rx="1.91898" fill="white" stroke="#48484A" stroke-width="0.681818"/>
<rect x="27.5753" y="27.5724" width="10.3916" height="10.3916" rx="1.91898" fill="white" stroke="#48484A" stroke-width="0.681818"/>
<path d="M30.9727 9.74561V4.88323H32.3449C32.8421 4.88323 33.2721 4.96775 33.635 5.13679C33.998 5.30583 34.2789 5.56933 34.4778 5.9273C34.6816 6.28029 34.7835 6.73521 34.7835 7.29205C34.7835 7.84888 34.6841 8.30877 34.4852 8.67171C34.2863 9.03464 34.0079 9.30561 33.65 9.48459C33.297 9.6586 32.8818 9.74561 32.4045 9.74561H30.9727ZM32.0689 8.85815H32.2778C32.5562 8.85815 32.7973 8.80843 33.0011 8.709C33.21 8.60956 33.3715 8.44549 33.4859 8.21679C33.6002 7.98809 33.6574 7.67984 33.6574 7.29205C33.6574 6.90425 33.6002 6.60097 33.4859 6.38222C33.3715 6.15849 33.21 6.00188 33.0011 5.91239C32.7973 5.81792 32.5562 5.77069 32.2778 5.77069H32.0689V8.85815Z" fill="white"/>
<path d="M30.4024 22.5142V17.6518H31.603L32.3861 19.8145C32.4358 19.9537 32.483 20.1004 32.5278 20.2545C32.5725 20.4086 32.6198 20.5603 32.6695 20.7094H32.6993C32.749 20.5603 32.7938 20.4086 32.8335 20.2545C32.8783 20.1004 32.9255 19.9537 32.9752 19.8145L33.7434 17.6518H34.9366V22.5142H33.9373V20.7318C33.9373 20.5727 33.9447 20.3962 33.9597 20.2023C33.9795 20.0034 33.9994 19.8046 34.0193 19.6057C34.0442 19.4068 34.0641 19.2303 34.079 19.0762H34.0491L33.6539 20.2321L32.9603 22.0891H32.3563L31.6627 20.2321L31.2749 19.0762H31.2451C31.265 19.2303 31.2848 19.4068 31.3047 19.6057C31.3246 19.8046 31.342 20.0034 31.3569 20.2023C31.3768 20.3962 31.3868 20.5727 31.3868 20.7318V22.5142H30.4024Z" fill="#48484A"/>
<path d="M31.1992 35.2822V30.4199H34.2419V31.3446H32.2955V32.3215H33.9511V33.2388H32.2955V34.3575H34.3165V35.2822H31.1992Z" fill="#48484A"/>
</g>
<defs>
<linearGradient id="paint0_linear_450_13251" x1="25.5344" y1="14.4634" x2="14.5745" y2="25.6481" gradientUnits="userSpaceOnUse">
<stop offset="0.495" stop-color="white"/>
<stop offset="0.4951" stop-color="#48484A"/>
</linearGradient>
<linearGradient id="paint1_linear_450_13251" x1="23.3121" y1="17.5142" x2="18.261" y2="23.4277" gradientUnits="userSpaceOnUse">
<stop offset="0.473388" stop-color="#424242"/>
<stop offset="0.476317" stop-color="white"/>
</linearGradient>
<clipPath id="clip0_450_13251">
<rect width="40" height="40" fill="white"/>
</clipPath>
</defs>
</svg>
