<svg xmlns="http://www.w3.org/2000/svg" width="1em" height="1em" viewBox="0 0 77 100" fill="none" class="h-16 w-16 cursor-pointer" aria-hidden="true"><rect x="1.5" y="42.1387" width="10.5463" height="14.824" rx="5.27314" fill="#ffffff" stroke="#ffffff" stroke-width="3"/><rect x="64.9539" y="42.1387" width="10.5463" height="14.824" rx="5.27314" fill="#ffffff" stroke="#ffffff" stroke-width="3"/><path d="M38.5 22.1016L38.5 15.3284" stroke="#ffffff" stroke-width="6" stroke-linecap="round" stroke-linejoin="round" fill="#ffffff"/><path d="M48.4814 79.8516C48.4814 79.8516 66.662 75.9302 68.4444 87.3376" stroke="#ffffff" stroke-width="6" stroke-linecap="round" stroke-linejoin="round" fill="#ffffff"/><path d="M27.0928 79.8516C27.0928 79.8516 8.91224 75.9302 7.12984 87.3376" stroke="#ffffff" stroke-width="6" stroke-linecap="round" stroke-linejoin="round" fill="#ffffff"/><path d="M38.4998 99.4581C14.259 99.4581 19.9627 83.7925 19.9628 73.4351L57.0368 73.4351C56.3238 83.7729 63.4535 99.4581 38.4998 99.4581Z" fill="#ffffff" stroke="#ffffff" stroke-linejoin="round"/><rect x="4.99072" y="27.0925" width="67.0184" height="44.2036" rx="22.1018" fill="#ffffff"/><circle cx="24.597" cy="49.5506" r="8.19906" fill="#ffffff"/><circle cx="52.4027" cy="49.5506" r="8.19906" fill="#ffffff"/><circle cx="38.5001" cy="7.84258" r="4.84258" stroke="#ffffff" stroke-width="6" fill="#ffffff"/></svg>