<svg width="128" height="128" viewBox="0 0 128 128" fill="none" xmlns="http://www.w3.org/2000/svg">
<path fill-rule="evenodd" clip-rule="evenodd" d="M32 0C14.3269 0 0 14.3269 0 32V96C0 113.673 14.3269 128 32 128H96C113.673 128 128 113.673 128 96V32C128 14.3269 113.673 0 96 0H32ZM17.7617 48.416H11.6641V65H7.5625V48.416H1.54688V45.0938H17.7617V48.416ZM32.0898 56.373H24.2148V61.7051H33.457V65H20.1133V45.0938H33.4297V48.416H24.2148V53.1602H32.0898V56.373ZM51.4902 58.3691C51.3353 60.5111 50.5423 62.1973 49.1113 63.4277C47.6895 64.6582 45.8118 65.2734 43.4785 65.2734C40.9264 65.2734 38.9167 64.4167 37.4492 62.7031C35.9909 60.9805 35.2617 58.6198 35.2617 55.6211V54.4043C35.2617 52.4902 35.599 50.804 36.2734 49.3457C36.9479 47.8874 37.9095 46.7708 39.1582 45.9961C40.416 45.2122 41.8743 44.8203 43.5332 44.8203C45.8301 44.8203 47.6803 45.4355 49.084 46.666C50.4876 47.8965 51.2988 49.6237 51.5176 51.8477H47.416C47.3158 50.5625 46.9557 49.6328 46.3359 49.0586C45.7253 48.4753 44.791 48.1836 43.5332 48.1836C42.166 48.1836 41.1406 48.6758 40.457 49.6602C39.7826 50.6354 39.4362 52.153 39.418 54.2129V55.7168C39.418 57.8678 39.7415 59.4401 40.3887 60.4336C41.0449 61.4271 42.0749 61.9238 43.4785 61.9238C44.7454 61.9238 45.6888 61.6367 46.3086 61.0625C46.9375 60.4792 47.2975 59.5814 47.3887 58.3691H51.4902ZM70.3848 65H66.2832V56.4688H58.2852V65H54.1836V45.0938H58.2852V53.1602H66.2832V45.0938H70.3848V65ZM73.9805 65V45.0938H80.9531C83.3685 45.0938 85.2005 45.5586 86.4492 46.4883C87.6979 47.4089 88.3223 48.7624 88.3223 50.5488C88.3223 51.5241 88.0716 52.3854 87.5703 53.1328C87.069 53.8711 86.3717 54.4134 85.4785 54.7598C86.4994 55.015 87.3014 55.5299 87.8848 56.3047C88.4772 57.0794 88.7734 58.0273 88.7734 59.1484C88.7734 61.0625 88.1628 62.5117 86.9414 63.4961C85.7201 64.4805 83.9792 64.9818 81.7188 65H73.9805ZM78.082 56.332V61.7051H81.5957C82.5619 61.7051 83.3138 61.4772 83.8516 61.0215C84.3984 60.5566 84.6719 59.9186 84.6719 59.1074C84.6719 57.2845 83.7285 56.3594 81.8418 56.332H78.082ZM78.082 53.4336H81.1172C83.1862 53.3971 84.2207 52.5723 84.2207 50.959C84.2207 50.0566 83.9564 49.4095 83.4277 49.0176C82.9082 48.6165 82.0833 48.416 80.9531 48.416H78.082V53.4336ZM106.93 45.0938V58.2051C106.93 60.3835 106.246 62.1061 104.879 63.373C103.521 64.64 101.661 65.2734 99.3008 65.2734C96.9766 65.2734 95.1309 64.6582 93.7637 63.4277C92.3965 62.1973 91.6992 60.5065 91.6719 58.3555V45.0938H95.7734V58.2324C95.7734 59.5358 96.0833 60.4883 96.7031 61.0898C97.332 61.6823 98.1979 61.9785 99.3008 61.9785C101.607 61.9785 102.778 60.7663 102.814 58.3418V45.0938H106.93ZM117.156 54.0625L121.299 45.0938H125.783L119.248 57.7812V65H115.078V57.7812L108.543 45.0938H113.041L117.156 54.0625ZM9.88867 85V75.0469H12.9512C13.8262 75.0469 14.6077 75.2451 15.2959 75.6416C15.9886 76.0335 16.5286 76.5941 16.916 77.3232C17.3034 78.0479 17.4971 78.8727 17.4971 79.7979V80.2559C17.4971 81.181 17.3057 82.0036 16.9229 82.7236C16.5446 83.4437 16.0091 84.002 15.3164 84.3984C14.6237 84.7949 13.8421 84.9954 12.9717 85H9.88867ZM11.9395 76.708V83.3525H12.9307C13.7327 83.3525 14.3457 83.0905 14.7695 82.5664C15.1934 82.0423 15.4098 81.2926 15.4189 80.3174V79.791C15.4189 78.7793 15.2093 78.0137 14.79 77.4941C14.3708 76.97 13.7578 76.708 12.9512 76.708H11.9395ZM22.2686 85.1367C21.1839 85.1367 20.2998 84.804 19.6162 84.1387C18.9372 83.4733 18.5977 82.5869 18.5977 81.4795V81.2881C18.5977 80.5452 18.7412 79.8822 19.0283 79.2988C19.3154 78.7109 19.721 78.2598 20.2451 77.9453C20.7738 77.6263 21.3753 77.4668 22.0498 77.4668C23.0615 77.4668 23.8568 77.7858 24.4355 78.4238C25.0189 79.0618 25.3105 79.9665 25.3105 81.1377V81.9443H20.6006C20.6644 82.4274 20.8558 82.8148 21.1748 83.1064C21.4984 83.3981 21.9062 83.5439 22.3984 83.5439C23.1595 83.5439 23.7542 83.2682 24.1826 82.7168L25.1533 83.8037C24.8571 84.223 24.4561 84.5511 23.9502 84.7881C23.4443 85.0205 22.8838 85.1367 22.2686 85.1367ZM22.043 79.0664C21.651 79.0664 21.332 79.1986 21.0859 79.4629C20.8444 79.7272 20.6895 80.1055 20.6211 80.5977H23.3691V80.4404C23.36 80.0029 23.2415 79.6657 23.0137 79.4287C22.7858 79.1872 22.4622 79.0664 22.043 79.0664ZM30.7246 85C30.6335 84.8223 30.5674 84.6012 30.5264 84.3369C30.0479 84.8701 29.4258 85.1367 28.6602 85.1367C27.9355 85.1367 27.334 84.9271 26.8555 84.5078C26.3815 84.0885 26.1445 83.5599 26.1445 82.9219C26.1445 82.138 26.4339 81.5365 27.0127 81.1172C27.596 80.6979 28.4368 80.486 29.5352 80.4814H30.4443V80.0576C30.4443 79.7158 30.3555 79.4424 30.1777 79.2373C30.0046 79.0322 29.7288 78.9297 29.3506 78.9297C29.0179 78.9297 28.7559 79.0094 28.5645 79.1689C28.3776 79.3284 28.2842 79.5472 28.2842 79.8252H26.3086C26.3086 79.3968 26.4408 79.0003 26.7051 78.6357C26.9694 78.2712 27.3431 77.9863 27.8262 77.7812C28.3092 77.5716 28.8516 77.4668 29.4531 77.4668C30.3646 77.4668 31.0869 77.6969 31.6201 78.1572C32.1579 78.613 32.4268 79.2555 32.4268 80.085V83.291C32.4313 83.9928 32.5293 84.5238 32.7207 84.8838V85H30.7246ZM29.0908 83.626C29.3825 83.626 29.6514 83.5622 29.8975 83.4346C30.1436 83.3024 30.3258 83.127 30.4443 82.9082V81.6367H29.7061C28.7171 81.6367 28.1908 81.9785 28.127 82.6621L28.1201 82.7783C28.1201 83.0244 28.2067 83.2272 28.3799 83.3867C28.5531 83.5462 28.79 83.626 29.0908 83.626ZM36.0293 85H34.0469V74.5H36.0293V85ZM41.6689 82.9561C41.6689 82.7145 41.5482 82.5254 41.3066 82.3887C41.0697 82.2474 40.6868 82.1221 40.1582 82.0127C38.3991 81.6436 37.5195 80.8962 37.5195 79.7705C37.5195 79.1143 37.7907 78.5674 38.333 78.1299C38.8799 77.6878 39.5931 77.4668 40.4727 77.4668C41.4115 77.4668 42.1611 77.6878 42.7217 78.1299C43.2868 78.5719 43.5693 79.1462 43.5693 79.8525H41.5938C41.5938 79.57 41.5026 79.3376 41.3203 79.1553C41.138 78.9684 40.8532 78.875 40.4658 78.875C40.1331 78.875 39.8757 78.9502 39.6934 79.1006C39.5111 79.251 39.4199 79.4424 39.4199 79.6748C39.4199 79.8936 39.5225 80.0713 39.7275 80.208C39.9372 80.3402 40.2881 80.4564 40.7803 80.5566C41.2725 80.6523 41.6872 80.7617 42.0244 80.8848C43.068 81.2676 43.5898 81.9307 43.5898 82.874C43.5898 83.5485 43.3005 84.0954 42.7217 84.5146C42.1429 84.9294 41.3955 85.1367 40.4795 85.1367C39.8597 85.1367 39.3083 85.0273 38.8252 84.8086C38.3467 84.5853 37.9707 84.2822 37.6973 83.8994C37.4238 83.512 37.2871 83.095 37.2871 82.6484H39.1602C39.1784 82.9993 39.3083 83.2682 39.5498 83.4551C39.7913 83.6419 40.1149 83.7354 40.5205 83.7354C40.8988 83.7354 41.1836 83.6647 41.375 83.5234C41.571 83.3776 41.6689 83.1885 41.6689 82.9561ZM48.0811 82.3203C48.0811 81.86 48.2087 81.4339 48.4639 81.042C48.7236 80.6501 49.1976 80.2148 49.8857 79.7363C49.5895 79.3398 49.3571 78.9684 49.1885 78.6221C49.0199 78.2712 48.9355 77.9066 48.9355 77.5283C48.9355 76.7536 49.1794 76.1247 49.667 75.6416C50.1592 75.154 50.82 74.9102 51.6494 74.9102C52.3923 74.9102 53.0007 75.1312 53.4746 75.5732C53.9531 76.0153 54.1924 76.5667 54.1924 77.2275C54.1924 78.0205 53.7913 78.72 52.9893 79.3262L52.2236 79.8799L53.9395 81.876C54.2083 81.3473 54.3428 80.764 54.3428 80.126H56.0244C56.0244 81.4202 55.7259 82.4684 55.1289 83.2705L56.6191 85H54.377L53.8643 84.4121C53.1305 84.8952 52.2874 85.1367 51.335 85.1367C50.3506 85.1367 49.5622 84.8792 48.9697 84.3643C48.3773 83.8447 48.0811 83.1634 48.0811 82.3203ZM51.4307 83.5508C51.9046 83.5508 52.3535 83.4186 52.7773 83.1543L50.8154 80.8848L50.6719 80.9873C50.2663 81.3337 50.0635 81.7415 50.0635 82.2109C50.0635 82.6074 50.1888 82.931 50.4395 83.1816C50.6947 83.4277 51.0251 83.5508 51.4307 83.5508ZM50.7061 77.501C50.7061 77.8428 50.9066 78.2734 51.3076 78.793L51.834 78.4443C52.1029 78.2712 52.2874 78.1025 52.3877 77.9385C52.4925 77.7744 52.5449 77.5784 52.5449 77.3506C52.5449 77.1227 52.4606 76.9245 52.292 76.7559C52.1234 76.5872 51.9069 76.5029 51.6426 76.5029C51.36 76.5029 51.1322 76.5941 50.959 76.7764C50.7904 76.9587 50.7061 77.2002 50.7061 77.501ZM68.9717 81.6846C68.8942 82.7555 68.4977 83.5986 67.7822 84.2139C67.0713 84.8291 66.1325 85.1367 64.9658 85.1367C63.6898 85.1367 62.6849 84.7083 61.9512 83.8516C61.222 82.9902 60.8574 81.8099 60.8574 80.3105V79.7021C60.8574 78.7451 61.026 77.902 61.3633 77.1729C61.7005 76.4437 62.1813 75.8854 62.8057 75.498C63.4346 75.1061 64.1637 74.9102 64.9932 74.9102C66.1416 74.9102 67.0667 75.2178 67.7686 75.833C68.4704 76.4482 68.876 77.3118 68.9854 78.4238H66.9346C66.8844 77.7812 66.7044 77.3164 66.3945 77.0293C66.0892 76.7376 65.6221 76.5918 64.9932 76.5918C64.3096 76.5918 63.7969 76.8379 63.4551 77.3301C63.1178 77.8177 62.9447 78.5765 62.9355 79.6064V80.3584C62.9355 81.4339 63.0973 82.22 63.4209 82.7168C63.749 83.2135 64.264 83.4619 64.9658 83.4619C65.5993 83.4619 66.071 83.3184 66.3809 83.0312C66.6953 82.7396 66.8753 82.2907 66.9209 81.6846H68.9717ZM69.8809 81.2334C69.8809 80.4997 70.0221 79.8457 70.3047 79.2715C70.5872 78.6973 70.9928 78.2529 71.5215 77.9385C72.0547 77.624 72.6722 77.4668 73.374 77.4668C74.3721 77.4668 75.1855 77.7721 75.8145 78.3828C76.4479 78.9935 76.8011 79.8229 76.874 80.8711L76.8877 81.377C76.8877 82.5117 76.571 83.4232 75.9375 84.1113C75.304 84.7949 74.4541 85.1367 73.3877 85.1367C72.3213 85.1367 71.4691 84.7949 70.8311 84.1113C70.1976 83.4277 69.8809 82.498 69.8809 81.3223V81.2334ZM71.8564 81.377C71.8564 82.0788 71.9886 82.6165 72.2529 82.9902C72.5173 83.3594 72.8955 83.5439 73.3877 83.5439C73.8662 83.5439 74.2399 83.3616 74.5088 82.9971C74.7777 82.6279 74.9121 82.04 74.9121 81.2334C74.9121 80.5452 74.7777 80.012 74.5088 79.6338C74.2399 79.2555 73.8617 79.0664 73.374 79.0664C72.891 79.0664 72.5173 79.2555 72.2529 79.6338C71.9886 80.0075 71.8564 80.5885 71.8564 81.377ZM82.5342 84.248C82.0465 84.8405 81.3721 85.1367 80.5107 85.1367C79.7178 85.1367 79.1117 84.9089 78.6924 84.4531C78.2777 83.9974 78.0658 83.3298 78.0566 82.4502V77.6035H80.0322V82.3818C80.0322 83.152 80.3831 83.5371 81.085 83.5371C81.7549 83.5371 82.2152 83.3047 82.4658 82.8398V77.6035H84.4482V85H82.5889L82.5342 84.248ZM92.5967 81.3701C92.5967 82.5094 92.3369 83.4232 91.8174 84.1113C91.3024 84.7949 90.6051 85.1367 89.7256 85.1367C88.9782 85.1367 88.3744 84.877 87.9141 84.3574V87.8438H85.9385V77.6035H87.7705L87.8389 78.3281C88.3174 77.7539 88.9417 77.4668 89.7119 77.4668C90.6234 77.4668 91.332 77.804 91.8379 78.4785C92.3438 79.153 92.5967 80.0827 92.5967 81.2676V81.3701ZM90.6211 81.2266C90.6211 80.5384 90.498 80.0075 90.252 79.6338C90.0104 79.2601 89.6572 79.0732 89.1924 79.0732C88.5726 79.0732 88.1465 79.3102 87.9141 79.7842V82.8125C88.1556 83.3001 88.5863 83.5439 89.2061 83.5439C90.1494 83.5439 90.6211 82.7715 90.6211 81.2266ZM93.5195 81.2334C93.5195 80.4997 93.6608 79.8457 93.9434 79.2715C94.2259 78.6973 94.6315 78.2529 95.1602 77.9385C95.6934 77.624 96.3109 77.4668 97.0127 77.4668C98.0107 77.4668 98.8242 77.7721 99.4531 78.3828C100.087 78.9935 100.44 79.8229 100.513 80.8711L100.526 81.377C100.526 82.5117 100.21 83.4232 99.5762 84.1113C98.9427 84.7949 98.0928 85.1367 97.0264 85.1367C95.96 85.1367 95.1077 84.7949 94.4697 84.1113C93.8363 83.4277 93.5195 82.498 93.5195 81.3223V81.2334ZM95.4951 81.377C95.4951 82.0788 95.6273 82.6165 95.8916 82.9902C96.1559 83.3594 96.5342 83.5439 97.0264 83.5439C97.5049 83.5439 97.8786 83.3616 98.1475 82.9971C98.4163 82.6279 98.5508 82.04 98.5508 81.2334C98.5508 80.5452 98.4163 80.012 98.1475 79.6338C97.8786 79.2555 97.5003 79.0664 97.0127 79.0664C96.5296 79.0664 96.1559 79.2555 95.8916 79.6338C95.6273 80.0075 95.4951 80.5885 95.4951 81.377ZM103.562 77.6035L103.623 78.458C104.152 77.7972 104.86 77.4668 105.749 77.4668C106.533 77.4668 107.116 77.6969 107.499 78.1572C107.882 78.6175 108.078 79.3057 108.087 80.2217V85H106.111V80.2695C106.111 79.8503 106.02 79.5472 105.838 79.3604C105.656 79.1689 105.353 79.0732 104.929 79.0732C104.373 79.0732 103.956 79.3102 103.678 79.7842V85H101.702V77.6035H103.562ZM113.597 82.9561C113.597 82.7145 113.476 82.5254 113.234 82.3887C112.997 82.2474 112.615 82.1221 112.086 82.0127C110.327 81.6436 109.447 80.8962 109.447 79.7705C109.447 79.1143 109.718 78.5674 110.261 78.1299C110.808 77.6878 111.521 77.4668 112.4 77.4668C113.339 77.4668 114.089 77.6878 114.649 78.1299C115.215 78.5719 115.497 79.1462 115.497 79.8525H113.521C113.521 79.57 113.43 79.3376 113.248 79.1553C113.066 78.9684 112.781 78.875 112.394 78.875C112.061 78.875 111.803 78.9502 111.621 79.1006C111.439 79.251 111.348 79.4424 111.348 79.6748C111.348 79.8936 111.45 80.0713 111.655 80.208C111.865 80.3402 112.216 80.4564 112.708 80.5566C113.2 80.6523 113.615 80.7617 113.952 80.8848C114.996 81.2676 115.518 81.9307 115.518 82.874C115.518 83.5485 115.228 84.0954 114.649 84.5146C114.071 84.9294 113.323 85.1367 112.407 85.1367C111.787 85.1367 111.236 85.0273 110.753 84.8086C110.274 84.5853 109.898 84.2822 109.625 83.8994C109.352 83.512 109.215 83.095 109.215 82.6484H111.088C111.106 82.9993 111.236 83.2682 111.478 83.4551C111.719 83.6419 112.043 83.7354 112.448 83.7354C112.826 83.7354 113.111 83.6647 113.303 83.5234C113.499 83.3776 113.597 83.1885 113.597 82.9561Z" fill="white"/>
</svg>
