<?xml version="1.0" encoding="UTF-8" standalone="no"?>
<!DOCTYPE svg PUBLIC "-//W3C//DTD SVG 1.1//EN" "http://www.w3.org/Graphics/SVG/1.1/DTD/svg11.dtd">
<svg width="100%" height="100%" viewBox="0 0 256 256" version="1.1" xmlns="http://www.w3.org/2000/svg" xmlns:xlink="http://www.w3.org/1999/xlink" xml:space="preserve" xmlns:serif="http://www.serif.com/" style="fill-rule:evenodd;clip-rule:evenodd;stroke-linejoin:round;stroke-miterlimit:2;">
    <g transform="matrix(0.0755334,0,0,-0.0755334,0.34856,240.922)">
        <path d="M110,2482C78,2456 78,2394 109,2369C132,2350 132,2348 121,2287C104,2199 100,2190 84,2190C61,2190 30,2152 30,2122C30,2107 37,2084 46,2072C61,2050 65,2050 281,2050C462,2050 500,2048 500,2036C500,2022 193,539 184,508C179,491 205,490 634,490C1058,490 1089,491 1094,508C1104,542 1203,1013 1329,1630L1367,1815L1553,1818C1719,1820 1739,1822 1744,1838C1749,1856 1820,2190 1820,2196C1820,2198 2038,2200 2304,2200C2835,2200 2820,2202 2820,2141C2820,2092 2810,2090 2610,2090C2408,2090 2380,2083 2380,2035C2380,1993 2414,1980 2520,1980C2624,1980 2640,1973 2640,1929C2640,1874 2621,1870 2353,1870L2110,1870L2098,1845C2089,1826 2090,1816 2104,1795L2120,1770L2403,1770C2712,1770 2723,1768 2723,1715C2723,1662 2713,1660 2388,1660L2090,1660L2075,1636C2063,1618 2062,1606 2069,1586C2079,1562 2084,1560 2144,1560C2180,1560 2220,1556 2233,1551C2266,1538 2276,1505 2256,1475L2240,1450L2050,1450C1873,1450 1859,1449 1840,1430C1815,1405 1815,1385 1840,1360C1859,1341 1873,1340 2058,1340C2238,1340 2258,1338 2273,1322C2295,1297 2294,1274 2270,1250C2251,1231 2237,1230 1971,1230C1730,1230 1689,1228 1676,1214C1656,1194 1656,1166 1676,1146C1687,1134 1712,1130 1773,1130C1886,1130 1923,1101 1890,1039C1880,1021 1867,1020 1714,1020C1619,1020 1540,1016 1529,1010C1503,995 1503,935 1529,920C1540,915 1589,910 1639,910C1707,910 1732,906 1744,894C1764,875 1764,850 1746,824C1733,807 1716,805 1559,802C1457,800 1380,794 1373,788C1355,774 1357,735 1376,716C1389,702 1435,700 1720,700C2005,700 2051,698 2064,684C2085,663 2084,627 2062,607C2046,592 2011,590 1782,590C1558,590 1519,588 1506,574C1487,556 1486,536 1500,509C1510,490 1531,490 2430,490L3350,490L3350,655C3350,807 3349,820 3331,830C3318,836 3144,840 2835,840C2319,840 2317,840 2292,895C2274,934 2277,964 2302,996C2315,1012 2555,1294 2837,1623L3350,2221L3350,2500L2501,2500C1653,2500 1651,2500 1645,2480C1641,2467 1645,2449 1654,2435C1669,2412 1676,2410 1753,2410C1844,2410 1860,2402 1860,2359C1860,2312 1830,2300 1713,2300C1612,2300 1609,2299 1598,2275C1590,2256 1590,2244 1598,2225C1609,2200 1609,2200 1565,2200C1541,2200 1519,2203 1517,2208C1508,2221 1556,2414 1569,2418C1585,2423 1601,2466 1594,2485C1589,2498 1500,2500 860,2500C176,2500 131,2499 110,2482Z" style="fill:white;fill-rule:nonzero;"/>
    </g>
</svg>
