<?xml version="1.0" encoding="UTF-8" standalone="no"?>
<!DOCTYPE svg PUBLIC "-//W3C//DTD SVG 1.1//EN" "http://www.w3.org/Graphics/SVG/1.1/DTD/svg11.dtd">
<svg width="100%" height="100%" viewBox="0 0 341 341" version="1.1" xmlns="http://www.w3.org/2000/svg" xmlns:xlink="http://www.w3.org/1999/xlink" xml:space="preserve" xmlns:serif="http://www.serif.com/" style="fill-rule:evenodd;clip-rule:evenodd;stroke-linejoin:round;stroke-miterlimit:2;">
    <g transform="matrix(1.17043,0,0,1.17043,-29.1568,-28.3166)">
        <path d="M246.97,232.45C222.88,232.45 199.14,219.89 187.05,199.13L193.93,198.93C205.18,215.46 224.92,226.81 246.97,226.81C281.56,226.81 309.7,199.6 309.7,166.15C309.7,132.7 281.56,105.49 246.97,105.49C220.1,105.49 196.23,122.01 187.58,146.59L182.06,144.77C191.52,117.9 217.61,99.85 246.98,99.85C284.79,99.85 315.54,129.59 315.54,166.16C315.53,202.71 284.78,232.45 246.97,232.45Z" style="fill:white;fill-rule:nonzero;"/>
    </g>
    <g transform="matrix(1.17043,0,0,1.17043,-29.1568,-28.3166)">
        <path d="M46.67,150.82L26.62,150.82L26.62,139.3L80.33,139.3L80.33,150.81L60.29,150.81L60.29,199.27L46.67,199.27L46.67,150.82Z" style="fill:white;fill-rule:nonzero;"/>
    </g>
    <g transform="matrix(1.17043,0,0,1.17043,-29.1568,-28.3166)">
        <rect x="87.28" y="139.3" width="13.62" height="59.98" style="fill:white;fill-rule:nonzero;"/>
    </g>
    <g transform="matrix(1.17043,0,0,1.17043,-29.1568,-28.3166)">
        <path d="M127.88,150.82L107.84,150.82L107.84,139.3L161.55,139.3L161.55,150.81L141.5,150.81L141.5,199.27L127.88,199.27L127.88,150.82Z" style="fill:white;fill-rule:nonzero;"/>
    </g>
    <g transform="matrix(1.17043,0,0,1.17043,-29.1568,-28.3166)">
        <path d="M249.45,175.09C245.42,169.87 241.65,164.82 237.8,159.6L237.63,159.68C237.72,165.4 237.8,171.19 237.8,176.99L237.8,199.27L224.69,199.27L224.69,139.3L237.54,139.3L256.13,163.49C260.16,168.71 263.93,173.76 267.78,178.98L267.95,178.9C267.86,173.18 267.78,167.39 267.78,161.59L267.78,139.3L280.89,139.3L280.89,199.28L268.04,199.28L249.45,175.09Z" style="fill:white;fill-rule:nonzero;"/>
    </g>
    <g transform="matrix(1.17043,0,0,1.17043,-29.1568,-28.3166)">
        <path d="M187.04,154.73L205.36,199.23L220.44,199.23L193.59,138.44L180.4,138.44L155.21,199.23L170.24,199.23L187.04,154.73Z" style="fill:white;fill-rule:nonzero;"/>
    </g>
    <g transform="matrix(1.17043,0,0,1.17043,-29.1568,-28.3166)">
        <g>
            <path d="M50.64,208.81L51.34,208.81L56.14,219.8L55.28,219.8L53.7,216.18L48.27,216.18L46.69,219.8L45.81,219.8L50.64,208.81ZM53.48,215.53L51,209.77L48.47,215.53L53.48,215.53Z" style="fill:white;fill-rule:nonzero;"/>
            <path d="M60.18,219.95C59.54,219.95 58.93,219.85 58.34,219.64C57.75,219.43 57.24,219.12 56.8,218.71L57.2,218.18C57.65,218.57 58.11,218.86 58.59,219.05C59.07,219.24 59.6,219.33 60.17,219.33C60.9,219.33 61.48,219.18 61.92,218.89C62.36,218.6 62.58,218.19 62.58,217.66C62.58,217.41 62.52,217.2 62.41,217.03C62.3,216.86 62.13,216.72 61.91,216.6C61.69,216.48 61.41,216.38 61.08,216.28C60.75,216.19 60.36,216.09 59.93,215.99C59.46,215.89 59.05,215.78 58.71,215.68C58.36,215.58 58.08,215.45 57.85,215.31C57.63,215.17 57.46,214.99 57.35,214.78C57.24,214.57 57.18,214.31 57.18,213.99C57.18,213.59 57.26,213.24 57.42,212.94C57.58,212.64 57.8,212.39 58.08,212.2C58.36,212 58.69,211.86 59.06,211.76C59.43,211.66 59.82,211.61 60.24,211.61C60.89,211.61 61.47,211.72 61.97,211.93C62.47,212.14 62.86,212.41 63.14,212.74L62.69,213.16C62.41,212.85 62.05,212.62 61.61,212.46C61.17,212.31 60.69,212.23 60.19,212.23C59.88,212.23 59.59,212.26 59.32,212.32C59.05,212.38 58.81,212.48 58.61,212.61C58.41,212.74 58.25,212.92 58.13,213.13C58.01,213.34 57.95,213.59 57.95,213.88C57.95,214.12 57.99,214.31 58.07,214.45C58.15,214.59 58.28,214.72 58.45,214.82C58.63,214.92 58.85,215.01 59.13,215.09C59.41,215.17 59.74,215.25 60.12,215.34C60.64,215.46 61.11,215.58 61.51,215.7C61.92,215.81 62.25,215.95 62.53,216.12C62.8,216.28 63.01,216.48 63.15,216.71C63.29,216.94 63.37,217.23 63.37,217.58C63.37,218.3 63.08,218.88 62.5,219.31C61.93,219.74 61.16,219.95 60.18,219.95Z" style="fill:white;fill-rule:nonzero;"/>
            <path d="M67.88,219.95C67.24,219.95 66.63,219.85 66.04,219.64C65.45,219.43 64.94,219.12 64.5,218.71L64.9,218.18C65.35,218.57 65.81,218.86 66.29,219.05C66.77,219.24 67.3,219.33 67.87,219.33C68.6,219.33 69.18,219.18 69.62,218.89C70.06,218.6 70.28,218.19 70.28,217.66C70.28,217.41 70.22,217.2 70.11,217.03C70,216.86 69.83,216.72 69.61,216.6C69.39,216.48 69.11,216.38 68.78,216.28C68.45,216.19 68.06,216.09 67.63,215.99C67.16,215.89 66.75,215.78 66.41,215.68C66.06,215.58 65.78,215.45 65.55,215.31C65.33,215.17 65.16,214.99 65.05,214.78C64.94,214.57 64.88,214.31 64.88,213.99C64.88,213.59 64.96,213.24 65.12,212.94C65.28,212.64 65.5,212.39 65.78,212.2C66.06,212 66.39,211.86 66.76,211.76C67.13,211.66 67.52,211.61 67.94,211.61C68.59,211.61 69.17,211.72 69.67,211.93C70.17,212.14 70.56,212.41 70.84,212.74L70.39,213.16C70.11,212.85 69.75,212.62 69.31,212.46C68.87,212.31 68.39,212.23 67.89,212.23C67.58,212.23 67.29,212.26 67.02,212.32C66.75,212.38 66.51,212.48 66.31,212.61C66.11,212.74 65.95,212.92 65.83,213.13C65.71,213.34 65.65,213.59 65.65,213.88C65.65,214.12 65.69,214.31 65.77,214.45C65.85,214.59 65.98,214.72 66.15,214.82C66.33,214.92 66.55,215.01 66.83,215.09C67.11,215.17 67.44,215.25 67.82,215.34C68.34,215.46 68.81,215.58 69.21,215.7C69.62,215.81 69.95,215.95 70.23,216.12C70.5,216.28 70.71,216.48 70.85,216.71C70.99,216.94 71.07,217.23 71.07,217.58C71.07,218.3 70.78,218.88 70.2,219.31C69.63,219.74 68.85,219.95 67.88,219.95Z" style="fill:white;fill-rule:nonzero;"/>
            <path d="M76.48,219.95C75.89,219.95 75.35,219.84 74.85,219.62C74.35,219.4 73.91,219.09 73.55,218.71C73.18,218.32 72.89,217.88 72.69,217.37C72.49,216.86 72.38,216.32 72.38,215.74C72.38,215.17 72.48,214.64 72.69,214.14C72.9,213.64 73.18,213.2 73.55,212.82C73.91,212.44 74.34,212.15 74.84,211.93C75.34,211.71 75.87,211.61 76.45,211.61C77.04,211.61 77.58,211.72 78.08,211.94C78.58,212.16 79.01,212.46 79.38,212.84C79.74,213.22 80.03,213.66 80.23,214.16C80.43,214.66 80.53,215.19 80.53,215.75L80.53,215.94C80.53,216.01 80.52,216.07 80.51,216.09L73.21,216.09C73.24,216.55 73.35,216.99 73.55,217.38C73.74,217.78 73.98,218.12 74.28,218.41C74.57,218.7 74.91,218.93 75.3,219.09C75.68,219.26 76.09,219.34 76.53,219.34C76.82,219.34 77.1,219.3 77.38,219.22C77.66,219.14 77.92,219.04 78.16,218.9C78.4,218.77 78.61,218.6 78.8,218.41C78.99,218.22 79.13,218.01 79.24,217.78L79.94,217.97C79.82,218.26 79.65,218.52 79.42,218.77C79.19,219.01 78.92,219.22 78.62,219.4C78.32,219.58 77.98,219.71 77.62,219.81C77.24,219.91 76.86,219.95 76.48,219.95ZM79.75,215.47C79.72,215 79.61,214.56 79.42,214.17C79.23,213.78 78.99,213.44 78.7,213.16C78.41,212.88 78.07,212.65 77.68,212.49C77.3,212.33 76.89,212.25 76.45,212.25C76.01,212.25 75.6,212.33 75.22,212.49C74.84,212.65 74.5,212.87 74.2,213.16C73.91,213.44 73.67,213.78 73.5,214.18C73.32,214.58 73.22,215.01 73.19,215.47L79.75,215.47Z" style="fill:white;fill-rule:nonzero;"/>
            <path d="M85.92,219.41C85.88,219.43 85.81,219.47 85.7,219.53C85.6,219.59 85.47,219.64 85.32,219.69C85.16,219.74 84.99,219.79 84.8,219.83C84.61,219.87 84.4,219.89 84.18,219.89C83.96,219.89 83.74,219.86 83.55,219.8C83.35,219.74 83.18,219.65 83.03,219.52C82.88,219.4 82.76,219.25 82.68,219.07C82.59,218.89 82.55,218.69 82.55,218.45L82.55,212.38L81.38,212.38L81.38,211.75L82.55,211.75L82.55,208.99L83.35,208.99L83.35,211.75L85.29,211.75L85.29,212.38L83.35,212.38L83.35,218.26C83.35,218.56 83.46,218.78 83.67,218.93C83.88,219.08 84.12,219.15 84.39,219.15C84.72,219.15 85.01,219.1 85.25,218.99C85.49,218.88 85.64,218.81 85.69,218.78L85.92,219.41Z" style="fill:white;fill-rule:nonzero;"/>
            <path d="M101.98,219.8L101.98,210.3L97.5,217.72L96.99,217.72L92.51,210.3L92.51,219.8L91.69,219.8L91.69,208.81L92.51,208.81L97.25,216.67L101.99,208.81L102.81,208.81L102.81,219.8L101.98,219.8Z" style="fill:white;fill-rule:nonzero;"/>
            <path d="M107.5,219.95C107.12,219.95 106.76,219.89 106.43,219.76C106.1,219.63 105.81,219.46 105.56,219.23C105.31,219.01 105.11,218.74 104.98,218.44C104.84,218.14 104.77,217.81 104.77,217.46C104.77,217.11 104.86,216.79 105.03,216.5C105.2,216.21 105.44,215.96 105.74,215.75C106.04,215.54 106.41,215.37 106.84,215.25C107.27,215.13 107.74,215.07 108.25,215.07C108.7,215.07 109.15,215.11 109.6,215.19C110.05,215.27 110.46,215.37 110.82,215.51L110.82,214.72C110.82,213.96 110.6,213.35 110.15,212.9C109.7,212.45 109.09,212.23 108.32,212.23C107.91,212.23 107.48,212.31 107.03,212.48C106.58,212.65 106.12,212.88 105.65,213.19L105.35,212.66C106.42,211.96 107.43,211.61 108.39,211.61C109.39,211.61 110.18,211.89 110.76,212.45C111.34,213.01 111.62,213.79 111.62,214.78L111.62,218.71C111.62,218.97 111.74,219.1 111.97,219.1L111.97,219.8C111.92,219.81 111.86,219.82 111.8,219.82C111.74,219.82 111.69,219.83 111.65,219.83C111.44,219.83 111.27,219.76 111.14,219.62C111.01,219.48 110.94,219.31 110.92,219.12L110.92,218.45C110.54,218.94 110.05,219.31 109.45,219.57C108.84,219.83 108.2,219.95 107.5,219.95ZM107.66,219.34C108.28,219.34 108.85,219.23 109.36,219C109.88,218.77 110.28,218.47 110.55,218.1C110.72,217.88 110.81,217.68 110.81,217.48L110.81,216.06C110.43,215.92 110.03,215.81 109.61,215.74C109.19,215.67 108.76,215.63 108.31,215.63C107.89,215.63 107.52,215.67 107.17,215.76C106.83,215.85 106.54,215.97 106.29,216.12C106.04,216.27 105.85,216.46 105.72,216.68C105.59,216.9 105.52,217.15 105.52,217.42C105.52,217.69 105.57,217.94 105.68,218.18C105.79,218.42 105.94,218.62 106.13,218.79C106.32,218.96 106.55,219.09 106.81,219.19C107.08,219.29 107.36,219.34 107.66,219.34Z" style="fill:white;fill-rule:nonzero;"/>
            <path d="M120.85,219.8L120.05,219.8L120.05,215.31C120.05,214.27 119.9,213.51 119.59,213.03C119.29,212.56 118.8,212.32 118.14,212.32C117.79,212.32 117.44,212.38 117.09,212.51C116.74,212.63 116.42,212.81 116.12,213.04C115.82,213.27 115.56,213.53 115.34,213.84C115.12,214.14 114.95,214.47 114.84,214.82L114.84,219.81L114.04,219.81L114.04,211.76L114.79,211.76L114.79,213.68C114.96,213.37 115.17,213.09 115.42,212.84C115.67,212.59 115.95,212.37 116.27,212.19C116.58,212.01 116.92,211.87 117.27,211.77C117.62,211.67 117.98,211.62 118.36,211.62C119.27,211.62 119.91,211.93 120.28,212.54C120.65,213.15 120.84,214.03 120.84,215.18L120.84,219.8L120.85,219.8Z" style="fill:white;fill-rule:nonzero;"/>
            <path d="M125.32,219.95C124.94,219.95 124.58,219.89 124.25,219.76C123.92,219.63 123.63,219.46 123.38,219.23C123.13,219.01 122.93,218.74 122.8,218.44C122.66,218.14 122.59,217.81 122.59,217.46C122.59,217.11 122.68,216.79 122.85,216.5C123.02,216.21 123.26,215.96 123.56,215.75C123.86,215.54 124.23,215.37 124.66,215.25C125.09,215.13 125.56,215.07 126.07,215.07C126.52,215.07 126.97,215.11 127.42,215.19C127.87,215.27 128.28,215.37 128.64,215.51L128.64,214.72C128.64,213.96 128.42,213.35 127.97,212.9C127.52,212.45 126.91,212.23 126.14,212.23C125.73,212.23 125.3,212.31 124.85,212.48C124.4,212.65 123.94,212.88 123.47,213.19L123.17,212.66C124.24,211.96 125.25,211.61 126.21,211.61C127.21,211.61 128,211.89 128.58,212.45C129.16,213.01 129.44,213.79 129.44,214.78L129.44,218.71C129.44,218.97 129.56,219.1 129.79,219.1L129.79,219.8C129.74,219.81 129.68,219.82 129.62,219.82C129.56,219.82 129.51,219.83 129.47,219.83C129.26,219.83 129.09,219.76 128.96,219.62C128.83,219.48 128.76,219.31 128.74,219.12L128.74,218.45C128.36,218.94 127.87,219.31 127.27,219.57C126.66,219.83 126.01,219.95 125.32,219.95ZM125.48,219.34C126.1,219.34 126.67,219.23 127.18,219C127.7,218.77 128.1,218.47 128.37,218.1C128.54,217.88 128.63,217.68 128.63,217.48L128.63,216.06C128.25,215.92 127.85,215.81 127.43,215.74C127.01,215.67 126.58,215.63 126.13,215.63C125.71,215.63 125.34,215.67 124.99,215.76C124.65,215.85 124.36,215.97 124.11,216.12C123.86,216.27 123.67,216.46 123.54,216.68C123.41,216.9 123.34,217.15 123.34,217.42C123.34,217.69 123.39,217.94 123.5,218.18C123.61,218.42 123.76,218.62 123.95,218.79C124.14,218.96 124.37,219.09 124.63,219.19C124.9,219.29 125.18,219.34 125.48,219.34Z" style="fill:white;fill-rule:nonzero;"/>
            <path d="M135.23,219.92C134.65,219.92 134.13,219.8 133.65,219.57C133.17,219.34 132.76,219.03 132.41,218.64C132.06,218.25 131.79,217.81 131.59,217.32C131.39,216.82 131.29,216.31 131.29,215.79C131.29,215.24 131.38,214.72 131.57,214.21C131.76,213.71 132.02,213.26 132.36,212.87C132.7,212.48 133.11,212.18 133.58,211.95C134.05,211.72 134.58,211.61 135.16,211.61C135.89,211.61 136.52,211.79 137.06,212.16C137.6,212.53 138.06,212.97 138.43,213.5L138.43,211.75L139.17,211.75L139.17,219.95C139.17,220.5 139.06,220.98 138.85,221.39C138.64,221.8 138.35,222.15 137.99,222.42C137.63,222.69 137.22,222.9 136.74,223.04C136.27,223.18 135.77,223.25 135.24,223.25C134.76,223.25 134.33,223.21 133.94,223.12C133.56,223.03 133.22,222.91 132.92,222.75C132.63,222.59 132.36,222.39 132.14,222.16C131.91,221.93 131.71,221.67 131.54,221.39L132.08,221.03C132.41,221.58 132.86,221.98 133.42,222.23C133.99,222.48 134.59,222.61 135.23,222.61C135.66,222.61 136.06,222.55 136.44,222.44C136.82,222.33 137.15,222.16 137.43,221.94C137.71,221.72 137.94,221.44 138.1,221.11C138.27,220.78 138.35,220.39 138.35,219.95L138.35,218.19C138.01,218.72 137.55,219.14 136.99,219.45C136.44,219.77 135.85,219.92 135.23,219.92ZM135.42,219.26C135.77,219.26 136.12,219.2 136.45,219.07C136.79,218.94 137.09,218.77 137.36,218.57C137.63,218.36 137.86,218.13 138.03,217.87C138.21,217.61 138.32,217.35 138.36,217.1L138.36,214.45C138.23,214.14 138.06,213.85 137.85,213.59C137.64,213.33 137.39,213.1 137.12,212.92C136.85,212.73 136.55,212.59 136.24,212.48C135.93,212.37 135.61,212.32 135.29,212.32C134.79,212.32 134.34,212.42 133.95,212.63C133.55,212.84 133.22,213.11 132.95,213.44C132.68,213.77 132.47,214.14 132.33,214.56C132.19,214.98 132.11,215.4 132.11,215.82C132.11,216.28 132.2,216.72 132.37,217.14C132.54,217.55 132.78,217.92 133.07,218.24C133.37,218.56 133.72,218.81 134.13,219C134.53,219.17 134.96,219.26 135.42,219.26Z" style="fill:white;fill-rule:nonzero;"/>
            <path d="M145.2,219.95C144.61,219.95 144.07,219.84 143.57,219.62C143.07,219.4 142.63,219.09 142.27,218.71C141.9,218.32 141.61,217.88 141.41,217.37C141.21,216.86 141.1,216.32 141.1,215.74C141.1,215.17 141.2,214.64 141.41,214.14C141.62,213.64 141.9,213.2 142.27,212.82C142.63,212.44 143.06,212.15 143.56,211.93C144.06,211.71 144.59,211.61 145.17,211.61C145.76,211.61 146.3,211.72 146.8,211.94C147.3,212.16 147.73,212.46 148.1,212.84C148.46,213.22 148.75,213.66 148.95,214.16C149.15,214.66 149.25,215.19 149.25,215.75L149.25,215.94C149.25,216.01 149.24,216.07 149.23,216.09L141.93,216.09C141.96,216.55 142.07,216.99 142.27,217.38C142.47,217.77 142.7,218.12 143,218.41C143.3,218.7 143.63,218.93 144.02,219.09C144.4,219.26 144.81,219.34 145.25,219.34C145.54,219.34 145.82,219.3 146.1,219.22C146.38,219.14 146.64,219.04 146.88,218.9C147.12,218.77 147.33,218.6 147.52,218.41C147.71,218.22 147.85,218.01 147.96,217.78L148.66,217.97C148.54,218.26 148.37,218.52 148.14,218.77C147.91,219.01 147.64,219.22 147.34,219.4C147.04,219.58 146.7,219.71 146.34,219.81C145.96,219.91 145.58,219.95 145.2,219.95ZM148.47,215.47C148.44,215 148.33,214.56 148.14,214.17C147.95,213.78 147.71,213.44 147.42,213.16C147.13,212.88 146.79,212.65 146.4,212.49C146.02,212.33 145.61,212.25 145.17,212.25C144.73,212.25 144.32,212.33 143.94,212.49C143.56,212.65 143.22,212.87 142.92,213.16C142.63,213.44 142.39,213.78 142.22,214.18C142.04,214.58 141.94,215.01 141.91,215.47L148.47,215.47Z" style="fill:white;fill-rule:nonzero;"/>
            <path d="M163.22,219.8L162.42,219.8L162.42,215.31C162.42,214.29 162.26,213.54 161.93,213.05C161.6,212.56 161.11,212.32 160.43,212.32C160.09,212.32 159.76,212.38 159.45,212.51C159.14,212.63 158.86,212.81 158.6,213.03C158.34,213.25 158.12,213.52 157.94,213.82C157.75,214.13 157.61,214.46 157.5,214.83L157.5,219.8L156.7,219.8L156.7,215.31C156.7,214.28 156.54,213.52 156.22,213.04C155.9,212.56 155.4,212.32 154.73,212.32C154.39,212.32 154.07,212.38 153.76,212.5C153.46,212.62 153.18,212.79 152.92,213.01C152.66,213.23 152.44,213.5 152.24,213.8C152.04,214.11 151.89,214.44 151.78,214.81L151.78,219.8L150.98,219.8L150.98,211.75L151.73,211.75L151.73,213.67C152.07,213.02 152.52,212.51 153.07,212.15C153.62,211.79 154.24,211.61 154.91,211.61C155.61,211.61 156.19,211.81 156.62,212.21C157.05,212.61 157.32,213.14 157.4,213.79C158.19,212.34 159.28,211.61 160.67,211.61C161.58,211.61 162.23,211.92 162.61,212.55C163,213.17 163.19,214.05 163.19,215.17L163.19,219.8L163.22,219.8Z" style="fill:white;fill-rule:nonzero;"/>
            <path d="M169.18,219.95C168.59,219.95 168.05,219.84 167.55,219.62C167.05,219.4 166.61,219.09 166.25,218.71C165.88,218.32 165.59,217.88 165.39,217.37C165.19,216.86 165.08,216.32 165.08,215.74C165.08,215.17 165.18,214.64 165.39,214.14C165.6,213.64 165.88,213.2 166.25,212.82C166.61,212.44 167.04,212.15 167.54,211.93C168.04,211.71 168.57,211.61 169.15,211.61C169.74,211.61 170.28,211.72 170.78,211.94C171.28,212.16 171.71,212.46 172.08,212.84C172.44,213.22 172.73,213.66 172.93,214.16C173.13,214.66 173.23,215.19 173.23,215.75L173.23,215.94C173.23,216.01 173.22,216.07 173.21,216.09L165.91,216.09C165.94,216.55 166.05,216.99 166.25,217.38C166.44,217.78 166.68,218.12 166.98,218.41C167.28,218.7 167.61,218.93 168,219.09C168.38,219.26 168.79,219.34 169.23,219.34C169.52,219.34 169.8,219.3 170.08,219.22C170.36,219.14 170.62,219.04 170.86,218.9C171.1,218.77 171.31,218.6 171.5,218.41C171.69,218.22 171.83,218.01 171.94,217.78L172.64,217.97C172.52,218.26 172.35,218.52 172.12,218.77C171.89,219.01 171.62,219.22 171.32,219.4C171.02,219.58 170.68,219.71 170.32,219.81C169.94,219.91 169.56,219.95 169.18,219.95ZM172.44,215.47C172.41,215 172.3,214.56 172.11,214.17C171.92,213.78 171.68,213.44 171.39,213.16C171.1,212.88 170.76,212.65 170.37,212.49C169.99,212.33 169.58,212.25 169.14,212.25C168.7,212.25 168.29,212.33 167.91,212.49C167.53,212.65 167.19,212.87 166.89,213.16C166.6,213.44 166.36,213.78 166.19,214.18C166.01,214.58 165.91,215.01 165.88,215.47L172.44,215.47Z" style="fill:white;fill-rule:nonzero;"/>
            <path d="M181.78,219.8L180.98,219.8L180.98,215.31C180.98,214.27 180.83,213.51 180.52,213.03C180.22,212.56 179.73,212.32 179.07,212.32C178.72,212.32 178.37,212.38 178.02,212.51C177.67,212.63 177.35,212.81 177.05,213.04C176.75,213.27 176.49,213.53 176.27,213.84C176.05,214.15 175.88,214.47 175.77,214.82L175.77,219.81L174.97,219.81L174.97,211.76L175.72,211.76L175.72,213.68C175.89,213.37 176.1,213.09 176.35,212.84C176.6,212.59 176.88,212.37 177.2,212.19C177.51,212.01 177.85,211.87 178.2,211.77C178.55,211.67 178.91,211.62 179.29,211.62C180.2,211.62 180.84,211.93 181.21,212.54C181.58,213.15 181.77,214.03 181.77,215.18L181.77,219.8L181.78,219.8Z" style="fill:white;fill-rule:nonzero;"/>
            <path d="M187.83,219.41C187.79,219.43 187.72,219.47 187.61,219.53C187.51,219.59 187.38,219.64 187.23,219.69C187.07,219.74 186.9,219.79 186.71,219.83C186.52,219.87 186.31,219.89 186.09,219.89C185.87,219.89 185.65,219.86 185.46,219.8C185.26,219.74 185.09,219.65 184.94,219.52C184.79,219.4 184.67,219.25 184.59,219.07C184.5,218.89 184.46,218.69 184.46,218.45L184.46,212.38L183.29,212.38L183.29,211.75L184.46,211.75L184.46,208.99L185.26,208.99L185.26,211.75L187.2,211.75L187.2,212.38L185.26,212.38L185.26,218.26C185.26,218.56 185.37,218.78 185.58,218.93C185.79,219.08 186.03,219.15 186.3,219.15C186.63,219.15 186.92,219.1 187.16,218.99C187.4,218.88 187.55,218.81 187.6,218.78L187.83,219.41Z" style="fill:white;fill-rule:nonzero;"/>
        </g>
    </g>
</svg>
