<svg viewBox="0 0 341 341" xmlns="http://www.w3.org/2000/svg" xml:space="preserve" style="fill-rule:evenodd;clip-rule:evenodd;stroke-linejoin:round;stroke-miterlimit:2">
    <path d="M247 232.4c-24.1 0-47.9-12.5-60-33.3l7-.2a64.5 64.5 0 0 0 53 28 61.8 61.8 0 0 0 62.7-60.8 61.8 61.8 0 0 0-62.7-60.6 62.6 62.6 0 0 0-59.4 41l-5.5-1.7a68.4 68.4 0 0 1 64.9-45 67.5 67.5 0 0 1 68.5 66.4 67.5 67.5 0 0 1-68.5 66.3ZM46.7 150.8h-20v-11.5h53.6v11.5h-20v48.5H46.7v-48.5ZM87.3 139.3h13.6v60H87.3zM127.9 150.8h-20v-11.5h53.7v11.5h-20.1v48.5h-13.6v-48.5Z" style="fill:#fff;fill-rule:nonzero" transform="translate(-29.2 -28.3) scale(1.17043)" />
    <path d="M249.4 175c-4-5.1-7.8-10.2-11.6-15.4h-.2l.2 17.4v22.3h-13.1v-60h12.8l18.6 24.2 11.7 15.5.1-.1-.1-17.3v-22.3h13v60H268L249.4 175ZM187 154.7l18.4 44.5h15l-26.8-60.8h-13.2l-25.2 60.8h15l16.8-44.5ZM50.6 208.8h.7l4.8 11h-.8l-1.6-3.6h-5.4l-1.6 3.6h-.9l4.8-11Zm2.9 6.7-2.5-5.7-2.5 5.7h5ZM60.2 220c-.7 0-1.3-.2-1.9-.4l-1.5-.9.4-.5c.4.4 1 .7 1.4.9l1.6.2c.7 0 1.3-.1 1.7-.4.5-.3.7-.7.7-1.2 0-.3 0-.5-.2-.7l-.5-.4-.8-.3a31.7 31.7 0 0 0-2.4-.6l-.9-.4-.4-.5c-.2-.2-.2-.5-.2-.8 0-.4 0-.8.2-1 .2-.4.4-.6.7-.8a3 3 0 0 1 1-.4l1.1-.2c.7 0 1.3.1 1.8.3.5.2.9.5 1.1.8l-.4.5-1-.7a4.4 4.4 0 0 0-2.4-.2c-.3 0-.5.2-.7.3l-.5.5-.1.8v.5l.5.4.6.3a23.4 23.4 0 0 0 2.4.6l1 .4.6.6c.2.2.3.5.3.9a2 2 0 0 1-.9 1.7c-.6.4-1.3.6-2.3.6ZM67.9 220c-.7 0-1.3-.2-1.9-.4l-1.5-.9.4-.5c.4.4 1 .7 1.4.9l1.6.2c.7 0 1.3-.1 1.7-.4.5-.3.7-.7.7-1.2 0-.3 0-.5-.2-.7l-.5-.4-.8-.3a31.7 31.7 0 0 0-2.4-.6l-.9-.4-.5-.5-.1-.8c0-.4 0-.8.2-1 .2-.4.4-.6.7-.8a3 3 0 0 1 1-.4l1.1-.2c.7 0 1.3.1 1.8.3.5.2.9.5 1.1.8l-.4.5-1-.7a4.4 4.4 0 0 0-2.4-.2c-.3 0-.5.2-.7.3l-.5.5-.1.8v.5l.5.4.6.3a23.4 23.4 0 0 0 2.4.6l1 .4.6.6c.2.2.3.5.3.9a2 2 0 0 1-.9 1.7c-.6.4-1.4.6-2.3.6ZM76.5 220a4 4 0 0 1-3.8-2.6 4.4 4.4 0 0 1 0-3.3 4.2 4.2 0 0 1 2.1-2.2 4 4 0 0 1 1.7-.3 4 4 0 0 1 3.7 2.6c.2.5.3 1 .3 1.6V216h-7.3c0 .5.1.9.3 1.3a3.5 3.5 0 0 0 1.8 1.7 3 3 0 0 0 2 .1 3.4 3.4 0 0 0 1.5-.8l.4-.6.7.2c0 .3-.3.5-.5.8a3.8 3.8 0 0 1-1.8 1l-1.1.1Zm3.3-4.5a3.5 3.5 0 0 0-2.1-3 3.1 3.1 0 0 0-3.5.7 3 3 0 0 0-.7 1c-.2.4-.3.8-.3 1.3h6.5ZM86 219.4l-.3.1a5.5 5.5 0 0 1-.9.3 3 3 0 0 1-.6 0h-.7c-.2 0-.3-.2-.5-.3l-.3-.4-.2-.7v-6h-1.1v-.7h1.1V209h.8v2.8h2v.6h-2v5.9c0 .3.2.5.4.6.2.2.4.3.7.3l.8-.2.5-.2.2.6ZM102 219.8v-9.5l-4.5 7.4H97l-4.5-7.4v9.5h-.8v-11h.8l4.8 7.9 4.7-7.9h.8v11h-.8ZM107.5 220a2.9 2.9 0 0 1-2-.8l-.5-.8c-.2-.3-.2-.6-.2-1 0-.3 0-.6.2-.9l.7-.8 1.1-.4c.5-.2 1-.2 1.5-.2a7.7 7.7 0 0 1 2.5.4v-.8c0-.7-.2-1.3-.6-1.8-.5-.5-1.1-.7-1.9-.7l-1.3.3a7 7 0 0 0-1.3.7l-.4-.5c1.1-.7 2.1-1 3-1 1 0 1.9.2 2.5.8.5.5.8 1.3.8 2.3v4c0 .2.1.3.4.3v.7H111.7c-.3 0-.4 0-.6-.2a.8.8 0 0 1-.2-.5v-.7c-.4.5-.9 1-1.5 1.2-.6.2-1.2.3-1.9.3Zm.2-.7c.6 0 1.1 0 1.7-.3.5-.2.9-.5 1.1-.9l.3-.6V216a6.6 6.6 0 0 0-2.5-.5c-.4 0-.8 0-1.1.2-.4 0-.7.2-1 .3l-.5.6-.2.7a1.8 1.8 0 0 0 .6 1.4l.7.4.9.1ZM120.8 219.8h-.8v-4.5c0-1-.1-1.8-.4-2.3-.3-.4-.8-.7-1.5-.7a3.4 3.4 0 0 0-2 .7 3.7 3.7 0 0 0-1.3 1.8v5h-.8v-8h.8v1.9a3.7 3.7 0 0 1 1.5-1.5 4.4 4.4 0 0 1 2-.6c1 0 1.6.3 2 1 .4.6.5 1.4.5 2.6v4.6ZM125.3 220a2.9 2.9 0 0 1-2-.8l-.5-.8-.2-1c0-.3 0-.6.3-.9.1-.3.4-.5.7-.8l1-.4c.5-.2 1-.2 1.5-.2a7.7 7.7 0 0 1 2.5.4v-.8c0-.7-.2-1.3-.6-1.8-.5-.5-1-.7-1.9-.7l-1.3.3a7 7 0 0 0-1.3.7l-.3-.5c1-.7 2-1 3-1s1.8.2 2.4.8c.6.5.8 1.3.8 2.3v4c0 .2.2.3.4.3v.7H129.5c-.2 0-.4 0-.5-.2a.8.8 0 0 1-.3-.5v-.7c-.3.5-.8 1-1.4 1.2a5 5 0 0 1-2 .3Zm.2-.7c.6 0 1.2 0 1.7-.3.5-.2.9-.5 1.2-.9l.2-.6V216a6.6 6.6 0 0 0-2.5-.5c-.4 0-.8 0-1.1.2l-.9.3-.6.6-.2.7a1.8 1.8 0 0 0 .7 1.4c.1.2.4.3.6.4l.9.1ZM135.2 220c-.5 0-1-.2-1.5-.4a4 4 0 0 1-1.3-1l-.8-1.3a4.5 4.5 0 0 1 .8-4.4c.3-.4.7-.7 1.2-1 .5-.2 1-.3 1.6-.3.7 0 1.3.2 1.9.6.5.3 1 .8 1.3 1.3v-1.8h.8v8.3c0 .5-.1 1-.3 1.4a3 3 0 0 1-1 1c-.3.3-.7.5-1.2.6-.4.2-1 .3-1.5.3-.4 0-.9 0-1.3-.2l-1-.3-.8-.6a4 4 0 0 1-.6-.8l.6-.4c.3.6.8 1 1.3 1.2a4.4 4.4 0 0 0 3 .2c.4 0 .8-.2 1-.5l.7-.8c.2-.3.3-.7.3-1.2v-1.7c-.4.5-.8 1-1.4 1.3-.6.3-1.2.4-1.8.4Zm.2-.7 1-.2 1-.5.6-.7.4-.8v-2.7a3.6 3.6 0 0 0-1.3-1.5l-.9-.4-1-.2c-.4 0-.9.1-1.3.3l-1 .8-.6 1.2a3.5 3.5 0 0 0 1.8 4.4c.4.2.9.3 1.3.3ZM145.2 220a4 4 0 0 1-3.8-2.6 4.4 4.4 0 0 1 0-3.3 4.2 4.2 0 0 1 2.2-2.2 4 4 0 0 1 1.6-.3 4 4 0 0 1 3.8 2.6c.2.5.3 1 .3 1.6V216h-7.4c0 .5.2.9.4 1.3l.7 1a3.2 3.2 0 0 0 4.5 0l.5-.6.7.2-.6.8a3.8 3.8 0 0 1-1.8 1l-1.1.1Zm3.3-4.5a3.5 3.5 0 0 0-2.1-3l-1.2-.3a3.1 3.1 0 0 0-2.3 1 3 3 0 0 0-.7 1c-.2.4-.3.8-.3 1.3h6.6ZM163.2 219.8h-.8v-4.5c0-1-.1-1.8-.5-2.3-.3-.4-.8-.7-1.5-.7-.3 0-.6 0-1 .2a3 3 0 0 0-1.5 1.3l-.4 1v5h-.8v-4.5c0-1-.2-1.8-.5-2.3-.3-.4-.8-.7-1.5-.7a2.7 2.7 0 0 0-1.8.7 3.7 3.7 0 0 0-1.1 1.8v5h-.8v-8h.7v1.9a4 4 0 0 1 1.4-1.5c.5-.4 1.1-.6 1.8-.6s1.3.2 1.7.6c.5.4.7 1 .8 1.6.8-1.5 1.9-2.2 3.3-2.2.9 0 1.5.3 2 1 .3.6.5 1.5.5 2.6v4.6ZM169.2 220a4 4 0 0 1-3.8-2.6 4.4 4.4 0 0 1 0-3.3 4.2 4.2 0 0 1 2.1-2.2 4 4 0 0 1 1.7-.3 4 4 0 0 1 3.7 2.6c.2.5.3 1 .3 1.6V216H166c0 .5.2.9.3 1.3a3.5 3.5 0 0 0 1.8 1.7 3 3 0 0 0 2 .1 3.4 3.4 0 0 0 1.5-.8l.4-.6.7.2c0 .3-.3.5-.5.8a3.8 3.8 0 0 1-1.8 1l-1.1.1Zm3.2-4.5a3.5 3.5 0 0 0-2-3 3.1 3.1 0 0 0-3.5.7 3 3 0 0 0-.7 1c-.2.4-.3.8-.3 1.3h6.5ZM181.8 219.8h-.8v-4.5c0-1-.2-1.8-.5-2.3-.3-.4-.8-.7-1.4-.7a3.4 3.4 0 0 0-2 .7 3.7 3.7 0 0 0-1.3 1.8v5h-.8v-8h.7v1.9a3.7 3.7 0 0 1 1.5-1.5 4.4 4.4 0 0 1 2-.6c1 0 1.6.3 2 1 .4.6.6 1.4.6 2.6v4.6ZM187.8 219.4l-.2.1a5.5 5.5 0 0 1-.9.3 3 3 0 0 1-.6 0h-.6l-.6-.3-.3-.4-.1-.7v-6h-1.2v-.7h1.2V209h.8v2.8h1.9v.6h-2v5.9c0 .3.2.5.4.6.2.2.4.3.7.3l.9-.2.4-.2.2.6Z" style="fill:#fff;fill-rule:nonzero" transform="translate(-29.2 -28.3) scale(1.17043)" />
</svg>