<?xml version="1.0" encoding="UTF-8" standalone="no"?>
<!DOCTYPE svg PUBLIC "-//W3C//DTD SVG 1.1//EN" "http://www.w3.org/Graphics/SVG/1.1/DTD/svg11.dtd">
<svg width="100%" height="100%" viewBox="0 0 512 512" version="1.1" xmlns="http://www.w3.org/2000/svg" xmlns:xlink="http://www.w3.org/1999/xlink" xml:space="preserve" xmlns:serif="http://www.serif.com/" style="fill-rule:evenodd;clip-rule:evenodd;stroke-linejoin:round;stroke-miterlimit:2;">
    <g transform="matrix(0.1,0,0,-0.1,0,512)">
        <path d="M0,5120L0,0L5120,0L5120,5120L0,5120ZM2508,2908L2505,2735L2415,2735L2412,2863L2409,2990L2200,2990L2200,2150L2360,2150L2360,2060L1920,2060L1920,2150L2080,2150L2080,2560C2080,2786 2081,2973 2083,2978C2084,2982 2037,2986 1978,2988L1870,2991L1870,2730L1826,2730C1797,2730 1780,2735 1777,2744C1770,2762 1769,3061 1776,3072C1779,3076 1945,3080 2146,3080L2510,3080L2508,2908ZM2802,2693L2805,2305L2835,2245C2853,2209 2878,2176 2898,2163C2970,2116 3091,2125 3150,2183C3223,2255 3230,2301 3230,2732L3230,3080L3341,3080L3338,2683C3335,2299 3334,2283 3313,2230C3282,2153 3239,2106 3172,2073C3121,2048 3105,2045 3010,2045C2916,2045 2900,2048 2855,2072C2757,2124 2706,2210 2690,2352C2679,2442 2677,3064 2687,3074C2691,3077 2717,3080 2746,3080L2799,3080L2802,2693Z" style="fill:white;fill-rule:nonzero;"/>
    </g>
</svg>
