<?xml version="1.0" encoding="UTF-8"?>
<svg version="1.1" xmlns="http://www.w3.org/2000/svg" width="256" height="256">
  <path
    d="M0 0 C84.48 0 168.96 0 256 0 C256 84.48 256 168.96 256 256 C171.52 256 87.04 256 0 256 C0 171.52 0 87.04 0 0 Z M47 79 C47.58150302 83.59257282 48.42684199 87.91662768 49.71484375 92.36132812 C50.06611328 93.5821106 50.41738281 94.80289307 50.77929688 96.06066895 C51.16526874 97.38422392 51.55133935 98.7077501 51.9375 100.03125 C52.34090032 101.42659995 52.74388625 102.82206975 53.14648438 104.21765137 C54.21073784 107.90258398 55.2806399 111.58585306 56.35174561 115.26879883 C57.40587453 118.89696349 58.45466806 122.5266686 59.50390625 126.15625 C61.78488702 134.04281363 64.07370135 141.9270907 66.36413574 149.81091309 C67.64897949 154.23423865 68.93265962 158.65790203 70.21652222 163.08151245 C72.14365104 169.72121097 74.07192376 176.36057618 76 183 C89.2 183 102.4 183 116 183 C120.23254568 168.38763993 124.22427151 153.73667232 128 139 C129.3799897 141.60664469 130.39335801 144.05659995 131.12915039 146.91064453 C131.32597916 147.6646756 131.52280792 148.41870667 131.7256012 149.19558716 C131.93087936 149.99987152 132.13615753 150.80415588 132.34765625 151.6328125 C132.67279457 152.88238235 132.67279457 152.88238235 133.00450134 154.15719604 C133.69472762 156.81205606 134.37899696 159.46840183 135.0625 162.125 C135.7503497 164.78852692 136.43948625 167.45170386 137.13121033 170.11422729 C137.56103031 171.76962145 137.98848043 173.42563308 138.41334534 175.08230591 C139.42631402 179.14070541 139.42631402 179.14070541 141 183 C153.87 183 166.74 183 180 183 C182.54633283 177.09033053 182.54633283 177.09033053 184.52709961 171.09838867 C184.78885986 170.19195618 185.05062012 169.28552368 185.3203125 168.35162354 C185.73216797 166.89946442 185.73216797 166.89946442 186.15234375 165.41796875 C186.59719116 163.87045929 186.59719116 163.87045929 187.05102539 162.29168701 C188.0176537 158.92488744 188.97774704 155.55626532 189.9375 152.1875 C190.60390139 149.85935713 191.27065269 147.53131438 191.93774414 145.20336914 C193.29674512 140.45850238 194.65310648 135.71289155 196.0078125 130.96679688 C197.58878455 125.43186051 199.17999708 119.89996155 200.77757263 114.36979675 C201.90290674 110.47428619 203.02510549 106.57787664 204.14675903 102.68130493 C204.67249352 100.8570503 205.19940382 99.03313409 205.72750854 97.20956421 C206.45619739 94.69155006 207.17991047 92.17215856 207.90234375 89.65234375 C208.11721436 88.91417419 208.33208496 88.17600464 208.5534668 87.41546631 C209.38276123 84.50711892 210 82.04157938 210 79 C196.8 79 183.6 79 170 79 C168.58203093 82.54492267 167.6049236 85.3299225 166.85498047 88.97387695 C166.65492401 89.93449539 166.45486755 90.89511383 166.24874878 91.88484192 C166.04033356 92.9089769 165.83191833 93.93311188 165.6171875 94.98828125 C165.39805695 96.04661667 165.17892639 97.10495209 164.95315552 98.19535828 C164.25611136 101.56686327 163.56547562 104.93964431 162.875 108.3125 C162.40276604 110.60230067 161.93011463 112.8920153 161.45703125 115.18164062 C160.29984653 120.78677193 159.14791677 126.39296373 158 132 C154.16141076 118.77410442 150.52071941 105.52211864 147.16381836 92.16650391 C146.65759761 90.15715349 146.14732147 88.1488655 145.63671875 86.140625 C145.19912231 84.40087402 145.19912231 84.40087402 144.75268555 82.62597656 C144.25699183 80.09535773 144.25699183 80.09535773 143 79 C140.85441173 78.91224395 138.70595579 78.89304781 136.55859375 78.90234375 C135.25341797 78.90556641 133.94824219 78.90878906 132.60351562 78.91210938 C131.2148431 78.92046599 129.82617123 78.92893095 128.4375 78.9375 C127.04492344 78.94251334 125.65234519 78.94707653 124.25976562 78.95117188 C120.8398013 78.96300566 117.41992156 78.9794912 114 79 C111.93378638 84.30080203 110.2076375 89.53961502 108.80859375 95.05078125 C108.61781754 95.79023483 108.42704132 96.52968842 108.23048401 97.29154968 C107.83094375 98.84477384 107.43358404 100.39856043 107.03833008 101.95288086 C106.44126743 104.29770431 105.83541307 106.64012711 105.22851562 108.98242188 C103.18111555 116.94432215 101.28232869 124.8711705 100 133 C99.34 133 98.68 133 98 133 C97.9700293 132.18523193 97.9700293 132.18523193 97.93945312 131.35400391 C97.33664031 121.8187703 95.1684117 112.59029025 93.13427734 103.28076172 C92.49432257 100.34899049 91.86560274 97.41496642 91.23828125 94.48046875 C90.83658853 92.61965101 90.43426809 90.75896864 90.03125 88.8984375 C89.84268433 88.01940765 89.65411865 87.14037781 89.45983887 86.23471069 C88.89863612 82.29715501 88.89863612 82.29715501 87 79 C84.04294679 78.91131701 81.10934944 78.88479704 78.15234375 78.90234375 C77.2659169 78.9037587 76.37949005 78.90517365 75.46620178 78.90663147 C72.62326746 78.91224785 69.78041069 78.92480309 66.9375 78.9375 C65.01497509 78.94251289 63.09244896 78.94707616 61.16992188 78.95117188 C56.44658451 78.96222259 51.72330542 78.97949817 47 79 Z "
    fill="#fff" />
</svg>