<svg width="254" height="257" viewBox="0 0 254 257" fill="none" xmlns="http://www.w3.org/2000/svg">
<path d="M198.048 4H56.1078C27.3295 4 4 27.3388 4 56.1287V200.676C4 229.465 27.3295 252.804 56.1078 252.804H198.048C226.827 252.804 250.156 229.465 250.156 200.676V56.1287C250.156 27.3388 226.827 4 198.048 4Z" fill="#48484A" stroke="#48484A" stroke-width="6.41391" stroke-miterlimit="10"/>
<path d="M50.0594 43.1885H203.428C210.928 43.1885 217.008 49.2709 217.008 56.7741V91.7074C217.008 99.2106 210.928 105.293 203.428 105.293H50.0594C42.5595 105.293 36.4794 99.2106 36.4794 91.7074V56.7741C36.4794 49.2709 42.5595 43.1885 50.0594 43.1885Z" fill="white" stroke="white" stroke-width="0.427594"/>
<path d="M84.6543 51.3619H52.6246C49.0738 51.3619 46.1953 54.2416 46.1953 57.7938V89.8363C46.1953 93.3886 49.0738 96.2682 52.6246 96.2682H84.6543C88.2051 96.2682 91.0836 93.3886 91.0836 89.8363V57.7938C91.0836 54.2416 88.2051 51.3619 84.6543 51.3619Z" fill="#48484A"/>
<path d="M143.576 51.8298H111.547C107.996 51.8298 105.117 54.7095 105.117 58.2617V90.3042C105.117 93.8565 107.996 96.7361 111.547 96.7361H143.576C147.127 96.7361 150.005 93.8565 150.005 90.3042V58.2617C150.005 54.7095 147.127 51.8298 143.576 51.8298Z" fill="#48484A"/>
<path d="M201.084 51.8298H169.054C165.504 51.8298 162.625 54.7095 162.625 58.2617V90.3042C162.625 93.8565 165.504 96.7361 169.054 96.7361H201.084C204.635 96.7361 207.513 93.8565 207.513 90.3042V58.2617C207.513 54.7095 204.635 51.8298 201.084 51.8298Z" fill="#48484A"/>
<path d="M68.176 160.891C77.3126 160.891 84.7192 153.482 84.7192 144.341C84.7192 135.201 77.3126 127.792 68.176 127.792C59.0395 127.792 51.6328 135.201 51.6328 144.341C51.6328 153.482 59.0395 160.891 68.176 160.891Z" fill="#48484A" stroke="white" stroke-width="5.55872" stroke-miterlimit="10"/>
<path d="M128.014 162.15C137.329 162.15 144.88 154.595 144.88 145.277C144.88 135.959 137.329 128.404 128.014 128.404C118.7 128.404 111.148 135.959 111.148 145.277C111.148 154.595 118.7 162.15 128.014 162.15Z" fill="#48484A" stroke="white" stroke-width="5.55872" stroke-miterlimit="10"/>
<path d="M186.153 161.827C195.289 161.827 202.696 154.417 202.696 145.277C202.696 136.137 195.289 128.727 186.153 128.727C177.016 128.727 169.609 136.137 169.609 145.277C169.609 154.417 177.016 161.827 186.153 161.827Z" fill="#48484A" stroke="white" stroke-width="5.55872" stroke-miterlimit="10"/>
</svg>
